<svg width="109" height="146" viewBox="0 0 109 146" fill="none" xmlns="http://www.w3.org/2000/svg">
<g opacity="0.6" clip-path="url(#clip0_64_350)">
<path d="M106.473 30.8455C106.134 30.8455 105.795 30.9025 105.442 30.9879L100.487 43.1154C100.981 43.272 101.687 43.6421 101.899 44.553C101.913 45.1224 101.871 45.6918 101.758 46.2469C101.56 47.2718 100.656 48.5529 99.88 49.2503C99.3717 49.7058 98.4682 50.3464 97.7765 50.3464C97.6918 50.3464 97.6212 50.3321 97.5365 50.3179L94.6989 57.2642C94.7271 57.378 94.7554 57.4919 94.7836 57.6058V57.62C94.8401 57.8762 94.8966 58.1894 94.9248 58.5025C95.1365 60.7515 94.3883 63.0575 94.0636 65.3207C93.9083 66.431 93.8378 67.584 93.3295 68.5803C92.8919 69.4344 92.0166 70.1319 91.099 70.1319C90.9437 70.1319 90.7884 70.1176 90.6331 70.0749C90.9437 70.4023 91.1696 70.7724 91.3249 71.171C91.5366 71.5411 91.6919 72.0392 91.6496 72.694C91.706 73.5623 91.5931 74.4591 91.3954 75.2989C90.8449 77.6191 89.6872 79.9819 87.5696 81.078C86.525 81.6189 85.3391 81.8039 84.1956 82.0743C83.8144 82.174 83.4192 82.2736 83.0521 82.3875C83.0098 83.5689 82.7133 86.188 82.1062 89.4619C82.6003 89.7608 83.1933 90.2875 83.5603 91.17C83.6027 91.2554 83.645 91.3408 83.6591 91.4262C84.0403 92.5649 84.0827 94.2303 83.2074 96.6502L83.1086 96.9348C82.9956 97.2907 82.6709 98.2729 82.1768 99.6963V99.7105C81.4851 101.661 80.4686 104.436 79.1698 107.511L79.1557 107.539C76.6005 113.589 73.0147 120.848 68.8783 125.517L66.8877 127.823V127.51C65.7584 128.506 64.5866 129.275 63.3866 129.759C63.3866 129.759 63.3584 129.773 63.3019 129.787L63.0761 129.887V129.844C62.949 129.873 62.7796 129.887 62.582 129.887C62.0878 129.887 61.4384 129.745 60.902 129.147C60.5773 129.246 60.2385 129.303 59.9138 129.303C59.6455 129.303 59.3632 129.261 59.095 129.175C59.3773 131.752 59.8432 133.303 59.8432 133.303C60.6902 135.253 61.7914 135.951 62.949 135.951C65.9136 135.951 69.2171 131.31 69.2171 131.31L78.4498 116.023C84.1956 106.344 86.1579 90.6149 86.0732 88.5509C85.9885 86.4869 86.6944 85.277 86.6944 85.277C89.0237 84.7361 90.5484 81.3911 90.5484 81.3911L108.576 37.2651C110.101 31.1302 106.515 30.8313 106.515 30.8313C106.529 30.8455 106.501 30.8455 106.473 30.8455ZM99.4706 52.937C98.7506 52.937 98.4118 52.1256 98.6941 51.0581C98.8635 50.4175 100.176 49.2361 100.967 49.2361C101.122 49.2361 101.263 49.2788 101.376 49.3927C101.475 49.4923 101.532 49.6347 101.56 49.8482C101.631 50.3179 101.447 50.93 101.292 51.3712C101.122 51.8267 100.882 52.2395 100.487 52.5242C100.092 52.8089 99.7529 52.937 99.4706 52.937ZM71.49 126.3L71.2641 126.257C71.0665 126.172 70.9112 125.958 70.8406 125.745C70.643 125.175 70.6712 124.549 70.9535 124.008C71.0524 123.795 71.2782 123.624 71.5041 123.624C71.5465 123.624 71.6029 123.638 71.6453 123.652C71.8288 123.724 71.9276 123.923 71.9982 124.122C72.1394 124.506 72.1959 124.933 72.1676 125.346C72.1535 125.56 72.1253 125.788 72.0123 125.973C71.9135 126.158 71.7159 126.3 71.49 126.3ZM67.4807 129.972C66.8736 129.972 66.436 129.446 66.5489 128.834C66.5489 128.834 66.7325 127.823 67.5654 127.823C67.7207 127.823 67.8901 127.851 68.0877 127.937C68.7089 128.179 68.4406 129.417 68.003 129.802L67.8195 129.915C67.7066 129.958 67.5795 129.972 67.4807 129.972ZM65.0948 133.132C65.0948 133.132 62.9631 132.677 64.0925 130.727C64.0925 130.727 64.5584 130.2 65.2219 130.2C65.4901 130.2 65.7725 130.271 66.0831 130.499C66.0972 130.513 67.5936 132.634 65.0948 133.132ZM49.594 39.201C49.9893 40.3397 50.3422 41.4785 50.5963 42.6172L60.2808 75.3701C60.2808 75.3701 60.7608 76.8646 60.6902 78.9855C60.7749 79.1421 60.8596 79.2987 60.9302 79.441C60.9302 79.441 62.1302 81.8751 62.342 84.4088C62.6102 83.4408 62.8784 82.3306 63.0761 81.3057L53.6033 49.2503C52.8269 45.8199 51.3304 42.361 49.594 39.201ZM9.67015 79.9819C10.009 81.5192 10.5172 82.8288 11.0395 83.9106C11.5336 83.028 11.6183 81.9462 10.4466 80.8929C10.4466 80.9072 10.136 80.594 9.67015 79.9819ZM56.4833 110.315L36.4507 136.193C36.4507 136.193 33.9661 138.043 30.9873 138.043C30.4368 138.043 29.8579 137.986 29.2791 137.83C29.2227 137.815 29.1662 137.801 29.0956 137.787C28.5027 137.616 27.9098 137.346 27.3309 136.961C26.0745 137.516 24.691 137.929 23.1946 138.043C23.2369 138.314 23.2228 138.598 23.0816 138.883C23.0816 138.883 22.7993 140.036 21.8817 140.036C21.8252 140.036 21.7828 140.036 21.7264 140.022C21.7264 140.022 21.5993 140.05 21.4017 140.05C20.8793 140.05 19.9052 139.808 19.8346 138.029C19.8346 138.029 19.8629 137.929 19.9052 137.801C19.5099 137.716 19.1005 137.602 18.6911 137.46C18.8182 137.687 18.8888 137.986 18.8605 138.385C18.8605 138.385 18.9452 140.378 17.2229 140.378C17.0253 140.378 16.8135 140.349 16.5735 140.306C15.3171 140.022 15.2041 138.94 15.6418 138.043C15.9241 137.46 16.4606 136.961 17.0818 136.791C17.0818 136.791 17.0676 136.791 17.0676 136.776L15.4724 135.865C15.3453 136.506 14.9783 137.289 14.0324 137.36C13.9195 138.371 13.6089 139.324 12.8324 139.324C12.7901 139.324 12.7336 139.324 12.6913 139.31L14.7524 141.16C14.0606 145.559 15.0912 145.972 15.5006 145.972C15.5994 145.972 15.6559 145.943 15.6559 145.943C15.7265 145.957 15.7971 145.957 15.8535 145.957C17.477 145.957 17.0676 141.687 17.0676 141.687L20.0887 143.409C21.9099 144.32 23.6746 144.691 25.3263 144.691C32.1873 144.691 37.1425 138.342 37.1425 138.342L51.754 119.169C51.3728 122.457 52.8269 122.784 52.8269 122.784C54.3092 122.599 54.5351 119.895 54.8315 118.841C55.1421 117.802 55.495 116.777 55.8621 115.752C55.9044 115.639 55.9468 115.525 55.9892 115.425C56.0597 114.486 56.1727 113.518 56.328 112.507L56.4833 110.315ZM27.2462 143.153C26.9074 143.153 26.5121 143.068 26.0604 142.883C26.0604 142.883 25.3263 142.128 26.0604 140.918C26.0604 140.918 26.8792 140.235 26.8792 139.182C26.8792 139.182 26.8792 138.399 27.7403 138.342C27.7403 138.342 27.8956 138.257 28.1215 138.257C28.545 138.257 29.1803 138.57 29.3215 140.392C29.3215 140.378 29.2085 143.153 27.2462 143.153ZM31.3685 140.719C31.1003 140.719 30.8179 140.691 30.5638 140.62C30.3097 140.563 30.0415 140.449 29.9427 140.207V139.808C30.0132 139.552 30.2109 139.353 30.4509 139.225L30.5215 139.182C30.7897 139.068 31.072 139.025 31.3685 138.997C31.4109 138.997 31.4532 138.997 31.4956 138.997C32.1732 138.997 33.2038 139.31 32.7097 140.235C32.5685 140.491 32.2579 140.605 31.9755 140.648C31.7638 140.691 31.5661 140.719 31.3685 140.719ZM22.2205 143.196C22.0087 143.196 21.7687 143.182 21.5146 143.153C21.5146 143.153 19.6511 142.655 19.8205 141.289C19.9193 140.434 20.9076 140.221 21.5993 140.136C21.9946 140.079 22.4322 140.15 22.8134 140.064C23.3216 139.951 23.3216 139.481 23.6887 139.324C23.6887 139.324 24.0275 139.182 24.3804 139.182C24.8463 139.182 25.3263 139.452 25.0439 140.705C25.0298 140.691 25.1004 143.196 22.2205 143.196ZM4.61614 126.627C4.54555 127.581 4.72908 128.563 5.03966 129.474C5.25142 130.1 5.57612 130.684 5.9714 131.239C6.23963 130.997 6.63492 130.869 7.03021 130.798C6.11258 130.399 5.49141 129.076 5.2373 128.179C5.13848 127.837 5.09613 127.51 5.11025 127.197C4.94084 126.997 4.78555 126.812 4.61614 126.627ZM9.23251 132.421C8.92193 132.421 8.34312 132.563 8.17371 132.577C7.90548 132.606 7.55255 132.691 7.1855 132.748C7.73607 133.389 8.28665 134.015 8.75252 134.67C9.37368 135.566 9.98073 136.463 10.5737 137.374C9.76897 137.431 8.63958 137.659 8.63958 138.669C8.63958 139.296 9.03487 139.467 9.52898 139.467C10.0796 139.467 10.7572 139.267 11.2089 139.225C11.336 139.21 11.6607 139.139 11.9572 139.096C11.576 138.669 11.2513 137.516 11.7172 134.527L9.40192 132.449C9.37368 132.421 9.31721 132.421 9.23251 132.421Z" fill="#BBBEDF"/>
<path d="M56.6669 104.536C56.328 104.607 56.0175 104.806 56.0175 104.806C55.7916 104.906 54.8316 105.974 53.4057 107.667C53.2222 108.166 53.0246 108.664 52.8552 109.162C52.4881 110.173 52.1352 111.197 51.8246 112.251C51.514 113.29 51.2881 115.994 49.8199 116.179C49.8199 116.179 48.62 115.909 48.6764 113.432C40.7566 123.225 29.3357 137.858 29.3357 137.858C29.3216 137.858 29.3074 137.844 29.2933 137.844C29.8721 138 30.4368 138.057 31.0015 138.057C33.9944 138.057 36.479 136.207 36.479 136.207L56.4833 110.315L56.8504 104.963C56.8363 104.963 56.7798 104.764 56.6669 104.536ZM27.3592 136.933C27.3451 136.933 27.331 136.947 27.3169 136.947C27.8957 137.331 28.4886 137.602 29.0816 137.773C28.5592 137.602 27.7969 137.189 27.3592 136.933Z" fill="#BBBEDF"/>
<path d="M82.1208 89.4761C82.0926 89.6042 82.0784 89.7181 82.0502 89.8462C82.1208 89.7608 82.1914 89.6611 82.262 89.5615C82.262 89.5615 83.2219 90.444 83.5749 91.1699C83.2078 90.3017 82.6149 89.775 82.1208 89.4761ZM83.6737 91.4404C83.6737 91.4546 83.6737 91.4546 83.6737 91.4546C83.6737 91.4546 82.7702 92.2802 81.3867 93.0489C81.0479 94.5434 80.6526 96.1234 80.2008 97.7034C81.1749 97.5753 82.2337 97.2479 83.2643 96.5362L83.2219 96.6501C84.0972 94.2445 84.0549 92.5791 83.6737 91.4404ZM83.1231 96.9348L82.1914 99.6962C82.6996 98.287 83.0102 97.3049 83.1231 96.9348ZM82.1914 99.7105C82.1773 99.7105 80.9067 99.8955 79.5232 99.9524C78.775 102.287 77.8997 104.593 76.8691 106.742C77.095 107.183 77.5468 107.625 78.4079 107.625C78.6338 107.625 78.8879 107.596 79.1844 107.525C80.4832 104.436 81.4996 101.661 82.1914 99.7105ZM79.1703 107.553L77.8432 110.571L76.1068 108.222C75.895 108.621 75.6692 109.005 75.4433 109.39L73.9186 111.909L74.1445 117.887L72.1681 121.147V114.799L69.0764 119.923L68.9634 125.432L68.8928 125.517C73.0292 120.848 76.6292 113.603 79.1703 107.553ZM66.9446 123.453L66.2106 124.677C66.2106 124.677 65.8011 125.261 65.1235 126.015L65.1518 128.549L64.093 129.446L63.3165 129.787C63.373 129.773 63.4012 129.759 63.4012 129.759C64.5871 129.275 65.7588 128.506 66.9023 127.51L66.9446 123.453ZM63.1189 127.937C62.4271 128.478 61.6789 128.933 60.9307 129.161C61.4671 129.759 62.1165 129.901 62.6106 129.901C62.8083 129.901 62.9777 129.873 63.1047 129.858L63.1189 127.937Z" fill="#BBBEDF"/>
<path d="M60.7044 78.9998C60.6621 80.5086 60.3374 82.3448 59.3774 84.1525C59.3774 84.1525 59.3774 84.1668 59.3633 84.181C59.6456 84.5938 59.9421 84.9923 60.2244 85.4051C60.6338 86.003 61.1562 86.6577 61.5091 87.3552C61.5232 87.3125 61.5373 87.2841 61.5515 87.2413C61.5515 87.2413 61.9467 86.0172 62.3703 84.4372C62.1444 81.9035 60.9585 79.4695 60.9585 79.4695C60.8738 79.3129 60.7891 79.1563 60.7044 78.9998ZM58.7139 87.8961L58.855 89.2199C58.855 89.2199 58.8974 89.2199 58.9539 89.2199C59.0809 89.2199 59.3068 89.2057 59.575 89.1345C59.3915 88.8498 59.095 88.4228 58.7139 87.8961Z" fill="#BBBEDF"/>
<path d="M94.6991 57.2642C94.7274 57.378 94.7556 57.4919 94.798 57.62V57.6058C94.7697 57.4919 94.7415 57.378 94.6991 57.2642ZM94.925 58.5025C94.925 58.531 94.925 58.5452 94.925 58.5737L93.6262 59.869L89.3345 70.3738L90.4075 70.2742C90.4075 70.2742 90.958 70.5304 91.3251 71.1852C91.1698 70.7866 90.9439 70.4165 90.6333 70.0892C90.7886 70.1319 90.9439 70.1461 91.0992 70.1461C92.0168 70.1461 92.8921 69.4344 93.3298 68.5946C93.838 67.5982 93.9086 66.4452 94.0639 65.3349C94.4027 63.0575 95.1509 60.7658 94.925 58.5025ZM91.6639 72.694V72.7083L88.3604 72.751L87.5416 74.7437C87.5416 74.7437 86.017 78.0888 83.6876 78.6297C83.6876 78.6297 82.9676 79.8538 83.0664 81.9035C83.0664 82.0174 83.0664 82.174 83.0664 82.3733C83.4476 82.2594 83.8288 82.1597 84.21 82.0601C85.3535 81.7897 86.5393 81.6046 87.584 81.0637C89.6875 79.9677 90.8592 77.6048 91.4098 75.2846C91.6074 74.4591 91.7345 73.5623 91.6639 72.694Z" fill="#BBBEDF"/>
<path d="M59.3634 84.1809C59.2222 84.366 58.347 85.6755 58.6858 87.4975L58.7281 87.896C59.0952 88.4227 59.3916 88.8497 59.5893 89.1344C60.1681 88.9778 60.9728 88.5366 61.5092 87.3409C61.1563 86.6434 60.634 85.9887 60.2246 85.3908C59.9422 84.9923 59.6457 84.5795 59.3634 84.1809Z" fill="#BBBEDF"/>
<path d="M94.7981 57.6199C94.8687 57.9188 94.911 58.2035 94.9393 58.5024C94.911 58.1892 94.8546 57.8761 94.7981 57.6199ZM91.3394 71.185C91.537 71.6548 91.6358 72.1672 91.6641 72.7081C91.7064 72.0533 91.5511 71.5551 91.3394 71.185Z" fill="#BBBEDF"/>
<path d="M94.6991 57.2783L93.6403 59.8832L94.9391 58.5879C94.9391 58.5594 94.9391 58.5452 94.9391 58.5167C94.9108 58.2178 94.8685 57.9189 94.7979 57.6342C94.7697 57.4918 94.7273 57.378 94.6991 57.2783ZM90.4215 70.2741L89.3486 70.3738L88.3745 72.7651L91.678 72.7224V72.7082C91.6356 72.1815 91.5368 71.6548 91.3392 71.1851C90.9721 70.5303 90.4215 70.2741 90.4215 70.2741Z" fill="#BBBEDF"/>
<path d="M29.0957 137.787C29.1522 137.801 29.2228 137.83 29.2792 137.844C29.2086 137.815 29.1522 137.801 29.0957 137.787Z" fill="#BBBEDF"/>
<path d="M55.8623 103.881C55.467 103.881 54.9447 104.251 54.2811 105.418C53.9706 106.159 53.6741 106.913 53.3918 107.667C54.8176 105.974 55.7776 104.92 56.0035 104.806C56.0035 104.806 56.314 104.607 56.6529 104.536C56.5117 104.223 56.2435 103.881 55.8623 103.881ZM48.7189 112.55L34.1075 131.723C34.1075 131.723 31.4675 135.111 27.3594 136.933C27.7829 137.175 28.5452 137.602 29.0958 137.773C29.1523 137.787 29.2087 137.801 29.2793 137.83C29.2935 137.83 29.3076 137.844 29.3217 137.844C29.3217 137.844 40.7426 123.211 48.6483 113.418C48.6624 113.162 48.6907 112.863 48.7189 112.55Z" fill="#BBBEDF"/>
<path d="M83.2217 96.6643C83.2075 96.707 83.1934 96.7497 83.1793 96.7924C83.1793 96.7924 83.1652 96.8493 83.137 96.9489L83.2217 96.6643ZM79.1841 107.525C79.1841 107.539 79.17 107.539 79.17 107.553L79.1841 107.525ZM68.8926 125.531C68.2432 126.271 67.5796 126.94 66.902 127.524V127.837L68.8926 125.531ZM63.3162 129.801C63.2597 129.816 63.1892 129.844 63.0903 129.858V129.901L63.3162 129.801Z" fill="#BBBEDF"/>
<path d="M82.2617 89.5615C82.1911 89.6612 82.1205 89.7466 82.0499 89.8462C81.8664 90.8568 81.6405 91.9386 81.3864 93.0489C82.7699 92.2803 83.6734 91.4547 83.6734 91.4547V91.4404C83.6452 91.355 83.617 91.2696 83.5746 91.1842C83.2217 90.4583 82.2617 89.5615 82.2617 89.5615ZM83.264 96.5363C82.2334 97.248 81.1747 97.5754 80.2006 97.7035C79.9888 98.4437 79.7629 99.1981 79.5229 99.9525C80.8923 99.9098 82.177 99.7247 82.1911 99.7105V99.6963L83.1228 96.9348C83.1511 96.8352 83.1652 96.7783 83.1652 96.7783C83.1793 96.7356 83.1934 96.6929 83.2075 96.6502L83.264 96.5363ZM76.8689 106.728C76.6289 107.24 76.3748 107.739 76.1065 108.223L77.843 110.571L79.17 107.554C79.17 107.539 79.1841 107.539 79.1841 107.525C78.9018 107.596 78.6335 107.625 78.4077 107.625C77.5324 107.61 77.0947 107.183 76.8689 106.728ZM73.9325 111.909L72.1819 114.799V121.147L74.1583 117.888L73.9325 111.909ZM69.0761 119.923L66.9444 123.453L66.8879 127.524C67.5655 126.926 68.229 126.257 68.8784 125.531L68.949 125.446L69.0761 119.923ZM65.1232 126.015C64.5868 126.613 63.895 127.325 63.1186 127.937L63.0903 129.858C63.1892 129.844 63.2739 129.816 63.3162 129.802L64.0927 129.46L65.1515 128.549L65.1232 126.015Z" fill="#BBBEDF"/>
<path d="M5.09619 127.197C5.09619 127.524 5.12443 127.851 5.22325 128.179C5.47736 129.075 6.09852 130.399 7.01615 130.798C7.19968 130.769 7.3832 130.741 7.55261 130.741C6.95968 129.83 6.35263 128.919 5.73147 128.036C5.53383 127.737 5.32207 127.467 5.09619 127.197Z" fill="#BBBEDF"/>
<path d="M14.0327 135.068C14.0327 135.068 14.1456 136.25 14.0186 137.374C14.9785 137.303 15.3315 136.52 15.4585 135.879L14.0327 135.068Z" fill="#BBBEDF"/>
<path d="M17.0817 136.805C16.4606 136.961 15.9382 137.474 15.6418 138.057C15.19 138.954 15.3171 140.022 16.5735 140.321C16.8135 140.377 17.0253 140.406 17.2229 140.406C18.9452 140.406 18.8605 138.413 18.8605 138.413C18.8888 138.015 18.8182 137.716 18.6911 137.488C18.1547 137.289 17.6182 137.075 17.0817 136.805Z" fill="#BBBEDF"/>
<path d="M19.9055 137.815C19.849 137.958 19.8208 138.043 19.8208 138.043C19.9055 139.822 20.8655 140.064 21.3878 140.064C21.5855 140.064 21.7125 140.036 21.7125 140.036C21.769 140.05 21.8255 140.05 21.8678 140.05C22.7854 140.05 23.0678 138.883 23.0678 138.883C23.209 138.598 23.2231 138.299 23.1807 138.043C22.8984 138.057 22.6019 138.072 22.2913 138.072C21.5149 138.072 20.7243 137.986 19.9055 137.815Z" fill="#BBBEDF"/>
<path d="M24.3666 139.167C24.0136 139.167 23.6748 139.324 23.6748 139.324C23.3219 139.481 23.3219 139.95 22.7995 140.064C22.4184 140.15 21.9807 140.093 21.5996 140.135C20.9078 140.221 19.9196 140.434 19.8208 141.288C19.6655 142.655 21.5149 143.153 21.5149 143.153C21.769 143.182 21.9949 143.196 22.2207 143.196C25.1007 143.196 25.0301 140.691 25.0301 140.691C25.3124 139.438 24.8324 139.167 24.3666 139.167Z" fill="#BBBEDF"/>
<path d="M28.1218 138.257C27.91 138.257 27.7406 138.342 27.7406 138.342C26.8794 138.399 26.8795 139.182 26.8795 139.182C26.8795 140.235 26.0606 140.918 26.0606 140.918C25.3265 142.143 26.0606 142.883 26.0606 142.883C26.5124 143.082 26.9077 143.153 27.2465 143.153C29.1947 143.153 29.3218 140.392 29.3218 140.392C29.1806 138.556 28.5453 138.257 28.1218 138.257Z" fill="#BBBEDF"/>
<path d="M31.4816 138.997C31.4393 138.997 31.3969 138.997 31.3546 138.997C31.0722 139.011 30.7758 139.054 30.5075 139.182L30.4369 139.225C30.2111 139.353 29.9993 139.552 29.9287 139.808V140.207C30.0275 140.449 30.3099 140.563 30.5499 140.62C30.8181 140.676 31.0863 140.719 31.3546 140.719C31.5522 140.719 31.7498 140.705 31.9475 140.662C32.2298 140.605 32.5404 140.506 32.6816 140.249C33.1898 139.31 32.1734 138.997 31.4816 138.997Z" fill="#BBBEDF"/>
<path d="M65.2363 130.214C64.5586 130.214 64.1069 130.741 64.1069 130.741C62.9775 132.677 65.1092 133.147 65.1092 133.147C67.608 132.648 66.1115 130.513 66.1115 130.513C65.7868 130.3 65.4904 130.214 65.2363 130.214Z" fill="#BBBEDF"/>
<path d="M67.5514 127.837C66.7185 127.837 66.535 128.834 66.535 128.848C66.422 129.46 66.8738 129.987 67.4667 129.987C67.5797 129.987 67.6926 129.972 67.8055 129.93L67.9749 129.816C68.4126 129.417 68.6808 128.193 68.0596 127.951C67.8761 127.866 67.7067 127.837 67.5514 127.837Z" fill="#BBBEDF"/>
<path d="M71.5044 123.624C71.2785 123.624 71.0667 123.809 70.9538 124.008C70.6856 124.549 70.6432 125.175 70.8409 125.745C70.9114 125.958 71.0667 126.172 71.2644 126.257L71.4902 126.3C71.702 126.3 71.8996 126.143 72.0126 125.958C72.1255 125.773 72.1538 125.545 72.1679 125.332C72.182 124.919 72.1255 124.506 71.9985 124.108C71.9279 123.923 71.8291 123.723 71.6455 123.638C71.6032 123.624 71.5608 123.624 71.5044 123.624Z" fill="#BBBEDF"/>
<path d="M100.487 43.1152L97.5508 50.3177C97.6214 50.332 97.7061 50.3462 97.7908 50.3462C98.4825 50.3462 99.4002 49.7057 99.8943 49.2502C100.657 48.5527 101.56 47.2716 101.772 46.2468C101.885 45.6916 101.927 45.1223 101.913 44.5529C101.687 43.6419 100.967 43.2718 100.487 43.1152Z" fill="#BBBEDF"/>
<path d="M100.953 49.2361C100.163 49.2361 98.8497 50.4318 98.6803 51.0723C98.398 52.1256 98.7368 52.9512 99.4568 52.9512C99.7391 52.9512 100.078 52.8231 100.473 52.5384C100.869 52.2537 101.109 51.8267 101.278 51.3854C101.433 50.9442 101.617 50.3321 101.546 49.8624C101.518 49.6489 101.447 49.5065 101.349 49.4069C101.264 49.2788 101.123 49.2361 100.953 49.2361Z" fill="#BBBEDF"/>
<path d="M6.83278 27.5289C6.83278 27.5289 5.67516 12.4264 10.0233 5.8787C10.0233 5.8787 14.1879 -7.27368 24.9594 5.7933L37.1427 19.3158C37.1427 19.3158 47.9142 30.9451 50.6107 42.6314L60.2952 75.3842C60.2952 75.3842 61.6928 79.811 59.3775 84.1525C59.3775 84.1525 58.3187 85.5047 58.6717 87.4975L58.8552 89.2198C58.8552 89.2198 60.6481 89.4049 61.5516 87.2271C61.5516 87.2271 62.808 83.3411 63.2598 80.537C63.2598 80.537 63.4433 76.7365 65.0527 75.8397L95.2779 29.9914C95.2779 29.9914 99.9366 24.1127 103.537 24.1981C103.537 24.1981 107.122 24.497 105.598 30.6319L87.5699 74.7579C87.5699 74.7579 86.0452 78.1029 83.7158 78.6438C83.7158 78.6438 82.9958 79.868 83.0947 81.9177C83.1794 83.9817 81.2171 99.7104 75.4713 109.39L66.2103 124.677C66.2103 124.677 59.8434 133.63 56.8364 126.67C56.8364 126.67 55.0576 120.606 56.3282 112.564L56.8364 104.963C56.8364 104.963 56.0741 102.244 54.2812 105.418C53.7729 106.657 53.293 107.909 52.8412 109.162C52.4741 110.173 52.1212 111.197 51.8106 112.237C51.5001 113.29 51.2742 115.98 49.806 116.179C49.806 116.179 48.3519 115.852 48.7331 112.564L34.1075 131.723C34.1075 131.723 26.47 141.488 17.0537 136.79L14.0326 135.082C14.0326 135.082 14.4703 139.694 12.6209 139.338C12.6209 139.338 10.8562 139.979 11.7174 134.541L9.40214 132.463C9.26096 132.335 8.38569 132.563 8.17393 132.591C7.32689 132.677 5.60457 133.346 5.60457 132.05C5.60457 131.04 6.73396 130.798 7.53865 130.755C6.94572 129.844 6.33867 128.933 5.71751 128.036C4.53165 126.328 2.66816 124.834 1.99053 122.827C1.41172 121.047 1.3129 118.969 2.52699 117.432C2.52699 117.432 2.76698 115.71 1.56701 115.169C1.56701 115.169 -1.18587 112.82 1.56701 110.557C1.56701 110.557 2.15994 108.479 0.903496 108.393C0.903496 108.393 -1.60939 106.016 1.70818 102.728L2.32935 101.248C2.32935 101.248 2.3717 97.803 6.21162 96.1804C6.21162 96.1804 7.04454 95.9099 6.21162 93.9171C6.21162 93.9171 3.6705 89.0348 8.83744 86.0456C8.83744 86.0456 13.2562 83.4265 10.4468 80.8928C10.4468 80.8928 5.88692 76.3664 6.22573 68.4095V57.0791C6.22573 57.0791 6.40926 53.6059 8.85156 53.0508C8.85156 53.0508 10.955 51.7839 8.85156 50.6167C8.85156 50.6167 7.43983 49.7057 7.67982 48.4389V39.0301C7.67982 39.0301 7.49629 36.3114 9.41625 36.0409C9.41625 36.0409 10.4892 34.2332 8.25863 33.6069C8.25863 33.6069 6.9316 33.6923 7.0163 31.4291L6.83278 27.5289Z" fill="#1E50A2"/>
<path d="M18.1834 88.195L18.5928 87.8819C19.9057 86.857 21.1198 85.6614 22.6162 84.9354C25.8208 83.3839 29.4349 83.3839 32.7525 84.5938L38.9217 86.2877C38.9217 86.2877 40.1923 87.1702 39.3876 88.3089H50.385C50.385 88.3089 56.8931 88.1808 56.8225 95.8103C56.8225 95.8103 57.1613 98.8564 55.072 101.561L33.416 129.545C33.416 129.545 25.9761 135.082 21.3456 126.983C21.3456 126.983 12.0282 130.157 11.8306 121.375C11.8306 121.375 4.39072 121.645 8.27298 113.731C8.27298 113.731 9.20473 111.439 7.4683 110.016C7.4683 110.016 3.71308 105.888 9.20473 100.821L11.8023 98.2586C12.4235 97.6465 11.6894 96.1804 11.8164 95.4545C11.9011 94.999 12.24 94.4866 12.4658 94.1022C13.0305 93.1201 13.7223 92.2233 14.4846 91.3977C15.614 90.1878 16.8987 89.1914 18.1834 88.195Z" fill="white"/>
<path d="M66.3517 87.9814C68.5822 87.9102 70.7845 87.5259 72.041 85.6042C72.041 85.6042 74.7939 81.2059 78.2103 82.43C78.2103 82.43 82.6431 83.3837 80.1585 90.1307C80.1585 90.1307 71.2363 118.727 60.3801 123.126C60.3801 123.126 55.5519 124.948 57.1613 114.742C57.1613 114.742 58.1636 103.183 58.1636 102.301L56.8225 102.23C56.8225 102.23 55.0014 101.148 57.359 98.7139C58.4036 97.6606 59.406 96.5788 60.3801 95.4543C61.3118 94.3867 63.0906 92.8779 62.9212 91.2979C62.8365 90.5435 60.2248 88.2945 62.4412 88.0383C63.1188 87.9956 63.8529 87.9956 64.6153 87.9956C65.1941 87.9956 65.7729 87.9956 66.3517 87.9814Z" fill="white"/>
<path d="M25.8771 49.1649C25.8771 49.1649 23.3218 43.2719 27.1194 41.877C27.1194 41.877 31.7358 38.8309 37.8627 46.5743C37.8627 46.5743 39.3874 48.1685 41.8297 47.7415C41.8297 47.7415 51.6836 46.5031 52.7989 57.0649C52.7989 57.0649 55.1706 67.8259 57.9235 72.7936C57.9235 72.7936 63.641 84.4514 52.4036 83.3269C52.4036 83.3269 23.3501 77.434 20.2443 76.8361C20.2443 76.8361 11.8021 77.2347 13.0303 71.2706C13.0303 71.2706 13.4679 64.851 19.2419 62.9293C19.2419 62.9293 15.3879 59.4847 18.7902 54.5881C18.7902 54.5881 21.5713 50.2894 25.3265 50.1897H26.1312L25.8771 49.1649Z" fill="white"/>
<path d="M68.8218 81.3483C68.1442 81.7042 67.4383 81.9746 66.6901 81.9034C63.5419 81.6188 65.7019 77.619 66.5913 76.2525C71.3347 68.9219 76.0781 61.6055 80.8357 54.2749C81.4145 53.3924 81.9792 52.5099 82.6286 51.67C83.0803 51.0864 83.8286 50.4744 84.4638 50.8445C85.0568 51.2003 85.085 52.2109 85.7485 52.396C86.3132 52.5526 86.7932 51.9547 87.0755 51.4423C87.4567 50.7591 87.8238 50.0473 88.4167 49.5349C89.0096 49.0225 89.8567 48.752 90.5625 49.0652C91.2684 49.3783 91.6213 50.1755 91.7766 50.9299C92.3413 53.4778 91.4237 56.0826 91.0707 58.659C90.9155 59.7693 90.8449 60.9223 90.3366 61.9187C89.8284 62.915 88.7132 63.7122 87.6402 63.4132C88.8826 64.7513 88.8261 66.8437 88.4026 68.6372C87.852 70.9574 86.6944 73.3202 84.5768 74.4163C83.5321 74.9572 82.3462 75.1422 81.2027 75.4127C76.9958 76.4233 73.2547 78.7435 69.5277 80.9498C69.2877 81.0921 69.0618 81.2202 68.8218 81.3483Z" fill="white"/>
<path d="M33.6841 42.6313C33.7264 42.6598 33.7688 42.6883 33.8111 42.7168C33.7688 42.674 33.7264 42.6456 33.6841 42.6313Z" fill="#D7D9ED"/>
<path d="M33.6699 42.6313L34.277 43.2007C34.1076 43.0014 33.9523 42.8306 33.8111 42.731C33.7687 42.6883 33.7264 42.6598 33.6699 42.6313Z" fill="white"/>
<path d="M37.7358 46.4177C37.7782 46.4747 37.8206 46.5316 37.877 46.5885C37.877 46.5885 39.0629 47.8269 41.0111 47.8269C41.0817 47.8269 41.1522 47.8269 41.2369 47.8269C41.1522 47.8269 41.0817 47.8411 40.997 47.8411C39.5993 47.8411 38.3005 46.9586 38.3005 46.9586L37.7358 46.4177ZM25.6232 48.4532L26.1455 50.1898L25.8773 49.1649C25.8773 49.1649 25.7643 48.8945 25.6232 48.4532ZM25.5667 50.1471C25.2138 50.1471 24.8467 50.204 24.4797 50.2894C24.762 50.2325 25.0444 50.204 25.3408 50.1898H26.1455C25.962 50.1613 25.7643 50.1471 25.5667 50.1471ZM19.2562 62.9436C17.3786 63.456 16.5316 64.1962 16.1646 64.7371C16.9692 63.9969 17.9857 63.3706 19.2562 62.9436ZM57.6554 82.4444C57.4154 82.6152 57.1472 82.7718 56.8366 82.8999C56.8648 82.9142 56.879 82.9142 56.9213 82.9142C57.0907 82.9142 57.3731 82.7149 57.6554 82.4444Z" fill="#D7D9ED"/>
<path d="M34.2767 43.1865C35.7731 45.0654 37.8766 50.5314 37.8766 50.5314C37.9896 51.1292 37.9896 52.2822 37.0578 52.2822C36.8178 52.2822 36.5213 52.211 36.1402 52.0259C34.3049 51.1292 25.3969 47.7557 25.3969 47.7557L25.6086 48.4674C25.7639 48.9087 25.8769 49.1791 25.8769 49.1791L26.131 50.204H25.3263C25.0298 50.2182 24.7475 50.2467 24.4651 50.3036C22.6722 50.7733 20.9782 52.1398 20.9782 52.1398C21.3029 52.0544 22.1922 52.0402 23.1099 52.0402C24.3804 52.0402 25.7075 52.0829 25.7075 52.0829C30.0415 52.2252 34.6437 53.0081 38.1731 55.7411C39.3589 56.6521 40.3895 57.7766 41.1377 59.0861C41.6177 59.9117 43.0153 62.5308 42.1118 63.1286C41.8295 63.3137 41.4483 63.3564 41.0671 63.3564C40.7989 63.3564 40.5448 63.3279 40.333 63.3137C38.3566 63.1713 36.4366 62.545 34.4743 62.3173C32.512 62.0895 30.5356 62.0468 28.5592 61.9329C25.1004 61.7479 21.6276 61.6056 18.1688 61.5059L19.2417 62.9293C17.9712 63.3564 16.9547 63.9969 16.15 64.7371C15.8818 65.1356 15.8677 65.4203 15.8677 65.4203C17.6041 64.8937 20.3146 64.7371 22.9687 64.7371C27.1192 64.7371 31.1285 65.1214 31.1285 65.1214C41.2224 65.6623 44.0882 67.6551 44.0882 67.6551C46.9964 68.4522 56.8362 82.8857 56.8362 82.8857C57.1468 82.7575 57.415 82.601 57.655 82.4302C58.1632 81.9604 58.6856 81.3199 58.7138 81.2914C58.4315 80.3804 57.7115 79.5122 57.1891 78.7435C56.215 77.3343 55.1986 75.9536 54.1539 74.5729C52.6716 72.5943 51.1469 70.63 49.6222 68.6799C48.1258 66.7726 46.3188 65.1072 44.9353 63.1144C44.2859 62.1607 43.7635 61.1216 43.34 60.054C41.7589 56.1681 41.6601 51.9405 41.2224 47.8126C41.1518 47.8126 41.0671 47.8126 40.9965 47.8126C39.0484 47.8126 37.8625 46.5743 37.8625 46.5743C37.8201 46.5173 37.7778 46.4604 37.7213 46.4034L34.2767 43.1865Z" fill="white"/>
<path d="M91.7484 50.9158C91.7484 50.93 91.7484 50.9442 91.7484 50.9442C91.819 51.2574 91.8613 51.5705 91.8895 51.8837C91.8895 51.5421 91.8331 51.2005 91.7484 50.9158ZM87.0614 51.4424C86.7508 51.9976 85.8756 52.4104 85.8756 52.4104L85.8614 52.4246C85.8897 52.4246 85.9038 52.4246 85.932 52.4246C86.3979 52.4246 86.8073 51.9122 87.0614 51.4424ZM88.3037 64.5237C88.5014 64.9934 88.6002 65.52 88.6426 66.0467C88.6708 65.3919 88.5155 64.8937 88.3037 64.5237ZM65.0666 80.5229L65.0525 80.5371C64.8972 81.4481 65.7301 81.6331 65.7725 81.6331C65.3348 81.4054 65.1231 81.0068 65.0666 80.5229Z" fill="#D7D9ED"/>
<path d="M91.551 50.261C91.424 51.3713 85.7206 55.3568 85.7206 55.3568L87.0617 51.4567C86.8076 51.9122 86.4123 52.4388 85.9323 52.4388C85.9041 52.4388 85.89 52.4388 85.8617 52.4388L65.7728 79.6403L65.0669 80.5371C65.1234 81.0211 65.3351 81.4054 65.7728 81.6616L76.0643 69.6906C77.9701 66.3314 81.316 66.1748 81.923 66.1748C81.9936 66.1748 82.0218 66.1748 82.0218 66.1748L88.6287 66.0894V66.0752C88.5864 65.5485 88.4876 65.0218 88.2899 64.5521C87.9229 63.8973 87.3723 63.6411 87.3723 63.6411L79.4525 64.3955L91.8898 51.9406C91.8898 51.9264 91.8898 51.9264 91.8898 51.9122C91.8616 51.599 91.8193 51.2858 91.7487 50.9727C91.7487 50.9585 91.7487 50.9442 91.7487 50.9442C91.664 50.5314 91.551 50.261 91.551 50.261Z" fill="white"/>
<path d="M54.8179 90.0881C55.6649 90.8995 56.3708 92.0809 56.6672 93.8033C56.4131 92.2375 55.8908 90.7002 54.8179 90.0881ZM56.7661 94.5719C56.8084 94.9562 56.8225 95.369 56.8225 95.8103C56.8225 95.8103 56.9919 97.3618 56.3425 99.2265C56.5543 98.8137 56.7378 98.4151 56.8508 98.0877C56.8367 98.0877 56.9637 96.4081 56.7661 94.5719ZM11.9859 96.6928V96.707C11.9859 96.7213 11.9859 96.707 11.9859 96.6928C11.9859 96.707 11.9859 96.707 11.9859 96.6928ZM12.0706 97.2906C12.0847 97.5184 12.0564 97.8031 11.9576 98.0593C12.0706 97.86 12.0847 97.5895 12.0706 97.2906ZM7.48242 110.002C7.48242 110.002 8.21652 110.77 8.45652 111.582C8.32946 111.041 8.04712 110.471 7.48242 110.002ZM11.2941 121.346L11.8306 121.418C11.8306 121.403 11.8306 121.389 11.8306 121.361C11.8306 121.361 11.8023 121.361 11.7459 121.361C11.6612 121.361 11.5059 121.361 11.2941 121.346ZM12.127 123.581C12.2258 124.022 12.367 124.464 12.5929 124.805C12.4094 124.449 12.2541 124.037 12.127 123.581Z" fill="#D7D9ED"/>
<path d="M19.7786 87.3835C19.5527 87.3835 19.4398 87.3978 19.4398 87.3978L16.221 89.7607L35.11 89.8603C35.2512 90.1734 35.3641 90.4439 35.3641 90.4581C37.3264 94.9988 22.7715 96.6215 20.4421 96.7923C19.2421 96.8777 18.0422 96.9204 16.8422 96.9204C16.6869 96.9204 16.5316 96.9204 16.3763 96.9204H16.3481C16.2492 96.9204 16.0516 96.9204 15.7975 96.9204C15.5434 96.9204 15.2469 96.9204 14.9081 96.9204C13.6658 96.9204 12.0846 96.892 11.9717 96.6927V96.7069C11.9858 96.7781 12.0423 96.9916 12.0564 97.2763C12.0846 97.5752 12.0564 97.8457 11.9435 98.0592C11.8164 98.415 11.5482 98.7424 11.0682 98.9702L23.6467 98.5858C23.6467 98.5858 25.722 98.899 23.9008 101.191C23.9008 101.191 20.5127 107.012 11.2799 108.863L7.46826 110.002C8.04707 110.471 8.32942 111.027 8.44236 111.582C8.49883 111.781 8.52706 111.966 8.51295 112.151C8.51295 112.165 8.51295 112.165 8.51295 112.179L9.98115 111.525C11.1247 111.012 12.2682 110.514 13.4258 110.03C14.6822 109.503 15.9104 108.92 17.2092 108.493C17.9433 108.251 19.7645 107.525 21.035 107.525C21.5009 107.525 21.8821 107.625 22.1221 107.867C23.6609 109.418 19.5386 112.905 18.5645 113.987C16.6587 116.108 14.7528 118.243 12.6917 120.222C12.4517 120.464 11.7317 121.346 11.3082 121.346C11.2941 121.346 11.2799 121.346 11.2799 121.346H11.2941C11.4917 121.361 11.647 121.361 11.7458 121.361C11.8023 121.361 11.8305 121.361 11.8305 121.361C11.8305 121.375 11.8305 121.389 11.8305 121.417L11.9858 121.432C11.9858 121.432 11.9011 122.528 12.1129 123.581C12.2399 124.037 12.3952 124.449 12.5787 124.805C12.5929 124.819 12.5929 124.834 12.607 124.848C14.5693 121.873 16.7292 119.026 18.988 116.279C22.2915 112.279 26.3008 107.354 31.3125 105.504C31.8066 105.319 32.5124 105.062 33.0348 105.062C33.5853 105.062 33.9665 105.333 33.783 106.258C33.2042 109.19 30.3666 111.34 28.729 113.688C26.9361 116.265 25.1149 118.827 23.2797 121.375C22.2491 122.798 21.2044 124.236 20.1315 125.631C19.8209 126.044 19.0445 127.396 18.4798 127.51L21.3315 126.969C21.3315 126.983 21.5009 127.268 21.6703 127.524C21.7127 127.581 21.755 127.652 21.7832 127.709C21.7974 127.737 21.8115 127.752 21.8256 127.766C22.1644 127.766 35.6465 102.942 48.6344 96.1803C48.6344 96.1803 50.4273 94.8138 51.6697 94.8138C52.0508 94.8138 52.3896 94.9419 52.6014 95.2977C53.4484 96.7069 50.0179 99.1837 49.2697 100.08C48.0697 101.504 46.8839 102.913 45.6839 104.336C42.3099 108.336 38.9499 112.336 35.5759 116.336C32.5548 119.923 29.5337 123.51 26.5126 127.097C25.6655 128.093 24.8326 129.09 23.9856 130.1C23.9856 130.1 25.2561 130.883 26.0467 131.139C26.1032 131.154 26.1596 131.168 26.2161 131.182C26.2302 131.182 26.2584 131.196 26.2726 131.196C26.2726 131.196 51.6132 98.7282 52.9543 98.1588C52.9543 98.1588 53.4061 97.8599 53.8155 97.8599C54.239 97.8599 54.6343 98.1731 54.479 99.4257C54.479 99.4257 54.5919 102.045 54.3096 102.5C54.4508 102.287 55.566 100.636 56.3001 99.2264C56.9495 97.3617 56.7801 95.8102 56.7801 95.8102C56.7801 95.3689 56.766 94.9561 56.7237 94.5718C56.6954 94.3156 56.6672 94.0594 56.6248 93.8032C56.3284 92.0808 55.6084 90.8994 54.7755 90.088L41.9428 99.0983C41.9428 99.0983 29.4772 106.016 25.0161 106.016C24.282 106.016 23.7597 105.831 23.5479 105.39C23.5479 105.39 23.1103 102.785 26.569 100.251L35.3924 94.7853C35.3924 94.7853 38.8088 92.6502 37.3829 89.8888H38.5405L40.6158 88.3088H39.3452C39.3876 88.3088 22.3903 87.3835 19.7786 87.3835ZM54.352 102.5C54.3378 102.514 54.3378 102.529 54.3378 102.529C54.3378 102.514 54.3378 102.5 54.352 102.5Z" fill="white"/>
<path d="M80.5536 84.5225C80.5818 84.6079 80.6242 84.6933 80.6524 84.7787C80.6242 84.7075 80.596 84.6079 80.5536 84.5225ZM71.462 85.9459C70.6715 87.2412 69.1468 87.6113 69.1468 87.6113C70.1632 87.3266 71.0809 86.8284 71.7585 85.9743C71.575 85.9601 71.462 85.9459 71.462 85.9459ZM80.2007 90.0026C80.1866 90.0453 80.1724 90.088 80.1583 90.1307C80.1583 90.1307 80.1442 90.1877 80.116 90.2873L80.2007 90.0026ZM62.2152 90.088L62.921 91.2837C62.921 91.2268 62.8928 91.1698 62.8646 91.1129C62.5258 90.5862 62.2858 90.2161 62.2152 90.1023C62.2293 90.1023 62.2152 90.1023 62.2152 90.088ZM62.921 91.2979L62.6246 92.6929L60.3799 95.4685C61.3117 94.3867 63.1046 92.8922 62.921 91.2979ZM79.1701 93.0487C79.1701 93.063 79.1701 93.063 79.1701 93.0487V93.0487ZM71.1232 111.24C71.1232 111.254 71.1091 111.254 71.1091 111.268L71.1232 111.24ZM65.9422 118.784C65.2645 119.553 64.5728 120.25 63.8669 120.862V121.175L65.9422 118.784ZM60.2952 123.14C60.2387 123.154 60.1682 123.182 60.0693 123.197V123.239L60.2952 123.14Z" fill="#D7D9ED"/>
<path d="M79.2407 82.9141C77.2502 85.6186 74.102 86.0029 72.4926 86.0029C72.1962 86.0029 71.9421 85.9886 71.7727 85.9744C71.0809 86.8285 70.1774 87.3267 69.1609 87.6113L70.5444 90.6432C72.6338 97.6891 70.5444 99.2834 70.5444 99.2834C70.0221 99.7246 69.5421 99.8954 69.1045 99.8954C67.5375 99.8954 66.5634 97.6749 66.5634 97.6749C65.9845 96.0949 63.9516 92.7926 62.8787 91.113C62.907 91.1841 62.9211 91.2411 62.9352 91.2838C63.1046 92.878 61.3258 94.3726 60.3941 95.4401L60.0835 123.183C60.1823 123.168 60.2529 123.14 60.3094 123.126L61.0858 122.784L62.1446 121.887L61.8623 97.7319C61.6505 94.9704 62.6952 94.8281 62.9211 94.8281C62.9493 94.8281 62.9634 94.8281 62.9634 94.8281C63.034 94.8138 63.0905 94.7996 63.147 94.7996C64.361 94.7996 64.1916 97.7176 64.1916 97.7176L63.8811 120.848C64.5869 120.236 65.2787 119.524 65.9563 118.756L66.2669 104.208C66.2669 101.717 67.2128 101.475 67.5657 101.475C67.6504 101.475 67.7069 101.49 67.7069 101.49C67.7633 101.475 67.8198 101.475 67.8621 101.475C69.2598 101.475 69.1609 103.895 69.1609 103.895V114.471L71.1233 111.24C71.1233 111.226 71.1374 111.226 71.1374 111.212L70.7986 102.287C70.8974 101.063 71.2927 100.707 71.7162 100.707C72.3232 100.707 73.0009 101.433 73.0009 101.433L74.822 103.909L76.149 100.863C75.8667 100.935 75.5985 100.963 75.3726 100.963C73.6079 100.963 73.5938 99.1695 73.5938 99.1695C74.2008 97.561 73.5938 92.9919 73.5938 92.9919C74.1161 93.2338 74.9914 93.3192 75.8808 93.3192C77.4761 93.3192 79.1419 93.0773 79.156 93.063L80.0878 90.2874C80.116 90.1877 80.1301 90.1308 80.1301 90.1308C80.1442 90.0881 80.1584 90.0454 80.1725 90.0027L80.2148 89.8888C78.8313 90.8425 77.4055 91.113 76.2196 91.113C74.5538 91.113 73.3397 90.5721 73.3397 90.5721C73.2832 89.8888 72.2385 87.3836 72.2385 87.3836C72.8315 87.5686 73.4244 87.654 74.0173 87.654C77.4902 87.654 80.6383 84.793 80.6383 84.793C80.6383 84.7787 80.6383 84.7787 80.6383 84.7787C80.6101 84.6933 80.5819 84.6079 80.5395 84.5225C80.2007 83.7966 79.2407 82.9141 79.2407 82.9141ZM62.2152 90.0881C62.2293 90.1023 62.2293 90.1166 62.2293 90.1166C62.2152 90.0881 62.2152 90.0881 62.2152 90.0881Z" fill="white"/>
<path d="M16.4182 5.90722C16.4182 5.90722 19.3405 6.57623 19.6229 10.7468C19.6229 10.7468 20.2864 14.3481 16.4182 13.5937C13.6371 13.0528 13.6936 5.28092 16.4182 5.90722Z" fill="white"/>
<path d="M22.6162 5.93567C23.7879 6.37693 24.8608 7.72917 25.1714 8.7398C25.4114 9.53692 25.4679 11.1596 24.7903 11.8144C23.5762 12.9531 21.9386 11.0457 21.3174 10.1063C20.6115 9.03872 19.3692 6.33422 21.4444 5.83603C21.8256 5.73639 22.2209 5.79333 22.6162 5.93567Z" fill="white"/>
<path d="M9.07753 18.049C9.07753 18.049 10.9128 17.7785 10.9834 20.0987C11.0116 21.2801 9.30341 21.7641 8.59754 20.9385C7.89168 20.1129 8.18814 18.5899 9.07753 18.049Z" fill="white"/>
<path d="M8.20206 22.9171L8.30088 22.9028C9.65615 22.9028 10.7149 25.7781 9.44439 26.5468C7.77854 27.5289 7.10091 23.216 8.20206 22.9171Z" fill="white"/>
<path d="M11.901 22.1627C11.901 22.1627 9.74104 22.0062 10.9834 24.7961C10.9834 24.7961 11.3787 25.7924 11.2516 26.6892C11.1245 27.5717 12.3527 27.6002 12.9174 27.4578C13.821 27.2301 14.2586 26.2906 14.3574 25.3939C14.3574 25.4081 14.7245 22.1627 11.901 22.1627Z" fill="white"/>
<path d="M19.9621 27.4578C20.2726 27.0735 20.6256 26.7176 20.9926 26.433C22.602 25.1661 24.522 25.8493 25.9478 27.0593C25.9478 27.0593 31.7924 30.3758 26.9925 34.6745C26.329 35.2724 25.4114 35.7421 24.5361 35.9556C23.2373 36.2688 22.2067 35.6567 21.3597 34.7172C20.5691 33.849 19.5103 32.696 19.0444 31.6142C18.4374 30.2192 19.0162 28.6535 19.9621 27.4578Z" fill="white"/>
<path d="M8.52704 29.5074C8.87997 28.6819 9.58584 28.0698 10.5882 28.1979C10.5882 28.1979 13.934 28.5965 12.0987 32.3685C11.6611 33.2653 9.72701 33.2795 9.03526 32.7528C8.0894 32.0127 8.10352 30.4896 8.52704 29.5074Z" fill="white"/>
<path d="M12.6492 35.4716C12.6492 35.4716 13.2704 29.3225 18.0703 33.0945C18.0703 33.0945 22.3902 37.194 17.0115 39.3718C17.0115 39.3718 12.2822 40.2401 12.6492 35.4716Z" fill="white"/>
<path d="M38.6816 29.4362C38.4133 30.0341 38.0745 30.6034 37.7216 31.1016C36.3946 32.9236 32.964 33.9485 31.4676 31.7564C30.0982 29.7636 30.4512 26.8599 32.3146 25.3368C33.2464 24.5681 34.2205 23.8564 35.4628 23.7568C36.5357 23.6714 37.4957 24.1411 38.2439 24.9098C39.5004 26.1908 39.3451 27.9132 38.6816 29.4362Z" fill="white"/>
<path d="M38.9498 30.632C38.9498 30.632 41.1098 33.1372 42.8885 31.2298C42.8885 31.2298 44.272 27.2443 40.3898 25.7639C40.3898 25.7639 37.6369 26.2052 37.891 27.529C37.891 27.529 37.651 29.6214 38.9498 30.632Z" fill="white"/>
<path d="M46.4318 37.5213C45.3589 37.3505 45.0765 39.571 45.4436 40.5105C45.7965 41.4357 47.4906 43.6705 48.4506 42.0762C49.2552 40.7382 48.0976 38.7739 47.1518 37.9341C46.8835 37.6779 46.6435 37.5498 46.4318 37.5213Z" fill="white"/>
<path d="M34.9403 38.2756C35.8297 37.3361 37.2273 36.8379 38.2861 37.5069C38.2861 37.5069 41.039 39.2435 39.8673 42.1615C39.6132 42.7878 38.6532 43.3857 38.0461 43.5707C36.6909 43.9693 35.3921 42.9586 34.6721 41.8768C33.8533 40.6527 33.8956 39.3574 34.9403 38.2756Z" fill="white"/>
<path d="M9.47282 42.6029C9.67046 41.4072 10.3057 40.3681 11.3787 40.4251C11.3787 40.4251 14.9927 40.6244 13.8068 44.069C13.8068 44.069 12.9033 46.5885 10.6022 45.8625C9.59988 45.5494 9.24694 43.9836 9.47282 42.6029Z" fill="white"/>
<path d="M15.3032 44.0691C15.3032 44.0691 14.9785 41.692 17.8584 41.6208C17.8584 41.6208 21.2042 42.2187 19.9619 45.9907C19.5384 47.2718 18.6631 47.7415 17.3643 47.7558C15.9385 47.77 15.3879 46.6598 15.2891 45.336L15.3032 44.0691Z" fill="white"/>
<path d="M10.9832 51.1576C11.5197 49.179 11.1668 46.3464 14.0467 47.0582C14.0467 47.0582 17.0255 47.7841 16.5737 51.1576C16.5737 51.1576 15.8961 54.2037 12.4938 53.2785C12.4797 53.2785 10.6303 52.7091 10.9832 51.1576Z" fill="white"/>
<path d="M11.6893 58.8441C11.9717 58.6591 12.2117 58.4598 12.4658 58.1894C12.7622 57.8905 13.1152 57.1218 13.4116 56.9225C13.4116 56.9225 15.8539 55.2002 16.1786 58.6449C16.1786 58.6449 15.8963 62.7443 11.7317 61.8191C11.2093 61.7052 10.3905 61.2782 10.0941 60.8227C9.44466 59.8548 10.687 59.3993 11.3505 59.0434L11.6893 58.8441Z" fill="white"/>
<path d="M9.89644 55.7268C9.89644 55.7268 9.17646 53.3497 11.7176 54.3318C11.7176 54.3318 12.127 54.4599 13.0305 54.4599C13.0305 54.4599 14.1316 54.5311 13.7646 55.7126C13.7646 55.7268 11.9011 58.7729 9.89644 55.7268Z" fill="white"/>
<path d="M13.5242 84.2235C13.2842 83.7253 13.4395 83.0136 13.8207 82.6578C14.0607 82.43 14.3854 82.2877 14.7101 82.2308C15.1336 82.1596 15.5995 82.2165 15.8818 82.5439C16.0653 82.7432 16.1359 83.0279 16.1218 83.2983C16.1077 83.9673 15.5854 84.5652 14.9642 84.7502C14.583 84.8641 14.1595 84.8214 13.8348 84.6079L13.5242 84.2235Z" fill="white"/>
<path d="M13.8066 87.6826C13.8913 86.9709 14.3148 86.5012 15.0066 86.2165C15.8536 85.8607 17.9994 83.0423 18.6488 85.2344C18.6488 85.2344 18.9735 89.1203 14.7666 89.0064C14.2725 88.9922 13.7925 88.4086 13.7925 87.9531L13.8066 87.6826Z" fill="white"/>
<path d="M8.06104 88.7785C8.06104 88.7785 8.17397 87.5259 9.30336 87.2412C9.69865 87.1415 10.1363 86.7999 10.4469 86.5579C10.941 86.1736 11.1527 85.3196 11.7174 85.0206C12.4233 84.6648 12.9033 85.3053 12.9033 85.9743C12.8892 86.7572 13.1715 87.4547 13.0021 88.2518C12.7339 89.5187 11.7739 89.846 10.6163 89.846C9.64218 89.8745 8.30103 90.0595 8.06104 88.7785Z" fill="white"/>
<path d="M6.66317 91.9671C6.63493 91.2269 6.6914 90.3586 7.18551 90.1594C7.18551 90.1594 8.00432 89.832 8.59724 90.6006C8.59724 90.6006 8.97841 91.355 10.8701 91.0276C10.8701 91.0276 12.5501 90.7003 12.1125 92.508C12.1125 92.508 11.9007 95.7392 8.04667 95.241C7.0161 95.1129 6.77611 93.7179 6.71964 92.8781C6.71964 92.6646 6.67729 92.323 6.66317 91.9671Z" fill="white"/>
<path d="M1.59521 106.045C1.90579 104.977 2.76695 103.867 3.50105 103.568C3.50105 103.568 5.67512 102.258 5.40689 104.82C5.40689 104.82 4.91278 108.82 2.37166 108.265C2.08931 108.208 1.73638 107.724 1.62344 107.496C1.41168 107.098 1.43992 106.571 1.59521 106.045Z" fill="white"/>
<path d="M2.73853 111.71C2.73853 111.71 3.10558 108.422 5.42083 108.92C5.42083 108.92 6.98785 108.763 6.64904 112.151V114.884C6.64904 114.884 6.15493 116.251 4.15027 114.884C4.15027 114.884 2.63971 113.575 2.73853 111.71Z" fill="white"/>
<path d="M2.72444 118.315L2.9362 117.93C3.20443 117.461 3.64207 116.72 4.20676 116.606C5.02557 116.436 5.97143 117.66 6.1973 118.4C6.33848 118.855 6.42318 119.354 6.3526 119.838C6.31024 120.108 6.22554 120.379 6.07025 120.606C5.7032 121.147 5.42085 121.076 5.35026 121.773C5.29379 122.386 5.27968 123.026 5.42085 123.624C5.59026 124.293 4.67263 124.307 4.26323 124.222C3.19031 123.994 2.47033 122.499 2.18798 121.517C1.8774 120.364 2.18798 119.325 2.72444 118.315Z" fill="white"/>
<path d="M7.63739 124.492L7.69386 124.35C8.1315 123.382 8.7809 123.026 9.79734 122.813C9.79734 122.813 10.8279 122.599 11.1526 123.667C11.2232 123.909 11.3079 124.165 11.2655 124.435C11.1526 125.161 10.7009 125.047 10.1926 125.275C9.89617 125.403 9.79734 126.143 9.54323 126.414C9.24677 126.713 8.48443 127.097 8.06091 126.812C7.21387 126.229 7.28446 125.332 7.63739 124.492Z" fill="white"/>
<path d="M9.92436 128.364L9.9526 128.279C10.3055 127.353 10.6302 126.528 11.7455 126.485C11.7455 126.485 12.9455 126.428 12.5078 128.407C12.5078 128.407 12.6631 131.41 10.0091 130.599C9.16203 130.328 9.68437 128.962 9.92436 128.364Z" fill="white"/>
<path d="M12.6208 131.396C12.9879 130.67 13.7079 130.072 14.5267 130.1C14.5267 130.1 15.9384 130.214 15.8255 131.737C15.8255 131.737 15.9384 134.2 13.5385 133.659C12.2961 133.36 12.1691 132.292 12.6208 131.396Z" fill="white"/>
<path d="M18.7056 133.374C18.7056 133.374 16.9127 133.83 16.7998 131.382C16.7998 131.382 17.3927 128.933 19.7362 130.414C19.7362 130.414 20.4985 131.339 20.0609 132.221C20.0609 132.221 19.7362 133.517 18.7056 133.374Z" fill="white"/>
<path d="M16.7995 134.641C16.8983 133.787 17.8865 133.574 18.5782 133.488C18.9735 133.431 19.4112 133.502 19.7782 133.417C20.2864 133.303 20.2864 132.833 20.6535 132.677C20.6535 132.677 22.5029 131.851 22.0088 134.043C22.0088 134.043 22.0935 136.947 18.4935 136.506C18.4935 136.492 16.6301 136.008 16.7995 134.641Z" fill="white"/>
<path d="M23.0397 134.257C23.0397 134.257 23.8585 133.574 23.8585 132.52C23.8585 132.52 23.8585 131.737 24.7196 131.68C24.7196 131.68 26.0749 130.969 26.2867 133.73C26.2867 133.73 26.1173 137.531 23.0256 136.221C23.0397 136.221 22.3056 135.467 23.0397 134.257Z" fill="white"/>
<path d="M27.4018 132.563L27.4724 132.52C27.7406 132.392 28.023 132.364 28.3194 132.335C28.9971 132.292 30.1971 132.577 29.6606 133.573C29.5194 133.83 29.2088 133.944 28.9265 133.986C28.4606 134.072 27.9806 134.057 27.5289 133.944C27.2748 133.887 27.0065 133.773 26.9077 133.531V133.132C26.9783 132.89 27.1759 132.691 27.4018 132.563Z" fill="white"/>
<path d="M61.0718 124.079C61.0718 124.079 61.9612 123.069 63.0624 123.852C63.0624 123.852 64.5588 125.972 62.0601 126.485C62.0742 126.485 59.9425 126.029 61.0718 124.079Z" fill="white"/>
<path d="M64.9681 123.154L64.7846 123.268C64.0223 123.51 63.3729 122.912 63.514 122.186C63.514 122.186 63.7682 120.791 65.0528 121.289C65.674 121.531 65.3917 122.77 64.9681 123.154Z" fill="white"/>
<path d="M68.2433 119.61C68.0457 119.524 67.8904 119.311 67.8198 119.097C67.6222 118.528 67.6504 117.902 67.9328 117.361C68.0598 117.105 68.3563 116.891 68.6245 117.005C68.808 117.076 68.9068 117.275 68.9774 117.475C69.1186 117.859 69.1751 118.286 69.1468 118.699C69.1327 118.912 69.1045 119.14 68.9916 119.325C68.8786 119.51 68.681 119.667 68.4692 119.667L68.2433 119.61Z" fill="white"/>
<path d="M89.5323 41.3645C88.8546 41.0228 87.57 41.6776 87.2029 42.2185C87.2029 42.2185 84.8594 45.0226 86.8359 45.9194C86.8359 45.9194 89.0805 45.6774 89.5605 43.6135C89.7017 43.0156 90.2805 41.9623 89.6593 41.4499L89.5323 41.3645Z" fill="white"/>
<path d="M89.9418 43.6562C89.9418 43.6562 91.4665 43.6705 90.9159 45.5209C90.9159 45.5209 90.3794 47.3002 88.6006 46.617C88.6006 46.6027 87.8665 44.5245 89.9418 43.6562Z" fill="white"/>
<path d="M94.6851 32.5251C94.8827 32.397 95.0945 32.3116 95.3204 32.2689C95.7157 32.1977 96.1674 32.3258 96.3651 32.6817C96.5062 32.9237 96.5062 33.2084 96.5062 33.493C96.4639 35.0303 96.0968 36.5534 95.4616 37.9483C95.1792 38.5889 94.8122 39.2152 94.3039 39.6849C93.9651 39.9981 93.1463 40.6101 92.6522 40.4963C91.9181 40.3255 91.7487 38.7455 91.7205 38.1192C91.6499 36.0979 92.7651 34.1193 94.2757 32.8525L94.6851 32.5251Z" fill="white"/>
<path d="M96.972 36.3684C96.972 36.3684 98.539 36.4681 98.8778 37.9057C98.8919 38.4608 98.8496 39.0444 98.7367 39.5996C98.539 40.6387 97.6355 41.9055 96.859 42.603C96.0685 43.3289 94.2615 44.4961 93.8944 42.9304C93.485 41.208 93.9791 39.3007 94.925 37.8488C94.925 37.8345 96.4355 36.2545 96.972 36.3684Z" fill="white"/>
<path d="M98.3274 42.7453C98.4262 42.845 98.4827 43.0016 98.5109 43.2008C98.5674 43.6706 98.398 44.2826 98.2427 44.7239C98.0874 45.1794 97.8333 45.5922 97.4521 45.8769C96.0686 46.8875 95.2639 45.8911 95.6592 44.4107C95.871 43.6421 97.7062 42.0763 98.3274 42.7453Z" fill="white"/>
<path d="M25.397 47.7557L25.3123 47.9692C25.3123 47.9692 27.5428 48.809 29.9851 49.7769C32.4416 50.7306 35.1239 51.7982 36.0274 52.2394C36.4226 52.4387 36.7615 52.5241 37.0438 52.5241C37.4673 52.5383 37.7779 52.3106 37.9332 52.0259C38.0885 51.7412 38.1308 51.3996 38.145 51.1007C38.145 50.8872 38.1167 50.6879 38.0885 50.5171V50.5029L38.0744 50.4886C38.0744 50.4886 37.3826 48.6951 36.5074 46.802C36.0697 45.8625 35.5897 44.8803 35.1239 44.0975C34.6439 43.3146 34.2203 42.7025 33.7545 42.4605L32.258 41.6919L38.1308 47.1721L38.145 47.1863C38.1591 47.2005 39.472 48.0973 40.9684 48.1115L41.2225 48.0973L41.2084 47.8695L40.9826 47.898C41.4202 52.0259 41.5049 56.2677 43.1143 60.2106C43.5519 61.2924 44.0743 62.3457 44.7378 63.3136C46.1354 65.3349 47.9565 67.0003 49.4247 68.8934C50.9494 70.8435 52.4741 72.8078 53.9564 74.7864C54.987 76.1528 56.0034 77.5336 56.9775 78.9427C57.5281 79.7256 58.2198 80.5797 58.4739 81.4337L58.6857 81.3626L58.5163 81.2202C58.5163 81.2202 58.1916 81.6188 57.8104 82.0173C57.6128 82.2166 57.4151 82.4159 57.2316 82.544L56.9916 82.7006L56.8787 82.7433V82.8144L56.921 82.7575L56.8787 82.7433V82.8144L56.921 82.7575L56.8081 82.9568L56.9916 82.8287C56.9916 82.8287 54.5352 79.2132 51.6976 75.4981C50.2859 73.6476 48.7753 71.7545 47.4342 70.2884C46.0789 68.8222 44.9495 67.7547 44.1025 67.5127L44.046 67.7404L44.1731 67.5554C44.1307 67.5269 41.2225 65.5341 31.1004 64.979C31.1004 64.979 27.077 64.5947 22.9123 64.5947C20.2442 64.5947 17.5336 64.7513 15.7549 65.2922L15.8254 65.5057L16.0513 65.5199L16.0654 65.4772C16.1219 65.2352 16.4607 63.9969 19.2701 63.2282L19.5948 63.1428L18.3524 61.3778L18.1689 61.5201V61.7479C21.6277 61.8475 25.1005 61.9898 28.5593 62.1749C30.5357 62.2745 32.5121 62.3315 34.4603 62.5592C36.3944 62.787 38.3144 63.4133 40.3332 63.5556C40.5449 63.5698 40.8131 63.5983 41.0955 63.5983C41.4908 63.5983 41.9284 63.5556 42.2672 63.3279C42.5637 63.1286 42.6625 62.787 42.6625 62.4311C42.6484 61.2924 41.7308 59.627 41.3637 58.9722C40.5873 57.6342 39.5426 56.4954 38.3426 55.556C34.7568 52.7803 30.0981 51.9974 25.7499 51.8551C25.6652 51.8551 24.3806 51.8124 23.1523 51.8124C22.2347 51.8124 21.3594 51.8266 20.9783 51.9263L21.0347 52.154L21.1759 52.3391C21.1759 52.3391 21.3171 52.2252 21.5712 52.0401C22.3335 51.485 24.0982 50.389 25.5946 50.4032C25.7782 50.4032 25.9617 50.4174 26.1311 50.4459L26.4982 50.5171L25.6511 47.713L25.397 47.7557L25.1852 47.8268L25.9193 50.2751L26.1311 50.2039L26.1735 49.9762C25.9617 49.9335 25.7641 49.9192 25.5523 49.9192C23.2935 49.9335 20.8653 51.9547 20.8371 51.9547L20.0606 52.5953L21.0347 52.3675C21.303 52.2964 22.2065 52.2679 23.11 52.2679C24.3806 52.2679 25.6935 52.3106 25.7076 52.3106V52.0828L25.6935 52.3106C30.0134 52.4529 34.5592 53.2358 38.032 55.9118C39.1896 56.8086 40.2061 57.9189 40.9402 59.1857C41.3072 59.7978 42.1966 61.5059 42.1825 62.4169C42.1825 62.6873 42.1119 62.8439 41.9849 62.9293C41.7731 63.0716 41.4202 63.1286 41.0531 63.1286C40.799 63.1286 40.5449 63.1001 40.3332 63.0859C38.385 62.9435 36.4791 62.3315 34.4745 62.0895C32.498 61.8617 30.5216 61.819 28.5452 61.7052C25.0864 61.5201 21.6136 61.3778 18.1407 61.2781L17.6607 61.2639L19.0301 63.0716L19.2136 62.9293L19.1571 62.7015C15.8113 63.5841 15.5996 65.3206 15.6137 65.3918L15.5854 65.7192L15.896 65.6196C17.576 65.1071 20.2865 64.9505 22.9265 64.9505C24.9876 64.9505 27.0346 65.0502 28.5452 65.1498C30.0698 65.2495 31.0581 65.3491 31.0722 65.3491C36.1121 65.6196 39.3308 66.2601 41.279 66.8152C42.2531 67.0999 42.9166 67.3561 43.326 67.5412C43.5378 67.6408 43.679 67.712 43.7778 67.7689L43.9048 67.8401L43.9331 67.8686L43.9754 67.8828C44.5825 68.0394 45.7683 69.0785 47.0812 70.5303C49.0718 72.7082 51.4435 75.8397 53.3352 78.4161C55.2128 80.9925 56.5963 83.0137 56.5963 83.0137L56.6246 83.0564L56.6669 83.0849L56.8646 83.1418C57.1046 83.1276 57.274 82.9995 57.4857 82.8429C58.0928 82.359 58.8269 81.4622 58.841 81.448L58.9257 81.3483L58.8833 81.2345C58.5869 80.2523 57.8528 79.384 57.3304 78.6154C56.3563 77.1919 55.3258 75.8112 54.2952 74.4447C52.7988 72.4662 51.2882 70.5019 49.7635 68.5518C48.253 66.6302 46.446 64.9648 45.0907 63.0005C44.4554 62.0752 43.9472 61.0504 43.5096 59.9828C41.9425 56.1538 41.8437 51.9405 41.4061 47.7984L41.3778 47.5706L41.152 47.5848L40.9402 47.5991C40.2908 47.5991 39.6414 47.3856 39.1614 47.1721C38.9214 47.0582 38.7238 46.9585 38.5826 46.8731L38.3708 46.745L38.2438 46.9301L38.3991 46.7593L33.7686 42.4463L33.6133 42.6171L33.5145 42.8164C33.7827 42.9445 34.2486 43.5281 34.7003 44.2825C35.378 45.4355 36.1121 47.0155 36.6768 48.3108C37.2273 49.6061 37.6226 50.6025 37.6226 50.6025L37.8344 50.5171L37.6085 50.5598C37.6367 50.7021 37.6509 50.8729 37.6509 51.058C37.6509 51.3142 37.6085 51.5847 37.5097 51.7555C37.4109 51.9263 37.2838 52.0259 37.0156 52.0259C36.8179 52.0259 36.5497 51.9547 36.1968 51.7839C34.3333 50.8729 25.4394 47.4994 25.4394 47.4994L25.0017 47.3286L25.1429 47.7699L25.397 47.7557Z" fill="#1E50A2"/>
<path d="M65.7729 79.6402L65.9564 79.7825L86.0454 52.5525L85.8619 52.4102L85.9607 52.6237C85.9748 52.6095 86.8783 52.2109 87.2595 51.5704L87.0618 51.4565L86.8501 51.3853L85.2689 55.9403L85.8336 55.5417C85.8336 55.5417 87.2595 54.5453 88.7136 53.4066C89.4335 52.8372 90.1676 52.2394 90.7323 51.6985C91.297 51.1434 91.6923 50.7163 91.7629 50.2893L91.537 50.2608L91.3253 50.3462C91.3253 50.3462 91.41 50.5313 91.4806 50.8302C91.5653 51.1291 91.65 51.5277 91.6641 51.9262L91.89 51.912L91.7347 51.7554L78.8455 64.6516L87.4007 63.8403L87.3865 63.6125L87.2877 63.826L87.3301 63.8545C87.5418 63.9684 88.4171 64.5235 88.4171 65.8757V66.0608L88.643 66.075V65.8473L82.0361 65.9327V66.1604L82.0502 65.9327H81.9372C81.2878 65.9327 77.8432 66.1035 75.8809 69.5766L76.0785 69.6905L75.9091 69.5482L65.6176 81.5191L65.787 81.6757L65.8294 81.4479L65.7446 81.4195C65.5611 81.3483 65.2647 81.206 65.2647 80.7789L65.2788 80.6081L65.0529 80.5654L65.2364 80.7078L65.9564 79.7968L65.7729 79.6402L65.5894 79.4978L64.8694 80.4088L64.827 80.4515L64.8129 80.5085L64.7847 80.7505C64.7847 81.206 65.0247 81.5191 65.2505 81.6614C65.4764 81.818 65.6882 81.8607 65.7164 81.8607L65.8435 81.8892L76.2479 69.8044L76.2621 69.7901C78.0973 66.5305 81.3443 66.3882 81.9231 66.3882H82.0078H82.0219L88.8406 66.2885L88.8547 66.075V65.8615C88.8547 64.0538 87.4995 63.4132 87.4712 63.399L87.4148 63.3705L80.0596 64.068L92.1158 51.9974V51.8978C92.1017 51.0153 91.7629 50.1897 91.7629 50.1754L91.4241 49.3499L91.3253 50.2466C91.3253 50.3747 90.9723 50.8587 90.4218 51.3711C89.603 52.154 88.3889 53.1077 87.3865 53.8621C86.3842 54.6165 85.5795 55.1716 85.5795 55.1716L85.7066 55.3567L85.9183 55.4278L87.2595 51.5277L86.8501 51.3426C86.7371 51.5562 86.4548 51.7839 86.2148 51.9547C85.9748 52.1113 85.763 52.2109 85.763 52.2109L85.7066 52.2394L65.5894 79.4978L65.7729 79.6402Z" fill="#1E50A2"/>
<path d="M54.8175 90.0882L54.6905 89.9031L41.8578 98.9134L41.9849 99.0984L41.8719 98.8991C41.8719 98.8991 41.0955 99.3262 39.8531 99.9809C38.0038 100.949 35.1097 102.415 32.2721 103.625C29.4345 104.835 26.6393 105.803 25.044 105.803C24.3241 105.803 23.9288 105.618 23.7876 105.305L23.5758 105.404L23.8017 105.361V105.305L23.7876 105.105C23.7876 104.408 24.0276 102.429 26.7381 100.451L26.6111 100.266L26.7381 100.465L35.5615 94.999C35.5756 94.9847 37.9897 93.5186 38.0179 91.2696C38.0179 90.7999 37.9049 90.3017 37.6508 89.8035L37.4532 89.9031V90.1309H38.6108H38.6814L41.3637 88.0954H39.3873V88.3231L39.4014 88.0954C39.4014 88.0954 22.4041 87.1702 19.7783 87.1702H19.51L19.4112 87.1844L19.3406 87.1986L19.2701 87.2413L19.1995 87.4121H19.4253L19.2842 87.2271L15.529 90.0028L35.1097 90.1024V89.8747L34.898 89.9601L35.0815 90.3729L35.1379 90.501L35.1521 90.5437V90.5579C35.265 90.8141 35.3074 91.0561 35.3074 91.2838C35.3215 92.1237 34.6015 92.8923 33.3733 93.5755C29.7169 95.5968 22.0371 96.4508 20.4277 96.579C19.2418 96.6644 18.0418 96.7071 16.8419 96.7071H16.376H16.3478C16.1501 96.7071 15.5713 96.7213 14.9219 96.7213C14.2866 96.7213 13.5808 96.7071 13.0161 96.6786C12.7337 96.6644 12.4937 96.6359 12.3384 96.6074L12.169 96.5647H12.1549L12.1267 96.6217L12.169 96.579L12.1408 96.5505L12.1126 96.6074L12.1549 96.5647L12.042 96.6928L12.1973 96.6359L12.1549 96.5647L12.042 96.6928L12.1973 96.6359L11.7596 96.7782L11.802 96.949C11.8161 97.0629 11.8443 97.2195 11.8443 97.3903C11.8302 97.8885 11.7032 98.4721 10.9832 98.7853L9.91025 99.255L23.6605 98.828L23.6464 98.6002L23.6182 98.828L23.7453 98.8564L24.197 99.0842C24.3382 99.2123 24.437 99.3546 24.437 99.6108C24.437 99.9098 24.2817 100.379 23.7311 101.063H23.717L23.7029 101.077L23.5476 101.319C22.7994 102.429 19.2418 107.041 11.2373 108.65H11.2232L7.04443 109.888L7.31266 110.158L7.46795 110.329C7.7503 110.671 8.31499 111.454 8.30088 112.052V112.151L8.25853 112.535L10.0938 111.71C11.2373 111.212 12.3808 110.714 13.5243 110.23C14.7807 109.703 16.0231 109.119 17.2936 108.692C18.0418 108.436 19.8489 107.724 21.0488 107.739C21.4865 107.739 21.8112 107.838 21.9806 108.009C22.1782 108.208 22.2488 108.422 22.2488 108.692C22.2629 109.432 21.5288 110.514 20.6677 111.482C19.8065 112.464 18.8324 113.333 18.4089 113.817C16.5031 115.937 14.5972 118.073 12.5502 120.037C12.409 120.179 12.1831 120.45 11.929 120.692C11.689 120.934 11.3926 121.119 11.3361 121.104L11.2796 121.56L11.9996 121.66L12.0279 121.432L11.7737 121.418C11.7737 121.418 11.7596 121.631 11.7596 121.959C11.7596 122.727 11.8302 124.108 12.4514 124.99L12.6349 125.261L12.8184 124.99C14.7666 122.03 16.9266 119.183 19.1853 116.45C22.4888 112.45 26.484 107.554 31.411 105.746C31.9051 105.561 32.5968 105.305 33.0627 105.319C33.2603 105.319 33.4015 105.361 33.4862 105.433C33.5709 105.504 33.6274 105.618 33.6274 105.86L33.585 106.23C33.0486 109.034 30.2392 111.183 28.5593 113.56C26.7664 116.137 24.9593 118.699 23.11 121.247C22.0794 122.67 21.0347 124.108 19.9618 125.489C19.7924 125.716 19.5242 126.143 19.2277 126.542C18.9454 126.94 18.5924 127.268 18.4512 127.282L18.536 127.738L21.3877 127.197L21.3453 126.969L21.1477 127.083C21.1477 127.083 21.4441 127.609 21.6559 127.894L21.8535 127.994C22.0229 127.965 22.0088 127.923 22.0371 127.908C22.1218 127.823 22.2065 127.695 22.3476 127.467C24.4511 124.165 36.8885 102.557 48.7612 96.3797L48.7753 96.3654L48.7894 96.3512C48.7894 96.3512 49.2271 96.0238 49.82 95.6822C50.4129 95.3548 51.147 95.0274 51.6976 95.0274C52.0364 95.0274 52.2623 95.1271 52.4317 95.3975L52.5305 95.7676C52.5446 96.337 51.8952 97.2195 51.1188 97.9881C50.3423 98.771 49.4953 99.4685 49.1282 99.9098C47.9283 101.333 46.7424 102.742 45.5424 104.166C42.1684 108.166 38.8085 112.165 35.4344 116.165C32.4133 119.752 29.3922 123.339 26.3711 126.926C25.524 127.923 24.6911 128.919 23.8441 129.93L23.6747 130.129L23.9005 130.271C23.9147 130.271 25.4252 131.225 26.2581 131.396L26.3993 131.424L26.484 131.31C26.484 131.31 28.0652 129.275 30.4651 126.229C34.065 121.645 39.4861 114.77 44.1307 108.977C46.4601 106.087 48.5918 103.454 50.2012 101.532C51.0058 100.565 51.6835 99.7816 52.1917 99.2265C52.4458 98.9418 52.6576 98.7283 52.8129 98.5717L53.0105 98.3867L53.067 98.344L53.0811 98.3298L53.0952 98.3155L53.1093 98.3013L53.3493 98.2159L53.8434 98.0878L54.154 98.2159C54.2387 98.3155 54.3093 98.5148 54.3093 98.8991C54.3093 99.0415 54.2952 99.198 54.2811 99.3831V99.3973V99.4116C54.2811 99.4116 54.2952 99.924 54.2952 100.536C54.2952 100.935 54.2811 101.362 54.2528 101.717C54.2387 101.903 54.2246 102.059 54.1964 102.173L54.1399 102.358L54.3234 102.5L54.5069 102.628C54.5069 102.614 56.5116 99.7247 57.0481 98.1305L57.0622 98.102V98.0735C57.0622 98.0735 57.1045 97.5326 57.1045 96.7498C57.1045 95.7391 57.0339 94.3157 56.7375 93.0062C56.441 91.6966 55.9187 90.4583 54.9164 89.8604L54.7893 89.7893L54.6763 89.8747L54.8175 90.0882L54.7046 90.2874C55.5093 90.7429 56.0316 91.8674 56.2998 93.1343C56.5822 94.4011 56.6528 95.7961 56.6528 96.7782C56.6528 97.5611 56.6104 98.0735 56.6104 98.0735L56.8363 98.0878L56.6245 98.0166C56.3846 98.7426 55.7634 99.8528 55.1987 100.764C54.634 101.675 54.1399 102.401 54.1399 102.401L54.5069 102.671C54.6622 102.458 54.6763 102.159 54.7187 101.774C54.7469 101.39 54.7611 100.949 54.7611 100.55C54.7611 99.924 54.7328 99.4116 54.7328 99.4116L54.5069 99.4258L54.7328 99.4543C54.7611 99.255 54.7752 99.0699 54.7752 98.9134C54.7752 98.4721 54.6905 98.159 54.5069 97.9312C54.3234 97.7035 54.0693 97.6323 53.8434 97.6323C53.3211 97.6465 52.8693 97.9597 52.8552 97.9597L52.9823 98.159L52.8976 97.9454C52.7282 98.0308 52.5729 98.1874 52.3046 98.4579C48.3941 102.529 26.1311 131.04 26.117 131.054L26.3005 131.196L26.3428 130.955C26.0323 130.898 25.4535 130.627 24.9876 130.385C24.5217 130.129 24.1405 129.901 24.1405 129.901L24.0276 130.1L24.197 130.243C25.044 129.246 25.877 128.25 26.724 127.239C29.7451 123.652 32.7662 120.065 35.7873 116.478C39.1614 112.479 42.5354 108.479 45.8954 104.479C47.0953 103.056 48.2812 101.646 49.4812 100.223C49.7917 99.8528 50.667 99.1411 51.4576 98.3298C52.2482 97.5184 52.9823 96.6501 53.0105 95.7818C53.0105 95.5683 52.954 95.3548 52.8411 95.1698C52.587 94.7427 52.1493 94.5719 51.7117 94.5862C50.3282 94.6004 48.5635 95.9954 48.5353 95.9954L48.6765 96.1804L48.5777 95.9811C42.0272 99.3973 35.4062 107.326 30.3522 114.386C27.8252 117.916 25.7076 121.233 24.1829 123.667C23.4206 124.891 22.8135 125.887 22.39 126.57C22.1782 126.912 22.0088 127.182 21.8959 127.367L21.7547 127.567L21.7265 127.595L21.8676 127.738V127.538L21.7265 127.595L21.8676 127.738V127.538V127.766L22.0512 127.638L21.8676 127.538V127.766L22.0512 127.638C21.8676 127.382 21.5712 126.855 21.5712 126.855L21.4865 126.713L18.4654 127.282L18.5501 127.738C18.9736 127.638 19.2842 127.239 19.6089 126.827C19.9195 126.414 20.1877 125.958 20.343 125.773C21.43 124.378 22.4606 122.941 23.5053 121.517C25.3405 118.969 27.1475 116.393 28.9546 113.831C30.5498 111.525 33.4439 109.361 34.0509 106.315C34.0791 106.144 34.1074 105.988 34.1074 105.845C34.1074 105.518 34.0086 105.233 33.7968 105.063C33.5992 104.892 33.345 104.835 33.0909 104.835C32.4839 104.835 31.7921 105.105 31.2839 105.29C26.2017 107.169 22.1641 112.137 18.8607 116.137C16.5878 118.884 14.4278 121.745 12.4655 124.72L12.6631 124.848L12.8467 124.706C12.3384 124.022 12.2396 122.67 12.2396 121.944C12.2396 121.631 12.2537 121.432 12.2537 121.432L12.2679 121.218L11.3361 121.09L11.2796 121.546H11.3361C11.7032 121.531 11.9714 121.261 12.2537 121.005C12.522 120.749 12.7761 120.45 12.8749 120.35C14.9501 118.371 16.856 116.222 18.7618 114.101C19.1571 113.66 20.1453 112.763 21.0347 111.767C21.91 110.756 22.7147 109.66 22.7288 108.664C22.7288 108.294 22.6017 107.938 22.3194 107.653C22.0088 107.34 21.5571 107.255 21.063 107.24C19.7218 107.24 17.9007 107.981 17.1666 108.223C15.8537 108.664 14.6254 109.247 13.369 109.774C12.2114 110.258 11.0679 110.756 9.92437 111.269L8.44205 111.923L8.54087 112.137L8.76675 112.151V112.009C8.75263 110.899 7.65148 109.817 7.65148 109.788L7.48207 110.002L7.55266 110.215L11.3643 109.077L11.2938 108.863L11.3361 109.091C20.6536 107.226 24.0841 101.333 24.1123 101.305L23.9147 101.191L24.0982 101.333C24.677 100.607 24.9029 100.052 24.9029 99.5966C24.9029 99.0699 24.5782 98.7283 24.2817 98.5717C23.9852 98.4009 23.717 98.3582 23.7029 98.3582H23.6888L11.0961 98.7426V98.9703L11.1949 99.1838C12.1126 98.771 12.3243 97.9312 12.3243 97.3618C12.3243 96.949 12.2255 96.6359 12.2255 96.6217L11.7879 96.764L12.0137 96.9775C12.2679 97.0772 12.6914 97.1056 13.2278 97.1341C13.7643 97.1626 14.3855 97.1626 14.936 97.1626C15.5995 97.1626 16.1784 97.1483 16.3619 97.1483H16.3901H16.8701C18.0701 97.1483 19.2842 97.1056 20.4841 97.0202C21.5853 96.9348 25.3687 96.5363 28.884 95.668C30.6486 95.2267 32.3427 94.6716 33.6133 93.9741C34.8838 93.2766 35.7732 92.4083 35.7873 91.2838C35.7873 90.9849 35.7168 90.686 35.5897 90.3729C35.5897 90.3586 35.4626 90.0882 35.3356 89.775L35.2791 89.6327L16.9407 89.533L19.6936 87.5118V87.3979H19.4677L19.623 87.5687L19.6936 87.3979H19.4677L19.623 87.5687L19.4818 87.4121L19.5383 87.6114L19.623 87.5687L19.4818 87.4121L19.5383 87.6114L19.8065 87.5972C21.0912 87.5972 26.004 87.8249 30.578 88.0527C35.1521 88.2804 39.3873 88.5082 39.4014 88.5082H39.9943L38.5261 89.6184H37.4532H37.072L37.2414 89.9601C37.4673 90.4013 37.5661 90.8283 37.5661 91.2269C37.5661 92.1806 37.0297 93.0062 36.4509 93.6182C36.1685 93.9172 35.8862 94.1591 35.6744 94.3157C35.4626 94.4723 35.3215 94.5577 35.3215 94.5577L26.4981 100.024C23.6747 102.088 23.35 104.237 23.3641 105.063C23.3641 105.262 23.3782 105.39 23.3923 105.404V105.433L23.4064 105.461C23.6747 106.03 24.3099 106.23 25.0723 106.23C27.4016 106.215 31.6086 104.479 35.3074 102.742C38.992 101.006 42.1119 99.2835 42.1119 99.2835H42.126L54.9728 90.259L54.8175 90.0882Z" fill="#1E50A2"/>
<path d="M62.215 90.0881L62.0173 90.2162C62.0173 90.2162 62.9067 91.5684 63.8949 93.2054C64.8832 94.828 65.9702 96.7354 66.3514 97.7745V97.7887C66.3514 97.803 66.6055 98.3723 67.0572 98.956C67.509 99.5253 68.2007 100.152 69.0901 100.152C69.5842 100.152 70.1348 99.9523 70.6854 99.4826L70.5442 99.3118L70.6854 99.4969C70.7419 99.4542 71.7018 98.657 71.7018 96.0379C71.7018 94.7284 71.4618 92.9634 70.7701 90.6005V90.5863L69.3725 87.5401L69.1607 87.6398L69.2172 87.8675C69.2313 87.8533 70.8124 87.4832 71.6736 86.0883L71.476 85.9744L71.4477 86.2021C71.4618 86.2021 71.8571 86.2591 72.5065 86.2591C74.1441 86.2591 77.3911 85.8747 79.4381 83.0848L79.2546 82.9425L79.0993 83.1133C79.0993 83.1133 79.3958 83.398 79.7205 83.7538C80.0452 84.1239 80.384 84.5937 80.4405 84.8784L80.6663 84.8214L80.5111 84.6506C80.5111 84.6506 80.3275 84.8214 79.9746 85.0776C78.944 85.8747 76.5582 87.4405 74.0453 87.4405C73.4806 87.4405 72.9018 87.3693 72.3371 87.1843L71.8712 87.0277L72.0548 87.4832C72.0548 87.4832 72.3089 88.1095 72.5771 88.8212C72.8453 89.5187 73.1136 90.3443 73.1418 90.6147L73.1559 90.7571L73.283 90.814C73.2971 90.8282 74.5394 91.3691 76.2476 91.3691C77.4758 91.3691 78.9581 91.0845 80.384 90.1023L80.2569 89.9172L80.0452 89.8461L78.9723 93.0203L79.184 93.0915L79.1558 92.8637C79.1558 92.8637 77.4899 93.1057 75.9229 93.1057C75.0476 93.1057 74.1865 93.0203 73.7347 92.8068L73.3536 92.636L73.41 93.0488C73.41 93.0488 73.6783 95.07 73.6783 96.8778C73.6783 97.7745 73.6077 98.6286 73.4241 99.1125L73.41 99.1552V99.1979C73.41 99.2122 73.41 99.6961 73.6641 100.194C73.9041 100.707 74.4547 101.233 75.4147 101.219C75.6547 101.219 75.937 101.191 76.2335 101.12L76.177 100.892L75.9512 100.778L74.7794 103.468L73.17 101.305L73.1559 101.29C73.1277 101.29 72.4783 100.522 71.7159 100.493C71.4336 100.493 71.1371 100.621 70.9395 100.92C70.7419 101.219 70.6148 101.646 70.5583 102.287V102.301L70.8971 111.169L69.3725 113.674V103.909H69.1466L69.3725 103.924V103.81C69.3725 103.554 69.3584 102.97 69.1748 102.401C69.0054 101.845 68.596 101.262 67.8478 101.276L67.6643 101.29L67.6925 101.518L67.749 101.29L67.5513 101.262C67.3255 101.262 66.9019 101.347 66.5772 101.789C66.2525 102.216 66.0125 102.956 66.0125 104.223L65.702 118.699L64.0926 120.563L64.389 97.746H64.1632L64.389 97.7603C64.389 97.7603 64.4032 97.6179 64.4032 97.3902C64.4032 96.9916 64.3749 96.3369 64.2196 95.7533C64.1349 95.4543 64.0361 95.1839 63.8667 94.9704C63.6973 94.7569 63.4432 94.5861 63.1185 94.5861L62.8926 94.6145L62.935 94.8423L62.9632 94.6145H62.8926C62.7514 94.6145 62.3985 94.6572 62.102 95.0131C61.8056 95.3689 61.5797 95.9668 61.5797 97.0343C61.5797 97.2479 61.5938 97.4898 61.6079 97.7603L61.8338 97.746H61.6079L61.8903 121.788L60.9444 122.599L60.295 122.898L60.6056 95.554L62.8361 92.8068L63.1467 91.3691L63.1608 91.2837L62.3985 89.96L62.215 90.0881L62.0173 90.2019L62.695 91.3407L62.4267 92.5933L60.168 95.3832L59.8433 123.61L61.1703 123.012L61.1985 122.997L62.2856 122.072L62.3703 122.001L62.0879 97.7318V97.7176C62.0738 97.4614 62.0597 97.2336 62.0597 97.0343C62.0597 96.0237 62.2714 95.5398 62.4691 95.312C62.6667 95.0843 62.8644 95.07 62.9208 95.07H62.935H62.9773L63.0197 95.0558L63.1608 95.0416L63.542 95.2408C63.8949 95.6679 63.9796 96.8208 63.9796 97.376C63.9796 97.5895 63.9655 97.7176 63.9655 97.7176L63.6549 121.788L66.1961 118.855L66.5208 104.223C66.5208 102.998 66.7608 102.372 66.9866 102.059C67.2266 101.746 67.4525 101.717 67.5937 101.717H67.6643H67.6784L67.7207 101.732H67.7631L67.8901 101.717C68.3701 101.717 68.6101 102.045 68.7795 102.543C68.9348 103.013 68.9631 103.582 68.9631 103.796V103.895V115.283L71.3912 111.283L71.0524 102.287L70.8266 102.301L71.0524 102.315C71.0948 101.717 71.2218 101.362 71.3489 101.176C71.4901 100.991 71.5889 100.949 71.7442 100.949C71.9559 100.949 72.2524 101.091 72.4783 101.262L72.7606 101.49L72.8595 101.589L73.0289 101.433L72.8453 101.575L74.9065 104.351L76.5723 100.522L76.1347 100.621C75.8664 100.678 75.6264 100.707 75.4147 100.707C74.61 100.693 74.2712 100.322 74.0735 99.9381C73.9747 99.7388 73.9183 99.5396 73.89 99.383L73.8618 99.141H73.6359L73.8477 99.2264C74.0735 98.6286 74.13 97.7603 74.13 96.8351C74.13 94.9846 73.8618 92.9491 73.8618 92.9349L73.6359 92.9634L73.5371 93.1769C74.13 93.4473 75.0053 93.5185 75.9229 93.5185C77.5323 93.5185 79.2264 93.2623 79.2264 93.2623L79.3675 93.2481L80.7087 89.2909L80.144 89.6753C78.817 90.6005 77.4335 90.8567 76.2758 90.8567C75.4712 90.8567 74.7653 90.7286 74.2712 90.6005C74.0171 90.5293 73.8194 90.4724 73.6924 90.4154L73.4947 90.3443L73.41 90.5578L73.6359 90.5293C73.5936 90.1165 73.3112 89.3479 73.043 88.6219C72.7748 87.9102 72.5065 87.2697 72.5065 87.2697L72.2948 87.3551L72.2242 87.5686C72.8453 87.7679 73.4665 87.8533 74.0735 87.8533C77.6735 87.8391 80.8216 84.9495 80.8358 84.9353L80.9346 84.8499L80.9063 84.7218C80.6805 83.8393 79.4381 82.729 79.424 82.7148L79.2405 82.5439L79.057 82.7717C77.137 85.3908 74.0735 85.7609 72.4924 85.7609C71.8712 85.7609 71.5042 85.7039 71.5042 85.7039L71.363 85.6755L71.2783 85.8036C70.9113 86.4014 70.3748 86.8 69.9089 87.0419C69.6831 87.1701 69.4713 87.2412 69.3301 87.2982L69.1042 87.3693L68.836 87.4405L70.3466 90.7144L70.5583 90.6147L70.3466 90.6859C71.0383 93.0203 71.2642 94.7426 71.2642 95.9952C71.2642 97.2479 71.0383 98.0307 70.8266 98.5005C70.7136 98.7282 70.6148 98.8848 70.5442 98.9844L70.4595 99.0841L70.4454 99.0983C69.9513 99.5111 69.5278 99.6677 69.1466 99.6677C68.4831 99.6677 67.8902 99.1837 67.4666 98.6428C67.2549 98.3724 67.0996 98.1019 66.9866 97.9026C66.8737 97.7033 66.8172 97.5752 66.8172 97.5752L66.6055 97.6749L66.8172 97.5895C65.9984 95.3689 62.455 89.96 62.4409 89.9457L62.0597 90.1877L62.215 90.0881Z" fill="#1E50A2"/>
</g>
<defs>
<clipPath id="clip0_64_350">
<rect width="109" height="146" fill="white"/>
</clipPath>
</defs>
</svg>
