<svg width="380" height="540" viewBox="0 0 380 540" fill="none" xmlns="http://www.w3.org/2000/svg">
<g opacity="0.6" clip-path="url(#clip0_64_347)">
<path d="M226.633 142.355C226.633 142.355 207.449 141.662 205.009 140.956C205.009 140.956 203.07 150.795 206.025 154.818L186.76 153.853C186.76 153.853 202.568 147.248 205.876 126.455C205.876 126.455 241.113 138.863 252.61 150.577C252.624 150.577 238.835 143.062 226.633 142.355ZM164.443 332.249C164.443 332.249 161.068 331.76 159.129 332.249L155.102 318.523C155.102 318.523 159.454 308.358 157.678 298.668C157.678 298.668 155.59 288.503 143.185 281.069C143.185 281.069 141.409 273.445 163.318 269.912C163.318 269.912 205.51 262.668 207.124 228.122L208.249 211.176C208.276 210.727 211.733 209.354 212.276 209.11C213.306 208.661 214.743 208.172 216.316 207.819C219.8 207.044 223.962 206.908 225.969 209.232C225.955 209.246 173.459 297.703 164.443 332.249ZM369.194 5.17741L370.862 17.9385C370.442 26.2828 347.556 33.7981 345.468 34.2058C297.189 48.3938 308.848 85.9431 308.848 85.9431L309.689 92.3033L273.056 146.025C273.056 146.025 258.901 134.759 258.074 132.679C257.247 130.586 257.247 125.613 257.247 125.613L262.236 121.522C287.21 96.5842 252.244 80.113 252.244 80.113L215.611 71.7687C223.935 79.6917 223.095 96.3803 223.095 96.3803C216.438 121.413 240.991 125.613 240.991 125.613L242.238 130.6C235.161 126.428 208.94 112.24 208.94 112.24C183.14 105.567 177.717 87.6283 177.717 87.6283C174.381 76.3622 185.214 70.0292 185.214 70.0292C196.02 63.7098 201.402 49.9159 199.436 37.7664C197.335 24.7335 186.556 20.1129 177.215 13.0868C171.683 8.92826 166.314 4.52508 161.081 0.0131836C160.661 3.35634 149.421 11.4696 149.421 11.4696C137.911 19.7867 137.68 40.8785 145.042 51.8865C145.49 52.566 146.032 53.1775 146.547 53.8027C154.139 62.6634 160.593 72.3939 166.897 82.2195L173.554 98.0791C161.922 89.2863 124.461 89.2863 124.461 89.2863L119.472 82.6136L121.14 75.0983C123.81 61.7392 112.395 45.5399 102.077 38.5546C95.0136 33.7845 86.2281 34.9261 78.1476 33.4855C73.4294 32.6565 68.7113 31.6237 64.1152 30.2511C66.5691 40.7562 63.6813 52.1447 67.3419 62.2964C70.3653 70.6951 77.2527 77.1368 84.8723 81.0507C90.7293 84.0541 96.8303 84.6385 102.823 86.7721C109.9 89.2727 110.727 92.6159 110.727 92.6159C110.727 91.583 93.2375 100.879 92.302 101.137C90.1598 101.735 87.5974 102.36 85.3468 102.21L72.86 101.381C52.8757 95.5377 37.8942 110.568 39.5619 128.086C40.7007 140.14 36.9316 147.452 34.4641 150.849C41.0126 145.957 59.5462 144.367 59.5462 144.367C92.8172 142.695 92.4104 114.605 92.4104 114.605C98.6471 104.045 114.469 100.552 114.469 100.552C119.879 113.069 107.812 117.418 107.812 117.418C134.033 113.001 124.041 97.6306 124.041 97.6306C178.571 94.2874 181.486 112.24 181.486 112.24C181.065 113.911 156.932 125.613 156.932 125.613C143.198 128.562 144.446 153.54 144.446 153.54C139.456 153.961 120.719 168.136 120.719 168.136C119.052 171.058 93.6578 172.308 93.6578 172.308C57.0244 175.23 56.1974 205.685 56.1974 205.685C56.1974 209.028 50.3675 243.656 50.3675 243.656C53.7027 233.219 72.0194 236.236 72.0194 236.236C105.738 237.989 109.48 212.399 109.48 212.399C110.727 189.486 122.794 184.417 122.794 184.417C124.041 189.01 119.879 208.621 119.879 208.621C121.546 206.949 142.778 206.528 142.778 206.528C173.161 210.7 183.153 175.23 183.153 175.23C183.98 165.635 193.552 164.385 193.552 164.385L209.781 165.635C225.603 188.997 251.824 173.558 251.824 173.558L232.68 199.434C189.39 200.263 180.238 206.528 180.238 206.528C135.28 223.624 136.934 276.612 136.934 276.612C127.363 277.033 113.208 260.344 113.208 260.344C111.961 266.188 93.6442 275.361 93.6442 275.361C79.4898 294.972 109.873 310.818 109.873 310.818C113.208 315.819 137.341 320.412 137.341 320.412C148.16 322.505 148.743 333.758 148.743 333.758C136.419 335.43 129.708 327.914 129.708 327.914C122.902 323.742 97.3862 317.069 97.3862 317.069C76.9951 308.725 67.003 322.084 67.003 322.084C62.4204 331.257 38.2874 328.336 38.2874 328.336C38.7077 332.929 51.1945 352.118 51.1945 352.118L34.1252 351.289C5.40959 348.367 5.40959 378.823 5.40959 378.823L0 413.464C14.9814 386.351 54.95 395.525 54.95 395.525C64.3592 395.919 70.8128 390.293 75.1919 384.666C80.0999 378.347 82.3776 372.041 83.2589 374.243C84.9265 378.415 82.4319 393.024 82.4319 393.024C82.0116 398.025 75.7749 408.884 73.687 408.884C149.028 410.134 139.863 355.475 139.863 355.475C137.368 342.537 150.682 342.958 150.682 342.958C163.169 342.537 162.749 352.553 162.749 352.553C163.169 356.304 156.499 372.585 156.499 372.585C150.669 378.007 142.764 408.041 140.676 410.134C138.589 420.558 129.708 428.073 129.708 428.073C120.082 419.851 103.636 418.057 103.636 418.057C79.0831 422.229 85.3197 456.028 85.3197 456.028C86.9873 447.262 109.466 449.776 109.466 449.776C112.381 451.856 122.78 451.856 122.78 451.856C116.543 468.965 82.4047 489.405 82.4047 489.405C85.1705 479.484 84.7096 468.558 77.9849 460.322C71.7483 452.685 60.6986 451.923 54.8958 443.919C53.757 442.342 47.0729 432.68 48.2796 430.573C46.612 433.495 34.9657 442.261 34.9657 442.261C18.737 449.776 25.8006 473.559 25.8006 473.559C36.0639 504.422 60.5494 506.392 63.0441 506.515L52.8621 506.107C24.9736 502.356 16.2288 528.639 16.2288 528.639C15.8085 533.641 2.49465 542.406 2.49465 542.406C12.0665 542.406 24.5533 553.672 24.5533 553.672C65.3489 572.44 76.1681 535.733 76.1681 535.733L82.825 550.75C88.6549 525.296 107.378 520.295 107.378 520.295C141.097 507.779 117.37 471.901 117.37 471.901C133.193 458.963 143.591 424.336 143.591 424.336L163.982 374.27L175.642 346.736C181.879 375.52 172.307 382.94 172.307 382.94C141.097 409.55 156.905 438.116 156.905 438.116C169.338 453.065 172.212 461.736 172.768 465.908C173.92 453.989 187.709 446.882 187.709 446.882C205.605 426.021 182.719 400.145 182.719 400.145C178.137 396.911 180.225 380.535 180.225 380.535C189.797 357.704 180.645 332.97 180.645 332.97C174.815 327.126 182.733 312.938 182.733 312.938C236.842 205.291 241.425 222.822 241.425 222.822C244.34 229.495 248.502 242.433 248.502 242.433C240.178 270.387 253.492 288.612 253.492 288.612C265.558 305.993 300.103 303.765 300.103 303.765C297.189 302.093 296.361 292.702 296.361 292.702C298.368 256.186 286.369 245.355 286.369 245.355C275.957 231.588 255.146 227.837 255.146 227.837C255.146 222.415 248.489 209.069 248.489 209.069C248.489 203.647 294.355 128.969 294.355 128.969C294.355 123.547 317.58 95.5921 317.58 95.5921C363.785 105.608 373.357 63.0439 373.357 63.0439C390.426 19.1888 369.194 5.17741 369.194 5.17741Z" fill="#1E50A2"/>
</g>
<defs>
<clipPath id="clip0_64_347">
<rect width="380" height="559" fill="white"/>
</clipPath>
</defs>
</svg>
