<svg width="193" height="227" viewBox="0 0 193 227" fill="none" xmlns="http://www.w3.org/2000/svg">
<g clip-path="url(#clip0_64_583)">
<path d="M100.73 14.9764L86.7174 59.8065L68.1172 54.0095L82.1296 9.17937C82.1296 9.17937 84.8933 -1.61408 94.7877 1.32583C94.7877 1.32583 104.171 3.96208 100.73 14.9764Z" fill="#89C2EA"/>
<path d="M84.658 65.1478L66.2512 59.406C65.201 59.0748 64.6206 57.9568 64.9384 56.9216L66.2651 52.6705C66.5967 51.6215 67.716 51.0418 68.7525 51.3592L87.1593 57.101C88.2095 57.4185 88.7899 58.5503 88.4721 59.5855L87.1454 63.8366C86.8276 64.8856 85.7083 65.4791 84.658 65.1478Z" fill="#89C2EA"/>
<path d="M98.436 15.5837L85.004 58.5642L70.2178 53.9542L83.6498 10.9737C83.6498 10.9737 86.0266 1.79509 93.9034 4.12769C93.9034 4.12769 101.366 6.21185 98.436 15.5837Z" fill="#89C2EA"/>
<path d="M70.5768 53.7608L84.8241 58.2052L98.1732 15.5006C99.1267 12.4365 99.0576 9.84167 97.9521 7.81272C96.5288 5.20408 93.8617 4.41734 93.8341 4.41734C91.7889 3.81004 89.9371 3.96186 88.348 4.85902C85.1143 6.68093 83.9535 11.0149 83.9397 11.0563L70.5768 53.7608ZM85.1972 58.9229L69.8721 54.1335L83.387 10.8907C83.4284 10.7112 84.6169 6.29446 88.0578 4.34833C89.7989 3.36836 91.7889 3.20273 93.9861 3.85144C94.0966 3.89285 96.9157 4.69339 98.4496 7.52287C99.638 9.70365 99.7209 12.4365 98.7121 15.6663L85.1972 58.9229Z" fill="#231916"/>
<path d="M82.4883 14.728C82.4883 14.728 86.1227 17.0744 97.2745 19.338L82.4883 14.728Z" fill="#89C2EA"/>
<path d="M97.2062 19.614C86.1234 17.3642 82.4753 15.0592 82.3232 14.9626L82.6273 14.4795C82.6687 14.5071 86.3722 16.8259 97.3168 19.0481L97.2062 19.614Z" fill="#231916"/>
<path d="M84.5756 62.3048L68.4489 57.2808C67.758 57.0599 67.3711 56.3284 67.5783 55.6383L67.8962 54.6031C68.1173 53.913 68.8497 53.5265 69.5406 53.7335L85.6673 58.7576C86.3582 58.9784 86.7452 59.71 86.5379 60.4001L86.2201 61.4353C86.0128 62.1392 85.2666 62.5257 84.5756 62.3048Z" fill="#89C2EA"/>
<path d="M84.6586 62.0423C85.1975 62.2079 85.7779 61.9043 85.9437 61.366L86.2616 60.3308C86.4274 59.7925 86.1234 59.2128 85.5844 59.0472L69.4439 54.0231C69.1814 53.9403 68.905 53.9679 68.6563 54.0921C68.4075 54.2163 68.2279 54.4372 68.145 54.6994L67.8271 55.7208C67.7442 55.983 67.7718 56.2591 67.8962 56.5075C68.0206 56.7422 68.2417 56.9216 68.5042 57.0044L84.6586 62.0423ZM84.9626 62.6496C84.7967 62.6496 84.6447 62.622 84.4927 62.5806L68.3661 57.5427C67.9653 57.4185 67.6337 57.1424 67.4264 56.7698C67.2329 56.3833 67.1915 55.9554 67.3158 55.5414L67.6337 54.52C67.758 54.1197 68.0344 53.7747 68.4213 53.5814C68.8083 53.3882 69.2367 53.3468 69.6374 53.471L85.7779 58.4951C86.6208 58.7573 87.0907 59.6545 86.8281 60.4964L86.5103 61.5316C86.2892 62.2217 85.6535 62.6496 84.9626 62.6496Z" fill="#231916"/>
<path d="M67.7441 55.1138C67.7441 55.1138 81.4663 59.8618 86.3859 60.9246L67.7441 55.1138Z" fill="#89C2EA"/>
<path d="M86.3306 61.2145C81.4387 60.1655 67.7857 55.4451 67.6475 55.3899L67.8409 54.8516C67.9791 54.893 81.6046 59.6134 86.455 60.6486L86.3306 61.2145Z" fill="#231916"/>
<path d="M71.1016 51.1387C71.1016 51.1387 79.4344 54.9067 85.8878 55.7487L71.1016 51.1387Z" fill="#89C2EA"/>
<path d="M85.8467 56.0385C79.4347 55.1966 71.0605 51.4424 70.9775 51.401L71.2125 50.8765C71.2954 50.9179 79.5867 54.6445 85.9158 55.4589L85.8467 56.0385Z" fill="#231916"/>
<path d="M88.2784 170.543L107.473 213.413L89.688 221.349L70.4935 178.479C70.4935 178.479 65.422 168.555 74.7912 164.235C74.7774 164.235 83.5662 160.012 88.2784 170.543Z" fill="#89C2EA"/>
<path d="M109.463 218.782L91.8582 226.636C90.8632 227.077 89.6748 226.636 89.2326 225.628L87.4085 221.57C86.9663 220.577 87.4085 219.39 88.4172 218.948L106.009 211.094C107.004 210.653 108.192 211.094 108.634 212.102L110.458 216.16C110.914 217.167 110.458 218.341 109.463 218.782Z" fill="#89C2EA"/>
<path d="M86.9663 172.503L105.359 213.606L91.2225 219.914L72.8296 178.811C72.8296 178.811 68.5457 170.35 75.9803 166.899C75.9803 166.913 82.9588 163.545 86.9663 172.503Z" fill="#89C2EA"/>
<path d="M79.0613 166.581C77.3615 166.581 76.1178 167.161 76.104 167.175C74.1556 168.072 72.8704 169.411 72.2762 171.136C71.0601 174.642 73.0639 178.659 73.0777 178.7L91.3601 219.555L104.972 213.468L86.6893 172.627C85.3765 169.687 83.6077 167.796 81.4381 167.009C80.609 166.692 79.7937 166.581 79.0613 166.581ZM91.0837 220.3L90.9732 220.038L72.5802 178.935C72.4973 178.769 70.4521 174.683 71.7511 170.943C72.4005 169.066 73.7963 167.617 75.8829 166.65C75.9935 166.595 78.6329 165.353 81.6592 166.457C83.9808 167.299 85.8602 169.301 87.2421 172.392L105.759 213.758L91.0837 220.3Z" fill="#231916"/>
<path d="M74.4326 182.413C74.4326 182.413 78.7027 181.764 88.5694 176.105L74.4326 182.413Z" fill="#89C2EA"/>
<path d="M74.4735 182.689L74.3906 182.123C74.4321 182.123 78.7436 181.405 88.4306 175.843L88.7208 176.34C78.9094 181.971 74.6532 182.661 74.4735 182.689Z" fill="#231916"/>
<path d="M107.528 216.712L92.0926 223.599C91.4293 223.889 90.6554 223.599 90.3514 222.936L89.9092 221.956C89.619 221.294 89.9092 220.521 90.5725 220.217L105.994 213.33C106.658 213.04 107.432 213.33 107.736 213.992L108.178 214.972C108.482 215.635 108.178 216.408 107.528 216.712Z" fill="#89C2EA"/>
<path d="M106.548 213.496C106.41 213.496 106.258 213.523 106.133 213.592L90.7113 220.48C90.4625 220.59 90.269 220.797 90.1723 221.046C90.0756 221.308 90.0756 221.584 90.2 221.832L90.6422 222.812C90.7527 223.061 90.96 223.254 91.2087 223.351C91.4713 223.447 91.7477 223.434 91.9964 223.323L107.418 216.436C107.667 216.325 107.861 216.118 107.957 215.87C108.054 215.608 108.054 215.332 107.93 215.083L107.487 214.103C107.322 213.73 106.935 213.496 106.548 213.496ZM91.5542 223.999C91.3607 223.999 91.1673 223.958 90.9738 223.889C90.5731 223.737 90.2552 223.434 90.0894 223.047L89.6472 222.067C89.4675 221.681 89.4676 221.239 89.6196 220.839C89.7716 220.438 90.0756 220.121 90.4625 219.955L105.884 213.068C106.686 212.709 107.639 213.068 107.999 213.868L108.441 214.848C108.621 215.235 108.621 215.677 108.469 216.077C108.317 216.477 108.013 216.795 107.626 216.96L92.2037 223.848C91.9964 223.958 91.7753 223.999 91.5542 223.999Z" fill="#231916"/>
<path d="M90.1309 222.44C90.1309 222.44 103.563 216.932 107.957 214.476L90.1309 222.44Z" fill="#89C2EA"/>
<path d="M90.2406 222.702L90.0195 222.178C90.1577 222.123 103.479 216.657 107.818 214.228L108.095 214.724C103.742 217.167 90.3788 222.647 90.2406 222.702Z" fill="#231916"/>
<path d="M90.0195 217.236C90.0195 217.236 98.7669 214.559 104.156 210.929L90.0195 217.236Z" fill="#89C2EA"/>
<path d="M90.1024 217.512L89.9365 216.974C90.0333 216.946 98.7115 214.255 104.004 210.694L104.322 211.163C98.9603 214.779 90.1991 217.485 90.1024 217.512Z" fill="#231916"/>
<path d="M15.7018 186.139C15.7018 190.404 12.2332 193.869 7.9632 193.869C3.69316 193.869 0.224609 190.404 0.224609 186.139C0.224609 181.875 3.69316 178.41 7.9632 178.41C12.2332 178.41 15.7018 181.875 15.7018 186.139Z" fill="#A9D8C7"/>
<path d="M146.415 119.198C149.358 109.26 157.663 101.738 167.862 99.7917C157.898 96.8794 150.339 88.6118 148.349 78.4395C145.406 88.3772 137.101 95.8995 126.902 97.8456C136.88 100.758 144.425 109.025 146.415 119.198Z" fill="#89C2EA"/>
<path d="M178.185 174.684C180.119 168.183 185.55 163.255 192.225 161.986C185.702 160.081 180.755 154.67 179.456 148.018C177.521 154.518 172.091 159.446 165.416 160.716C171.939 162.607 176.886 168.017 178.185 174.684Z" fill="#A9D8C7"/>
</g>
<defs>
<clipPath id="clip0_64_583">
<rect width="192" height="226" fill="white" transform="translate(0.224609 0.814941)"/>
</clipPath>
</defs>
</svg>
