<svg width="1048" height="402" viewBox="0 0 1048 402" fill="none" xmlns="http://www.w3.org/2000/svg">
<g clip-path="url(#clip0_64_535)">
<path d="M926.424 228.536C926.424 224.125 922.849 220.555 918.432 220.555C914.015 220.555 910.44 224.125 910.44 228.536C910.44 232.947 914.015 236.518 918.432 236.518C922.849 236.518 926.424 232.947 926.424 228.536Z" fill="#AAD3C4"/>
<path d="M1027.9 47.0418C1002.75 47.0418 953.063 55.6162 883.911 72.1307C782.418 96.3649 649.592 135.005 509.879 180.909C370.18 226.813 240.322 274.496 144.24 315.162C49.9248 355.097 -2.08458 384.349 1.55939 395.405C5.20336 406.474 64.4317 399.168 164.075 375.375C265.568 351.141 398.393 312.501 538.106 266.611C677.819 220.706 807.663 173.024 903.745 132.344C998.075 92.4086 1050.08 63.1704 1046.44 52.101C1045.32 48.7098 1039 47.0418 1027.9 47.0418ZM20.7178 401.815C9.09578 401.815 1.6146 400.05 0.22051 395.846C-4.85896 380.434 75.4326 342.76 143.688 313.866C239.798 273.172 369.683 225.476 509.438 179.572C803.15 83.0623 1039.61 26.8742 1047.77 51.6598C1052.84 67.0716 972.553 104.746 904.298 133.64C808.188 174.333 678.289 222.03 538.548 267.934C398.807 313.852 265.927 352.492 164.406 376.74C111.983 389.257 51.6778 401.815 20.7178 401.815Z" fill="white"/>
<path d="M127.277 293.051C127.277 289.908 124.723 287.357 121.576 287.357C118.429 287.357 115.875 289.908 115.875 293.051C115.875 296.194 118.429 298.744 121.576 298.744C124.723 298.744 127.277 296.194 127.277 293.051Z" fill="#89C2EA"/>
<path d="M112.659 340.816C101.81 338.155 93.2937 329.636 90.6712 318.773C88.0486 329.622 79.5322 338.155 68.6831 340.816C79.5322 343.476 88.0486 352.009 90.6712 362.858C93.2937 352.009 101.81 343.476 112.659 340.816Z" fill="#89C2EA"/>
<path d="M100.306 219.742C102.045 213.442 107.18 208.589 113.598 207.238C107.276 205.529 102.404 200.415 101.024 194.019C99.2845 200.318 94.1498 205.171 87.7314 206.522C94.067 208.217 98.9256 213.345 100.306 219.742Z" fill="#A9D8C7"/>
<path d="M970.386 113.706C959.537 111.046 951.021 102.527 948.398 91.6641C945.776 102.513 937.259 111.046 926.41 113.706C937.259 116.367 945.776 124.9 948.398 135.749C951.035 124.9 959.537 116.367 970.386 113.706Z" fill="#A9D8C7"/>
<path d="M774.261 322.661C774.261 327.886 770.009 332.131 764.778 332.131C759.547 332.131 755.295 327.899 755.295 322.661C755.295 317.436 759.547 313.191 764.778 313.191C770.023 313.191 774.261 317.423 774.261 322.661Z" fill="#89C2EA"/>
<path d="M805.98 366.677C805.98 369.296 803.854 371.405 801.245 371.405C798.623 371.405 796.511 369.282 796.511 366.677C796.511 364.057 798.636 361.948 801.245 361.948C803.854 361.948 805.98 364.057 805.98 366.677Z" fill="#A9D8C7"/>
<path d="M73.7489 241.742C73.7489 246.967 69.4976 251.213 64.2663 251.213C59.035 251.213 54.7837 246.981 54.7837 241.742C54.7837 236.518 59.0212 232.272 64.2663 232.272C69.5114 232.272 73.7489 236.518 73.7489 241.742Z" fill="#A9D8C7"/>
<path d="M178.65 78.8173C178.65 75.6054 176.041 73 172.825 73C169.609 73 167 75.6054 167 78.8173C167 82.0292 169.609 84.6346 172.825 84.6346C176.041 84.6346 178.65 82.043 178.65 78.8173Z" fill="#89C2EA"/>
</g>
<defs>
<clipPath id="clip0_64_535">
<rect width="1048" height="402" fill="white"/>
</clipPath>
</defs>
</svg>
