<svg width="1023" height="332" viewBox="0 0 1023 332" fill="none" xmlns="http://www.w3.org/2000/svg">
<g clip-path="url(#clip0_64_547)">
<path d="M167.209 147.353C166.119 153.203 160.49 157.08 154.64 155.99C148.79 154.9 144.913 149.285 146.003 143.421C147.093 137.571 152.708 133.694 158.572 134.784C164.422 135.874 168.299 141.49 167.209 147.353Z" fill="#89C2EA"/>
<path d="M224.675 90.3849C223.903 94.5241 219.929 97.2559 215.79 96.4971C211.651 95.7244 208.919 91.7508 209.678 87.6117C210.45 83.4726 214.424 80.7407 218.563 81.4996C222.702 82.2722 225.434 86.2458 224.675 90.3849Z" fill="#A9D8C7"/>
<path d="M83.5702 6.37446C83.0321 9.29945 80.2174 11.231 77.2786 10.693C74.3536 10.1549 72.422 7.34026 72.9601 4.41527C73.4981 1.49028 76.3128 -0.441315 79.2378 0.096772C82.1766 0.63486 84.1083 3.44947 83.5702 6.37446Z" fill="#A9D8C7"/>
<path d="M696.046 45.6686C695.853 45.3375 695.646 45.0063 695.439 44.7166C695.287 44.689 695.122 44.6614 694.956 44.6614H694.928C694.073 44.5372 693.245 44.4545 692.39 44.3579C692.197 44.3165 692.045 44.2889 691.852 44.2889C691.7 44.2613 691.507 44.2199 691.341 44.2337C690.362 44.1233 689.341 43.9853 688.347 43.875L688.251 43.8612C688.126 43.8336 687.975 43.806 687.837 43.8198C687.685 43.7922 687.561 43.7646 687.395 43.7646L687.299 43.7508C667.499 41.4467 647.176 39.4737 626.48 37.9146H626.452C626.163 37.8594 625.914 37.8456 625.611 37.8594C623.058 37.6111 620.492 37.4317 617.884 37.2386C617.815 37.2248 617.76 37.211 617.691 37.2386H617.664C617.567 37.2248 617.539 37.211 617.443 37.2248C617.222 37.7353 617.029 38.2595 616.836 38.77C616.932 38.7562 617.001 38.77 617.057 38.7838C617.153 38.7976 617.222 38.7838 617.277 38.8252C619.816 38.977 622.355 39.184 624.88 39.3909C625.169 39.4185 625.459 39.4323 625.749 39.4599C646.362 41.0742 666.492 43.0058 686.084 45.2685H686.112C686.14 45.2823 686.14 45.2823 686.181 45.2823C686.346 45.2823 686.471 45.2961 686.622 45.3375C686.788 45.3375 686.885 45.3513 687.036 45.3789L687.105 45.3927C688.002 45.4892 688.885 45.5996 689.782 45.6962H689.81C689.961 45.7238 690.127 45.7238 690.293 45.7514C690.486 45.7928 690.637 45.779 690.831 45.8204C692.583 46.0135 694.294 46.2343 696.046 46.4274H696.074C696.225 46.455 696.363 46.4826 696.515 46.4826L696.543 46.4964C696.377 46.1929 696.225 45.9307 696.046 45.6686ZM882.516 82.838C882.516 82.838 882.116 82.5069 881.44 81.955C878.846 81.1824 876.266 80.4097 873.617 79.6233C866.056 77.4158 858.33 75.2634 850.383 73.2076C850.107 73.1249 849.858 73.0421 849.582 73.0007C845.526 71.9245 841.414 70.9035 837.247 69.8963C837.22 69.8549 837.165 69.8411 837.123 69.8411C836.902 69.7722 836.682 69.7308 836.461 69.6894C836.433 69.6894 836.406 69.648 836.364 69.6756C815.489 64.5706 793.455 59.9348 770.386 55.8923C769.696 55.7405 769.006 55.6025 768.316 55.5059C764.977 54.8851 761.611 54.3332 758.203 53.7675L757.734 53.6847C757.541 53.6433 757.361 53.6157 757.168 53.6157C755.374 53.2846 753.581 52.9811 751.746 52.7051L751.18 52.5947C750.987 52.5672 750.807 52.5258 750.614 52.5258H750.587C747.331 51.9877 744.088 51.4496 740.791 50.9667C740.597 50.9253 740.446 50.8977 740.253 50.8977C740.073 50.8287 739.908 50.8011 739.714 50.8011H739.687C738.114 50.539 736.555 50.3182 734.941 50.0837C734.747 50.0561 734.596 50.0147 734.403 50.0147L734.375 50.0009C734.196 49.9319 734.03 49.9319 733.837 49.9043C722.578 48.2073 711.085 46.662 699.413 45.2133C699.385 45.2133 699.385 45.2133 699.357 45.1995C699.206 45.1719 699.068 45.1443 698.916 45.1443H698.888C698.736 45.1167 698.571 45.0891 698.405 45.0891L698.309 45.0753C697.55 44.9649 696.777 44.896 696.018 44.8132H695.991C695.839 44.7856 695.646 44.7442 695.48 44.758C695.329 44.7304 695.163 44.7028 694.997 44.7028H694.97C694.114 44.5786 693.287 44.4958 692.431 44.3993C692.238 44.3579 692.086 44.3303 691.893 44.3303C691.741 44.3027 691.548 44.2613 691.383 44.2751C690.403 44.1647 689.382 44.0267 688.388 43.9164L688.292 43.9026C688.168 43.875 688.016 43.8474 687.878 43.8612C687.726 43.8336 687.602 43.806 687.436 43.806L687.34 43.7922C667.541 41.4881 647.217 39.5151 626.521 37.956H626.494C626.204 37.9008 625.956 37.887 625.652 37.9008C623.1 37.6525 620.533 37.4731 617.926 37.28C617.857 37.2662 617.802 37.2524 617.733 37.28H617.705C617.608 37.2662 617.581 37.2524 617.484 37.2662C617.36 37.2386 617.263 37.2248 617.139 37.2386C617.07 37.2248 616.988 37.211 616.905 37.2248H616.877C616.629 37.1834 616.367 37.1558 616.077 37.1696C615.953 37.142 615.801 37.1144 615.635 37.1144C615.511 37.0868 615.373 37.1006 615.249 37.1006H615.221C612.655 36.8936 610.116 36.7143 607.55 36.5625C607.385 37.0868 607.191 37.6387 607.026 38.1492C609.578 38.2595 612.103 38.4389 614.642 38.6459C614.78 38.6321 614.904 38.6597 615.028 38.6873C615.194 38.6873 615.318 38.6735 615.484 38.7011C615.773 38.7286 616.036 38.7424 616.325 38.7562C616.394 38.77 616.491 38.7562 616.56 38.77C616.684 38.7976 616.822 38.7838 616.905 38.7976C617.001 38.7838 617.07 38.7976 617.126 38.8114C617.222 38.8252 617.291 38.8114 617.346 38.8528C619.885 39.0046 622.424 39.2115 624.949 39.4185C625.238 39.4461 625.528 39.4599 625.818 39.4875C646.431 41.1018 666.561 43.0333 686.153 45.2961H686.181C686.209 45.3099 686.209 45.3099 686.25 45.3099C686.415 45.3099 686.54 45.3237 686.691 45.3651C686.857 45.3651 686.954 45.3789 687.105 45.4065L687.174 45.4202C688.071 45.5168 688.954 45.6272 689.851 45.7238H689.879C690.03 45.7514 690.196 45.7514 690.361 45.779C690.555 45.8204 690.706 45.8066 690.9 45.848C692.652 46.0411 694.363 46.2619 696.115 46.455H696.143C696.294 46.4826 696.432 46.5102 696.584 46.5102L696.612 46.524C696.763 46.5516 696.929 46.5792 697.095 46.5792H697.122C697.881 46.6896 698.64 46.8 699.413 46.8689C699.44 46.8689 699.44 46.8689 699.468 46.8827C699.619 46.9103 699.826 46.9103 699.978 46.9379C700.13 46.9655 700.254 46.9931 700.42 46.9931C700.447 46.9931 700.447 46.9931 700.489 47.0069C712.258 48.4694 723.82 50.0975 735.148 51.8083C735.341 51.8083 735.492 51.8359 735.686 51.8773C735.879 51.8773 736.072 51.9187 736.251 51.9877C737.838 52.1808 739.425 52.443 740.998 52.7051C741.191 52.7051 741.343 52.7327 741.536 52.7741C741.729 52.8155 741.922 52.8155 742.101 52.8845C744.323 53.2018 746.503 53.533 748.683 53.9055H748.71C748.903 53.9469 749.097 53.9469 749.29 53.9745L749.855 54.0848C751.69 54.3884 753.526 54.6643 755.319 54.9679L755.857 55.0644C756.05 55.092 756.202 55.1334 756.368 55.1196C757.43 55.3128 758.506 55.4783 759.555 55.6715C759.914 55.6991 760.286 55.7405 760.659 55.8509L762.825 56.251C762.852 56.251 762.852 56.251 762.894 56.2648C763.901 56.4165 764.853 56.5959 765.819 56.7753H765.846C770.234 57.5203 774.58 58.293 778.844 59.0932C798.905 62.8184 818.028 66.8748 836.102 71.3036L836.199 71.3174C836.42 71.3588 836.64 71.4002 836.847 71.4692C836.875 71.4692 836.916 71.483 836.972 71.5244C841.4 72.573 845.774 73.6767 850.051 74.7943C850.396 74.8909 850.7 74.9737 851.017 75.0427C862.331 78.0228 873.217 81.1134 883.579 84.3281C883.22 83.7762 882.889 83.3209 882.516 82.838Z" fill="white"/>
<path d="M870.485 280.758C838.848 288.981 803.83 295.893 766.26 301.343C763.514 301.743 760.783 302.143 758.009 302.516C757.844 302.557 757.678 302.557 757.513 302.585C757.306 302.612 757.14 302.64 756.947 302.681C717.928 308.062 676.329 311.967 632.978 314.216C632.84 314.257 632.675 314.257 632.551 314.271C632.413 314.271 632.288 314.285 632.15 314.298C628.839 314.464 625.486 314.657 622.147 314.781C585.364 316.52 547.421 317.127 508.83 316.52C413.588 315.002 322.456 306.434 243.426 291.795C209.305 285.476 177.419 277.998 148.459 269.513C52.1262 241.201 -0.62083 204.653 4.82663e-05 166.559C0.579534 128.479 54.4442 93.5859 151.591 68.3372C248.462 43.1712 376.914 30.4779 513.245 32.6164C545.228 33.1131 576.754 34.3963 607.495 36.4934C607.329 37.0177 607.136 37.5696 606.97 38.0801C576.616 35.9967 545.283 34.7136 513.245 34.2031C377.011 32.0783 248.724 44.7579 152.019 69.8962C55.5893 94.9242 2.16622 129.251 1.58674 166.586C1.02105 203.88 53.3128 239.891 148.9 267.94C244.805 296.086 372.623 312.753 508.83 314.878C547.187 315.485 584.964 314.905 621.568 313.236C624.948 313.084 628.301 312.891 631.654 312.698C631.778 312.725 631.916 312.712 632.054 312.67C632.206 312.698 632.344 312.684 632.482 312.656C676.454 310.366 718.618 306.406 758.12 300.915C758.327 300.888 758.52 300.86 758.713 300.832C758.879 300.791 759.044 300.791 759.21 300.763C761.955 300.363 764.687 299.991 767.391 299.577C804.368 294.141 838.848 287.325 870.071 279.212C966.473 254.143 1019.9 219.816 1020.46 182.522C1021.04 145.353 968.915 110.722 883.496 84.259C883.192 83.7761 882.861 83.3208 882.488 82.8379C882.488 82.8379 882.088 82.5068 881.412 81.9549C972.764 109.908 1022.63 145.504 1022.05 182.536C1021.48 220.63 967.631 255.509 870.485 280.758Z" fill="white"/>
<path d="M308.521 43.9852C296.007 41.7639 285.715 32.6992 281.948 20.5439C279.768 33.0717 270.731 43.392 258.617 47.2138C271.131 49.4351 281.424 58.4998 285.19 70.6551C287.37 58.1273 296.407 47.807 308.521 43.9852Z" fill="#89C2EA"/>
<path d="M905.861 281.516C894.726 275.377 887.911 263.484 888.242 250.776C882.143 261.938 870.264 268.795 857.57 268.506C868.705 274.632 875.521 286.538 875.189 299.246C881.274 288.084 893.154 281.227 905.861 281.516Z" fill="#A9D8C7"/>
<path d="M67.3448 187.296L105.246 217.995L92.5248 233.696L54.6237 202.997C54.6237 202.997 45.2691 196.195 51.8918 187.779C51.8918 187.779 58.0316 179.749 67.3448 187.296Z" fill="#89C2EA"/>
<path d="M109.62 222.037L97.0368 237.572C96.3193 238.455 95.0086 238.593 94.1255 237.876L90.5382 234.965C89.6552 234.247 89.5172 232.95 90.2347 232.067L102.818 216.532C103.535 215.649 104.832 215.511 105.715 216.228L109.303 219.14C110.199 219.843 110.337 221.154 109.62 222.037Z" fill="#89C2EA"/>
<path d="M67.0549 189.724L103.397 219.153L93.2835 231.64L56.9415 202.211C56.9415 202.211 48.9942 196.402 54.2648 189.697C54.2648 189.71 59.1352 183.308 67.0549 189.724Z" fill="#89C2EA"/>
<path d="M60.2118 187.172C59.922 187.172 59.6461 187.185 59.3702 187.227C56.3072 187.586 54.5273 189.876 54.4997 189.89C53.12 191.642 52.5681 193.477 52.8164 195.353C53.3407 199.175 57.0798 201.948 57.1212 201.976L93.2425 231.226L102.983 219.195L66.8759 189.945C64.5855 188.11 62.3504 187.172 60.2118 187.172ZM93.3253 232.067L56.7487 202.445C56.5969 202.335 52.775 199.506 52.2232 195.436C51.9334 193.394 52.5405 191.407 54.0168 189.531C54.0996 189.434 55.9622 187.034 59.2736 186.634C61.8123 186.33 64.5027 187.296 67.2346 189.503L103.797 219.126L93.3253 232.067Z" fill="#231916"/>
<path d="M60.1147 204.777C60.1147 204.777 63.7572 202.183 70.2282 192.291L60.1147 204.777Z" fill="#89C2EA"/>
<path d="M60.2805 205.025L59.9355 204.542C59.9631 204.515 63.6332 201.838 69.9662 192.139L70.4629 192.456C64.0471 202.28 60.4322 204.915 60.2805 205.025Z" fill="#231916"/>
<path d="M106.846 221.016L95.8086 234.648C95.3395 235.227 94.4702 235.324 93.8907 234.855L93.0215 234.151C92.442 233.682 92.3454 232.813 92.8146 232.233L103.852 218.602C104.321 218.022 105.191 217.926 105.77 218.395L106.639 219.098C107.233 219.567 107.316 220.437 106.846 221.016Z" fill="#89C2EA"/>
<path d="M104.929 218.381C104.887 218.381 104.846 218.381 104.818 218.381C104.528 218.408 104.28 218.546 104.101 218.767L93.0629 232.385C92.8835 232.606 92.8007 232.881 92.8283 233.171C92.8559 233.461 92.9939 233.709 93.2146 233.889L94.0839 234.592C94.3046 234.772 94.5806 234.854 94.8703 234.827C95.16 234.799 95.4084 234.661 95.5878 234.441L106.626 220.809C106.805 220.588 106.888 220.312 106.86 220.023C106.833 219.733 106.695 219.484 106.474 219.305L105.605 218.601C105.398 218.464 105.163 218.381 104.929 218.381ZM94.7461 235.448C94.3598 235.448 94.0011 235.324 93.6975 235.075L92.8283 234.372C92.1108 233.792 92.0005 232.757 92.5799 232.04L103.618 218.408C103.894 218.063 104.294 217.856 104.735 217.801C105.177 217.76 105.605 217.884 105.95 218.16L106.819 218.864C107.164 219.14 107.371 219.54 107.426 219.981C107.467 220.423 107.343 220.85 107.067 221.209L96.0293 234.841C95.7533 235.186 95.3532 235.393 94.9117 235.448C94.8703 235.434 94.8151 235.448 94.7461 235.448Z" fill="#231916"/>
<path d="M93.4629 234.496C93.4629 234.496 103.3 223.1 106.212 218.753L93.4629 234.496Z" fill="#89C2EA"/>
<path d="M93.6838 234.689L93.2285 234.303C93.3251 234.192 103.094 222.865 105.963 218.588L106.446 218.919C103.563 223.224 93.7804 234.565 93.6838 234.689Z" fill="#231916"/>
<path d="M90.9106 229.722C90.9106 229.722 97.7403 223.127 101.024 217.236L90.9106 229.722Z" fill="#89C2EA"/>
<path d="M91.1175 229.929L90.7036 229.501C90.7726 229.432 97.5471 222.865 100.762 217.084L101.286 217.374C98.0162 223.251 91.1865 229.86 91.1175 229.929Z" fill="#231916"/>
<path d="M64.8062 307.11L113.538 309.387L112.586 329.572L63.8542 327.295C63.8542 327.295 52.292 327.351 52.6508 316.658C52.6508 316.658 52.8439 306.558 64.8062 307.11Z" fill="#89C2EA"/>
<path d="M119.457 310.062L118.519 330.041C118.464 331.172 117.498 332.055 116.353 332.014L111.731 331.793C110.599 331.738 109.716 330.772 109.771 329.641L110.71 309.662C110.765 308.531 111.731 307.648 112.862 307.703L117.484 307.924C118.616 307.951 119.512 308.931 119.457 310.062Z" fill="#89C2EA"/>
<path d="M66.0203 309.248L112.738 311.442L111.993 327.488L65.2752 325.294C65.2752 325.294 55.4378 325.308 55.7137 316.809C55.7137 316.809 55.8379 308.766 66.0203 309.248Z" fill="#89C2EA"/>
<path d="M65.1648 309.524C62.226 309.524 59.9356 310.283 58.3351 311.787C56.0862 313.898 56.0034 316.782 56.0034 316.809C55.9344 319.03 56.5553 320.838 57.8798 322.204C60.5565 324.963 65.22 324.991 65.2752 324.991L111.703 327.157L112.421 311.704L66.0064 309.524C65.7167 309.524 65.4407 309.524 65.1648 309.524ZM112.269 327.792L65.2614 325.584H65.2476C64.9854 325.584 60.2805 325.529 57.4521 322.618C56.0172 321.141 55.3273 319.168 55.3963 316.795C55.3963 316.671 55.4791 313.636 57.9074 311.359C59.7838 309.607 62.4881 308.807 66.0202 308.959L113.028 311.166L112.269 327.792Z" fill="#231916"/>
<path d="M69.3452 325.488C69.3452 325.488 70.7387 321.238 70.0903 309.442L69.3452 325.488Z" fill="#89C2EA"/>
<path d="M69.6214 325.585L69.0557 325.405C69.0695 325.364 70.4354 321.031 69.7869 309.469L70.3802 309.442C71.0425 321.142 69.6903 325.405 69.6214 325.585Z" fill="#231916"/>
<path d="M116.615 310.89L115.787 328.399C115.746 329.144 115.111 329.737 114.366 329.696L113.248 329.641C112.503 329.613 111.91 328.965 111.951 328.22L112.779 310.711C112.82 309.966 113.455 309.373 114.2 309.414L115.318 309.469C116.063 309.497 116.656 310.132 116.615 310.89Z" fill="#89C2EA"/>
<path d="M114.131 309.704C113.869 309.704 113.607 309.8 113.414 309.98C113.207 310.173 113.083 310.435 113.069 310.725L112.255 328.233C112.241 328.523 112.338 328.785 112.531 329.006C112.724 329.213 112.986 329.337 113.276 329.351L114.393 329.406C114.407 329.406 114.421 329.406 114.449 329.406C115.014 329.406 115.483 328.965 115.511 328.385L116.339 310.877C116.353 310.587 116.256 310.325 116.063 310.104C115.87 309.897 115.608 309.773 115.318 309.759L114.2 309.704C114.173 309.704 114.159 309.704 114.131 309.704ZM114.435 329.999C114.407 329.999 114.38 329.999 114.352 329.999L113.234 329.944C112.324 329.903 111.606 329.116 111.648 328.206L112.462 310.697C112.476 310.256 112.669 309.842 113 309.552C113.331 309.248 113.759 309.097 114.186 309.124L115.304 309.179C116.215 309.221 116.932 310.007 116.891 310.918L116.077 328.426C116.049 329.309 115.318 329.999 114.435 329.999Z" fill="#231916"/>
<path d="M113.814 329.668C113.814 329.668 114.987 314.657 114.766 309.428L113.814 329.668Z" fill="#89C2EA"/>
<path d="M114.104 329.696L113.51 329.654C113.524 329.503 114.683 314.602 114.462 309.455L115.056 309.428C115.276 314.602 114.117 329.544 114.104 329.696Z" fill="#231916"/>
<path d="M108.93 327.337C108.93 327.337 110.53 317.982 109.675 311.291L108.93 327.337Z" fill="#89C2EA"/>
<path d="M109.22 327.392L108.64 327.295C108.654 327.199 110.227 317.913 109.385 311.332L109.978 311.263C110.82 317.913 109.233 327.295 109.22 327.392Z" fill="#231916"/>
<path d="M1023 37.4178C1023 40.4393 1020.56 42.8814 1017.54 42.8814C1014.51 42.8814 1012.07 40.4393 1012.07 37.4178C1012.07 34.3962 1014.51 31.9541 1017.54 31.9541C1020.56 31.9541 1023 34.41 1023 37.4178Z" fill="#89C2EA"/>
<path d="M966.211 80.851C966.211 82.9895 964.486 84.7142 962.348 84.7142C960.209 84.7142 958.484 82.9895 958.484 80.851C958.484 78.7124 960.209 76.9878 962.348 76.9878C964.486 76.9878 966.211 78.7124 966.211 80.851Z" fill="#89C2EA"/>
</g>
<defs>
<clipPath id="clip0_64_547">
<rect width="1023" height="332" fill="white"/>
</clipPath>
</defs>
</svg>
