<svg width="550" height="984" viewBox="0 0 550 984" fill="none" xmlns="http://www.w3.org/2000/svg">
<g clip-path="url(#clip0_445_418)">
<path d="M521.945 248.404C518.528 247.44 515.769 245.096 513.82 242.205C512.308 239.971 510.206 236.597 510.359 233.793C510.469 232.107 511.432 230.311 511.914 228.711C512.44 226.915 512.878 225.097 513.184 223.257C513.776 219.599 513.82 215.809 512.812 212.239C511.608 207.902 508.76 204.309 504.95 201.943C501.84 200.016 498.27 198.877 494.656 198.285C492.97 198 491.283 197.913 489.575 197.825C466.47 196.664 463.009 179.929 463.009 179.929C441.064 196.555 450.876 219.205 450.876 219.205C463.863 257.32 496.781 242.599 496.781 242.599C498.467 242.336 499.759 242.139 500.657 242.709C501.993 243.585 502.409 245.644 501.993 247.134C501.424 249.127 499.08 250.726 497.547 252.04C490.736 257.911 480.092 253.07 472.361 252.062C468.397 251.537 464.411 251.252 460.425 250.989C448.138 250.792 437.341 256.18 433.377 268.272C432.019 272.412 431.516 276.815 431.516 281.152C431.516 283.759 432.019 286.322 431.954 288.907C431.822 293.594 429.851 297.997 429.523 302.663C429.807 298.611 448.007 299.202 448.007 299.202C493.911 296.026 499.409 270.901 499.409 270.901C501.621 251.12 512.746 254.954 517.74 257.758C514.411 262.358 511.914 266.06 511.345 267.615C508.016 272.5 504.643 277.341 501.183 282.138C494.744 291.075 487.385 299.246 481.121 308.358C478.318 312.455 475.558 316.573 473.04 320.866C471.791 322.991 470.171 325.466 469.339 327.985L467.214 327.504C467.214 327.504 408.958 321.852 398.226 357.097H393.758C392.138 351.468 390.166 345.926 387.757 340.581C382.435 328.884 374.485 317.427 362.549 311.798C347.219 304.547 335.217 312.915 320.937 317.712C314.936 319.727 308.76 321.436 302.519 322.597C314.652 364.173 346.408 364.764 346.408 364.764C338.896 371.686 344.393 382.661 344.393 382.661C360.841 374.862 372.12 375.432 372.12 375.432C386.553 375.717 394.35 367.919 394.35 367.919H396.562C396.43 373.504 397.24 379.835 399.233 387.02C399.233 387.02 422.711 383.362 428.778 381.982C424.529 385.486 420.696 389.473 416.886 393.416C415.681 394.643 414.498 395.869 413.338 397.096L411.367 396.242C337.998 373.614 334.888 430.26 334.888 430.26L320.499 400.601C299.124 350.219 248.971 379.002 248.971 379.002C255.519 393.613 273.609 410.414 273.609 410.414C283.64 418.476 306.527 417.84 306.527 417.84C317.871 420.447 319.601 423.295 319.601 423.295L273.149 420.688C215.155 411.751 208.388 435.518 208.388 435.518C207.731 444.017 193.561 455.364 193.561 455.364C200.986 454.488 219.295 461.037 219.295 461.037C257.884 460.818 280.574 433.765 280.574 433.765C280.574 432.889 292.992 425.047 292.992 425.047C297.788 423.514 311.958 425.485 311.958 425.485L306.943 427.391L286.443 437.051C266.163 444.893 280.574 461.913 280.574 461.913C285.392 473.041 272.054 483.95 272.054 483.95C273.982 482.066 285.48 481.431 291.721 481.212C296.189 486.995 305.826 497.049 321.134 501.124C321.134 501.124 324.485 500.554 329.391 499.503C323.675 502.438 317.477 504.453 316.272 504.716C303.833 502.044 290.802 500.729 278.165 501.08C270.696 501.299 262.987 501.693 255.935 504.344C247.372 507.564 244.196 513.522 239.444 520.729C236.443 525.285 232.545 530.192 227.332 532.295C226.741 532.535 226.128 532.733 225.515 532.886C225.515 532.886 253.285 560.07 281.559 541.582C281.318 547.694 282.654 552.009 282.654 552.009L283.421 557.814L249.89 606.881C249.89 606.881 236.947 596.586 236.18 594.68C235.414 592.775 235.414 588.218 235.414 588.218L239.991 584.473C262.856 561.713 230.859 546.664 230.859 546.664L197.328 539.041C204.95 546.27 204.183 561.516 204.183 561.516C198.095 584.385 220.565 588.218 220.565 588.218L221.704 592.775C215.221 588.963 191.218 575.995 191.218 575.995C167.608 569.906 162.637 553.521 162.637 553.521C159.593 543.225 169.492 537.442 169.492 537.442C179.391 531.659 184.297 519.064 182.501 507.98C180.574 496.085 170.718 491.858 162.155 485.439C157.096 481.65 152.168 477.619 147.372 473.501C147 476.546 136.706 483.95 136.706 483.95C126.172 491.551 125.953 510.806 132.698 520.86C133.114 521.473 133.596 522.043 134.078 522.612C141.042 530.717 146.934 539.589 152.716 548.57L158.804 563.049C148.138 555.054 113.841 555.054 113.841 555.054L109.264 548.964L110.797 542.108C113.228 529.907 102.803 515.121 93.3421 508.747C86.8813 504.387 78.8217 505.439 71.4411 504.125C67.1266 503.358 62.8121 502.416 58.6071 501.167C60.8629 510.762 58.2129 521.167 61.5637 530.433C64.3233 538.099 70.6307 543.992 77.6172 547.562C82.961 550.301 88.5677 550.848 94.0429 552.776C100.526 555.054 101.27 558.121 101.27 558.121C101.27 557.179 85.2606 565.656 84.4065 565.897C82.4354 566.445 80.092 567.014 78.0333 566.883C78.0114 566.883 66.601 566.116 66.601 566.116C48.3136 560.771 34.6036 574.506 36.1148 590.496C37.166 601.515 33.7056 608.196 31.4498 611.284C37.4507 606.816 54.4021 605.348 54.4021 605.348C84.8883 603.815 84.4941 578.164 84.4941 578.164C90.2103 568.526 104.687 565.327 104.687 565.327C109.636 576.762 98.5983 580.727 98.5983 580.727C122.602 576.696 113.447 562.655 113.447 562.655C163.36 559.61 166.032 575.995 166.032 575.995C165.659 577.529 143.561 588.218 143.561 588.218C130.99 590.913 132.129 613.716 132.129 613.716C127.551 614.088 110.403 627.056 110.403 627.056C108.87 629.729 85.6329 630.868 85.6329 630.868C52.1025 633.54 51.336 661.36 51.336 661.36C51.336 664.404 45.9921 696.035 45.9921 696.035C49.0364 686.507 65.8125 689.245 65.8125 689.245C96.671 690.844 100.109 667.471 100.109 667.471C101.248 646.552 112.308 641.908 112.308 641.908C113.447 646.092 109.636 664.01 109.636 664.01C111.17 662.477 130.596 662.104 130.596 662.104C158.41 665.916 167.543 633.518 167.543 633.518C168.309 624.756 177.07 623.617 177.07 623.617L191.919 624.756C206.395 646.092 230.399 632.007 230.399 632.007L212.878 655.62C173.259 656.387 164.871 662.104 164.871 662.104C123.719 677.723 125.252 726.111 125.252 726.111C116.491 726.483 103.526 711.259 103.526 711.259C102.387 716.604 85.611 724.972 85.611 724.972C72.6675 742.89 100.46 757.348 100.46 757.348C103.504 761.926 125.602 766.11 125.602 766.11C135.502 768.016 136.027 778.311 136.027 778.311C124.748 779.844 118.594 772.966 118.594 772.966C112.352 769.155 89.0057 763.065 89.0057 763.065C70.346 755.442 61.1914 767.643 61.1914 767.643C57.0083 776.033 34.9102 773.36 34.9102 773.36C35.2825 777.544 46.7148 795.09 46.7148 795.09L31.0994 794.324C4.81822 791.651 4.81822 819.471 4.81822 819.471L0 851.08C13.71 826.305 50.2847 834.695 50.2847 834.695C68.5721 835.461 74.6605 811.453 76.1936 815.265C77.7267 819.076 75.4271 832.417 75.4271 832.417C75.0547 836.995 69.3386 846.918 67.4332 846.896C136.378 848.035 128.011 798.113 128.011 798.113C125.734 786.306 137.911 786.679 137.911 786.679C149.343 786.306 148.949 795.441 148.949 795.441C149.321 798.88 143.233 813.732 143.233 813.732C137.889 818.682 130.661 846.129 128.756 848.035C126.851 857.564 118.725 864.42 118.725 864.42C109.921 856.907 94.8533 855.286 94.8533 855.286C72.3828 859.097 78.099 889.961 78.099 889.961C79.6321 881.966 100.197 884.244 100.197 884.244C102.869 886.15 112.396 886.15 112.396 886.15C106.68 901.768 75.449 920.453 75.449 920.453C77.9676 911.407 77.5515 901.418 71.3973 893.904C65.6811 886.917 55.5629 886.237 50.2628 878.921C49.2116 877.475 43.1012 868.67 44.1962 866.742C42.6632 869.414 31.9974 877.41 31.9974 877.41C17.1485 884.266 23.6093 905.996 23.6093 905.996C33.0048 934.188 55.4095 935.984 57.6873 936.094L48.3574 935.721C22.8428 932.282 14.827 956.29 14.827 956.29C14.4547 960.868 2.2558 968.864 2.2558 968.864C11.0162 968.864 22.4485 979.159 22.4485 979.159C59.7897 996.311 69.689 962.774 69.689 962.774L75.7775 976.487C81.1213 953.245 98.2479 948.667 98.2479 948.667C129.106 937.233 107.381 904.463 107.381 904.463C121.857 892.656 131.384 861.025 131.384 861.025L150.044 815.309L160.71 790.162C166.426 816.448 157.665 823.216 157.665 823.216C129.085 847.509 143.561 873.598 143.561 873.598C154.928 887.245 157.578 895.175 158.081 898.986C159.133 888.099 171.77 881.616 171.77 881.616C188.152 862.558 167.192 838.944 167.192 838.944C163.009 835.987 164.915 821.026 164.915 821.026C173.675 800.172 165.287 777.588 165.287 777.588C159.943 772.243 167.192 759.297 167.192 759.297C216.71 660.987 220.915 677 220.915 677C223.587 683.089 227.398 694.918 227.398 694.918C219.777 720.438 231.975 737.086 231.975 737.086C243.014 752.967 274.639 750.93 274.639 750.93C271.967 749.396 271.2 740.831 271.2 740.831C273.04 707.492 262.067 697.591 262.067 697.591C252.541 685.017 233.487 681.578 233.487 681.578C233.487 676.627 227.398 664.426 227.398 664.426C227.398 659.476 269.382 591.263 269.382 591.263C269.382 586.313 290.648 560.771 290.648 560.771C320.412 567.211 333.552 549.884 338.743 539.041C344.853 546.511 356.702 551.111 378.603 531.243C378.603 531.243 375.208 528.746 375.953 511.068C378.208 512.12 380.574 513.128 382.939 513.982C382.939 513.982 392.269 521.627 392.072 527.782C392.072 527.782 428.427 516.83 421.967 491.135C430.18 488.484 459.68 476.94 454.993 449.822C458.432 452.012 462.286 453.633 466.163 454.816C466.163 454.816 476.237 458.912 478.099 465.637C479.26 458.934 481.078 449.866 486.334 445.156C487.232 444.345 487.976 443.316 488.633 442.221V442.308C488.633 442.308 489.794 464.914 511.126 473.195C511.126 473.195 531.91 486.075 534.319 501.167C534.319 501.167 541.678 496.743 537.998 480.927C537.998 480.927 535.983 465.462 539.028 459.942C539.028 459.942 542.422 452.407 533.027 445.397C533.027 445.397 522.536 435.649 522.733 428.639C522.733 428.639 515.922 406.187 487.779 403.799L485.918 403.536C484.406 400.798 482.676 398.148 480.771 395.672C480.026 394.708 479.26 393.788 478.493 392.868C478.493 392.868 518.791 416.57 523.259 369.737C523.259 369.737 525.69 358.543 532.216 357.798C532.589 357.755 529.829 352.3 529.654 352.037C526.413 347.393 521.266 344.502 515.922 342.947C506.965 340.34 497.131 340.34 488.13 342.771C484.494 343.757 480.902 345.312 477.551 346.999C475.208 348.182 470.675 350.197 469.711 352.935C469.711 352.935 486.684 304.985 504.796 293.222L506.855 291.908L507.6 298.435C507.6 298.435 510.534 329.409 542.094 337.799V292.258C542.094 292.258 521.047 292.061 518.419 294.317C518.419 294.317 513.688 266.147 542.094 246.739V226.389C542.094 226.389 532.72 237.955 524.31 248.952C523.303 248.755 522.208 248.47 521.945 248.404ZM150.504 776.909C150.504 776.909 147.416 776.471 145.642 776.909L141.962 764.379C141.962 764.379 145.948 755.092 144.328 746.242C144.328 746.242 142.422 736.954 131.056 730.163C131.056 730.163 129.435 723.198 149.474 719.978C149.474 719.978 188.086 713.362 189.575 681.819L190.604 666.332C190.626 665.916 193.78 664.667 194.284 664.448C195.226 664.032 196.54 663.594 197.985 663.265C201.161 662.564 204.993 662.433 206.811 664.558C206.811 664.58 158.76 745.366 150.504 776.909ZM207.424 603.486C207.424 603.486 189.86 602.851 187.626 602.216C187.626 602.216 185.852 611.197 188.568 614.877L170.937 614.001C170.937 614.001 185.392 607.977 188.436 588.985C188.436 588.985 220.675 600.31 231.209 611.022C231.209 611 218.616 604.121 207.424 603.486ZM376.632 442.067C376.632 442.067 368.09 447.281 360.688 455.758C354.555 454.926 342.707 454.619 327.398 460.446C329.019 453.414 327.683 447.281 327.683 447.281L330.946 448.157C359.067 449.471 393.32 414.795 393.32 414.795C396.233 408.837 403.57 404.281 409.198 401.521C406.964 403.974 404.774 406.45 402.672 409.1C393.955 420.053 385.283 431.071 376.632 442.067ZM421.594 485.374L420.959 487.783C419.733 484.585 417.915 481.168 415.243 477.532L402.935 464.279C402.935 464.279 426.807 463.534 421.594 485.374ZM396.408 432.561C396.408 432.561 429.61 381.062 449.387 376.023L451.993 394.117C451.467 396.833 450.81 399.549 450.066 402.2C447.854 410.086 443.276 416.635 442.641 424.981C442.444 427.435 442.576 429.888 442.97 432.276C434.801 427.785 420.631 425.398 396.408 432.561Z" fill="#1E50A2" fill-opacity="0.6"/>
<path d="M158.103 901.768C158.103 901.768 158.388 900.87 158.147 898.942C158.037 899.862 158.015 900.782 158.103 901.768Z" fill="#1E50A2" fill-opacity="0.6"/>
<path d="M29.7197 613.321C29.7197 613.321 30.5082 612.642 31.5156 611.24C30.6834 611.876 30.0482 612.555 29.7197 613.321Z" fill="#1E50A2" fill-opacity="0.6"/>
<path d="M517.718 163.982C517.718 163.982 489.685 205.777 542.094 218.022V163.303V136.316C529.414 142.646 517.718 163.982 517.718 163.982Z" fill="#1E50A2" fill-opacity="0.6"/>
<path d="M512.002 131.277C478.231 133.797 474.508 163.303 474.508 163.303C474.508 163.303 468.091 183.215 497.285 196.029C497.285 196.029 491.24 178.198 502.957 172.963C502.957 172.963 513.207 168.538 514.455 163.303C519.273 147.969 518.507 136.885 517.959 132.811C520.149 128.802 534.823 102.407 542.116 100.829V92.2644C542.094 92.2425 528.91 102.867 512.002 131.277Z" fill="#1E50A2" fill-opacity="0.6"/>
<path d="M378.34 49.5056H378.384C375.624 50.5789 372.843 51.6961 370.083 52.879C366.185 52.1342 362.243 51.7618 358.3 52.0247C347.262 52.7694 339.378 59.3629 335.742 69.3297C330.464 72.046 325.186 75.047 320.017 78.2889L320.127 78.1794C319.514 77.3251 318.813 76.4489 318.068 75.6165C331.953 66.5697 341.787 45.0588 341.787 45.0588C342.554 37.8301 352.059 30.2072 352.059 30.2072L348.532 30.01C299.649 32.5072 310.184 67.0954 310.184 67.0954L295.072 52.4847C271.266 26.9871 247.525 55.2009 247.525 55.2009C254.643 62.5172 269.141 68.6288 269.141 68.6288C276.916 71.2574 290.473 65.8687 290.473 65.8687C297.832 64.9487 299.496 66.263 299.496 66.263L271.112 74.8498C234.428 82.188 235.567 97.894 235.567 97.894C237.034 103.129 231.034 113.03 231.034 113.03C235.282 110.884 247.678 110.796 247.678 110.796C270.74 102.231 278.427 81.0709 278.427 81.0709C278.23 80.5451 283.946 73.1412 283.946 73.1412C286.487 71.1697 295.401 69.264 295.401 69.264L292.816 71.4983L282.654 81.7718C272.229 90.9063 284.582 97.9378 284.582 97.9378C286.29 99.734 286.859 101.946 286.859 104.093C282.37 108.408 278.143 112.921 274.266 117.587C269.995 122.734 266.009 128.123 262.33 133.709C244.108 145.121 245.335 162.711 245.335 162.711C245.094 162.711 244.021 168.538 243.868 169.086C243.145 171.583 242.137 173.094 240.342 174.891C236.465 178.768 233.552 184.507 234.691 190.071C234.691 190.071 234.209 178.724 247.262 174.365C247.262 174.365 258.87 166.895 260.293 162.689C264.586 152.547 264.761 141.485 264.52 136.009C264.871 135.877 265.112 135.571 265.331 135.242C271.156 126.283 277.967 118.047 285.501 110.446C284.888 111.957 284.319 112.943 284.319 112.943C285.348 110.796 297.875 106.065 297.875 106.065C310.403 101.18 312.834 93.6663 312.418 87.7519C315.133 85.8243 317.871 83.9185 320.674 82.1223C325.317 79.0994 330.596 76.0327 336.202 73.0317C340.604 76.9308 356.132 89.0224 375.493 85.8462C375.383 86.0433 375.274 86.2186 375.164 86.3938C370.258 94.893 365.287 103.743 362.527 113.206L362.549 113.228C282.632 118.31 281.8 162.602 281.8 162.602C282.567 181.112 301.752 179.644 301.752 179.644C300.898 179.71 299.496 182.754 298.752 183.324C296.759 184.879 293.649 185.58 291.327 186.851C285.392 190.071 280.092 194.32 274.901 198.57C267.477 208.8 242.685 213.925 242.685 213.925C207.14 229.785 220.937 260.737 220.937 260.737C223.741 262.27 226.566 280.692 226.566 280.692C237.823 258.174 266.207 254.34 266.207 254.34C260.074 272.5 272.602 283.255 272.602 283.255C281.559 288.381 290.32 316.31 290.32 316.31C291.415 300.516 308.738 293.748 308.738 293.748C326.193 289.389 326.829 265.862 326.829 265.862C333.224 266.892 342.181 281.459 342.181 281.459C341.677 271.733 343.714 254.603 343.714 254.603C357.687 225.71 329.741 216.664 329.741 216.664C342.115 204.287 325.296 189.304 325.296 189.304L326.566 184.266C365.177 184.003 364.936 162.602 364.936 162.602L367.871 117.324C367.871 117.324 374.77 100.654 385.677 82.7795C387.297 82.0566 388.94 81.2461 390.582 80.2604C390.582 80.2604 399.124 72.7688 405.519 72.8564C403.614 71.6298 401.796 70.2935 400.022 68.8916C398.971 68.0373 397.963 67.1173 396.999 66.1754C405.782 54.7628 415.966 44.9493 426.697 41.4007C426.697 41.4007 423.916 55.3762 421.441 71.5859C417.849 72.966 413.381 74.9155 412.768 75.2441C408.388 77.4784 404.271 80.2823 400.679 83.6557C396.08 87.971 392.466 93.3596 390.539 99.3835C388.392 106.065 389.663 112.592 388.874 119.405C388.217 125.188 386.772 131.058 383.706 136.053C383.706 136.053 394.546 125.911 403.789 127.05C403.789 127.05 429.544 125.188 429.325 103.37C430.311 91.3444 428.427 80.4356 427.113 74.6527C430.004 58.1362 433.771 41.9264 437.779 38.5968C445.62 31.6748 464.914 25.3223 485.37 20.1965C484.494 22.8909 483.048 27.5566 481.932 32.332L481.91 32.3101L465.287 51.017L461.366 54.6533C461.366 54.6533 448.226 65.6935 453 82.3852C453 82.3852 454.73 100.851 446.715 109.197C446.715 109.197 452.759 111.629 460.622 102.165C460.622 102.165 469.054 93.8854 473.762 93.1844C473.762 93.1844 479.873 91.7825 479.807 82.9109C479.807 82.9109 480.902 72.1117 485.217 69.023C485.217 69.023 492.51 58.9686 488.217 45.0807C489.947 45.0588 492.181 44.555 493.539 42.3864C493.539 42.3864 496.452 56.5371 516.075 58.4867C516.075 55.5952 516.316 52.7037 516.71 49.8342C517.652 43.0436 520.39 36.9758 515.856 30.7329C512.33 25.87 506.548 23.2632 500.876 21.8832C498.292 21.248 495.642 20.8318 492.992 20.5908L492.597 18.466C521.419 11.6973 550.044 7.44774 550.044 7.44774V0C460.425 11.1497 378.34 49.5056 378.34 49.5056ZM309.571 78.8584L311.717 78.6613C312.352 78.4642 312.987 78.2232 313.622 77.9603C314.564 79.2746 315.309 80.348 315.747 81.0051C314.367 81.9033 313.009 82.8452 311.651 83.7871C310.819 80.8299 309.571 78.8584 309.571 78.8584ZM313.009 190.991C313.009 190.991 308.191 189.304 302.518 190.991L313.009 180.279V190.991ZM391.327 61.0496C391.327 61.0715 391.305 61.0715 391.305 61.0934C388.151 58.64 384.428 57.1286 380.683 55.8143C379.544 55.42 378.384 55.0476 377.223 54.6752C386.772 51.1923 395.663 48.5637 402.716 47.2932C401.642 47.4027 391.962 60.1077 391.327 61.0496ZM484.165 36.5158L483.925 36.0777C484.582 33.3834 485.392 30.251 486.246 27.3376C486.158 28.6519 486.224 30.1415 486.575 31.7843C486.575 31.7843 487.341 35.1577 486.487 40.7435C485.83 39.3635 485.063 37.9616 484.165 36.5158Z" fill="#1E50A2" fill-opacity="0.6"/>
</g>
<defs>
<clipPath id="clip0_445_418">
<rect width="550" height="984" fill="white"/>
</clipPath>
</defs>
</svg>
