<svg width="26" height="24" viewBox="0 0 26 24" fill="none" xmlns="http://www.w3.org/2000/svg">
<path d="M1.75 11.5C1.19772 11.5 0.75 11.9477 0.75 12.5C0.75 13.0523 1.19772 13.5 1.75 13.5V11.5ZM24.25 13.5C24.8023 13.5 25.25 13.0523 25.25 12.5C25.25 11.9477 24.8023 11.5 24.25 11.5V13.5ZM1.75 19C1.19772 19 0.75 19.4477 0.75 20C0.75 20.5523 1.19772 21 1.75 21V19ZM24.25 21C24.8023 21 25.25 20.5523 25.25 20C25.25 19.4477 24.8023 19 24.25 19V21ZM1.75 4C1.19772 4 0.75 4.44772 0.75 5C0.75 5.55228 1.19772 6 1.75 6V4ZM24.25 6C24.8023 6 25.25 5.55228 25.25 5C25.25 4.44772 24.8023 4 24.25 4V6ZM1.75 13.5H24.25V11.5H1.75V13.5ZM1.75 21H24.25V19H1.75V21ZM1.75 6H24.25V4H1.75V6Z" fill="#0068FF"/>
</svg>
