<svg width="389" height="339" viewBox="0 0 389 339" fill="none" xmlns="http://www.w3.org/2000/svg">
<g clip-path="url(#clip0_2_316)">
<path d="M194.266 -69.1682L196.27 2.28055C196.27 2.28287 196.27 2.28519 196.27 2.28751C196.271 38.0435 206.542 70.5536 223.112 94.1383C239.68 117.719 262.58 132.416 287.828 132.42C287.831 132.42 287.835 132.42 287.838 132.42L377.241 136.24L286.624 140.132C286.62 140.132 286.617 140.132 286.613 140.132C261.365 140.136 238.466 154.852 221.898 178.441C205.327 202.035 195.057 234.545 195.056 270.264C195.056 270.266 195.056 270.269 195.056 270.271L193.659 320.88L192.261 270.271C192.261 270.269 192.261 270.266 192.261 270.264C192.26 234.508 181.99 201.998 165.419 178.413C148.851 154.833 125.951 140.136 100.703 140.132L10.6831 136.309L100.704 132.42C125.951 132.416 148.851 117.719 165.419 94.1383C181.99 70.5536 192.26 38.0435 192.261 2.28751C192.261 2.28519 192.261 2.28287 192.261 2.28055L194.266 -69.1682Z" fill="white" stroke="#0068FF"/>
</g>
<defs>
<clipPath id="clip0_2_316">
<rect width="390" height="426" fill="white" transform="translate(-1 -87)"/>
</clipPath>
</defs>
</svg>
