<svg width="222" height="243" viewBox="0 0 222 243" fill="none" xmlns="http://www.w3.org/2000/svg">
<g clip-path="url(#clip0_2_276)">
<path d="M111.151 17.8691L112.077 50.9346C112.078 71.3684 117.935 89.9558 127.395 103.448C136.852 116.937 149.945 125.373 164.405 125.377L210.298 127.342L163.714 129.346C149.253 129.351 136.161 137.797 126.704 151.291C117.244 164.789 111.387 183.376 111.386 203.789C111.386 203.791 111.386 203.793 111.386 203.796L110.806 224.843L110.226 203.796C110.226 203.793 110.226 203.791 110.226 203.789C110.224 183.355 104.367 164.767 94.9074 151.275C85.4501 137.786 72.3576 129.35 57.8973 129.346L11.659 127.379L57.8977 125.377C72.3578 125.373 85.4501 116.937 94.9074 103.448C104.367 89.9558 110.224 71.3684 110.226 50.9346L111.151 17.8691Z" fill="white" stroke="#0068FF"/>
</g>
<defs>
<clipPath id="clip0_2_276">
<rect width="222" height="243" fill="white"/>
</clipPath>
</defs>
</svg>
