<svg width="605" height="290" viewBox="0 0 605 290" fill="none" xmlns="http://www.w3.org/2000/svg">
<mask id="path-1-outside-1_13_399" maskUnits="userSpaceOnUse" x="9.8363" y="72.445" width="593.086" height="177.902" fill="black">
<rect fill="white" x="9.8363" y="72.445" width="593.086" height="177.902"/>
<path d="M14.9748 151.902C14.4979 147.327 15.5224 143.651 18.0482 140.874C20.663 137.987 24.2083 136.311 28.6841 135.844C33.3588 135.357 37.2233 136.261 40.2778 138.557C43.3218 140.753 45.0823 144.139 45.5591 148.714L52.183 212.27C52.38 214.16 53.0172 215.451 54.0948 216.143C55.1619 216.735 56.772 216.266 58.9248 214.735C63.5973 211.332 67.7849 208.583 71.4876 206.488C75.18 204.293 79.3636 202.952 84.0383 202.465C90.5032 201.791 95.5531 202.974 99.1877 206.014C102.822 209.054 104.925 213.309 105.495 218.779C106.107 224.647 104.788 229.359 101.539 232.915C98.3896 236.461 92.9359 238.638 85.1779 239.446L54.4443 242.649C47.8799 243.334 42.3318 243.158 37.8 242.122C33.2578 240.987 29.6305 238.499 26.9178 234.66C24.3047 230.81 22.5938 225.006 21.7853 217.248L14.9748 151.902ZM125.599 235.535C118.832 235.235 114.189 232.652 111.671 227.787C109.143 222.823 108.862 216.266 110.828 208.119L124.69 150.119C125.941 144.761 127.519 140.122 129.423 136.204C131.427 132.275 134.065 129.134 137.339 126.782C140.712 124.42 145.035 122.964 150.306 122.415C158.263 121.585 164.459 123.152 168.893 127.113C173.427 131.064 177.441 136.779 180.935 144.257L206.31 198.167C209.914 205.734 211.091 212.197 209.839 217.556C208.677 222.805 204.766 226.279 198.106 227.978C192.709 229.245 187.867 229.096 183.582 227.532C179.396 225.957 176.672 222.973 175.41 218.58C174.502 215.659 174.144 213.183 174.334 211.152C174.624 209.111 174.906 207.473 175.179 206.238C175.374 205.212 175.276 204.267 174.884 203.403C174.581 202.429 173.784 202.01 172.491 202.145L144.741 205.037C143.448 205.171 142.704 205.752 142.509 206.777C142.404 207.693 142.602 208.628 143.103 209.581C143.625 210.733 144.189 212.283 144.794 214.231C145.399 216.178 145.609 218.67 145.422 221.706C145.093 226.264 143.093 229.741 139.421 232.134C135.749 234.528 131.142 235.661 125.599 235.535ZM167.479 181.553L157.187 158.043C156.884 157.069 156.458 156.36 155.909 155.914C155.449 155.359 154.722 155.133 153.727 155.237C152.732 155.341 152.017 155.717 151.582 156.365C151.236 156.904 150.966 157.686 150.771 158.712L145.697 183.823L167.479 181.553ZM195.85 147.529C192.323 141.663 191.101 136.21 192.184 131.171C193.257 126.032 195.928 122.234 200.197 119.779C204.565 117.313 209.189 116.831 214.071 118.333C219.043 119.725 222.944 123.39 225.774 129.329C227.19 132.298 228.359 135.796 229.281 139.822C230.193 143.748 231.144 147.57 232.135 151.288C233.215 154.895 234.63 157.865 236.381 160.196C238.221 162.417 240.783 163.356 244.065 163.014C247.347 162.672 249.659 161.225 251.002 158.672C252.334 156.019 253.107 152.822 253.32 149.08C253.622 145.228 253.765 141.292 253.748 137.272C253.821 133.142 254.243 129.479 255.016 126.281C256.661 119.876 259.722 115.485 264.2 113.108C268.667 110.632 273.292 110.15 278.075 111.662C282.758 113.185 286.154 116.35 288.264 121.157C290.363 125.865 290.292 131.452 288.05 137.92C286.89 141.258 285.217 144.499 283.031 147.642C280.934 150.676 278.599 153.835 276.026 157.119C273.452 160.404 270.915 164.036 268.415 168.017C265.903 171.898 263.698 176.301 261.798 181.224L264.457 206.736C264.882 210.814 263.742 214.351 261.038 217.348C258.334 220.344 254.745 222.075 250.269 222.542C245.893 222.998 242.023 222.044 238.66 219.68C235.396 217.305 233.552 214.079 233.127 210.001L230.468 184.489C227.693 180.053 224.677 176.195 221.419 172.915C218.151 169.536 214.92 166.504 211.724 163.821C208.529 161.138 205.543 158.533 202.766 156.008C199.979 153.382 197.673 150.556 195.85 147.529ZM348.094 212.799C337.452 213.908 328.207 212.509 320.36 208.601C312.513 204.693 306.269 198.809 301.629 190.948C296.989 183.086 294.109 173.785 292.99 163.043C291.881 152.4 292.786 142.755 295.705 134.106C298.614 125.357 303.504 118.262 310.377 112.82C317.24 107.279 325.992 103.953 336.635 102.844C347.277 101.735 356.477 103.189 364.236 107.207C372.083 111.114 378.332 117.048 382.982 125.009C387.622 132.871 390.497 142.123 391.606 152.765C392.725 163.507 391.825 173.202 388.906 181.851C385.987 190.501 381.091 197.546 374.218 202.988C367.445 208.419 358.737 211.69 348.094 212.799ZM311.539 158.697C311.861 161.78 312.912 164.636 314.695 167.266C316.466 169.796 319.629 171.678 324.181 172.913C328.723 174.048 335.321 174.165 343.974 173.263C352.627 172.361 359.009 170.892 363.12 168.854C367.32 166.707 370.026 164.214 371.238 161.373C372.44 158.432 372.88 155.42 372.559 152.337C372.227 149.154 371.186 146.397 369.435 144.066C367.673 141.636 364.527 139.903 359.995 138.867C355.552 137.721 349.004 137.599 340.351 138.501C331.698 139.403 325.266 140.878 321.056 142.925C316.835 144.873 314.113 147.218 312.891 149.959C311.658 152.601 311.208 155.514 311.539 158.697ZM450.597 202.116C444.619 202.638 438.817 202.439 433.192 201.517C427.665 200.585 422.587 198.651 417.958 195.715C413.329 192.779 409.475 188.606 406.398 183.195C403.42 177.775 401.496 170.887 400.625 162.533L395.354 111.957C394.856 107.182 396.03 103.491 398.875 100.882C401.809 98.1631 405.365 96.586 409.542 96.1506C413.62 95.7256 417.375 96.5408 420.806 98.5961C424.227 100.552 426.187 103.917 426.684 108.691L431.225 152.255C431.961 159.317 434.141 164.318 437.765 167.258C441.489 170.188 445.971 171.229 451.211 170.381C456.74 169.403 460.495 166.85 462.478 162.722C464.56 158.584 464.717 153.339 462.949 146.988C461.797 142.685 460.618 139.087 459.412 136.197C458.305 133.296 457.185 130.748 456.051 128.554C455.007 126.25 454.067 123.985 453.232 121.76C452.386 119.435 451.649 116.697 451.018 113.545C449.727 106.943 450.526 101.581 453.414 97.4599C456.391 93.2284 460.615 90.8277 466.086 90.2575C471.556 89.6874 476.025 91.0817 479.491 94.4404C482.958 97.7991 485.08 103.208 485.858 110.668L490.289 153.188C491.16 161.542 490.703 168.728 488.917 174.746C487.22 180.654 484.464 185.566 480.65 189.482C476.924 193.289 472.454 196.218 467.238 198.27C462.112 200.212 456.565 201.494 450.597 202.116ZM509.829 119.179C504.856 119.697 500.627 118.68 497.144 116.127C493.76 113.564 491.804 109.747 491.275 104.674C490.757 99.701 491.735 95.5774 494.209 92.3033C496.772 88.9194 500.838 86.9372 506.408 86.3567L570.71 79.655C576.279 79.0745 580.617 80.1808 583.724 82.9739C586.919 85.6571 588.776 89.4852 589.294 94.4583C589.823 99.5308 588.646 103.675 585.764 106.891C582.981 110.097 579.103 111.959 574.13 112.477C570.749 112.83 567.977 112.767 565.816 112.288C563.744 111.7 562.009 110.976 560.613 110.116C559.206 109.156 557.869 108.391 556.603 107.819C555.327 107.148 553.793 106.905 552.003 107.092L550.94 109.917C551.431 110.771 552.262 111.991 553.433 113.579C554.594 115.066 555.782 117.305 556.999 120.295C558.205 123.186 559.077 127.217 559.616 132.389L564.11 175.506C564.535 179.583 563.346 183.126 560.542 186.133C557.838 189.129 554.298 190.855 549.922 191.311C545.446 191.778 541.527 190.829 538.164 188.465C534.9 186.09 533.055 182.864 532.63 178.786L528.137 135.67C527.598 130.498 527.62 126.373 528.204 123.296C528.778 120.12 529.48 117.684 530.308 115.989C531.226 114.184 531.837 112.813 532.142 111.877L530.37 109.347C528.58 109.533 527.129 110.087 526.019 111.007C524.898 111.827 523.748 112.852 522.569 114.081C521.379 115.21 519.832 116.276 517.925 117.279C516.009 118.183 513.31 118.816 509.829 119.179Z"/>
</mask>
<path d="M14.9748 151.902C14.4979 147.327 15.5224 143.651 18.0482 140.874C20.663 137.987 24.2083 136.311 28.6841 135.844C33.3588 135.357 37.2233 136.261 40.2778 138.557C43.3218 140.753 45.0823 144.139 45.5591 148.714L52.183 212.27C52.38 214.16 53.0172 215.451 54.0948 216.143C55.1619 216.735 56.772 216.266 58.9248 214.735C63.5973 211.332 67.7849 208.583 71.4876 206.488C75.18 204.293 79.3636 202.952 84.0383 202.465C90.5032 201.791 95.5531 202.974 99.1877 206.014C102.822 209.054 104.925 213.309 105.495 218.779C106.107 224.647 104.788 229.359 101.539 232.915C98.3896 236.461 92.9359 238.638 85.1779 239.446L54.4443 242.649C47.8799 243.334 42.3318 243.158 37.8 242.122C33.2578 240.987 29.6305 238.499 26.9178 234.66C24.3047 230.81 22.5938 225.006 21.7853 217.248L14.9748 151.902ZM125.599 235.535C118.832 235.235 114.189 232.652 111.671 227.787C109.143 222.823 108.862 216.266 110.828 208.119L124.69 150.119C125.941 144.761 127.519 140.122 129.423 136.204C131.427 132.275 134.065 129.134 137.339 126.782C140.712 124.42 145.035 122.964 150.306 122.415C158.263 121.585 164.459 123.152 168.893 127.113C173.427 131.064 177.441 136.779 180.935 144.257L206.31 198.167C209.914 205.734 211.091 212.197 209.839 217.556C208.677 222.805 204.766 226.279 198.106 227.978C192.709 229.245 187.867 229.096 183.582 227.532C179.396 225.957 176.672 222.973 175.41 218.58C174.502 215.659 174.144 213.183 174.334 211.152C174.624 209.111 174.906 207.473 175.179 206.238C175.374 205.212 175.276 204.267 174.884 203.403C174.581 202.429 173.784 202.01 172.491 202.145L144.741 205.037C143.448 205.171 142.704 205.752 142.509 206.777C142.404 207.693 142.602 208.628 143.103 209.581C143.625 210.733 144.189 212.283 144.794 214.231C145.399 216.178 145.609 218.67 145.422 221.706C145.093 226.264 143.093 229.741 139.421 232.134C135.749 234.528 131.142 235.661 125.599 235.535ZM167.479 181.553L157.187 158.043C156.884 157.069 156.458 156.36 155.909 155.914C155.449 155.359 154.722 155.133 153.727 155.237C152.732 155.341 152.017 155.717 151.582 156.365C151.236 156.904 150.966 157.686 150.771 158.712L145.697 183.823L167.479 181.553ZM195.85 147.529C192.323 141.663 191.101 136.21 192.184 131.171C193.257 126.032 195.928 122.234 200.197 119.779C204.565 117.313 209.189 116.831 214.071 118.333C219.043 119.725 222.944 123.39 225.774 129.329C227.19 132.298 228.359 135.796 229.281 139.822C230.193 143.748 231.144 147.57 232.135 151.288C233.215 154.895 234.63 157.865 236.381 160.196C238.221 162.417 240.783 163.356 244.065 163.014C247.347 162.672 249.659 161.225 251.002 158.672C252.334 156.019 253.107 152.822 253.32 149.08C253.622 145.228 253.765 141.292 253.748 137.272C253.821 133.142 254.243 129.479 255.016 126.281C256.661 119.876 259.722 115.485 264.2 113.108C268.667 110.632 273.292 110.15 278.075 111.662C282.758 113.185 286.154 116.35 288.264 121.157C290.363 125.865 290.292 131.452 288.05 137.92C286.89 141.258 285.217 144.499 283.031 147.642C280.934 150.676 278.599 153.835 276.026 157.119C273.452 160.404 270.915 164.036 268.415 168.017C265.903 171.898 263.698 176.301 261.798 181.224L264.457 206.736C264.882 210.814 263.742 214.351 261.038 217.348C258.334 220.344 254.745 222.075 250.269 222.542C245.893 222.998 242.023 222.044 238.66 219.68C235.396 217.305 233.552 214.079 233.127 210.001L230.468 184.489C227.693 180.053 224.677 176.195 221.419 172.915C218.151 169.536 214.92 166.504 211.724 163.821C208.529 161.138 205.543 158.533 202.766 156.008C199.979 153.382 197.673 150.556 195.85 147.529ZM348.094 212.799C337.452 213.908 328.207 212.509 320.36 208.601C312.513 204.693 306.269 198.809 301.629 190.948C296.989 183.086 294.109 173.785 292.99 163.043C291.881 152.4 292.786 142.755 295.705 134.106C298.614 125.357 303.504 118.262 310.377 112.82C317.24 107.279 325.992 103.953 336.635 102.844C347.277 101.735 356.477 103.189 364.236 107.207C372.083 111.114 378.332 117.048 382.982 125.009C387.622 132.871 390.497 142.123 391.606 152.765C392.725 163.507 391.825 173.202 388.906 181.851C385.987 190.501 381.091 197.546 374.218 202.988C367.445 208.419 358.737 211.69 348.094 212.799ZM311.539 158.697C311.861 161.78 312.912 164.636 314.695 167.266C316.466 169.796 319.629 171.678 324.181 172.913C328.723 174.048 335.321 174.165 343.974 173.263C352.627 172.361 359.009 170.892 363.12 168.854C367.32 166.707 370.026 164.214 371.238 161.373C372.44 158.432 372.88 155.42 372.559 152.337C372.227 149.154 371.186 146.397 369.435 144.066C367.673 141.636 364.527 139.903 359.995 138.867C355.552 137.721 349.004 137.599 340.351 138.501C331.698 139.403 325.266 140.878 321.056 142.925C316.835 144.873 314.113 147.218 312.891 149.959C311.658 152.601 311.208 155.514 311.539 158.697ZM450.597 202.116C444.619 202.638 438.817 202.439 433.192 201.517C427.665 200.585 422.587 198.651 417.958 195.715C413.329 192.779 409.475 188.606 406.398 183.195C403.42 177.775 401.496 170.887 400.625 162.533L395.354 111.957C394.856 107.182 396.03 103.491 398.875 100.882C401.809 98.1631 405.365 96.586 409.542 96.1506C413.62 95.7256 417.375 96.5408 420.806 98.5961C424.227 100.552 426.187 103.917 426.684 108.691L431.225 152.255C431.961 159.317 434.141 164.318 437.765 167.258C441.489 170.188 445.971 171.229 451.211 170.381C456.74 169.403 460.495 166.85 462.478 162.722C464.56 158.584 464.717 153.339 462.949 146.988C461.797 142.685 460.618 139.087 459.412 136.197C458.305 133.296 457.185 130.748 456.051 128.554C455.007 126.25 454.067 123.985 453.232 121.76C452.386 119.435 451.649 116.697 451.018 113.545C449.727 106.943 450.526 101.581 453.414 97.4599C456.391 93.2284 460.615 90.8277 466.086 90.2575C471.556 89.6874 476.025 91.0817 479.491 94.4404C482.958 97.7991 485.08 103.208 485.858 110.668L490.289 153.188C491.16 161.542 490.703 168.728 488.917 174.746C487.22 180.654 484.464 185.566 480.65 189.482C476.924 193.289 472.454 196.218 467.238 198.27C462.112 200.212 456.565 201.494 450.597 202.116ZM509.829 119.179C504.856 119.697 500.627 118.68 497.144 116.127C493.76 113.564 491.804 109.747 491.275 104.674C490.757 99.701 491.735 95.5774 494.209 92.3033C496.772 88.9194 500.838 86.9372 506.408 86.3567L570.71 79.655C576.279 79.0745 580.617 80.1808 583.724 82.9739C586.919 85.6571 588.776 89.4852 589.294 94.4583C589.823 99.5308 588.646 103.675 585.764 106.891C582.981 110.097 579.103 111.959 574.13 112.477C570.749 112.83 567.977 112.767 565.816 112.288C563.744 111.7 562.009 110.976 560.613 110.116C559.206 109.156 557.869 108.391 556.603 107.819C555.327 107.148 553.793 106.905 552.003 107.092L550.94 109.917C551.431 110.771 552.262 111.991 553.433 113.579C554.594 115.066 555.782 117.305 556.999 120.295C558.205 123.186 559.077 127.217 559.616 132.389L564.11 175.506C564.535 179.583 563.346 183.126 560.542 186.133C557.838 189.129 554.298 190.855 549.922 191.311C545.446 191.778 541.527 190.829 538.164 188.465C534.9 186.09 533.055 182.864 532.63 178.786L528.137 135.67C527.598 130.498 527.62 126.373 528.204 123.296C528.778 120.12 529.48 117.684 530.308 115.989C531.226 114.184 531.837 112.813 532.142 111.877L530.37 109.347C528.58 109.533 527.129 110.087 526.019 111.007C524.898 111.827 523.748 112.852 522.569 114.081C521.379 115.21 519.832 116.276 517.925 117.279C516.009 118.183 513.31 118.816 509.829 119.179Z" fill="#0068FF"/>
<path d="M18.0482 140.874L20.2674 142.893L20.2716 142.888L18.0482 140.874ZM40.2778 138.557L38.4753 140.955L38.4987 140.973L38.5224 140.99L40.2778 138.557ZM54.0948 216.143L52.4736 218.667L52.5544 218.719L52.6384 218.766L54.0948 216.143ZM58.9248 214.735L60.6638 217.179L60.6774 217.17L60.6909 217.16L58.9248 214.735ZM71.4876 206.488L72.965 209.099L72.9929 209.083L73.0204 209.067L71.4876 206.488ZM99.1877 206.014L101.112 203.713L99.1877 206.014ZM101.539 232.915L99.3242 230.892L99.31 230.907L99.2961 230.923L101.539 232.915ZM37.8 242.122L37.0725 245.032L37.102 245.04L37.1315 245.047L37.8 242.122ZM26.9178 234.66L24.4356 236.345L24.4514 236.368L24.4676 236.391L26.9178 234.66ZM17.9586 151.591C17.5487 147.658 18.4436 144.898 20.2674 142.893L15.8289 138.855C12.6012 142.404 11.4471 146.995 11.9909 152.213L17.9586 151.591ZM20.2716 142.888C22.3138 140.634 25.1328 139.231 28.9951 138.828L28.3731 132.861C23.2839 133.391 19.0123 135.341 15.8248 138.86L20.2716 142.888ZM28.9951 138.828C33.0985 138.401 36.158 139.214 38.4753 140.955L42.0802 136.159C38.2886 133.309 33.619 132.314 28.3731 132.861L28.9951 138.828ZM38.5224 140.99C40.7206 142.576 42.1654 145.093 42.5753 149.025L48.543 148.403C47.9992 143.186 45.9231 138.931 42.0331 136.124L38.5224 140.99ZM42.5753 149.025L49.1992 212.581L55.1669 211.959L48.543 148.403L42.5753 149.025ZM49.1992 212.581C49.4436 214.926 50.3151 217.281 52.4736 218.667L55.7159 213.619C55.6904 213.602 55.607 213.547 55.4988 213.328C55.3789 213.085 55.2396 212.657 55.1669 211.959L49.1992 212.581ZM52.6384 218.766C54.1013 219.578 55.6627 219.488 56.9424 219.115C58.1998 218.749 59.4526 218.041 60.6638 217.179L57.1859 212.29C56.2442 212.96 55.6155 213.252 55.2629 213.355C54.9326 213.451 55.1555 213.3 55.5511 213.52L52.6384 218.766ZM60.6909 217.16C65.3011 213.802 69.39 211.122 72.965 209.099L70.0103 203.877C66.1797 206.044 61.8934 208.862 57.1588 212.31L60.6909 217.16ZM73.0204 209.067C76.3056 207.114 80.0652 205.896 84.3492 205.449L83.7273 199.481C78.662 200.009 74.0544 201.472 69.9549 203.909L73.0204 209.067ZM84.3492 205.449C90.3156 204.827 94.454 205.966 97.2632 208.315L101.112 203.713C96.6522 199.983 90.6909 198.756 83.7273 199.481L84.3492 205.449ZM97.2632 208.315C100.203 210.774 102.008 214.261 102.511 219.09L108.479 218.468C107.842 212.356 105.442 207.333 101.112 203.713L97.2632 208.315ZM102.511 219.09C103.056 224.314 101.868 228.108 99.3242 230.892L103.754 234.939C107.708 230.611 109.158 224.981 108.479 218.468L102.511 219.09ZM99.2961 230.923C96.8801 233.643 92.3307 235.685 84.8669 236.463L85.4889 242.43C93.541 241.591 99.8991 239.279 103.782 234.907L99.2961 230.923ZM84.8669 236.463L54.1334 239.666L54.7553 245.633L85.4889 242.43L84.8669 236.463ZM54.1334 239.666C47.7705 240.329 42.5755 240.136 38.4684 239.197L37.1315 245.047C42.0881 246.179 47.9893 246.338 54.7553 245.633L54.1334 239.666ZM38.5274 239.212C34.6854 238.251 31.668 236.184 29.368 232.929L24.4676 236.391C27.5929 240.814 31.8303 243.722 37.0725 245.032L38.5274 239.212ZM29.4 232.975C27.1932 229.724 25.5569 224.496 24.7691 216.937L18.8014 217.559C19.6308 225.516 21.4162 231.896 24.4356 236.345L29.4 232.975ZM24.7691 216.937L17.9586 151.591L11.9909 152.213L18.8014 217.559L24.7691 216.937ZM125.599 235.535L125.466 238.532L125.499 238.534L125.531 238.534L125.599 235.535ZM111.671 227.787L108.998 229.149L109.002 229.157L109.007 229.166L111.671 227.787ZM110.828 208.119L113.744 208.822L113.745 208.816L110.828 208.119ZM124.69 150.119L127.608 150.817L127.61 150.809L127.611 150.801L124.69 150.119ZM129.423 136.204L126.75 134.841L126.737 134.867L126.725 134.893L129.423 136.204ZM137.339 126.782L135.618 124.325L135.603 124.335L135.589 124.346L137.339 126.782ZM168.893 127.113L166.895 129.35L166.908 129.363L166.922 129.375L168.893 127.113ZM180.935 144.257L178.217 145.527L178.221 145.535L180.935 144.257ZM206.31 198.167L203.596 199.445L203.602 199.457L206.31 198.167ZM209.839 217.556L206.918 216.874L206.914 216.891L206.91 216.907L209.839 217.556ZM198.106 227.978L198.792 230.899L198.82 230.892L198.848 230.885L198.106 227.978ZM183.582 227.532L182.526 230.339L182.539 230.345L182.553 230.35L183.582 227.532ZM175.41 218.58L178.293 217.752L178.284 217.721L178.275 217.69L175.41 218.58ZM174.334 211.152L171.364 210.73L171.354 210.801L171.347 210.872L174.334 211.152ZM175.179 206.238L178.108 206.886L178.118 206.842L178.127 206.797L175.179 206.238ZM174.884 203.403L172.019 204.293L172.074 204.472L172.151 204.642L174.884 203.403ZM142.509 206.777L139.562 206.218L139.541 206.325L139.529 206.434L142.509 206.777ZM143.103 209.581L145.835 208.342L145.799 208.262L145.758 208.184L143.103 209.581ZM144.794 214.231L147.659 213.341L144.794 214.231ZM145.422 221.706L148.415 221.922L148.416 221.906L148.417 221.89L145.422 221.706ZM139.421 232.134L141.059 234.647L139.421 232.134ZM167.479 181.553L167.79 184.537L171.874 184.111L170.227 180.35L167.479 181.553ZM157.187 158.043L154.322 158.933L154.371 159.093L154.438 159.246L157.187 158.043ZM155.909 155.914L153.599 157.828L153.788 158.057L154.019 158.244L155.909 155.914ZM151.582 156.365L149.091 154.694L149.074 154.719L149.058 154.744L151.582 156.365ZM150.771 158.712L153.712 159.306L153.715 159.289L153.719 159.272L150.771 158.712ZM145.697 183.823L142.756 183.229L141.948 187.23L146.008 186.807L145.697 183.823ZM125.732 232.538C119.74 232.272 116.237 230.083 114.335 226.408L109.007 229.166C112.141 235.222 117.923 238.198 125.466 238.532L125.732 232.538ZM114.344 226.426C112.27 222.352 111.864 216.613 113.744 208.822L107.911 207.415C105.859 215.92 106.016 223.293 108.998 229.149L114.344 226.426ZM113.745 208.816L127.608 150.817L121.772 149.422L107.91 207.421L113.745 208.816ZM127.611 150.801C128.825 145.606 130.336 141.188 132.121 137.515L126.725 134.893C124.702 139.056 123.058 143.915 121.769 149.437L127.611 150.801ZM132.096 137.567C133.903 134.023 136.24 131.266 139.089 129.219L135.589 124.346C131.891 127.003 128.951 130.527 126.75 134.841L132.096 137.567ZM139.06 129.24C141.913 127.242 145.711 125.91 150.617 125.398L149.995 119.431C144.359 120.018 139.512 121.598 135.618 124.325L139.06 129.24ZM150.617 125.398C158.037 124.625 163.287 126.127 166.895 129.35L170.892 124.876C165.631 120.176 158.489 118.546 149.995 119.431L150.617 125.398ZM166.922 129.375C171.047 132.969 174.839 138.296 178.217 145.527L183.653 142.987C180.044 135.263 175.808 129.16 170.864 124.852L166.922 129.375ZM178.221 145.535L203.596 199.445L209.025 196.89L183.65 142.98L178.221 145.535ZM203.602 199.457C207.059 206.716 207.952 212.446 206.918 216.874L212.761 218.238C214.229 211.949 212.77 204.753 209.019 196.877L203.602 199.457ZM206.91 216.907C206.064 220.728 203.29 223.559 197.365 225.071L198.848 230.885C206.243 228.998 211.29 224.881 212.768 218.204L206.91 216.907ZM197.421 225.058C192.469 226.22 188.238 226.038 184.611 224.713L182.553 230.35C187.496 232.154 192.948 232.27 198.792 230.899L197.421 225.058ZM184.638 224.724C181.363 223.492 179.3 221.257 178.293 217.752L172.527 219.409C174.044 224.69 177.429 228.422 182.526 230.339L184.638 224.724ZM178.275 217.69C177.431 214.976 177.181 212.922 177.321 211.432L171.347 210.872C171.106 213.443 171.573 216.342 172.545 219.471L178.275 217.69ZM177.304 211.574C177.589 209.568 177.859 208.015 178.108 206.886L172.25 205.589C171.953 206.931 171.659 208.654 171.364 210.73L177.304 211.574ZM178.127 206.797C178.425 205.228 178.289 203.648 177.616 202.165L172.151 204.642C172.262 204.886 172.324 205.196 172.232 205.678L178.127 206.797ZM177.749 202.513C177.395 201.375 176.653 200.333 175.455 199.703C174.348 199.121 173.167 199.058 172.18 199.161L172.801 205.128C173.107 205.097 172.972 205.176 172.662 205.013C172.496 204.926 172.336 204.796 172.21 204.636C172.088 204.482 172.037 204.35 172.019 204.293L177.749 202.513ZM172.18 199.161L144.43 202.053L145.052 208.02L172.801 205.128L172.18 199.161ZM144.43 202.053C143.428 202.157 142.321 202.464 141.368 203.207C140.359 203.995 139.78 205.071 139.562 206.218L145.457 207.337C145.449 207.376 145.423 207.477 145.348 207.605C145.271 207.738 145.168 207.853 145.058 207.938C144.849 208.101 144.761 208.051 145.052 208.02L144.43 202.053ZM139.529 206.434C139.343 208.045 139.714 209.583 140.448 210.978L145.758 208.184C145.489 207.673 145.464 207.341 145.489 207.121L139.529 206.434ZM140.371 210.82C140.82 211.811 141.342 213.229 141.929 215.121L147.659 213.341C147.036 211.336 146.43 209.655 145.835 208.342L140.371 210.82ZM141.929 215.121C142.387 216.595 142.602 218.688 142.428 221.522L148.417 221.89C148.615 218.652 148.411 215.762 147.659 213.341L141.929 215.121ZM142.43 221.49C142.165 225.16 140.631 227.765 137.783 229.621L141.059 234.647C145.555 231.717 148.021 227.369 148.415 221.922L142.43 221.49ZM137.783 229.621C134.737 231.606 130.766 232.652 125.667 232.536L125.531 238.534C131.518 238.671 136.761 237.449 141.059 234.647L137.783 229.621ZM170.227 180.35L159.935 156.84L154.438 159.246L164.731 182.756L170.227 180.35ZM160.051 157.153C159.647 155.852 158.97 154.534 157.799 153.585L154.019 158.244C153.947 158.185 154.121 158.287 154.322 158.933L160.051 157.153ZM158.219 154C156.889 152.395 154.987 152.089 153.416 152.253L154.038 158.221C154.252 158.198 154.254 158.232 154.129 158.194C154.061 158.173 153.968 158.134 153.865 158.066C153.761 157.998 153.671 157.915 153.599 157.828L158.219 154ZM153.416 152.253C151.804 152.421 150.155 153.108 149.091 154.694L154.074 158.037C154.044 158.081 154.004 158.127 153.957 158.17C153.91 158.212 153.868 158.238 153.842 158.252C153.792 158.278 153.833 158.242 154.038 158.221L153.416 152.253ZM149.058 154.744C148.414 155.747 148.051 156.957 147.824 158.152L153.719 159.272C153.881 158.415 154.058 158.061 154.107 157.986L149.058 154.744ZM147.831 158.118L142.756 183.229L148.638 184.417L153.712 159.306L147.831 158.118ZM146.008 186.807L167.79 184.537L167.168 178.569L145.386 180.839L146.008 186.807ZM195.85 147.529L193.279 149.075L193.28 149.077L195.85 147.529ZM192.184 131.171L195.117 131.801L195.119 131.793L195.121 131.784L192.184 131.171ZM200.197 119.779L198.722 117.166L198.711 117.172L198.701 117.178L200.197 119.779ZM214.071 118.333L213.189 121.2L213.226 121.211L213.262 121.222L214.071 118.333ZM225.774 129.329L228.482 128.038L225.774 129.329ZM229.281 139.822L226.357 140.492L226.359 140.501L229.281 139.822ZM232.135 151.288L229.236 152.06L229.248 152.104L229.261 152.148L232.135 151.288ZM236.381 160.196L233.983 161.997L234.025 162.055L234.071 162.109L236.381 160.196ZM251.002 158.672L253.657 160.068L253.67 160.043L253.683 160.018L251.002 158.672ZM253.32 149.08L250.329 148.845L250.327 148.877L250.325 148.909L253.32 149.08ZM253.748 137.272L250.749 137.219L250.748 137.252L250.748 137.284L253.748 137.272ZM255.016 126.281L252.11 125.535L252.105 125.556L252.1 125.576L255.016 126.281ZM264.2 113.108L265.607 115.758L265.631 115.745L265.654 115.732L264.2 113.108ZM278.075 111.662L279.002 108.809L278.991 108.805L278.979 108.802L278.075 111.662ZM288.264 121.157L285.517 122.363L285.52 122.371L285.524 122.379L288.264 121.157ZM288.05 137.92L290.884 138.904L290.885 138.902L288.05 137.92ZM283.031 147.642L280.568 145.929L280.563 145.936L283.031 147.642ZM276.026 157.119L278.387 158.97L276.026 157.119ZM268.415 168.017L270.933 169.647L270.944 169.63L270.955 169.613L268.415 168.017ZM261.798 181.224L258.999 180.144L258.739 180.817L258.814 181.535L261.798 181.224ZM261.038 217.347L258.811 215.338L261.038 217.347ZM238.66 219.68L236.895 222.106L236.914 222.12L236.934 222.134L238.66 219.68ZM230.468 184.489L233.451 184.178L233.379 183.488L233.011 182.899L230.468 184.489ZM221.419 172.915L219.262 175.001L219.276 175.015L219.29 175.029L221.419 172.915ZM202.766 156.008L200.709 158.191L200.728 158.209L200.747 158.227L202.766 156.008ZM198.421 145.983C195.155 140.551 194.241 135.878 195.117 131.801L189.251 130.54C187.961 136.542 189.491 142.775 193.279 149.075L198.421 145.983ZM195.121 131.784C196.032 127.42 198.219 124.377 201.693 122.379L198.701 117.178C193.637 120.092 190.483 124.644 189.248 130.557L195.121 131.784ZM201.672 122.391C205.307 120.338 209.078 119.935 213.189 121.2L214.954 115.465C209.301 113.726 203.822 114.287 198.722 117.166L201.672 122.391ZM213.262 121.222C217.182 122.319 220.498 125.233 223.066 130.62L228.482 128.038C225.389 121.548 220.903 117.131 214.88 115.444L213.262 121.222ZM223.066 130.62C224.367 133.348 225.472 136.628 226.357 140.492L232.205 139.152C231.246 134.963 230.013 131.248 228.482 128.038L223.066 130.62ZM226.359 140.501C227.278 144.457 228.237 148.31 229.236 152.06L235.034 150.515C234.052 146.83 233.108 143.04 232.203 139.143L226.359 140.501ZM229.261 152.148C230.414 156.001 231.967 159.314 233.983 161.997L238.78 158.394C237.293 156.415 236.015 153.79 235.009 150.428L229.261 152.148ZM234.071 162.109C236.652 165.224 240.263 166.427 244.376 165.998L243.754 160.03C241.302 160.286 239.791 159.609 238.691 158.282L234.071 162.109ZM244.376 165.998C248.488 165.57 251.774 163.648 253.657 160.068L248.347 157.275C247.544 158.801 246.206 159.775 243.754 160.03L244.376 165.998ZM253.683 160.018C255.241 156.917 256.085 153.298 256.315 149.25L250.325 148.909C250.129 152.346 249.428 155.122 248.321 157.325L253.683 160.018ZM256.311 149.315C256.62 145.377 256.766 141.358 256.748 137.259L250.748 137.284C250.765 141.225 250.625 145.078 250.329 148.845L256.311 149.315ZM256.748 137.324C256.817 133.361 257.222 129.923 257.932 126.986L252.1 125.576C251.264 129.034 250.824 132.923 250.749 137.219L256.748 137.324ZM257.922 127.027C259.424 121.177 262.084 117.628 265.607 115.758L262.793 110.458C257.36 113.342 253.898 118.576 252.11 125.535L257.922 127.027ZM265.654 115.732C269.416 113.647 273.189 113.264 277.17 114.523L278.979 108.802C273.395 107.036 267.918 107.617 262.745 110.484L265.654 115.732ZM277.147 114.515C280.958 115.754 283.725 118.28 285.517 122.363L291.011 119.951C288.583 114.419 284.558 110.616 279.002 108.809L277.147 114.515ZM285.524 122.379C287.222 126.187 287.292 130.948 285.216 136.937L290.885 138.902C293.292 131.957 293.504 125.542 291.004 119.935L285.524 122.379ZM285.217 136.935C284.153 139.994 282.611 142.992 280.568 145.929L285.494 149.355C287.823 146.005 289.627 142.522 290.884 138.904L285.217 136.935ZM280.563 145.936C278.505 148.915 276.206 152.026 273.664 155.269L278.387 158.97C280.993 155.644 283.364 152.437 285.499 149.348L280.563 145.936ZM273.664 155.269C271.02 158.645 268.423 162.364 265.874 166.421L270.955 169.613C273.407 165.709 275.885 162.163 278.387 158.97L273.664 155.269ZM265.896 166.387C263.258 170.464 260.963 175.055 258.999 180.144L264.597 182.304C266.433 177.547 268.549 173.333 270.933 169.647L265.896 166.387ZM258.814 181.535L261.473 207.047L267.441 206.425L264.782 180.913L258.814 181.535ZM261.473 207.047C261.811 210.294 260.935 212.984 258.811 215.338L263.266 219.357C266.55 215.718 267.952 211.333 267.441 206.425L261.473 207.047ZM258.811 215.338C256.662 217.719 253.788 219.159 249.958 219.558L250.58 225.526C255.701 224.992 260.007 222.969 263.266 219.357L258.811 215.338ZM249.958 219.558C246.247 219.945 243.112 219.142 240.385 217.226L236.934 222.134C240.934 224.946 245.538 226.051 250.58 225.526L249.958 219.558ZM240.425 217.254C237.861 215.389 236.449 212.938 236.11 209.69L230.143 210.312C230.654 215.221 232.931 219.222 236.895 222.106L240.425 217.254ZM236.11 209.69L233.451 184.178L227.484 184.8L230.143 210.312L236.11 209.69ZM233.011 182.899C230.133 178.297 226.982 174.259 223.548 170.801L219.29 175.029C222.372 178.132 225.253 181.809 227.924 186.08L233.011 182.899ZM223.576 170.83C220.245 167.385 216.937 164.281 213.653 161.524L209.795 166.119C212.902 168.727 216.058 171.686 219.262 175.001L223.576 170.83ZM213.653 161.524C210.485 158.863 207.529 156.285 204.785 153.788L200.747 158.227C203.556 160.782 206.573 163.413 209.795 166.119L213.653 161.524ZM204.823 153.824C202.218 151.371 200.091 148.755 198.42 145.981L193.28 149.077C195.256 152.357 197.739 155.394 200.709 158.191L204.823 153.824ZM320.36 208.601L321.697 205.916L320.36 208.601ZM301.629 190.948L304.213 189.423L301.629 190.948ZM295.705 134.106L298.547 135.065L298.552 135.052L295.705 134.106ZM310.377 112.82L312.24 115.172L312.251 115.163L312.262 115.154L310.377 112.82ZM364.236 107.207L362.856 109.871L362.877 109.882L362.898 109.892L364.236 107.207ZM382.982 125.009L380.392 126.522L380.399 126.534L382.982 125.009ZM388.906 181.851L386.064 180.892L388.906 181.851ZM374.218 202.988L372.356 200.636L372.349 200.642L372.341 200.647L374.218 202.988ZM314.695 167.266L312.211 168.949L312.224 168.968L312.237 168.987L314.695 167.266ZM324.181 172.913L323.396 175.808L323.425 175.816L323.454 175.823L324.181 172.913ZM363.12 168.854L364.452 171.542L364.469 171.534L364.486 171.526L363.12 168.854ZM371.238 161.373L373.998 162.55L374.007 162.529L374.015 162.507L371.238 161.373ZM369.435 144.066L367.005 145.827L367.021 145.848L367.036 145.868L369.435 144.066ZM359.995 138.867L359.246 141.772L359.286 141.782L359.326 141.791L359.995 138.867ZM321.056 142.925L322.313 145.649L322.34 145.636L322.368 145.623L321.056 142.925ZM312.891 149.959L315.609 151.228L315.62 151.205L315.631 151.181L312.891 149.959ZM347.783 209.815C337.582 210.878 328.932 209.518 321.697 205.916L319.023 211.287C327.482 215.499 337.322 216.938 348.405 215.783L347.783 209.815ZM321.697 205.916C314.391 202.277 308.571 196.807 304.213 189.423L299.045 192.472C303.967 200.811 310.634 207.11 319.023 211.287L321.697 205.916ZM304.213 189.423C299.828 181.994 297.057 173.123 295.974 162.732L290.006 163.354C291.162 174.447 294.15 184.178 299.045 192.472L304.213 189.423ZM295.974 162.732C294.902 152.445 295.788 143.241 298.547 135.065L292.862 133.146C289.784 142.268 288.86 152.356 290.006 163.354L295.974 162.732ZM298.552 135.052C301.286 126.828 305.849 120.232 312.24 115.172L308.515 110.468C301.16 116.292 295.941 123.886 292.858 133.159L298.552 135.052ZM312.262 115.154C318.586 110.048 326.756 106.89 336.946 105.828L336.324 99.8604C325.229 101.017 315.894 104.509 308.493 110.486L312.262 115.154ZM336.946 105.828C347.137 104.766 355.725 106.178 362.856 109.871L365.615 104.543C357.23 100.201 347.417 98.7043 336.324 99.8604L336.946 105.828ZM362.898 109.892C370.195 113.525 376.02 119.039 380.392 126.522L385.573 123.496C380.644 115.058 373.971 108.703 365.573 104.521L362.898 109.892ZM380.399 126.534C384.785 133.966 387.55 142.789 388.622 153.076L394.59 152.454C393.443 141.456 390.459 131.775 385.566 123.484L380.399 126.534ZM388.622 153.076C389.705 163.467 388.822 172.719 386.064 180.892L391.749 182.811C394.829 173.685 395.746 163.547 394.59 152.454L388.622 153.076ZM386.064 180.892C383.322 189.016 378.755 195.569 372.356 200.636L376.08 205.34C383.427 199.523 388.652 191.985 391.749 182.811L386.064 180.892ZM372.341 200.647C366.112 205.643 357.986 208.751 347.783 209.815L348.405 215.783C359.487 214.628 368.778 211.196 376.095 205.328L372.341 200.647ZM308.555 159.008C308.929 162.595 310.159 165.921 312.211 168.949L317.178 165.583C315.666 163.352 314.792 160.965 314.523 158.386L308.555 159.008ZM312.237 168.987C314.577 172.327 318.507 174.482 323.396 175.808L324.966 170.017C320.75 168.874 318.356 167.264 317.152 165.545L312.237 168.987ZM323.454 175.823C328.512 177.087 335.529 177.159 344.285 176.247L343.663 170.279C335.112 171.17 328.934 171.009 324.908 170.002L323.454 175.823ZM344.285 176.247C353.034 175.335 359.85 173.823 364.452 171.542L361.788 166.166C358.168 167.96 352.22 169.387 343.663 170.279L344.285 176.247ZM364.486 171.526C368.996 169.22 372.397 166.301 373.998 162.55L368.479 160.195C367.655 162.126 365.645 164.195 361.755 166.183L364.486 171.526ZM374.015 162.507C375.399 159.121 375.917 155.613 375.543 152.026L369.575 152.648C369.844 155.227 369.481 157.743 368.461 160.238L374.015 162.507ZM375.543 152.026C375.16 148.357 373.942 145.072 371.833 142.264L367.036 145.868C368.429 147.723 369.294 149.952 369.575 152.648L375.543 152.026ZM371.864 142.306C369.495 139.038 365.532 137.055 360.663 135.942L359.326 141.791C363.522 142.75 365.851 144.234 367.005 145.827L371.864 142.306ZM360.744 135.962C355.77 134.679 348.789 134.605 340.04 135.517L340.662 141.485C349.22 140.593 355.334 140.763 359.246 141.772L360.744 135.962ZM340.04 135.517C331.285 136.43 324.433 137.947 319.744 140.227L322.368 145.623C326.1 143.808 332.111 142.376 340.662 141.485L340.04 135.517ZM319.799 140.201C315.264 142.294 311.795 145.051 310.151 148.738L315.631 151.181C316.432 149.384 318.405 147.452 322.313 145.649L319.799 140.201ZM310.172 148.691C308.687 151.873 308.173 155.338 308.555 159.008L314.523 158.386C314.242 155.689 314.629 153.33 315.609 151.228L310.172 148.691ZM450.597 202.116L450.859 205.104L450.884 205.102L450.908 205.099L450.597 202.116ZM433.192 201.517L432.693 204.475L432.707 204.477L433.192 201.517ZM417.958 195.715L419.565 193.181L417.958 195.715ZM406.398 183.195L403.769 184.64L403.779 184.659L403.79 184.679L406.398 183.195ZM398.875 100.882L400.903 103.093L400.908 103.088L400.914 103.082L398.875 100.882ZM420.806 98.5961L419.265 101.17L419.291 101.185L419.317 101.201L420.806 98.5961ZM437.765 167.258L435.875 169.588L435.892 169.602L435.91 169.616L437.765 167.258ZM451.211 170.381L451.69 173.343L451.712 173.339L451.734 173.335L451.211 170.381ZM462.478 162.722L459.798 161.373L459.786 161.398L459.774 161.423L462.478 162.722ZM462.949 146.988L460.052 147.764L460.055 147.778L460.059 147.793L462.949 146.988ZM459.412 136.197L456.609 137.266L456.625 137.309L456.643 137.352L459.412 136.197ZM456.051 128.554L453.319 129.793L453.351 129.863L453.386 129.931L456.051 128.554ZM453.232 121.76L450.413 122.785L450.418 122.799L450.423 122.814L453.232 121.76ZM451.018 113.545L448.074 114.121L448.077 114.133L451.018 113.545ZM453.414 97.4599L450.96 95.7335L450.957 95.7382L453.414 97.4599ZM479.491 94.4404L481.579 92.2857L479.491 94.4404ZM488.917 174.746L486.041 173.892L486.037 173.905L486.033 173.918L488.917 174.746ZM480.65 189.482L482.794 191.581L482.799 191.576L480.65 189.482ZM467.238 198.27L468.301 201.075L468.319 201.069L468.337 201.062L467.238 198.27ZM450.336 199.127C444.594 199.629 439.043 199.435 433.677 198.556L432.707 204.477C438.592 205.442 444.645 205.647 450.859 205.104L450.336 199.127ZM433.691 198.559C428.549 197.691 423.849 195.898 419.565 193.181L416.351 198.248C421.326 201.403 426.781 203.478 432.693 204.475L433.691 198.559ZM419.565 193.181C415.403 190.542 411.874 186.754 409.006 181.712L403.79 184.679C407.077 190.457 411.254 195.015 416.351 198.248L419.565 193.181ZM409.027 181.751C406.298 176.782 404.452 170.313 403.609 162.222L397.641 162.844C398.539 171.462 400.543 178.768 403.769 184.64L409.027 181.751ZM403.609 162.222L398.338 111.646L392.37 112.267L397.641 162.844L403.609 162.222ZM398.338 111.646C397.912 107.56 398.928 104.904 400.903 103.093L396.847 98.6708C393.132 102.078 391.801 106.805 392.37 112.267L398.338 111.646ZM400.914 103.082C403.347 100.828 406.287 99.5061 409.853 99.1345L409.231 93.1668C404.442 93.6658 400.271 95.4984 396.836 98.6814L400.914 103.082ZM409.853 99.1345C413.303 98.7749 416.405 99.4568 419.265 101.17L422.348 96.0225C418.344 93.6247 413.937 92.6763 409.231 93.1668L409.853 99.1345ZM419.317 101.201C421.713 102.57 423.278 104.952 423.7 109.002L429.668 108.38C429.095 102.882 426.741 98.5337 422.295 95.9917L419.317 101.201ZM423.7 109.002L428.241 152.566L434.208 151.944L429.668 108.38L423.7 109.002ZM428.241 152.566C429.017 160.014 431.375 165.938 435.875 169.588L439.655 164.928C436.906 162.698 434.904 158.62 434.208 151.944L428.241 152.566ZM435.91 169.616C440.376 173.13 445.732 174.306 451.69 173.343L450.732 167.42C446.209 168.151 442.601 167.246 439.62 164.9L435.91 169.616ZM451.734 173.335C457.972 172.231 462.685 169.219 465.182 164.021L459.774 161.423C458.305 164.48 455.507 166.574 450.688 167.427L451.734 173.335ZM465.158 164.07C467.694 159.03 467.723 152.951 465.84 146.184L460.059 147.793C461.711 153.727 461.426 158.137 459.798 161.373L465.158 164.07ZM465.847 146.212C464.674 141.829 463.455 138.095 462.18 135.042L456.643 137.352C457.781 140.08 458.921 143.54 460.052 147.764L465.847 146.212ZM462.215 135.128C461.078 132.147 459.913 129.493 458.717 127.177L453.386 129.931C454.457 132.004 455.533 134.445 456.609 137.266L462.215 135.128ZM458.784 127.315C457.765 125.068 456.851 122.865 456.041 120.706L450.423 122.814C451.283 125.105 452.249 127.432 453.319 129.793L458.784 127.315ZM456.051 120.734C455.27 118.587 454.569 116.001 453.96 112.957L448.077 114.133C448.728 117.392 449.503 120.283 450.413 122.785L456.051 120.734ZM453.963 112.969C452.773 106.888 453.592 102.433 455.871 99.1815L450.957 95.7382C447.459 100.73 446.681 106.998 448.074 114.121L453.963 112.969ZM455.867 99.1863C458.311 95.713 461.727 93.728 466.397 93.2414L465.775 87.2737C459.504 87.9273 454.471 90.7439 450.96 95.7335L455.867 99.1863ZM466.397 93.2414C471.122 92.7489 474.668 93.9443 477.404 96.5951L481.579 92.2857C477.381 88.2191 471.99 86.6259 465.775 87.2737L466.397 93.2414ZM477.404 96.595C480.151 99.256 482.131 103.851 482.874 110.979L488.842 110.357C488.03 102.565 485.766 96.3422 481.579 92.2857L477.404 96.595ZM482.874 110.979L487.306 153.499L493.273 152.877L488.842 110.357L482.874 110.979ZM487.306 153.499C488.149 161.587 487.684 168.356 486.041 173.892L491.793 175.6C493.722 169.1 494.172 161.498 493.273 152.877L487.306 153.499ZM486.033 173.918C484.456 179.41 481.929 183.869 478.501 187.389L482.799 191.576C487 187.262 489.984 181.898 491.8 175.574L486.033 173.918ZM478.506 187.384C475.091 190.873 470.983 193.573 466.14 195.478L468.337 201.062C473.925 198.863 478.757 195.705 482.794 191.581L478.506 187.384ZM466.176 195.464C461.313 197.307 456.021 198.534 450.286 199.132L450.908 205.099C457.109 204.453 462.911 203.117 468.301 201.075L466.176 195.464ZM497.144 116.127L495.333 118.519L495.352 118.533L495.371 118.547L497.144 116.127ZM494.209 92.3033L491.817 90.492L491.815 90.4947L494.209 92.3033ZM583.724 82.9739L581.718 85.2047L581.756 85.2386L581.795 85.2713L583.724 82.9739ZM585.764 106.891L583.53 104.889L583.514 104.907L583.498 104.925L585.764 106.891ZM565.816 112.288L564.997 115.174L565.081 115.198L565.167 115.217L565.816 112.288ZM560.613 110.116L558.923 112.594L558.98 112.634L559.04 112.67L560.613 110.116ZM556.603 107.819L555.207 110.474L555.286 110.516L555.368 110.553L556.603 107.819ZM552.003 107.092L551.692 104.108L549.848 104.3L549.195 106.036L552.003 107.092ZM550.94 109.917L548.132 108.861L547.634 110.186L548.34 111.413L550.94 109.917ZM553.433 113.579L551.019 115.36L551.043 115.392L551.068 115.424L553.433 113.579ZM556.998 120.295L554.22 121.426L554.225 121.438L554.23 121.451L556.998 120.295ZM560.542 186.133L558.348 184.087L558.331 184.105L558.315 184.123L560.542 186.133ZM538.164 188.465L536.399 190.891L536.418 190.905L536.438 190.919L538.164 188.465ZM528.204 123.296L531.152 123.856L531.154 123.843L531.157 123.83L528.204 123.296ZM530.308 115.989L527.634 114.629L527.624 114.65L527.613 114.671L530.308 115.989ZM532.142 111.877L534.995 112.804L535.458 111.381L534.599 110.156L532.142 111.877ZM530.37 109.347L532.827 107.626L531.815 106.18L530.059 106.363L530.37 109.347ZM526.019 111.007L527.791 113.427L527.863 113.374L527.933 113.317L526.019 111.007ZM522.569 114.081L524.635 116.256L524.685 116.208L524.734 116.158L522.569 114.081ZM517.925 117.279L519.205 119.993L519.264 119.965L519.322 119.934L517.925 117.279ZM509.518 116.195C505.161 116.649 501.706 115.751 498.917 113.708L495.371 118.547C499.549 121.609 504.551 122.745 510.14 122.163L509.518 116.195ZM498.955 113.736C496.365 111.774 494.72 108.79 494.259 104.363L488.291 104.985C488.887 110.704 491.155 115.355 495.333 118.519L498.955 113.736ZM494.259 104.363C493.801 99.9718 494.682 96.6532 496.602 94.1119L491.815 90.4947C488.787 94.5016 487.712 99.4302 488.291 104.985L494.259 104.363ZM496.6 94.1146C498.516 91.5856 501.699 89.8637 506.719 89.3405L506.097 83.3728C499.977 84.0106 495.028 86.2532 491.817 90.492L496.6 94.1146ZM506.719 89.3405L571.021 82.6389L570.399 76.6712L506.097 83.3728L506.719 89.3405ZM571.021 82.6389C576.048 82.1149 579.437 83.1541 581.718 85.2047L585.73 80.743C581.798 77.2075 576.511 76.0341 570.399 76.6712L571.021 82.6389ZM581.795 85.2713C584.279 87.3576 585.856 90.4066 586.31 94.7693L592.278 94.1473C591.696 88.5639 589.559 83.9566 585.653 80.6764L581.795 85.2713ZM586.31 94.7693C586.769 99.1661 585.744 102.418 583.53 104.889L587.998 108.893C591.548 104.932 592.877 99.8955 592.278 94.1473L586.31 94.7693ZM583.498 104.925C581.302 107.455 578.179 109.039 573.819 109.493L574.441 115.461C580.028 114.879 584.661 112.739 588.03 108.858L583.498 104.925ZM573.819 109.493C570.606 109.828 568.19 109.741 566.465 109.359L565.167 115.217C567.765 115.792 570.892 115.831 574.441 115.461L573.819 109.493ZM566.635 109.402C564.751 108.867 563.287 108.239 562.186 107.561L559.04 112.67C560.731 113.712 562.737 114.532 564.997 115.174L566.635 109.402ZM562.303 107.637C560.783 106.601 559.294 105.742 557.838 105.085L555.368 110.553C556.445 111.039 557.629 111.712 558.923 112.594L562.303 107.637ZM557.999 105.164C556.082 104.155 553.925 103.875 551.692 104.108L552.314 110.076C553.662 109.935 554.571 110.14 555.207 110.474L557.999 105.164ZM549.195 106.036L548.132 108.861L553.748 110.974L554.811 108.148L549.195 106.036ZM548.34 111.413C548.919 112.42 549.833 113.752 551.019 115.36L555.847 111.798C554.691 110.231 553.943 109.122 553.54 108.421L548.34 111.413ZM551.068 115.424C551.979 116.593 553.045 118.538 554.22 121.426L559.777 119.165C558.519 116.073 557.208 113.54 555.799 111.734L551.068 115.424ZM554.23 121.451C555.274 123.953 556.107 127.654 556.632 132.7L562.6 132.078C562.048 126.78 561.135 122.419 559.767 119.14L554.23 121.451ZM556.632 132.7L561.126 175.817L567.094 175.195L562.6 132.078L556.632 132.7ZM561.126 175.817C561.461 179.029 560.562 181.713 558.348 184.087L562.737 188.178C566.13 184.539 567.609 180.138 567.094 175.195L561.126 175.817ZM558.315 184.123C556.154 186.517 553.322 187.941 549.611 188.328L550.233 194.295C555.274 193.77 559.523 191.741 562.77 188.142L558.315 184.123ZM549.611 188.328C545.782 188.727 542.602 187.918 539.889 186.011L536.438 190.919C540.452 193.741 545.11 194.829 550.233 194.295L549.611 188.328ZM539.928 186.039C537.365 184.174 535.953 181.723 535.614 178.475L529.647 179.097C530.158 184.006 532.435 188.007 536.399 190.891L539.928 186.039ZM535.614 178.475L531.121 135.359L525.153 135.981L529.647 179.097L535.614 178.475ZM531.121 135.359C530.595 130.313 530.646 126.519 531.152 123.856L525.257 122.737C524.594 126.227 524.601 130.683 525.153 135.981L531.121 135.359ZM531.157 123.83C531.711 120.761 532.352 118.638 533.003 117.307L527.613 114.671C526.607 116.729 525.846 119.478 525.252 122.763L531.157 123.83ZM532.982 117.349C533.913 115.518 534.614 113.975 534.995 112.804L529.289 110.949C529.06 111.652 528.539 112.85 527.634 114.629L532.982 117.349ZM534.599 110.156L532.827 107.626L527.913 111.068L529.685 113.597L534.599 110.156ZM530.059 106.363C527.826 106.595 525.773 107.314 524.105 108.696L527.933 113.317C528.486 112.859 529.333 112.471 530.681 112.33L530.059 106.363ZM524.247 108.586C522.958 109.529 521.678 110.676 520.404 112.004L524.734 116.158C525.818 115.028 526.838 114.125 527.791 113.427L524.247 108.586ZM520.503 111.905C519.565 112.796 518.262 113.712 516.528 114.624L519.322 119.934C521.401 118.841 523.194 117.624 524.635 116.256L520.503 111.905ZM516.646 114.566C515.169 115.262 512.852 115.848 509.518 116.195L510.14 122.163C513.767 121.785 516.848 121.104 519.205 119.993L516.646 114.566Z" fill="white" mask="url(#path-1-outside-1_13_399)"/>
<mask id="path-3-outside-2_13_399" maskUnits="userSpaceOnUse" x="8.48864" y="59.5151" width="593.086" height="177.902" fill="black">
<rect fill="white" x="8.48864" y="59.5151" width="593.086" height="177.902"/>
<path d="M13.6271 138.972C13.1503 134.397 14.1747 130.721 16.7005 127.944C19.3154 125.057 22.8607 123.381 27.3364 122.914C32.0111 122.427 35.8757 123.332 38.9301 125.627C41.9742 127.824 43.7346 131.209 44.2115 135.785L50.8354 199.34C51.0323 201.23 51.6696 202.521 52.7471 203.213C53.8143 203.806 55.4243 203.336 57.5771 201.805C62.2496 198.402 66.4372 195.653 70.14 193.558C73.8324 191.363 78.0159 190.023 82.6906 189.535C89.1556 188.862 94.2054 190.044 97.8401 193.084C101.475 196.124 103.577 200.379 104.147 205.849C104.759 211.717 103.44 216.429 100.191 219.985C97.0419 223.531 91.5882 225.708 83.8302 226.516L53.0967 229.72C46.5322 230.404 40.9841 230.228 36.4523 229.192C31.9102 228.057 28.2828 225.569 25.5702 221.73C22.957 217.88 21.2462 212.076 20.4376 204.318L13.6271 138.972ZM124.252 222.605C117.484 222.305 112.841 219.723 110.323 214.857C107.795 209.893 107.514 203.336 109.48 195.189L123.342 137.189C124.594 131.831 126.171 127.192 128.075 123.274C130.079 119.345 132.718 116.204 135.991 113.852C139.365 111.49 143.687 110.034 148.958 109.485C156.915 108.655 163.111 110.222 167.546 114.183C172.08 118.135 176.094 123.849 179.588 131.327L204.963 185.237C208.567 192.805 209.743 199.267 208.492 204.626C207.329 209.875 203.419 213.349 196.759 215.048C191.361 216.315 186.519 216.166 182.234 214.602C178.048 213.027 175.324 210.043 174.062 205.65C173.155 202.729 172.796 200.253 172.986 198.222C173.276 196.181 173.558 194.543 173.832 193.308C174.026 192.282 173.928 191.337 173.536 190.473C173.234 189.499 172.436 189.08 171.143 189.215L143.393 192.107C142.1 192.241 141.356 192.822 141.162 193.847C141.056 194.763 141.254 195.698 141.755 196.651C142.278 197.803 142.841 199.353 143.446 201.301C144.052 203.248 144.261 205.74 144.075 208.776C143.746 213.335 141.745 216.811 138.073 219.204C134.402 221.598 129.794 222.731 124.252 222.605ZM166.131 168.623L155.839 145.113C155.536 144.14 155.11 143.43 154.561 142.984C154.101 142.429 153.374 142.203 152.379 142.307C151.385 142.411 150.67 142.787 150.235 143.435C149.889 143.974 149.618 144.756 149.424 145.782L144.349 170.893L166.131 168.623ZM194.502 134.599C190.975 128.733 189.753 123.28 190.837 118.241C191.91 113.102 194.581 109.305 198.849 106.849C203.217 104.383 207.842 103.901 212.724 105.403C217.695 106.795 221.596 110.46 224.427 116.399C225.842 119.368 227.011 122.866 227.933 126.892C228.845 130.819 229.797 134.641 230.787 138.358C231.867 141.965 233.282 144.935 235.034 147.266C236.874 149.487 239.435 150.426 242.717 150.084C245.999 149.742 248.312 148.295 249.654 145.742C250.987 143.089 251.759 139.892 251.973 136.15C252.275 132.298 252.418 128.362 252.401 124.342C252.473 120.212 252.896 116.549 253.668 113.351C255.313 106.946 258.375 102.555 262.852 100.178C267.32 97.7018 271.945 97.2198 276.727 98.7322C281.41 100.255 284.807 103.42 286.916 108.227C289.016 112.935 288.944 118.522 286.703 124.99C285.543 128.328 283.869 131.569 281.684 134.712C279.587 137.746 277.252 140.905 274.678 144.189C272.105 147.474 269.568 151.107 267.067 155.087C264.556 158.968 262.35 163.371 260.45 168.294L263.109 193.806C263.534 197.884 262.395 201.421 259.691 204.418C256.987 207.414 253.397 209.145 248.921 209.612C244.545 210.068 240.675 209.114 237.312 206.75C234.048 204.375 232.204 201.149 231.779 197.071L229.12 171.56C226.345 167.123 223.329 163.265 220.071 159.985C216.804 156.606 213.572 153.574 210.377 150.891C207.181 148.208 204.195 145.603 201.418 143.078C198.631 140.452 196.326 137.626 194.502 134.599ZM346.747 199.869C336.104 200.978 326.86 199.579 319.012 195.671C311.165 191.764 304.921 185.879 300.281 178.018C295.641 170.156 292.762 160.855 291.642 150.113C290.533 139.471 291.438 129.825 294.357 121.176C297.266 112.427 302.157 105.332 309.03 99.8899C315.892 94.3487 324.645 91.0235 335.287 89.9143C345.929 88.8052 355.13 90.2593 362.888 94.2767C370.735 98.1843 376.984 104.119 381.634 112.079C386.274 119.941 389.149 129.193 390.258 139.835C391.378 150.577 390.478 160.272 387.559 168.921C384.64 177.571 379.743 184.616 372.871 190.058C366.097 195.489 357.389 198.76 346.747 199.869ZM310.192 145.767C310.513 148.85 311.565 151.706 313.347 154.336C315.119 156.866 318.281 158.748 322.833 159.983C327.376 161.118 333.973 161.235 342.626 160.333C351.279 159.431 357.661 157.962 361.772 155.924C365.973 153.778 368.679 151.284 369.891 148.443C371.092 145.502 371.532 142.49 371.211 139.407C370.879 136.224 369.838 133.467 368.087 131.136C366.326 128.706 363.179 126.973 358.647 125.937C354.204 124.791 347.657 124.669 339.003 125.571C330.35 126.473 323.918 127.948 319.708 129.995C315.487 131.943 312.766 134.288 311.543 137.029C310.31 139.671 309.86 142.584 310.192 145.767ZM449.25 189.186C443.272 189.708 437.47 189.509 431.844 188.587C426.318 187.655 421.24 185.721 416.61 182.785C411.981 179.849 408.128 175.676 405.05 170.266C402.072 164.845 400.148 157.957 399.277 149.603L394.006 99.0266C393.509 94.2524 394.682 90.5609 397.527 87.9519C400.461 85.2331 404.017 83.6561 408.194 83.2207C412.272 82.7957 416.027 83.6109 419.458 85.6662C422.88 87.6221 424.839 90.9871 425.337 95.7613L429.877 139.325C430.613 146.387 432.793 151.388 436.417 154.328C440.141 157.258 444.623 158.299 449.863 157.451C455.392 156.473 459.147 153.92 461.13 149.792C463.212 145.654 463.37 140.409 461.602 134.058C460.449 129.755 459.27 126.157 458.064 123.267C456.957 120.366 455.837 117.818 454.704 115.624C453.659 113.32 452.719 111.055 451.884 108.83C451.039 106.505 450.301 103.767 449.671 100.615C448.379 94.0132 449.178 88.6516 452.066 84.5299C455.044 80.2985 459.268 77.8977 464.738 77.3276C470.208 76.7575 474.677 78.1517 478.144 81.5105C481.611 84.8692 483.733 90.2783 484.51 97.7379L488.942 140.258C489.812 148.612 489.355 155.799 487.569 161.816C485.872 167.724 483.117 172.636 479.302 176.552C475.577 180.359 471.106 183.288 465.891 185.34C460.764 187.282 455.217 188.564 449.25 189.186ZM508.481 106.249C503.508 106.767 499.28 105.75 495.796 103.197C492.412 100.634 490.456 96.8166 489.927 91.7441C489.409 86.771 490.387 82.6475 492.861 79.3734C495.424 75.9895 499.49 74.0073 505.06 73.4268L569.362 66.7251C574.932 66.1446 579.27 67.2509 582.376 70.0439C585.571 72.7271 587.428 76.5553 587.947 81.5284C588.475 86.6009 587.298 90.7452 584.416 93.9613C581.634 97.167 577.756 99.029 572.783 99.5473C569.401 99.8998 566.63 99.8367 564.468 99.3582C562.396 98.7698 560.662 98.0457 559.265 97.1858C557.858 96.2265 556.522 95.4609 555.255 94.8891C553.979 94.2178 552.446 93.9755 550.655 94.162L549.592 96.9874C550.084 97.8411 550.915 99.0616 552.085 100.649C553.246 102.136 554.434 104.375 555.651 107.365C556.857 110.256 557.73 114.287 558.269 119.459L562.762 162.576C563.187 166.654 561.998 170.196 559.195 173.203C556.491 176.199 552.951 177.925 548.574 178.381C544.099 178.848 540.179 177.899 536.816 175.535C533.552 173.161 531.708 169.934 531.283 165.856L526.789 122.74C526.25 117.568 526.273 113.443 526.857 110.366C527.431 107.19 528.132 104.754 528.961 103.059C529.879 101.254 530.49 99.8832 530.794 98.9466L529.022 96.4167C527.232 96.6033 525.782 97.1566 524.671 98.0767C523.55 98.8973 522.4 99.922 521.221 101.151C520.032 102.28 518.484 103.346 516.578 104.349C514.661 105.253 511.962 105.886 508.481 106.249Z"/>
</mask>
<path d="M13.6271 138.972C13.1503 134.397 14.1747 130.721 16.7005 127.944C19.3154 125.057 22.8607 123.381 27.3364 122.914C32.0111 122.427 35.8757 123.332 38.9301 125.627C41.9742 127.824 43.7346 131.209 44.2115 135.785L50.8354 199.34C51.0323 201.23 51.6696 202.521 52.7471 203.213C53.8143 203.806 55.4243 203.336 57.5771 201.805C62.2496 198.402 66.4372 195.653 70.14 193.558C73.8324 191.363 78.0159 190.023 82.6906 189.535C89.1556 188.862 94.2054 190.044 97.8401 193.084C101.475 196.124 103.577 200.379 104.147 205.849C104.759 211.717 103.44 216.429 100.191 219.985C97.0419 223.531 91.5882 225.708 83.8302 226.516L53.0967 229.72C46.5322 230.404 40.9841 230.228 36.4523 229.192C31.9102 228.057 28.2828 225.569 25.5702 221.73C22.957 217.88 21.2462 212.076 20.4376 204.318L13.6271 138.972ZM124.252 222.605C117.484 222.305 112.841 219.723 110.323 214.857C107.795 209.893 107.514 203.336 109.48 195.189L123.342 137.189C124.594 131.831 126.171 127.192 128.075 123.274C130.079 119.345 132.718 116.204 135.991 113.852C139.365 111.49 143.687 110.034 148.958 109.485C156.915 108.655 163.111 110.222 167.546 114.183C172.08 118.135 176.094 123.849 179.588 131.327L204.963 185.237C208.567 192.805 209.743 199.267 208.492 204.626C207.329 209.875 203.419 213.349 196.759 215.048C191.361 216.315 186.519 216.166 182.234 214.602C178.048 213.027 175.324 210.043 174.062 205.65C173.155 202.729 172.796 200.253 172.986 198.222C173.276 196.181 173.558 194.543 173.832 193.308C174.026 192.282 173.928 191.337 173.536 190.473C173.234 189.499 172.436 189.08 171.143 189.215L143.393 192.107C142.1 192.241 141.356 192.822 141.162 193.847C141.056 194.763 141.254 195.698 141.755 196.651C142.278 197.803 142.841 199.353 143.446 201.301C144.052 203.248 144.261 205.74 144.075 208.776C143.746 213.335 141.745 216.811 138.073 219.204C134.402 221.598 129.794 222.731 124.252 222.605ZM166.131 168.623L155.839 145.113C155.536 144.14 155.11 143.43 154.561 142.984C154.101 142.429 153.374 142.203 152.379 142.307C151.385 142.411 150.67 142.787 150.235 143.435C149.889 143.974 149.618 144.756 149.424 145.782L144.349 170.893L166.131 168.623ZM194.502 134.599C190.975 128.733 189.753 123.28 190.837 118.241C191.91 113.102 194.581 109.305 198.849 106.849C203.217 104.383 207.842 103.901 212.724 105.403C217.695 106.795 221.596 110.46 224.427 116.399C225.842 119.368 227.011 122.866 227.933 126.892C228.845 130.819 229.797 134.641 230.787 138.358C231.867 141.965 233.282 144.935 235.034 147.266C236.874 149.487 239.435 150.426 242.717 150.084C245.999 149.742 248.312 148.295 249.654 145.742C250.987 143.089 251.759 139.892 251.973 136.15C252.275 132.298 252.418 128.362 252.401 124.342C252.473 120.212 252.896 116.549 253.668 113.351C255.313 106.946 258.375 102.555 262.852 100.178C267.32 97.7018 271.945 97.2198 276.727 98.7322C281.41 100.255 284.807 103.42 286.916 108.227C289.016 112.935 288.944 118.522 286.703 124.99C285.543 128.328 283.869 131.569 281.684 134.712C279.587 137.746 277.252 140.905 274.678 144.189C272.105 147.474 269.568 151.107 267.067 155.087C264.556 158.968 262.35 163.371 260.45 168.294L263.109 193.806C263.534 197.884 262.395 201.421 259.691 204.418C256.987 207.414 253.397 209.145 248.921 209.612C244.545 210.068 240.675 209.114 237.312 206.75C234.048 204.375 232.204 201.149 231.779 197.071L229.12 171.56C226.345 167.123 223.329 163.265 220.071 159.985C216.804 156.606 213.572 153.574 210.377 150.891C207.181 148.208 204.195 145.603 201.418 143.078C198.631 140.452 196.326 137.626 194.502 134.599ZM346.747 199.869C336.104 200.978 326.86 199.579 319.012 195.671C311.165 191.764 304.921 185.879 300.281 178.018C295.641 170.156 292.762 160.855 291.642 150.113C290.533 139.471 291.438 129.825 294.357 121.176C297.266 112.427 302.157 105.332 309.03 99.8899C315.892 94.3487 324.645 91.0235 335.287 89.9143C345.929 88.8052 355.13 90.2593 362.888 94.2767C370.735 98.1843 376.984 104.119 381.634 112.079C386.274 119.941 389.149 129.193 390.258 139.835C391.378 150.577 390.478 160.272 387.559 168.921C384.64 177.571 379.743 184.616 372.871 190.058C366.097 195.489 357.389 198.76 346.747 199.869ZM310.192 145.767C310.513 148.85 311.565 151.706 313.347 154.336C315.119 156.866 318.281 158.748 322.833 159.983C327.376 161.118 333.973 161.235 342.626 160.333C351.279 159.431 357.661 157.962 361.772 155.924C365.973 153.778 368.679 151.284 369.891 148.443C371.092 145.502 371.532 142.49 371.211 139.407C370.879 136.224 369.838 133.467 368.087 131.136C366.326 128.706 363.179 126.973 358.647 125.937C354.204 124.791 347.657 124.669 339.003 125.571C330.35 126.473 323.918 127.948 319.708 129.995C315.487 131.943 312.766 134.288 311.543 137.029C310.31 139.671 309.86 142.584 310.192 145.767ZM449.25 189.186C443.272 189.708 437.47 189.509 431.844 188.587C426.318 187.655 421.24 185.721 416.61 182.785C411.981 179.849 408.128 175.676 405.05 170.266C402.072 164.845 400.148 157.957 399.277 149.603L394.006 99.0266C393.509 94.2524 394.682 90.5609 397.527 87.9519C400.461 85.2331 404.017 83.6561 408.194 83.2207C412.272 82.7957 416.027 83.6109 419.458 85.6662C422.88 87.6221 424.839 90.9871 425.337 95.7613L429.877 139.325C430.613 146.387 432.793 151.388 436.417 154.328C440.141 157.258 444.623 158.299 449.863 157.451C455.392 156.473 459.147 153.92 461.13 149.792C463.212 145.654 463.37 140.409 461.602 134.058C460.449 129.755 459.27 126.157 458.064 123.267C456.957 120.366 455.837 117.818 454.704 115.624C453.659 113.32 452.719 111.055 451.884 108.83C451.039 106.505 450.301 103.767 449.671 100.615C448.379 94.0132 449.178 88.6516 452.066 84.5299C455.044 80.2985 459.268 77.8977 464.738 77.3276C470.208 76.7575 474.677 78.1517 478.144 81.5105C481.611 84.8692 483.733 90.2783 484.51 97.7379L488.942 140.258C489.812 148.612 489.355 155.799 487.569 161.816C485.872 167.724 483.117 172.636 479.302 176.552C475.577 180.359 471.106 183.288 465.891 185.34C460.764 187.282 455.217 188.564 449.25 189.186ZM508.481 106.249C503.508 106.767 499.28 105.75 495.796 103.197C492.412 100.634 490.456 96.8166 489.927 91.7441C489.409 86.771 490.387 82.6475 492.861 79.3734C495.424 75.9895 499.49 74.0073 505.06 73.4268L569.362 66.7251C574.932 66.1446 579.27 67.2509 582.376 70.0439C585.571 72.7271 587.428 76.5553 587.947 81.5284C588.475 86.6009 587.298 90.7452 584.416 93.9613C581.634 97.167 577.756 99.029 572.783 99.5473C569.401 99.8998 566.63 99.8367 564.468 99.3582C562.396 98.7698 560.662 98.0457 559.265 97.1858C557.858 96.2265 556.522 95.4609 555.255 94.8891C553.979 94.2178 552.446 93.9755 550.655 94.162L549.592 96.9874C550.084 97.8411 550.915 99.0616 552.085 100.649C553.246 102.136 554.434 104.375 555.651 107.365C556.857 110.256 557.73 114.287 558.269 119.459L562.762 162.576C563.187 166.654 561.998 170.196 559.195 173.203C556.491 176.199 552.951 177.925 548.574 178.381C544.099 178.848 540.179 177.899 536.816 175.535C533.552 173.161 531.708 169.934 531.283 165.856L526.789 122.74C526.25 117.568 526.273 113.443 526.857 110.366C527.431 107.19 528.132 104.754 528.961 103.059C529.879 101.254 530.49 99.8832 530.794 98.9466L529.022 96.4167C527.232 96.6033 525.782 97.1566 524.671 98.0767C523.55 98.8973 522.4 99.922 521.221 101.151C520.032 102.28 518.484 103.346 516.578 104.349C514.661 105.253 511.962 105.886 508.481 106.249Z" fill="#0068FF"/>
<path d="M16.7005 127.944L18.9198 129.963L18.9239 129.958L16.7005 127.944ZM38.9301 125.627L37.1276 128.025L37.151 128.043L37.1748 128.06L38.9301 125.627ZM52.7471 203.213L51.126 205.737L51.2068 205.789L51.2908 205.836L52.7471 203.213ZM57.5771 201.805L59.3161 204.249L59.3297 204.24L59.3432 204.23L57.5771 201.805ZM70.14 193.558L71.6173 196.169L71.6452 196.153L71.6727 196.137L70.14 193.558ZM97.8401 193.084L99.7646 190.783L97.8401 193.084ZM100.191 219.985L97.9765 217.962L97.9624 217.977L97.9484 217.993L100.191 219.985ZM36.4523 229.192L35.7249 232.103L35.7543 232.11L35.7839 232.117L36.4523 229.192ZM25.5702 221.73L23.088 223.415L23.1038 223.438L23.12 223.461L25.5702 221.73ZM16.611 138.661C16.2011 134.728 17.0959 131.968 18.9198 129.963L14.4812 125.925C11.2536 129.474 10.0995 134.065 10.6433 139.283L16.611 138.661ZM18.9239 129.958C20.9661 127.704 23.7851 126.301 27.6474 125.898L27.0254 119.931C21.9362 120.461 17.6646 122.411 14.4771 125.93L18.9239 129.958ZM27.6474 125.898C31.7509 125.471 34.8104 126.284 37.1276 128.025L40.7326 123.229C36.9409 120.379 32.2714 119.384 27.0254 119.931L27.6474 125.898ZM37.1748 128.06C39.3729 129.646 40.8177 132.163 41.2276 136.095L47.1953 135.474C46.6515 130.256 44.5754 126.001 40.6854 123.194L37.1748 128.06ZM41.2276 136.095L47.8515 199.651L53.8192 199.029L47.1953 135.474L41.2276 136.095ZM47.8515 199.651C48.0959 201.996 48.9674 204.351 51.126 205.737L54.3683 200.689C54.3428 200.672 54.2593 200.617 54.1511 200.398C54.0313 200.155 53.8919 199.727 53.8192 199.029L47.8515 199.651ZM51.2908 205.836C52.7536 206.648 54.315 206.559 55.5947 206.185C56.8522 205.819 58.1049 205.111 59.3161 204.249L55.8382 199.36C54.8965 200.03 54.2679 200.322 53.9153 200.425C53.585 200.522 53.8078 200.37 54.2035 200.59L51.2908 205.836ZM59.3432 204.23C63.9534 200.872 68.0424 198.192 71.6173 196.169L68.6626 190.947C64.8321 193.114 60.5458 195.932 55.8111 199.38L59.3432 204.23ZM71.6727 196.137C74.958 194.184 78.7175 192.966 83.0016 192.519L82.3796 186.551C77.3143 187.079 72.7068 188.543 68.6072 190.979L71.6727 196.137ZM83.0016 192.519C88.968 191.897 93.1063 193.036 95.9155 195.385L99.7646 190.783C95.3045 187.053 89.3432 185.826 82.3796 186.551L83.0016 192.519ZM95.9155 195.385C98.8556 197.844 100.66 201.331 101.163 206.16L107.131 205.538C106.494 199.426 104.094 194.403 99.7646 190.783L95.9155 195.385ZM101.163 206.16C101.708 211.384 100.52 215.178 97.9765 217.962L102.406 222.009C106.36 217.681 107.81 212.051 107.131 205.538L101.163 206.16ZM97.9484 217.993C95.5324 220.713 90.9831 222.755 83.5192 223.533L84.1412 229.5C92.1933 228.661 98.5514 226.349 102.434 221.978L97.9484 217.993ZM83.5192 223.533L52.7857 226.736L53.4077 232.703L84.1412 229.5L83.5192 223.533ZM52.7857 226.736C46.4228 227.399 41.2278 227.206 37.1208 226.267L35.7839 232.117C40.7404 233.25 46.6417 233.409 53.4077 232.703L52.7857 226.736ZM37.1798 226.282C33.3377 225.321 30.3203 223.254 28.0204 219.999L23.12 223.461C26.2453 227.885 30.4827 230.792 35.7249 232.103L37.1798 226.282ZM28.0524 220.045C25.8455 216.794 24.2092 211.566 23.4215 204.007L17.4538 204.629C18.2831 212.587 20.0685 218.966 23.088 223.415L28.0524 220.045ZM23.4215 204.007L16.611 138.661L10.6433 139.283L17.4538 204.629L23.4215 204.007ZM124.252 222.605L124.119 225.602L124.151 225.604L124.183 225.604L124.252 222.605ZM110.323 214.857L107.65 216.219L107.654 216.227L107.659 216.236L110.323 214.857ZM109.48 195.189L112.396 195.892L112.398 195.886L109.48 195.189ZM123.342 137.189L126.26 137.887L126.262 137.879L126.264 137.872L123.342 137.189ZM128.075 123.274L125.403 121.911L125.39 121.937L125.377 121.963L128.075 123.274ZM135.991 113.852L134.27 111.395L134.256 111.405L134.241 111.416L135.991 113.852ZM167.546 114.183L165.547 116.421L165.561 116.433L165.575 116.445L167.546 114.183ZM179.588 131.327L176.87 132.597L176.873 132.605L179.588 131.327ZM204.963 185.237L202.248 186.515L202.254 186.527L204.963 185.237ZM208.492 204.626L205.57 203.944L205.566 203.961L205.563 203.977L208.492 204.626ZM196.759 215.048L197.444 217.969L197.472 217.962L197.501 217.955L196.759 215.048ZM182.234 214.602L181.178 217.41L181.192 217.415L181.206 217.42L182.234 214.602ZM174.062 205.651L176.946 204.822L176.937 204.791L176.927 204.76L174.062 205.651ZM172.986 198.222L170.016 197.8L170.006 197.871L170 197.942L172.986 198.222ZM173.832 193.308L176.761 193.956L176.771 193.912L176.779 193.867L173.832 193.308ZM173.536 190.473L170.671 191.363L170.727 191.542L170.804 191.712L173.536 190.473ZM141.162 193.847L138.214 193.288L138.194 193.395L138.181 193.504L141.162 193.847ZM141.755 196.651L144.488 195.412L144.451 195.332L144.41 195.254L141.755 196.651ZM143.446 201.301L146.311 200.411L143.446 201.301ZM144.075 208.776L147.067 208.992L147.068 208.976L147.069 208.96L144.075 208.776ZM138.073 219.204L139.712 221.717L138.073 219.204ZM166.131 168.623L166.442 171.607L170.526 171.181L168.88 167.42L166.131 168.623ZM155.839 145.113L152.974 146.004L153.024 146.163L153.091 146.317L155.839 145.113ZM154.561 142.984L152.251 144.898L152.441 145.127L152.671 145.314L154.561 142.984ZM150.235 143.435L147.743 141.764L147.727 141.789L147.71 141.814L150.235 143.435ZM149.424 145.782L152.364 146.376L152.368 146.359L152.371 146.342L149.424 145.782ZM144.349 170.893L141.409 170.299L140.6 174.3L144.66 173.877L144.349 170.893ZM124.384 219.608C118.393 219.343 114.889 217.153 112.988 213.478L107.659 216.236C110.793 222.292 116.575 225.268 124.119 225.602L124.384 219.608ZM112.997 213.496C110.922 209.422 110.516 203.683 112.396 195.892L106.564 194.485C104.512 202.99 104.668 210.363 107.65 216.219L112.997 213.496ZM112.398 195.886L126.26 137.887L120.425 136.492L106.562 194.491L112.398 195.886ZM126.264 137.872C127.477 132.676 128.989 128.258 130.774 124.585L125.377 121.963C123.354 126.126 121.71 130.985 120.421 136.507L126.264 137.872ZM130.748 124.637C132.555 121.093 134.892 118.336 137.742 116.289L134.241 111.416C130.543 114.073 127.603 117.597 125.403 121.911L130.748 124.637ZM137.712 116.31C140.565 114.312 144.363 112.98 149.269 112.469L148.648 106.501C143.011 107.088 138.164 108.668 134.27 111.395L137.712 116.31ZM149.269 112.469C156.689 111.695 161.939 113.197 165.547 116.421L169.544 111.946C164.283 107.246 157.142 105.616 148.648 106.501L149.269 112.469ZM165.575 116.445C169.699 120.039 173.491 125.366 176.87 132.597L182.306 130.057C178.697 122.333 174.46 116.23 169.517 111.922L165.575 116.445ZM176.873 132.605L202.248 186.515L207.677 183.96L182.302 130.05L176.873 132.605ZM202.254 186.527C205.711 193.786 206.604 199.516 205.57 203.944L211.413 205.308C212.882 199.019 211.422 191.823 207.671 183.947L202.254 186.527ZM205.563 203.977C204.717 207.798 201.942 210.63 196.017 212.142L197.501 217.955C204.895 216.068 209.942 211.951 211.421 205.275L205.563 203.977ZM196.074 212.128C191.121 213.29 186.891 213.108 183.263 211.784L181.206 217.42C186.148 219.224 191.601 219.34 197.444 217.969L196.074 212.128ZM183.29 211.794C180.015 210.562 177.953 208.327 176.946 204.822L171.179 206.479C172.696 211.76 176.082 215.492 181.178 217.41L183.29 211.794ZM176.927 204.76C176.084 202.046 175.834 199.992 175.973 198.502L170 197.942C169.758 200.513 170.225 203.412 171.197 206.541L176.927 204.76ZM175.957 198.644C176.242 196.638 176.511 195.085 176.761 193.956L170.903 192.659C170.606 194.001 170.311 195.724 170.016 197.8L175.957 198.644ZM176.779 193.867C177.077 192.298 176.941 190.718 176.269 189.235L170.804 191.712C170.915 191.957 170.976 192.266 170.884 192.748L176.779 193.867ZM176.401 189.583C176.048 188.445 175.305 187.403 174.107 186.773C173 186.191 171.819 186.128 170.832 186.231L171.454 192.198C171.759 192.167 171.624 192.246 171.315 192.083C171.148 191.996 170.989 191.866 170.862 191.706C170.74 191.552 170.689 191.42 170.671 191.363L176.401 189.583ZM170.832 186.231L143.082 189.123L143.704 195.091L171.454 192.198L170.832 186.231ZM143.082 189.123C142.08 189.227 140.973 189.534 140.02 190.277C139.011 191.065 138.432 192.141 138.214 193.288L144.109 194.407C144.102 194.446 144.076 194.547 144.001 194.675C143.923 194.808 143.82 194.923 143.711 195.008C143.502 195.171 143.413 195.121 143.704 195.091L143.082 189.123ZM138.181 193.504C137.995 195.115 138.366 196.653 139.1 198.048L144.41 195.254C144.141 194.743 144.116 194.412 144.142 194.191L138.181 193.504ZM139.023 197.89C139.473 198.881 139.994 200.299 140.582 202.191L146.311 200.411C145.689 198.406 145.083 196.725 144.488 195.412L139.023 197.89ZM140.582 202.191C141.04 203.665 141.254 205.758 141.08 208.592L147.069 208.96C147.268 205.722 147.064 202.832 146.311 200.411L140.582 202.191ZM141.083 208.56C140.817 212.23 139.283 214.835 136.435 216.691L139.712 221.717C144.207 218.787 146.674 214.439 147.067 208.992L141.083 208.56ZM136.435 216.691C133.39 218.676 129.418 219.722 124.32 219.606L124.183 225.604C130.171 225.741 135.414 224.519 139.712 221.717L136.435 216.691ZM168.88 167.42L158.587 143.91L153.091 146.317L163.383 169.826L168.88 167.42ZM158.704 144.223C158.299 142.922 157.622 141.604 156.451 140.655L152.671 145.314C152.599 145.255 152.773 145.357 152.974 146.004L158.704 144.223ZM156.871 141.07C155.542 139.465 153.639 139.159 152.068 139.323L152.69 145.291C152.904 145.268 152.907 145.303 152.781 145.264C152.714 145.243 152.62 145.204 152.517 145.136C152.413 145.068 152.323 144.985 152.251 144.898L156.871 141.07ZM152.068 139.323C150.456 139.491 148.807 140.178 147.743 141.764L152.726 145.107C152.696 145.151 152.657 145.198 152.609 145.24C152.562 145.282 152.521 145.308 152.494 145.322C152.444 145.348 152.485 145.312 152.69 145.291L152.068 139.323ZM147.71 141.814C147.067 142.817 146.703 144.027 146.476 145.222L152.371 146.342C152.534 145.485 152.711 145.132 152.759 145.056L147.71 141.814ZM146.483 145.188L141.409 170.299L147.29 171.488L152.364 146.376L146.483 145.188ZM144.66 173.877L166.442 171.607L165.82 165.639L144.038 167.909L144.66 173.877ZM194.502 134.599L191.931 136.145L191.932 136.147L194.502 134.599ZM190.837 118.241L193.77 118.871L193.772 118.863L193.773 118.854L190.837 118.241ZM198.849 106.849L197.374 104.236L197.363 104.242L197.353 104.248L198.849 106.849ZM212.724 105.403L211.842 108.27L211.878 108.281L211.915 108.292L212.724 105.403ZM224.427 116.399L227.135 115.108L224.427 116.399ZM227.933 126.892L225.009 127.562L225.011 127.571L227.933 126.892ZM230.787 138.358L227.888 139.13L227.9 139.174L227.913 139.218L230.787 138.358ZM235.034 147.266L232.635 149.067L232.678 149.125L232.723 149.18L235.034 147.266ZM249.654 145.742L252.31 147.138L252.323 147.113L252.335 147.088L249.654 145.742ZM251.973 136.15L248.982 135.915L248.979 135.947L248.977 135.979L251.973 136.15ZM252.401 124.342L249.401 124.289L249.401 124.322L249.401 124.354L252.401 124.342ZM253.668 113.351L250.763 112.605L250.757 112.626L250.752 112.647L253.668 113.351ZM262.852 100.178L264.259 102.828L264.283 102.815L264.307 102.802L262.852 100.178ZM276.727 98.7322L277.655 95.8792L277.643 95.8755L277.632 95.8718L276.727 98.7322ZM286.916 108.227L284.169 109.433L284.173 109.441L284.176 109.449L286.916 108.227ZM286.703 124.99L289.536 125.974L289.537 125.972L286.703 124.99ZM281.684 134.712L279.22 133L279.216 133.007L281.684 134.712ZM274.678 144.189L277.04 146.04L274.678 144.189ZM267.067 155.087L269.586 156.717L269.597 156.7L269.607 156.683L267.067 155.087ZM260.45 168.294L257.651 167.214L257.392 167.887L257.466 168.605L260.45 168.294ZM259.691 204.418L257.464 202.408L259.691 204.418ZM237.312 206.75L235.547 209.176L235.567 209.19L235.587 209.204L237.312 206.75ZM229.12 171.56L232.104 171.249L232.032 170.558L231.663 169.969L229.12 171.56ZM220.071 159.985L217.915 162.071L217.929 162.085L217.943 162.099L220.071 159.985ZM201.418 143.078L199.361 145.261L199.38 145.279L199.4 145.297L201.418 143.078ZM197.073 133.053C193.807 127.621 192.893 122.948 193.77 118.871L187.904 117.61C186.613 123.612 188.143 129.845 191.931 136.145L197.073 133.053ZM193.773 118.854C194.685 114.49 196.872 111.447 200.345 109.449L197.353 104.248C192.289 107.162 189.135 111.714 187.9 117.628L193.773 118.854ZM200.324 109.461C203.96 107.408 207.731 107.005 211.842 108.27L213.606 102.535C207.953 100.796 202.474 101.357 197.374 104.236L200.324 109.461ZM211.915 108.292C215.834 109.389 219.151 112.303 221.719 117.69L227.135 115.108C224.041 108.618 219.556 104.201 213.533 102.514L211.915 108.292ZM221.719 117.69C223.019 120.418 224.124 123.698 225.009 127.562L230.858 126.222C229.898 122.033 228.665 118.319 227.135 115.108L221.719 117.69ZM225.011 127.571C225.93 131.527 226.889 135.38 227.888 139.13L233.686 137.585C232.704 133.901 231.761 130.11 230.856 126.213L225.011 127.571ZM227.913 139.218C229.066 143.071 230.619 146.384 232.635 149.067L237.432 145.464C235.946 143.485 234.668 140.86 233.661 137.498L227.913 139.218ZM232.723 149.18C235.304 152.295 238.916 153.497 243.028 153.068L242.406 147.101C239.954 147.356 238.443 146.679 237.344 145.352L232.723 149.18ZM243.028 153.068C247.14 152.64 250.427 150.718 252.31 147.138L246.999 144.345C246.197 145.871 244.858 146.845 242.406 147.101L243.028 153.068ZM252.335 147.088C253.893 143.987 254.737 140.368 254.968 136.321L248.977 135.979C248.782 139.416 248.08 142.192 246.973 144.395L252.335 147.088ZM254.963 136.385C255.272 132.447 255.418 128.428 255.401 124.329L249.401 124.354C249.417 128.295 249.277 132.149 248.982 135.915L254.963 136.385ZM255.4 124.394C255.47 120.431 255.874 116.994 256.584 114.056L250.752 112.647C249.917 116.104 249.476 119.993 249.401 124.289L255.4 124.394ZM256.574 114.097C258.077 108.247 260.736 104.698 264.259 102.828L261.446 97.5285C256.013 100.412 252.55 105.646 250.763 112.605L256.574 114.097ZM264.307 102.802C268.069 100.717 271.842 100.334 275.823 101.593L277.632 95.8718C272.048 94.1059 266.571 94.6869 261.398 97.5545L264.307 102.802ZM275.799 101.585C279.61 102.824 282.378 105.351 284.169 109.433L289.663 107.022C287.236 101.489 283.21 97.6857 277.655 95.8792L275.799 101.585ZM284.176 109.449C285.875 113.258 285.944 118.018 283.868 124.007L289.537 125.972C291.945 119.027 292.156 112.612 289.656 107.005L284.176 109.449ZM283.869 124.005C282.806 127.064 281.263 130.062 279.221 133L284.147 136.425C286.476 133.075 288.279 129.592 289.536 125.974L283.869 124.005ZM279.216 133.007C277.157 135.985 274.858 139.096 272.317 142.339L277.04 146.04C279.645 142.714 282.017 139.507 284.151 136.418L279.216 133.007ZM272.317 142.339C269.672 145.715 267.076 149.434 264.527 153.491L269.607 156.683C272.06 152.779 274.538 149.233 277.04 146.04L272.317 142.339ZM264.548 153.458C261.91 157.534 259.615 162.125 257.651 167.214L263.249 169.374C265.085 164.617 267.201 160.403 269.586 156.717L264.548 153.458ZM257.466 168.605L260.125 194.117L266.093 193.495L263.434 167.983L257.466 168.605ZM260.125 194.117C260.464 197.364 259.587 200.054 257.464 202.408L261.918 206.427C265.202 202.788 266.605 198.404 266.093 193.495L260.125 194.117ZM257.464 202.408C255.314 204.789 252.44 206.229 248.61 206.628L249.232 212.596C254.354 212.062 258.659 210.039 261.918 206.427L257.464 202.408ZM248.61 206.628C244.899 207.015 241.764 206.213 239.037 204.296L235.587 209.204C239.586 212.016 244.19 213.121 249.232 212.596L248.61 206.628ZM239.077 204.324C236.513 202.459 235.101 200.008 234.763 196.76L228.795 197.382C229.307 202.291 231.583 206.292 235.547 209.176L239.077 204.324ZM234.763 196.76L232.104 171.249L226.136 171.871L228.795 197.382L234.763 196.76ZM231.663 169.969C228.785 165.367 225.634 161.329 222.2 157.871L217.943 162.099C221.024 165.202 223.905 168.879 226.577 173.15L231.663 169.969ZM222.228 157.9C218.897 154.455 215.59 151.351 212.306 148.594L208.447 153.189C211.554 155.797 214.71 158.757 217.915 162.071L222.228 157.9ZM212.306 148.594C209.137 145.933 206.181 143.355 203.437 140.858L199.4 145.297C202.209 147.852 205.225 150.483 208.447 153.189L212.306 148.594ZM203.475 140.894C200.871 138.441 198.743 135.825 197.072 133.051L191.932 136.147C193.908 139.427 196.392 142.464 199.361 145.261L203.475 140.894ZM319.012 195.671L320.349 192.986L319.012 195.671ZM300.281 178.018L302.865 176.493L300.281 178.018ZM294.357 121.176L297.2 122.135L297.204 122.122L294.357 121.176ZM309.03 99.8899L310.892 102.242L310.903 102.233L310.914 102.224L309.03 99.8899ZM362.888 94.2767L361.509 96.9407L361.53 96.9516L361.551 96.9622L362.888 94.2767ZM381.634 112.079L379.044 113.593L379.051 113.604L381.634 112.079ZM387.559 168.921L384.716 167.962L387.559 168.921ZM372.871 190.058L371.008 187.706L371.001 187.712L370.994 187.717L372.871 190.058ZM313.347 154.336L310.864 156.019L310.876 156.038L310.89 156.057L313.347 154.336ZM322.833 159.983L322.048 162.878L322.077 162.886L322.106 162.893L322.833 159.983ZM361.772 155.924L363.104 158.613L363.121 158.604L363.138 158.596L361.772 155.924ZM369.891 148.443L372.65 149.62L372.659 149.599L372.668 149.578L369.891 148.443ZM368.087 131.136L365.658 132.897L365.673 132.918L365.688 132.938L368.087 131.136ZM358.647 125.937L357.898 128.842L357.938 128.852L357.979 128.861L358.647 125.937ZM319.708 129.995L320.965 132.719L320.993 132.706L321.02 132.693L319.708 129.995ZM311.543 137.029L314.262 138.298L314.273 138.275L314.283 138.251L311.543 137.029ZM346.436 196.885C336.235 197.948 327.585 196.588 320.349 192.986L317.675 198.357C326.135 202.569 335.974 204.008 347.058 202.853L346.436 196.885ZM320.349 192.986C313.043 189.347 307.223 183.877 302.865 176.493L297.698 179.543C302.62 187.881 309.287 194.18 317.675 198.357L320.349 192.986ZM302.865 176.493C298.481 169.064 295.709 160.193 294.626 149.802L288.658 150.424C289.815 161.517 292.802 171.248 297.698 179.543L302.865 176.493ZM294.626 149.802C293.554 139.515 294.44 130.311 297.2 122.135L291.515 120.216C288.436 129.338 287.512 139.426 288.658 150.424L294.626 149.802ZM297.204 122.122C299.938 113.898 304.501 107.302 310.892 102.242L307.167 97.5379C299.812 103.362 294.593 110.956 291.51 120.229L297.204 122.122ZM310.914 102.224C317.238 97.1179 325.408 93.9602 335.598 92.8982L334.976 86.9305C323.881 88.0868 314.546 91.5796 307.145 97.5558L310.914 102.224ZM335.598 92.8982C345.79 91.836 354.377 93.2478 361.509 96.9407L364.268 91.6127C355.883 87.2708 346.069 85.7744 334.976 86.9305L335.598 92.8982ZM361.551 96.9622C368.847 100.596 374.672 106.109 379.044 113.593L384.225 110.566C379.296 102.128 372.623 95.7731 364.225 91.5912L361.551 96.9622ZM379.051 113.604C383.437 121.036 386.202 129.859 387.274 140.146L393.242 139.524C392.096 128.526 389.112 118.846 384.218 110.555L379.051 113.604ZM387.274 140.146C388.357 150.537 387.475 159.789 384.716 167.962L390.401 169.881C393.481 160.755 394.398 150.617 393.242 139.524L387.274 140.146ZM384.716 167.962C381.974 176.086 377.407 182.639 371.008 187.706L374.733 192.41C382.08 186.593 387.305 179.055 390.401 169.881L384.716 167.962ZM370.994 187.717C364.764 192.713 356.639 195.822 346.436 196.885L347.058 202.853C358.139 201.698 367.43 198.266 374.747 192.398L370.994 187.717ZM307.208 146.078C307.582 149.665 308.811 152.991 310.864 156.019L315.83 152.653C314.318 150.422 313.444 148.035 313.175 145.456L307.208 146.078ZM310.89 156.057C313.229 159.397 317.16 161.552 322.048 162.878L323.619 157.087C319.402 155.944 317.009 154.334 315.804 152.615L310.89 156.057ZM322.106 162.893C327.164 164.158 334.182 164.229 342.937 163.317L342.315 157.349C333.765 158.24 327.587 158.079 323.561 157.072L322.106 162.893ZM342.937 163.317C351.686 162.405 358.502 160.893 363.104 158.613L360.44 153.236C356.821 155.03 350.873 156.457 342.315 157.349L342.937 163.317ZM363.138 158.596C367.648 156.29 371.05 153.371 372.65 149.62L367.131 147.265C366.307 149.196 364.297 151.265 360.407 153.253L363.138 158.596ZM372.668 149.578C374.052 146.191 374.569 142.683 374.195 139.096L368.227 139.718C368.496 142.297 368.133 144.813 367.114 147.308L372.668 149.578ZM374.195 139.096C373.813 135.427 372.595 132.142 370.486 129.335L365.688 132.938C367.081 134.793 367.946 137.022 368.227 139.718L374.195 139.096ZM370.516 129.376C368.148 126.108 364.184 124.125 359.316 123.012L357.979 128.861C362.174 129.82 364.503 131.304 365.658 132.897L370.516 129.376ZM359.396 123.032C354.423 121.749 347.441 121.676 338.692 122.587L339.314 128.555C347.872 127.663 353.986 127.833 357.898 128.842L359.396 123.032ZM338.692 122.587C329.937 123.5 323.085 125.017 318.396 127.297L321.02 132.693C324.752 130.878 330.764 129.446 339.314 128.555L338.692 122.587ZM318.451 127.271C313.917 129.364 310.447 132.122 308.803 135.808L314.283 138.251C315.084 136.454 317.058 134.522 320.965 132.719L318.451 127.271ZM308.825 135.761C307.34 138.943 306.825 142.409 307.208 146.078L313.175 145.456C312.894 142.759 313.281 140.4 314.262 138.298L308.825 135.761ZM449.25 189.186L449.511 192.174L449.536 192.172L449.561 192.17L449.25 189.186ZM431.844 188.587L431.345 191.545L431.359 191.547L431.844 188.587ZM416.61 182.785L418.217 180.251L416.61 182.785ZM405.05 170.266L402.421 171.71L402.432 171.729L402.443 171.749L405.05 170.266ZM397.527 87.9519L399.555 90.1629L399.561 90.1577L399.566 90.1524L397.527 87.9519ZM419.458 85.6662L417.917 88.2399L417.943 88.2555L417.969 88.2706L419.458 85.6662ZM436.417 154.328L434.527 156.658L434.545 156.672L434.562 156.686L436.417 154.328ZM449.863 157.451L450.343 160.413L450.364 160.409L450.386 160.405L449.863 157.451ZM461.13 149.792L458.45 148.443L458.438 148.468L458.426 148.493L461.13 149.792ZM461.602 134.058L458.704 134.834L458.708 134.849L458.712 134.863L461.602 134.058ZM458.064 123.267L455.261 124.336L455.278 124.379L455.295 124.422L458.064 123.267ZM454.704 115.624L451.971 116.863L452.003 116.933L452.038 117.001L454.704 115.624ZM451.884 108.83L449.065 109.855L449.07 109.869L449.076 109.884L451.884 108.83ZM449.671 100.615L446.727 101.191L446.729 101.203L449.671 100.615ZM452.066 84.53L449.613 82.8036L449.61 82.8083L452.066 84.53ZM478.144 81.5105L480.231 79.3558L478.144 81.5105ZM487.569 161.816L484.693 160.963L484.689 160.975L484.686 160.988L487.569 161.816ZM479.302 176.552L481.446 178.651L481.451 178.646L479.302 176.552ZM465.891 185.34L466.954 188.145L466.971 188.139L466.989 188.132L465.891 185.34ZM448.989 186.197C443.246 186.699 437.696 186.506 432.329 185.626L431.359 191.547C437.244 192.512 443.297 192.717 449.511 192.174L448.989 186.197ZM432.343 185.629C427.201 184.761 422.502 182.968 418.217 180.251L415.004 185.318C419.978 188.473 425.434 190.548 431.345 191.545L432.343 185.629ZM418.217 180.251C414.056 177.612 410.526 173.824 407.658 168.782L402.443 171.749C405.73 177.527 409.907 182.085 415.004 185.318L418.217 180.251ZM407.68 168.821C404.95 163.852 403.104 157.383 402.261 149.292L396.294 149.914C397.192 158.532 399.195 165.838 402.421 171.71L407.68 168.821ZM402.261 149.292L396.99 98.7156L391.022 99.3376L396.294 149.914L402.261 149.292ZM396.99 98.7156C396.564 94.63 397.58 91.9739 399.555 90.1629L395.5 85.7409C391.784 89.1479 390.453 93.8749 391.022 99.3376L396.99 98.7156ZM399.566 90.1524C401.999 87.8978 404.939 86.5762 408.505 86.2045L407.883 80.2369C403.095 80.7359 398.923 82.5684 395.488 85.7514L399.566 90.1524ZM408.505 86.2045C411.955 85.845 415.057 86.5269 417.917 88.2399L421 83.0926C416.997 80.6948 412.589 79.7464 407.883 80.2369L408.505 86.2045ZM417.969 88.2706C420.365 89.6404 421.931 92.0225 422.353 96.0723L428.32 95.4503C427.747 89.9517 425.394 85.6038 420.947 83.0618L417.969 88.2706ZM422.353 96.0723L426.893 139.636L432.861 139.014L428.32 95.4503L422.353 96.0723ZM426.893 139.636C427.669 147.084 430.028 153.008 434.527 156.658L438.307 151.998C435.558 149.768 433.556 145.69 432.861 139.014L426.893 139.636ZM434.562 156.686C439.029 160.2 444.384 161.377 450.343 160.413L449.384 154.49C444.862 155.221 441.254 154.316 438.272 151.97L434.562 156.686ZM450.386 160.405C456.624 159.301 461.337 156.289 463.834 151.091L458.426 148.493C456.958 151.55 454.16 153.644 449.341 154.497L450.386 160.405ZM463.81 151.14C466.346 146.1 466.376 140.021 464.492 133.254L458.712 134.863C460.364 140.797 460.079 145.207 458.45 148.443L463.81 151.14ZM464.5 133.282C463.326 128.899 462.107 125.165 460.833 122.112L455.295 124.422C456.434 127.15 457.573 130.611 458.704 134.834L464.5 133.282ZM460.867 122.198C459.73 119.217 458.565 116.563 457.369 114.247L452.038 117.001C453.109 119.074 454.185 121.515 455.261 124.336L460.867 122.198ZM457.436 114.385C456.417 112.138 455.503 109.935 454.693 107.776L449.076 109.884C449.936 112.175 450.901 114.502 451.971 116.863L457.436 114.385ZM454.704 107.804C453.923 105.657 453.221 103.071 452.613 100.027L446.729 101.203C447.381 104.462 448.155 107.353 449.065 109.855L454.704 107.804ZM452.615 100.039C451.426 93.9579 452.244 89.5034 454.523 86.2516L449.61 82.8083C446.112 87.7997 445.333 94.0685 446.727 101.191L452.615 100.039ZM454.52 86.2563C456.964 82.7831 460.379 80.7981 465.049 80.3114L464.427 74.3437C458.156 74.9973 453.124 77.8139 449.613 82.8036L454.52 86.2563ZM465.049 80.3114C469.774 79.8189 473.32 81.0143 476.056 83.6651L480.231 79.3558C476.034 75.2892 470.642 73.696 464.427 74.3437L465.049 80.3114ZM476.056 83.6651C478.803 86.3261 480.784 90.9214 481.526 98.0489L487.494 97.427C486.682 89.6353 484.418 83.4123 480.231 79.3558L476.056 83.6651ZM481.526 98.0489L485.958 140.569L491.926 139.947L487.494 97.427L481.526 98.0489ZM485.958 140.569C486.801 148.657 486.336 155.427 484.693 160.963L490.445 162.67C492.374 156.17 492.824 148.568 491.926 139.947L485.958 140.569ZM484.686 160.988C483.108 166.48 480.581 170.94 477.153 174.459L481.451 178.646C485.652 174.332 488.636 168.968 490.453 162.644L484.686 160.988ZM477.158 174.454C473.744 177.943 469.635 180.643 464.793 182.548L466.989 188.132C472.577 185.933 477.41 182.775 481.446 178.651L477.158 174.454ZM464.828 182.535C459.965 184.377 454.673 185.604 448.939 186.202L449.561 192.17C455.762 191.523 461.564 190.187 466.954 188.145L464.828 182.535ZM495.796 103.197L493.985 105.589L494.004 105.603L494.023 105.617L495.796 103.197ZM492.861 79.3734L490.469 77.562L490.467 77.5648L492.861 79.3734ZM582.376 70.0439L580.37 72.2747L580.408 72.3087L580.447 72.3413L582.376 70.0439ZM584.416 93.9613L582.182 91.9591L582.166 91.9768L582.151 91.9947L584.416 93.9613ZM564.468 99.3582L563.649 102.244L563.734 102.268L563.82 102.287L564.468 99.3582ZM559.265 97.1858L557.575 99.6645L557.633 99.7039L557.692 99.7405L559.265 97.1858ZM555.255 94.8891L553.859 97.5443L553.939 97.5862L554.021 97.6232L555.255 94.8891ZM550.655 94.1621L550.344 91.1782L548.5 91.3704L547.847 93.1058L550.655 94.1621ZM549.592 96.9874L546.785 95.9312L546.286 97.2563L546.992 98.4835L549.592 96.9874ZM552.085 100.649L549.671 102.43L549.695 102.462L549.72 102.494L552.085 100.649ZM555.651 107.365L552.872 108.496L552.877 108.508L552.882 108.521L555.651 107.365ZM559.195 173.203L557 171.157L556.984 171.175L556.967 171.193L559.195 173.203ZM536.816 175.535L535.051 177.961L535.071 177.975L535.091 177.989L536.816 175.535ZM526.857 110.366L529.804 110.926L529.807 110.913L529.809 110.9L526.857 110.366ZM528.961 103.059L526.287 101.699L526.276 101.72L526.266 101.741L528.961 103.059ZM530.794 98.9466L533.647 99.8743L534.11 98.4513L533.252 97.2257L530.794 98.9466ZM529.022 96.4167L531.48 94.6957L530.467 93.2498L528.711 93.4328L529.022 96.4167ZM524.671 98.0767L526.443 100.497L526.516 100.444L526.585 100.387L524.671 98.0767ZM521.221 101.151L523.287 103.326L523.338 103.278L523.386 103.228L521.221 101.151ZM516.578 104.349L517.857 107.063L517.916 107.035L517.975 107.004L516.578 104.349ZM508.17 103.265C503.813 103.719 500.358 102.821 497.57 100.778L494.023 105.617C498.201 108.679 503.203 109.815 508.792 109.233L508.17 103.265ZM497.608 100.806C495.017 98.8439 493.373 95.8597 492.911 91.4331L486.944 92.0551C487.54 97.7736 489.808 102.425 493.985 105.589L497.608 100.806ZM492.911 91.4331C492.454 87.0418 493.334 83.7233 495.254 81.1819L490.467 77.5648C487.44 81.5716 486.365 86.5002 486.944 92.0551L492.911 91.4331ZM495.252 81.1847C497.168 78.6556 500.351 76.9338 505.371 76.4106L504.749 70.4429C498.63 71.0807 493.68 73.3233 490.469 77.562L495.252 81.1847ZM505.371 76.4106L569.673 69.7089L569.051 63.7413L504.749 70.4429L505.371 76.4106ZM569.673 69.7089C574.7 69.185 578.09 70.2242 580.37 72.2747L584.382 67.8131C580.45 64.2776 575.164 63.1042 569.051 63.7413L569.673 69.7089ZM580.447 72.3413C582.931 74.4277 584.508 77.4767 584.963 81.8393L590.93 81.2174C590.349 75.6339 588.211 71.0266 584.305 67.7465L580.447 72.3413ZM584.963 81.8393C585.421 86.2361 584.396 89.4885 582.182 91.9591L586.65 95.9634C590.201 92.0019 591.53 86.9656 590.93 81.2174L584.963 81.8393ZM582.151 91.9947C579.954 94.5253 576.831 96.1091 572.472 96.5635L573.094 102.531C578.68 101.949 583.313 99.8087 586.682 95.9278L582.151 91.9947ZM572.472 96.5635C569.258 96.8984 566.842 96.8111 565.117 96.4291L563.82 102.287C566.417 102.862 569.544 102.901 573.094 102.531L572.472 96.5635ZM565.288 96.4723C563.403 95.9371 561.94 95.3095 560.838 94.6312L557.692 99.7405C559.384 100.782 561.389 101.603 563.649 102.244L565.288 96.4723ZM560.955 94.7071C559.435 93.6707 557.946 92.8125 556.49 92.155L554.021 97.6232C555.097 98.1094 556.281 98.7823 557.575 99.6645L560.955 94.7071ZM556.652 92.2339C554.734 91.2256 552.577 90.9455 550.344 91.1782L550.966 97.1459C552.314 97.0054 553.223 97.2101 553.859 97.5443L556.652 92.2339ZM547.847 93.1058L546.785 95.9312L552.4 98.0437L553.463 95.2183L547.847 93.1058ZM546.992 98.4835C547.571 99.4904 548.486 100.822 549.671 102.43L554.5 98.8678C553.344 97.3007 552.596 96.1918 552.193 95.4914L546.992 98.4835ZM549.72 102.494C550.632 103.663 551.697 105.608 552.872 108.496L558.43 106.235C557.172 103.143 555.86 100.61 554.451 98.8036L549.72 102.494ZM552.882 108.521C553.926 111.023 554.759 114.724 555.285 119.77L561.252 119.148C560.7 113.85 559.788 109.489 558.42 106.21L552.882 108.521ZM555.285 119.77L559.778 162.887L565.746 162.265L561.252 119.148L555.285 119.77ZM559.778 162.887C560.113 166.099 559.214 168.783 557 171.157L561.389 175.248C564.782 171.609 566.261 167.208 565.746 162.265L559.778 162.887ZM556.967 171.193C554.807 173.588 551.975 175.011 548.263 175.398L548.885 181.365C553.927 180.84 558.175 178.811 561.422 175.213L556.967 171.193ZM548.263 175.398C544.434 175.797 541.254 174.988 538.541 173.081L535.091 177.989C539.104 180.811 543.763 181.899 548.885 181.365L548.263 175.398ZM538.581 173.109C536.017 171.244 534.605 168.793 534.267 165.545L528.299 166.167C528.811 171.076 531.087 175.077 535.051 177.961L538.581 173.109ZM534.267 165.545L529.773 122.429L523.805 123.051L528.299 166.167L534.267 165.545ZM529.773 122.429C529.247 117.383 529.299 113.589 529.804 110.926L523.909 109.807C523.247 113.297 523.253 117.753 523.805 123.051L529.773 122.429ZM529.809 110.9C530.363 107.831 531.005 105.708 531.656 104.377L526.266 101.741C525.259 103.799 524.498 106.548 523.905 109.833L529.809 110.9ZM531.635 104.419C532.566 102.588 533.267 101.045 533.647 99.8743L527.941 98.019C527.713 98.7218 527.191 99.92 526.287 101.699L531.635 104.419ZM533.252 97.2257L531.48 94.6957L526.565 98.1376L528.337 100.668L533.252 97.2257ZM528.711 93.4328C526.479 93.6655 524.425 94.3844 522.757 95.7665L526.585 100.387C527.138 99.9288 527.986 99.541 529.333 99.4005L528.711 93.4328ZM522.899 95.656C521.61 96.5995 520.33 97.7463 519.056 99.0739L523.386 103.228C524.47 102.098 525.49 101.195 526.443 100.497L522.899 95.656ZM519.155 98.9754C518.217 99.8664 516.915 100.782 515.181 101.695L517.975 107.004C520.053 105.911 521.847 104.694 523.287 103.326L519.155 98.9754ZM515.299 101.636C513.821 102.332 511.505 102.918 508.17 103.265L508.792 109.233C512.42 108.855 515.501 108.174 517.857 107.063L515.299 101.636Z" fill="white" mask="url(#path-3-outside-2_13_399)"/>
</svg>
