<svg width="309" height="231" viewBox="0 0 309 231" fill="none" xmlns="http://www.w3.org/2000/svg">
<g clip-path="url(#clip0_82_15370)">
<path d="M151.471 20.2766L151.899 64.5901L183.443 33.4182L157.719 69.5297L201.575 62.8318L159.52 76.939L198.94 97.2663L156.61 83.9926L176.544 123.59L150.108 87.9869L142.934 131.721L142.497 87.4076L110.953 118.579L136.687 82.468L92.8203 89.1659L134.886 75.0587L95.4557 54.7212L137.796 68.0051L117.862 28.4075L144.288 64.0108L151.471 20.2766Z" fill="#FFF0B1"/>
<path d="M151.471 20.2766L151.899 64.5901L183.443 33.4182L157.719 69.5297L201.575 62.8318L159.52 76.939L198.94 97.2663L156.61 83.9926L176.544 123.59L150.108 87.9869L142.934 131.721L142.497 87.4076L110.953 118.579L136.687 82.468L92.8203 89.1659L134.886 75.0587L95.4557 54.7212L137.796 68.0051L117.862 28.4075L144.288 64.0108L151.471 20.2766Z" stroke="#231916" stroke-miterlimit="10" stroke-linecap="round" stroke-linejoin="round"/>
<path d="M86.4902 3.27281C86.4902 1.74827 87.6706 0.508301 89.1358 0.508301C90.6011 0.508301 91.7815 1.74827 91.7815 3.27281C91.7815 4.79736 90.6011 6.03733 89.1358 6.03733C87.6706 6.04749 86.4902 4.80753 86.4902 3.27281Z" fill="white"/>
<path d="M86.4902 3.27282C86.4902 1.74827 87.6706 0.508301 89.1358 0.508301C90.6011 0.508301 91.7815 1.74827 91.7815 3.27282C91.7815 4.79736 90.6011 6.03733 89.1358 6.03733C87.6706 6.04749 86.4902 4.80753 86.4902 3.27282Z" stroke="#231916" stroke-miterlimit="10" stroke-linecap="round" stroke-linejoin="round"/>
<path d="M188.396 171.004C188.396 169.479 189.577 168.239 191.042 168.239C192.507 168.239 193.688 169.479 193.688 171.004C193.688 172.528 192.507 173.768 191.042 173.768C189.577 173.768 188.396 172.528 188.396 171.004Z" fill="white"/>
<path d="M188.396 171.004C188.396 169.479 189.577 168.239 191.042 168.239C192.507 168.239 193.688 169.479 193.688 171.004C193.688 172.528 192.507 173.768 191.042 173.768C189.577 173.768 188.396 172.528 188.396 171.004Z" stroke="#231916" stroke-miterlimit="10" stroke-linecap="round" stroke-linejoin="round"/>
<path d="M214.905 171.654L216.309 183.769C216.512 185.497 217.815 186.869 219.473 187.073L231.063 188.546L219.473 190.01C217.815 190.223 216.512 191.585 216.309 193.313L214.905 205.428L213.5 193.313C213.297 191.585 211.994 190.223 210.336 190.01L198.746 188.546L210.336 187.073C211.994 186.859 213.297 185.497 213.5 183.769L214.905 171.654Z" fill="white"/>
<path d="M214.905 171.654L216.309 183.769C216.512 185.497 217.815 186.869 219.473 187.073L231.063 188.546L219.473 190.01C217.815 190.223 216.512 191.585 216.309 193.313L214.905 205.428L213.5 193.313C213.297 191.585 211.994 190.223 210.336 190.01L198.746 188.546L210.336 187.073C211.994 186.859 213.297 185.497 213.5 183.769L214.905 171.654Z" stroke="#231916" stroke-miterlimit="10" stroke-linecap="round" stroke-linejoin="round"/>
<path d="M193.097 220.348C192.06 220.135 191.073 219.586 190.299 218.661C190.289 218.641 190.269 218.62 190.259 218.61C189.485 217.675 189.007 216.394 188.824 215.033L188.447 212.156L188.071 215.033C187.898 216.394 187.409 217.675 186.636 218.61C186.626 218.63 186.606 218.641 186.595 218.661C185.822 219.586 184.825 220.135 183.797 220.348L181.365 220.846L183.797 221.344C184.835 221.558 185.822 222.106 186.595 223.031C186.606 223.052 186.626 223.072 186.636 223.082C187.409 224.017 187.888 225.298 188.071 226.66L188.447 229.526L188.824 226.66C188.997 225.298 189.485 224.017 190.259 223.082C190.269 223.062 190.289 223.042 190.299 223.031C191.073 222.106 192.07 221.558 193.097 221.344L195.519 220.846L193.097 220.348Z" fill="white"/>
<path d="M193.097 220.348C192.06 220.135 191.073 219.586 190.299 218.661C190.289 218.641 190.269 218.62 190.259 218.61C189.485 217.675 189.007 216.394 188.824 215.033L188.447 212.156L188.071 215.033C187.898 216.394 187.409 217.675 186.636 218.61C186.626 218.63 186.606 218.641 186.595 218.661C185.822 219.586 184.825 220.135 183.797 220.348L181.365 220.846L183.797 221.344C184.835 221.558 185.822 222.106 186.595 223.031C186.606 223.052 186.626 223.072 186.636 223.082C187.409 224.017 187.888 225.298 188.071 226.66L188.447 229.526L188.824 226.66C188.997 225.298 189.485 224.017 190.259 223.082C190.269 223.062 190.289 223.042 190.299 223.031C191.073 222.106 192.07 221.558 193.097 221.344L195.519 220.846L193.097 220.348Z" stroke="#231916" stroke-miterlimit="10" stroke-linecap="round" stroke-linejoin="round"/>
<path d="M307.825 127.29C307.825 127.147 307.846 127.015 307.846 126.873C307.846 118.874 301.354 112.39 293.346 112.39C291.036 112.39 288.858 112.939 286.915 113.904C284.575 104.909 276.424 98.2623 266.686 98.2623C263.806 98.2623 261.049 98.8416 258.556 99.8986C253.082 90.4464 242.865 84.084 231.154 84.084C218.923 84.084 208.32 91.0258 203.049 101.169C199.935 99.3396 196.323 98.2623 192.446 98.2623C181.681 98.2623 172.828 106.383 171.668 116.821C169.033 114.087 165.339 112.39 161.238 112.39C153.23 112.39 146.738 118.874 146.738 126.873C146.738 127.015 146.759 127.147 146.759 127.29H307.825Z" fill="white"/>
<path d="M307.825 127.29C307.825 127.147 307.846 127.015 307.846 126.873C307.846 118.874 301.354 112.39 293.346 112.39C291.036 112.39 288.858 112.939 286.915 113.904C284.575 104.909 276.424 98.2623 266.686 98.2623C263.806 98.2623 261.049 98.8416 258.556 99.8986C253.082 90.4464 242.865 84.084 231.154 84.084C218.923 84.084 208.32 91.0258 203.049 101.169C199.935 99.3396 196.323 98.2623 192.446 98.2623C181.681 98.2623 172.828 106.383 171.668 116.821C169.033 114.087 165.339 112.39 161.238 112.39C153.23 112.39 146.738 118.874 146.738 126.873C146.738 127.015 146.759 127.147 146.759 127.29H307.825Z" stroke="#231916" stroke-miterlimit="10" stroke-linecap="round" stroke-linejoin="round"/>
<path d="M56.7478 28.1434C55.598 28.1434 54.4888 28.2958 53.4408 28.5804C51.3548 21.3134 44.6594 15.9978 36.7124 15.9978C27.0966 15.9978 19.3022 23.7832 19.3022 33.3878C19.3022 33.9773 19.3328 34.5465 19.3836 35.1156C17.3791 33.1337 14.6317 31.9039 11.5791 31.9039C5.46365 31.9039 0.498047 36.8638 0.498047 42.9721C0.498047 43.338 0.518398 43.7039 0.548924 44.0698H10.7243H22.5889H22.9959H32.0927H68.9176C69.2127 43.0128 69.3653 41.8948 69.3653 40.7361C69.3551 33.7842 63.7179 28.1434 56.7478 28.1434Z" fill="white"/>
<path d="M56.7478 28.1434C55.598 28.1434 54.4888 28.2958 53.4408 28.5804C51.3548 21.3134 44.6594 15.9978 36.7124 15.9978C27.0966 15.9978 19.3022 23.7832 19.3022 33.3878C19.3022 33.9773 19.3328 34.5465 19.3836 35.1156C17.3791 33.1337 14.6317 31.9039 11.5791 31.9039C5.46365 31.9039 0.498047 36.8638 0.498047 42.9721C0.498047 43.338 0.518398 43.7039 0.548924 44.0698H10.7243H22.5889H22.9959H32.0927H68.9176C69.2127 43.0128 69.3653 41.8948 69.3653 40.7361C69.3551 33.7842 63.7179 28.1434 56.7478 28.1434Z" stroke="#231916" stroke-miterlimit="10" stroke-linecap="round" stroke-linejoin="round"/>
</g>
<defs>
<clipPath id="clip0_82_15370">
<rect width="308.356" height="230.054" fill="white"/>
</clipPath>
</defs>
</svg>
