<svg width="142" height="113" viewBox="0 0 142 113" fill="none" xmlns="http://www.w3.org/2000/svg">
<g clip-path="url(#clip0_57_115)">
<path d="M50.3691 75.2325C47.654 74.2507 45.085 72.9659 43.3805 70.36C41.9316 68.142 41.0672 65.4633 41.2133 62.9907C41.335 60.9302 42.0899 58.9788 43.0396 57.2941C43.4414 56.5789 43.4535 55.5972 43.9771 54.979C44.6102 54.2154 45.7668 54.0094 46.6435 53.5852C48.8106 52.5186 51.5257 52.5307 53.8877 53.8882C57.9786 56.2517 60.7424 62.6635 61.4973 67.039C62.2278 71.3054 62.3861 75.6203 61.6434 79.6565C60.8642 83.8745 58.7944 87.6803 56.8463 91.3044C54.9226 94.8678 52.5241 97.8131 49.9308 100.674C47.3131 103.57 44.6467 106.528 41.7855 109.267C45.2555 110.625 49.6142 111.037 53.2059 111.776C55.921 108.831 58.1125 105.534 60.158 102.14C62.2278 98.6979 64.3584 95.2799 65.6734 91.571C67.0248 87.7773 67.4144 83.7654 67.9136 79.8747C68.4372 75.8749 68.5467 72.0084 68.1084 68.1056C67.9623 67.6208 68.0354 67.948 68.011 67.4511C68.705 64.4937 67.5118 61.5726 66.3917 58.9303C64.8455 55.2336 62.1182 52.5186 58.977 50.0944C57.6621 49.0884 56.615 47.5855 55.0079 47.0643C50.2595 45.5129 44.4154 48.6279 41.4324 53.1731C38.4495 57.7183 38.2182 63.318 40.5315 67.6087C42.029 70.3721 47.1913 74.0447 50.3691 75.2325Z" fill="#60BFA9"/>
<path d="M50.9289 74.1173C47.9095 72.99 45.2918 71.4871 43.7455 68.5418C42.1993 65.5844 42.1019 62.3724 43.4168 59.318C43.6968 58.6635 44.0865 58.0575 44.3543 57.403C44.5248 56.9667 44.5613 56.3243 44.8291 55.9485C45.4988 55.0031 47.8608 54.3122 48.9809 54.1426C52.0125 53.682 54.545 55.4879 56.2617 57.8151C59.5977 62.3239 60.7544 67.9842 60.8396 73.4991C60.9492 80.0078 58.6237 85.4985 55.5068 91.086C51.8664 97.6069 46.1562 103.279 40.8113 108.443C40.2756 108.964 40.4582 110.115 41.1887 110.382C43.4655 111.23 45.8032 111.739 48.2017 112.164C49.8819 112.455 52.6335 113.63 54.1067 112.612C55.032 111.97 55.8112 110.649 56.5052 109.752C57.2966 108.734 58.0393 107.679 58.7576 106.6C60.3161 104.285 61.7527 101.885 63.1651 99.4735C68.2422 90.7709 70.1415 80.2624 69.5206 70.2387C69.4719 69.4024 69.2527 68.4933 69.2405 67.6812C69.2284 66.6267 69.4962 65.645 69.3866 64.5662C69.131 62.227 68.2422 59.9483 67.2438 57.8272C65.1618 53.3911 61.0831 49.7549 57.187 46.8702C50.3202 41.8038 40.9939 49.5125 38.6685 55.9C37.2318 59.8877 37.3535 64.5541 39.472 68.2873C41.5175 71.9113 45.998 74.8445 49.7966 76.3474C51.2942 76.9292 52.4265 74.7112 50.9289 74.1173C45.0483 71.7901 39.8129 67.16 40.2391 60.421C40.6287 54.191 46.5824 46.943 53.437 47.9732C55.2999 48.252 56.3104 49.4519 57.6497 50.6155C59.3542 52.0821 61.1075 53.4032 62.5685 55.1243C64.8453 57.8393 66.9394 61.9724 66.9516 65.5965C66.9516 67.0388 66.8542 68.1661 66.9759 69.6084C67.1464 71.5477 67.1464 73.5112 67.049 75.4626C66.8542 79.3654 66.3306 83.3773 65.5393 87.2075C64.6018 91.7284 62.5198 95.6918 60.17 99.631C57.7958 103.607 55.3486 107.485 52.2317 110.927C52.6335 110.794 53.0353 110.673 53.4249 110.54C49.7114 109.8 45.8762 109.461 42.3089 108.14C42.4306 108.782 42.5645 109.437 42.6863 110.079C48.4817 104.467 54.3989 98.3826 58.2584 91.2436C60.0847 87.862 61.8623 84.3834 62.6902 80.6017C63.4695 77.0868 63.4938 73.3779 63.1164 69.8144C62.4711 63.8511 60.3161 56.6515 55.0077 53.1244C52.5726 51.5124 49.5044 51.1003 46.7528 52.1427C45.5353 52.6033 43.8916 53.0881 43.0272 54.1304C42.1506 55.1728 41.7245 56.9424 41.1766 58.1787C39.6181 61.73 39.5816 65.451 41.2009 68.9781C42.9298 72.7597 45.9736 74.893 49.7966 76.3232C51.2942 76.905 52.4387 74.6748 50.9289 74.1173Z" fill="#60BFA9"/>
<path d="M49.0664 75.1354C52.2807 76.1414 56.0063 75.4748 59.7685 74.9293C63.1776 74.4445 66.7814 73.8991 70.154 72.4567C73.3682 71.0871 77.0208 68.9781 80.3325 66.1783C83.3154 63.6693 86.2984 60.724 88.7091 57.5969C91.2902 54.2395 92.5808 50.2882 93.7374 46.8581C95.0158 43.028 96.0751 39.3797 96.903 35.7193C97.7674 31.8892 99.0946 28.2046 99.3746 24.3502C99.6546 20.5686 99.752 16.6779 99.3989 12.6781C99.0702 9.01773 98.0353 5.24823 97.1222 1.23633C95.4907 1.74539 92.6538 3.84225 89.3909 5.91487C86.8219 7.53902 84.3138 9.16318 81.8544 10.4358C83.3276 14.2296 83.8146 18.1203 84.4477 22.0958C85.093 26.132 85.6531 30.1681 85.4704 34.1679C85.2756 38.2768 84.4234 42.2644 83.4007 46.1188C82.3414 50.1186 81.1848 54.082 79.2732 57.5363C77.2643 61.1483 74.3301 64.033 71.4445 66.7843C68.5103 69.5842 65.2717 71.8871 61.473 73.487C57.0047 75.3899 52.1102 77.002 48.7012 75.1475" fill="#D0E5B3"/>
<path d="M48.7985 76.3475C51.964 77.2201 55.2026 76.8323 58.4047 76.3717C61.6677 75.9111 64.9672 75.4869 68.1206 74.5051C74.89 72.4204 80.7585 67.9237 85.6529 62.9421C88.1002 60.4574 90.4013 57.7666 91.9963 54.6517C93.4695 51.7791 94.4435 48.652 95.4418 45.5976C96.5863 42.0705 97.4751 38.5071 98.3639 34.9073C99.2162 31.4408 100.312 28.0349 100.604 24.4593C100.921 20.5323 101.006 16.5567 100.641 12.6297C100.263 8.642 99.204 4.76343 98.303 0.872725C98.1569 0.230335 97.329 -0.157523 96.7324 0.0606472C94.3948 0.896966 92.3372 2.509 90.2917 3.85438C87.321 5.80579 84.3137 7.73296 81.1725 9.4056C80.7098 9.64801 80.4785 10.351 80.6611 10.8237C81.9395 14.2538 82.5117 17.8173 83.084 21.4171C83.6319 24.9199 84.1919 28.4349 84.2528 31.9862C84.3624 38.701 82.5848 45.6703 80.3689 51.9609C78.0191 58.6393 73.2951 64.0815 67.7188 68.3842C64.7846 70.6508 61.5094 72.3113 58.0151 73.5234C55.2635 74.4809 52.0492 75.3899 49.2855 74.0446C47.8366 73.3416 46.7165 75.5596 48.1653 76.2747C52.5484 78.408 57.6986 76.4929 61.8625 74.6991C67.5605 72.2507 72.2845 68.1661 76.3998 63.6087C80.4176 59.1484 82.5726 53.8759 84.1676 48.155C85.7503 42.4705 87.0044 36.6769 86.7365 30.7499C86.5783 27.2107 85.9817 23.7079 85.4338 20.205C84.8981 16.7628 84.2893 13.3569 83.0718 10.0844C82.9013 10.5571 82.7309 11.0298 82.5604 11.5025C85.4825 9.95103 88.2828 8.15718 91.0588 6.36334C93.1164 5.03008 95.1983 3.28472 97.5238 2.4484C97.0003 2.18175 96.4767 1.90297 95.9532 1.63632C96.6959 4.86039 97.5847 8.08446 98.023 11.3813C98.4491 14.6296 98.4735 17.9506 98.3396 21.2231C98.0717 27.8046 96.1845 34.3134 94.407 40.6282C92.6659 46.7975 90.8396 53.2578 86.6391 58.2515C82.183 63.4997 76.7041 68.1903 70.373 71.0144C67.0857 72.481 63.5792 73.1234 60.0484 73.6446C56.5054 74.1536 52.8406 74.893 49.322 73.9233C47.7636 73.487 47.2522 75.9232 48.7985 76.3475Z" fill="#D0E5B3"/>
<path d="M23.5834 22.0717C22.8163 20.4839 20.8926 17.2598 18.835 14.2418C16.7409 11.151 14.4884 7.92696 12.3943 7.74515C10.6289 7.58759 0.986076 16.8356 1.15653 17.0416C3.36025 19.793 5.66137 22.205 7.9625 24.6412C10.2514 27.0532 12.516 29.4167 14.4032 32.459C17.3253 30.6773 19.7481 28.3986 22.2562 26.0714C22.9624 25.4169 24.3504 24.9927 24.4234 24.0352C24.4843 23.3686 23.8634 22.6777 23.5834 22.0717Z" fill="#D0E5B3"/>
<path d="M24.7401 21.611C23.7174 19.5263 22.4634 17.5264 21.2093 15.575C19.8213 13.4175 18.4212 11.2116 16.7288 9.28443C15.6452 8.04813 14.0137 6.36337 12.1874 6.50882C11.2499 6.58154 10.3611 7.23605 9.61846 7.75724C7.23211 9.41775 5.05273 11.4298 2.94642 13.4297C2.1185 14.2054 1.27841 14.9932 0.523539 15.8417C-0.572234 17.0537 0.231333 17.9264 1.181 19.0536C5.18666 23.817 10.0689 27.9501 13.405 33.2468C13.7946 33.8528 14.6347 33.8043 15.1582 33.4771C17.995 31.7196 20.3814 29.453 22.853 27.2471C23.6565 26.532 24.7766 26.132 25.3367 25.1745C26.0916 23.8776 25.3489 22.7382 24.7401 21.611C23.9853 20.2172 21.6598 21.1383 22.4146 22.5443C22.5608 22.811 23.2304 23.6231 23.1452 23.8776C23.0721 24.1321 22.5486 24.3624 22.3172 24.5079C21.3554 25.1381 20.5518 25.9623 19.6996 26.738C17.8002 28.4713 15.8278 30.1076 13.6363 31.4651C14.2207 31.5378 14.8051 31.6226 15.3895 31.6953C12.7962 27.5865 9.22885 24.2412 5.9537 20.6778C5.15014 19.8051 4.35875 18.9203 3.5917 18.0234C3.45778 17.8658 2.59333 16.6174 2.43505 16.6295C2.3133 16.6416 2.44723 17.7325 2.17937 17.7082C2.20372 17.7082 2.25243 17.6113 2.2646 17.5991C2.81249 17.2719 3.32385 16.484 3.78651 16.0356C5.6615 14.2175 7.59736 12.46 9.64281 10.8359C10.3855 10.242 11.3595 9.52684 12.0413 9.13898C12.1753 9.06626 12.3214 9.02989 12.4553 8.95717C12.3214 9.02989 12.09 8.88445 12.4188 8.99353C13.198 9.24806 13.8067 9.80561 14.3668 10.3995C16.047 12.157 17.3741 14.3023 18.7012 16.3265C20.0161 18.3385 21.3311 20.3747 22.3903 22.5443C23.1208 23.9745 25.4463 23.0534 24.7401 21.611Z" fill="#D0E5B3"/>
<path d="M140.746 87.7165C137.824 90.08 134.512 92.0678 131.688 94.6252C128.875 97.1584 126.27 99.9462 123.567 102.601C120.84 105.267 118.295 108.043 115.689 110.733C112.353 109.255 108.956 108.031 105.62 106.552C105.17 106.346 104.817 105.909 104.573 105.473C104.184 104.77 104.926 104.152 105.353 103.461C107.788 99.4977 109.906 95.3404 112.341 91.3769C114.776 87.4135 117.029 83.0865 119.464 79.123C123.007 80.2987 126.781 81.729 130.288 83.1228C133.794 84.5167 137.3 85.8621 140.783 87.2075" fill="#60BFA9"/>
<path d="M139.979 86.7226C137.69 88.5286 135.255 90.1285 132.966 91.9223C130.787 93.6313 128.814 95.5827 126.854 97.5341C122.751 101.631 118.709 105.8 114.679 109.97C115.166 109.837 115.665 109.715 116.164 109.582C114.496 108.855 112.816 108.176 111.124 107.497C110.405 107.206 109.675 106.915 108.956 106.625C108.433 106.419 105.961 105.691 105.827 105.158C105.657 104.503 107.288 102.637 107.617 102.067C108.482 100.589 109.322 99.0856 110.162 97.5947C113.486 91.6557 116.895 85.7045 120.425 79.8987C119.926 80.0321 119.439 80.1533 118.94 80.2866C126.148 82.7107 133.173 85.6439 140.259 88.3831C141.756 88.9649 142.743 86.6741 141.233 86.0923C134.147 83.3531 127.122 80.4199 119.914 77.9958C119.439 77.8382 118.733 77.8867 118.429 78.3837C114.204 85.3287 110.235 92.4556 106.217 99.5098C105.365 101.001 104.208 102.443 103.49 103.994C102.966 105.109 103.295 106.2 104.184 107.049C105.34 108.164 107.24 108.624 108.701 109.218C110.868 110.091 113.035 110.952 115.178 111.885C115.726 112.127 116.274 111.897 116.663 111.497C120.523 107.509 124.382 103.534 128.303 99.6068C130.373 97.5341 132.467 95.4736 134.792 93.6798C136.996 91.9829 139.321 90.4436 141.513 88.7225C142.767 87.7044 141.245 85.7287 139.979 86.7226Z" fill="#60BFA9"/>
</g>
<defs>
<clipPath id="clip0_57_115">
<rect width="142" height="113" fill="white"/>
</clipPath>
</defs>
</svg>
