<svg width="234" height="152" viewBox="0 0 234 152" fill="none" xmlns="http://www.w3.org/2000/svg">
<g clip-path="url(#clip0_57_141)">
<path d="M8.55612 71.9068C10.3627 65.6373 12.2233 59.1569 16.0275 53.7557C19.5848 48.705 24.7243 45.0207 30.2873 42.4522C40.736 37.6221 54.284 38.0818 64.5326 43.4599C69.3978 46.0122 74.3645 51.484 73.7984 57.4124C73.2526 63.025 66.5705 61.3945 63.1173 59.5631C53.7007 54.5724 47.1182 39.2639 58.3138 32.5648C64.0122 29.1535 71.2903 27.8731 77.8189 27.2925C85.3156 26.6326 92.8072 26.5351 100.297 27.2831C102.765 27.5233 102.92 23.6786 100.452 23.4384C91.9954 22.5958 83.4181 22.7617 74.9725 23.7353C68.0937 24.526 60.1965 26.2257 54.541 30.4699C43.3585 38.8516 49.4775 55.3545 59.5138 61.8999C63.5774 64.558 69.9629 66.7783 74.4052 63.7568C78.9037 60.6862 77.9915 54.244 76.0117 49.9573C72.7728 42.9173 65.8644 39.0927 58.6321 37.2457C51.8474 35.5152 44.7734 34.6454 37.8363 35.9545C30.2398 37.3881 22.7271 41.2924 17.1582 46.6117C10.335 53.1136 7.41703 61.9275 4.87224 70.7535C4.20034 73.1029 7.8725 74.2928 8.55612 71.9068Z" fill="#60BFA9"/>
<path d="M126.088 80.4486C125.605 84.6447 122.917 87.8656 119.84 89.78C116.529 91.8345 112.433 92.0934 108.879 90.9548C105.536 89.8706 102.692 87.4824 101.586 83.0325C100.121 77.0979 102.336 73.0408 105.869 70.547C109.723 67.807 115.129 66.9473 119.421 68.7251C123.484 70.4164 126.794 74.3367 126.088 80.4486Z" fill="#D0E5B3"/>
<path d="M124.769 80.4021C124.113 85.308 119.939 89.3419 115.096 90.1671C110.909 90.88 106.085 89.3345 103.94 85.4784C101.571 81.2283 101.939 75.6662 105.685 72.3813C109.114 69.3708 114.366 68.2337 118.68 69.8576C123.153 71.5323 125.234 75.7976 124.769 80.4021C124.596 82.0787 127.237 82.1997 127.402 80.507C127.929 75.3315 125.665 70.3764 120.911 67.9806C115.835 65.4144 109.517 66.3042 104.972 69.5614C99.9374 73.1718 98.6872 79.5121 100.879 85.1557C102.886 90.3239 108.204 93.1423 113.622 92.9177C120.54 92.6363 126.474 87.3535 127.394 80.4909C127.628 78.8339 124.995 78.7289 124.769 80.4021Z" fill="#D0E5B3"/>
<path d="M176.33 138.037C178.464 140.412 180.842 142.49 183.697 143.539C186.516 144.577 189.724 144.651 192.886 144.576C196.072 144.509 199.125 143.554 201.982 142.16C204.839 140.765 207.545 138.96 209.558 136.503C206.853 133.85 203.809 131.707 200.549 129.776C198.079 132.234 195.75 134.711 193.279 137.169C191.517 138.928 189.522 140.531 187.249 141.575C184.987 142.623 182.111 142.816 180.086 141.362" fill="#D0E5B3"/>
<path d="M175.653 138.72C177.976 141.263 180.612 143.544 183.938 144.637C187.098 145.662 190.756 145.76 194.028 145.466C200.023 144.956 206.361 141.776 210.232 137.175C210.563 136.771 210.613 136.196 210.21 135.812C207.432 133.136 204.306 130.913 200.997 128.926C200.637 128.703 200.132 128.81 199.852 129.096C196.941 132.004 194.219 135.161 191.119 137.86C188.352 140.277 184.131 142.859 180.546 140.515C179.511 139.835 178.596 141.515 179.618 142.192C183.224 144.556 187.578 142.902 190.736 140.611C194.653 137.757 197.819 133.843 201.227 130.436C200.846 130.489 200.462 130.554 200.069 130.603C203.235 132.49 206.218 134.614 208.869 137.182C208.868 136.725 208.85 136.276 208.848 135.819C205.305 140.028 199.484 143.064 193.972 143.541C190.995 143.796 187.738 143.746 184.857 142.904C181.655 141.972 179.178 139.741 176.986 137.334C176.156 136.437 174.827 137.81 175.653 138.72Z" fill="#D0E5B3"/>
<path d="M181.903 142.374C179.092 140.64 176.76 138.376 174.584 135.92C172.421 133.468 170.031 131.091 168.523 128.15C167.018 125.238 165.976 122.017 165.142 118.863C164.171 115.168 163.985 111.335 163.775 107.535C163.565 103.734 163.805 99.9576 164.131 96.1678C164.34 93.7505 163.643 88.3577 165.87 86.7883C167.835 85.4037 173.956 86.5993 176.336 86.5694C175.185 89.1547 174.316 92.2871 173.526 95.5925C172.798 98.6222 172.079 101.789 171.729 104.9C171.342 108.253 171.358 111.522 171.471 114.364C171.578 117.057 172.143 120.676 172.933 124.514C173.615 127.848 174.022 131.497 175.366 134.532C176.918 138.051 179.3 140.788 181.903 142.374Z" fill="#60BFA9"/>
<path d="M182.359 141.539C178.08 138.839 174.448 134.748 171.373 130.769C168.192 126.661 166.411 121.163 165.533 116.088C164.649 110.943 164.508 105.541 164.803 100.331C164.926 98.1818 165.155 96.0394 165.16 93.8792C165.158 92.1196 164.99 89.9977 165.817 88.3827C166.68 86.6986 169.182 87.0436 170.784 87.1274C172.651 87.2285 174.507 87.5279 176.389 87.5398C176.095 87.0697 175.805 86.5874 175.524 86.1212C173.404 91.0551 172.167 96.473 171.244 101.75C170.378 106.723 170.184 111.911 170.737 116.949C171.017 119.483 171.466 121.99 171.972 124.488C172.473 126.999 172.838 129.56 173.51 132.044C174.739 136.574 177.45 140.678 181.452 143.236C182.482 143.888 183.401 142.196 182.359 141.539C178.345 138.978 176.049 134.711 175.011 130.175C173.947 125.511 172.974 120.687 172.549 115.918C172.142 111.263 172.321 106.499 173.159 101.907C174.062 96.9055 175.184 91.7195 177.193 87.0456C177.473 86.3832 177.095 85.6309 176.328 85.6271C173.06 85.614 168.777 84.188 165.716 85.7989C162.413 87.5338 163.372 92.9035 163.199 95.9231C162.583 107.22 162.178 119.498 168.229 129.614C169.827 132.274 172.041 134.528 174.105 136.827C176.289 139.259 178.664 141.47 181.431 143.216C182.485 143.876 183.401 142.196 182.359 141.539Z" fill="#60BFA9"/>
</g>
<defs>
<clipPath id="clip0_57_141">
<rect width="216" height="90" fill="white" transform="matrix(-0.952322 -0.305095 -0.305095 0.952322 233.16 65.9004)"/>
</clipPath>
</defs>
</svg>
