<svg width="347" height="344" viewBox="0 0 347 344" fill="none" xmlns="http://www.w3.org/2000/svg">
<path d="M135.124 293.727C131.789 293.456 128.731 291.907 125.525 291.063C122.29 290.214 118.979 289.634 115.72 288.88C109.113 287.338 103.004 285 97.59 280.82C86.4698 272.219 78.707 260.106 79.6413 245.622C80.0341 239.437 82.4285 233.038 87.7749 229.499C92.0291 226.676 99.7479 226.665 98.8487 233.722C97.955 240.751 90.2537 243.79 84.0001 242.749C77.9462 241.747 72.0359 237.955 67.3634 234.133C61.135 229.048 57.0792 222.44 54.3596 214.926C51.4962 207.023 49.2624 198.621 49.7096 190.168C49.8579 187.415 45.5897 187.589 45.439 190.324C44.9371 199.702 47.5673 209.359 50.9782 218.043C54.1595 226.109 58.8948 233.092 65.8516 238.36C71.8109 242.877 79.0356 247.22 86.741 247.248C93.5105 247.277 100.045 243.537 102.406 237.031C104.395 231.565 102.193 224.957 96.0848 223.471C90.2358 222.053 84.1297 225.876 80.6551 230.331C70.6169 243.171 75.4955 263.6 85.2968 275.003C91.2779 281.945 98.6997 287.931 107.413 290.979C111.883 292.548 116.531 293.436 121.15 294.448C125.893 295.491 130.444 297.615 135.288 298.014C138.013 298.226 137.823 293.951 135.124 293.727Z" fill="#D0E5B3"/>
<path d="M146.113 188.878C146.269 188.719 146.731 188.501 146.766 188.2C147.179 184.783 147.362 181.303 147.656 177.826C147.937 174.389 147.795 170.905 147.959 167.427C147.966 167.269 148.228 167.077 148.154 166.939C148.096 166.779 147.822 166.88 147.714 166.829C144.994 165.459 142.378 163.037 139.616 162.191C138.909 161.959 138.022 177.725 138.073 179.025C138.13 180.871 138.15 185.965 139.016 187.548C140.108 189.584 144.099 188.639 145.721 188.855C145.874 188.89 145.982 189.006 146.113 188.878Z" fill="#60BFA9"/>
<path d="M146.878 189.974C147.374 189.585 147.82 189.24 148.027 188.629C148.318 187.739 148.295 186.574 148.376 185.637C148.574 183.48 148.716 181.312 148.886 179.149C149.047 177.127 149.153 175.111 149.184 173.087C149.216 171.211 148.908 169.009 149.48 167.22C149.657 166.669 149.244 165.991 148.75 165.758C146.42 164.671 144.429 163.058 142.157 161.852C140.961 161.21 139.023 160.146 138.258 161.867C137.884 162.694 137.844 163.728 137.73 164.623C137.554 166.11 137.428 167.618 137.309 169.116C136.871 174.742 136.136 180.861 137.268 186.45C137.671 188.464 138.751 189.769 140.848 190.136C141.862 190.31 142.913 190.266 143.938 190.235C144.778 190.209 145.753 190.37 146.551 190.164C148.207 189.718 147.294 187.214 145.646 187.65C146.327 187.469 145.437 187.538 145.187 187.543C144.899 187.534 144.595 187.546 144.309 187.555C143.562 187.587 142.81 187.648 142.054 187.607C140.391 187.508 140.01 186.937 139.776 185.364C139.424 182.964 139.333 180.436 139.423 178.015C139.594 173.314 139.786 168.498 140.52 163.853C140.562 163.607 140.784 163.04 140.735 162.806C140.859 163.327 139.409 163.228 139.359 163.55C139.364 163.521 141.084 164.336 141.174 164.389C143.363 165.596 145.326 167.139 147.568 168.191C147.319 167.705 147.08 167.226 146.839 166.729C146.345 168.267 146.532 170.114 146.524 171.746C146.5 173.612 146.497 175.494 146.354 177.365C146.213 179.191 146.081 181.005 145.93 182.823C145.858 183.685 145.796 184.554 145.714 185.408C145.658 185.972 145.771 187.467 145.343 187.81C144.016 188.854 145.527 191.048 146.878 189.974Z" fill="#60BFA9"/>
<path d="M206.568 259.743C208.26 261.34 211.362 264.708 215.129 268.194C218.008 270.85 221.439 273.407 224.645 275.594C228.595 278.288 232.58 280.189 235.758 279.831C238.955 279.472 241.629 276.761 242.595 270.705C241.522 270.011 236.926 266.985 231.841 263.336C228.473 260.91 225.074 257.821 221.766 255.36C216.128 251.172 210.949 247.795 211.164 247.452C209.412 250.135 208.28 253.229 206.528 255.912C206.134 256.51 205.343 257.048 205.428 257.769C205.532 258.488 206.038 259.237 206.568 259.743Z" fill="#D0E5B3"/>
<path d="M205.708 260.754C212.827 267.539 219.545 275.08 228.561 279.441C231.679 280.954 235.514 282.068 238.74 280.241C242.027 278.378 243.311 274.467 243.918 270.969C244.037 270.324 243.697 269.849 243.189 269.507C237.748 265.979 232.422 262.26 227.415 258.147C224.391 255.658 221.275 253.311 218.085 251.038C216.806 250.12 215.511 249.223 214.24 248.294C213.799 247.972 213.368 247.657 212.935 247.324C212.812 247.229 212.668 247.053 212.531 246.996C211.912 246.734 212.632 246.075 212.494 247.705C212.626 246.169 210.805 245.571 209.974 246.865C208.309 249.5 207.284 252.561 205.474 255.085C204.88 255.922 204.149 256.573 204.137 257.677C204.105 258.914 204.912 259.912 205.708 260.754C206.874 262.011 208.6 259.979 207.445 258.73C206.451 257.655 207.127 257.437 207.754 256.494C208.351 255.61 208.856 254.655 209.343 253.702C210.334 251.795 211.237 249.852 212.389 248.034C211.555 247.753 210.713 247.483 209.869 247.194C209.718 249.076 212.771 250.523 214.038 251.415C217.555 253.924 221.078 256.404 224.419 259.12C230.047 263.727 235.93 267.939 242.028 271.891C241.779 271.405 241.54 270.926 241.298 270.429C240.805 273.31 239.822 277.042 236.759 278.209C233.333 279.507 229.144 276.891 226.372 275.12C222.516 272.646 218.836 269.816 215.497 266.691C212.739 264.112 210.176 261.322 207.442 258.712C206.195 257.54 204.459 259.563 205.708 260.754Z" fill="#D0E5B3"/>
<path d="M188.018 70.3851C191.705 68.2567 195.062 65.7266 197.207 62.2974C199.32 58.9095 200.285 54.7533 201.047 50.6049C201.807 46.4383 201.387 42.1839 200.339 38.0853C199.3 33.9763 197.661 29.9637 194.994 26.6684C190.8 29.4555 187.158 32.8475 183.762 36.5596C186.305 40.4641 188.922 44.1643 191.465 48.0688C193.276 50.8543 194.843 53.8941 195.591 57.1235C196.332 60.3632 195.829 64.1537 193.38 66.3991" fill="#D0E5B3"/>
<path d="M188.731 71.4415C192.681 69.1216 196.389 66.3049 198.694 62.2618C200.88 58.4382 202.007 53.6863 202.512 49.3397C203.45 41.3785 201.001 32.2542 196.039 25.9488C195.617 25.4107 194.865 25.1932 194.26 25.5962C190.013 28.4736 186.243 31.9471 182.771 35.7154C182.389 36.1264 182.387 36.8124 182.678 37.2657C185.691 41.8597 189.088 46.2741 191.773 51.0588C194.179 55.3332 196.422 61.5469 192.381 65.5652C191.208 66.7276 193.167 68.3819 194.332 67.2299C198.39 63.1909 197.417 57.0532 195.256 52.3115C192.583 46.4224 188.324 41.2305 184.797 35.8321C184.763 36.3463 184.739 36.8683 184.704 37.3824C188.031 33.7812 191.61 30.4716 195.679 27.7192C195.08 27.6025 194.491 27.4936 193.899 27.3666C198.44 33.152 200.833 41.561 199.967 48.8734C199.503 52.8255 198.548 57.0546 196.675 60.5781C194.584 64.4914 191.016 67.1046 187.274 69.305C185.884 70.1527 187.32 72.2734 188.731 71.4415Z" fill="#D0E5B3"/>
<path d="M195.19 64.3013C192.172 67.501 188.585 69.9035 184.773 72.0666C180.986 74.2171 177.23 76.6694 172.99 77.8317C168.776 78.9814 164.288 79.4623 159.934 79.6851C154.84 79.9296 149.785 79.1221 144.763 78.3566C139.742 77.5911 134.864 76.2323 130.009 74.7594C126.911 73.8182 119.671 73.2481 118.225 69.924C116.948 66.9763 120.163 59.3403 120.762 56.2138C123.841 58.4177 127.682 60.4208 131.783 62.3623C135.548 64.1435 139.492 65.9479 143.447 67.2689C147.731 68.6956 151.997 69.5684 155.749 70.193C159.294 70.789 164.186 71.0617 169.406 71.0787C173.95 71.1001 178.822 71.57 183.161 70.6636C188.186 69.6125 192.416 67.2468 195.19 64.3013Z" fill="#60BFA9"/>
<path d="M194.219 63.4729C189.534 68.3069 183.204 71.909 177.176 74.8417C170.946 77.8655 163.286 78.6751 156.412 78.4189C149.445 78.1562 142.342 76.8549 135.627 75.0491C132.84 74.299 130.118 73.4016 127.297 72.8044C124.999 72.3152 122.179 71.9493 120.294 70.4337C118.325 68.8546 119.446 65.6697 119.992 63.6158C120.63 61.207 121.528 58.8665 122.042 56.4275C121.342 56.6759 120.642 56.9243 119.943 57.1727C125.813 61.2937 132.568 64.3915 139.22 67.0489C145.48 69.5531 152.215 71.2266 158.938 71.8916C162.327 72.2205 165.724 72.3261 169.111 72.3587C172.535 72.3867 175.977 72.6253 179.39 72.4322C185.654 72.0726 191.742 69.6603 196.163 65.1478C197.323 63.9593 195.364 62.305 194.219 63.4729C189.782 68.006 183.589 69.8296 177.375 69.9325C170.994 70.0385 164.414 69.9757 158.087 69.2222C151.893 68.4886 145.718 66.9184 139.934 64.5839C133.658 62.0353 127.171 59.1435 121.598 55.2342C120.811 54.6785 119.718 54.9687 119.499 55.9794C118.603 60.2379 115.577 65.4308 116.853 69.852C118.241 74.6384 125.5 74.8632 129.409 75.903C143.99 79.8099 159.935 83.7158 174.806 78.6059C178.716 77.2548 182.265 74.987 185.831 72.9299C189.605 70.7533 193.125 68.2668 196.171 65.1376C197.313 63.9514 195.371 62.2947 194.219 63.4729Z" fill="#60BFA9"/>
<path d="M317.671 224.717C313.993 228.114 309.383 227.73 305.805 225.471C302.176 223.172 299.584 219.033 302.05 214.163C304.191 209.928 307.901 208.325 311.233 208.642C314.892 208.983 318.506 211.664 320.123 214.873C321.682 217.923 321.184 221.472 317.671 224.717Z" fill="#60BFA9"/>
<path d="M316.917 223.629C315.525 224.885 313.895 225.745 311.993 225.872C310.276 225.993 308.589 225.498 307.091 224.674C304.125 223.048 301.773 219.962 302.609 216.444C303.343 213.355 305.998 210.564 309.181 210.03C312.583 209.468 316.021 211.375 318.04 214.041C319.039 215.366 319.756 216.95 319.617 218.645C319.448 220.743 318.134 222.452 316.667 223.847C316.139 224.342 316.31 225.292 316.812 225.728C317.399 226.244 318.173 226.07 318.693 225.585C320.383 223.985 321.795 221.958 322.183 219.619C322.512 217.611 322.077 215.638 321.112 213.864C318.991 209.988 314.536 207.12 310.06 207.266C305.824 207.399 302.208 210.352 300.576 214.159C298.669 218.623 300.475 223.272 304.294 226.029C308.615 229.155 314.331 229.488 318.444 225.803C318.983 225.316 319.222 224.599 318.775 223.944C318.409 223.417 317.455 223.142 316.917 223.629Z" fill="#60BFA9"/>
</svg>
