<svg width="276" height="297" viewBox="0 0 276 297" fill="none" xmlns="http://www.w3.org/2000/svg">
<g clip-path="url(#clip0_82_15355)">
<path d="M170.088 5.30867C170.088 7.9819 168.022 10.1432 165.474 10.1432C162.925 10.1432 160.859 7.9819 160.859 5.30867C160.859 2.64493 162.925 0.474121 165.474 0.474121C168.022 0.474121 170.088 2.63545 170.088 5.30867Z" fill="white"/>
<path d="M170.088 5.30867C170.088 7.9819 168.022 10.1432 165.474 10.1432C162.925 10.1432 160.859 7.9819 160.859 5.30867C160.859 2.64493 162.925 0.474121 165.474 0.474121C168.022 0.474121 170.088 2.63545 170.088 5.30867Z" stroke="#231916" stroke-miterlimit="10" stroke-linecap="round" stroke-linejoin="round"/>
<path d="M186.166 76.8698L183.968 57.5315C183.656 54.773 181.609 52.5927 179.022 52.2609L160.869 49.9195L179.022 47.5781C181.619 47.2463 183.656 45.066 183.968 42.3074L186.166 22.9692L188.364 42.3074C188.677 45.066 190.724 47.2463 193.31 47.5781L211.464 49.9195L193.31 52.2609C190.714 52.5927 188.677 54.773 188.364 57.5315L186.166 76.8698Z" fill="white"/>
<path d="M186.166 76.8698L183.968 57.5315C183.656 54.773 181.609 52.5927 179.022 52.2609L160.869 49.9195L179.022 47.5781C181.619 47.2463 183.656 45.066 183.968 42.3074L186.166 22.9692L188.364 42.3074C188.677 45.066 190.724 47.2463 193.31 47.5781L211.464 49.9195L193.31 52.2609C190.714 52.5927 188.677 54.773 188.364 57.5315L186.166 76.8698Z" stroke="#231916" stroke-miterlimit="10" stroke-linecap="round" stroke-linejoin="round"/>
<path d="M49.8262 214.503C49.8262 212.825 51.1242 211.469 52.7254 211.469C54.3266 211.469 55.6246 212.825 55.6246 214.503C55.6246 216.181 54.3266 217.536 52.7254 217.536C51.1242 217.536 49.8262 216.181 49.8262 214.503Z" fill="white"/>
<path d="M52.7254 217.536C54.3266 217.536 55.6246 216.178 55.6246 214.503C55.6246 212.827 54.3266 211.469 52.7254 211.469C51.1242 211.469 49.8262 212.827 49.8262 214.503C49.8262 216.178 51.1242 217.536 52.7254 217.536Z" stroke="#231916" stroke-miterlimit="10" stroke-linecap="round" stroke-linejoin="round"/>
<path d="M18.1715 215.213L19.7064 228.513C19.9243 230.409 21.355 231.907 23.1741 232.144L35.8795 233.755L23.1741 235.367C21.3644 235.594 19.9338 237.092 19.7064 238.988L18.1715 252.288L16.6366 238.988C16.4187 237.092 14.988 235.594 13.1784 235.367L0.482422 233.755L13.1784 232.144C14.988 231.916 16.4187 230.419 16.6366 228.513L18.1715 215.213Z" fill="white"/>
<path d="M18.1715 215.213L19.7064 228.513C19.9243 230.409 21.355 231.907 23.1741 232.144L35.8795 233.755L23.1741 235.367C21.3644 235.594 19.9338 237.092 19.7064 238.988L18.1715 252.288L16.6366 238.988C16.4187 237.092 14.988 235.594 13.1784 235.367L0.482422 233.755L13.1784 232.144C14.988 231.916 16.4187 230.419 16.6366 228.513L18.1715 215.213Z" stroke="#231916" stroke-miterlimit="10" stroke-linecap="round" stroke-linejoin="round"/>
<path d="M46.2173 266.289C45.0898 266.052 44.0002 265.455 43.1475 264.431C43.1286 264.412 43.1191 264.393 43.1001 264.374C42.2569 263.341 41.7263 261.947 41.5368 260.44L41.1294 257.293L40.722 260.44C40.523 261.938 39.9925 263.341 39.1587 264.374C39.1398 264.393 39.1303 264.412 39.1113 264.431C38.2586 265.455 37.169 266.052 36.0416 266.289L33.3887 266.839L36.0416 267.389C37.169 267.626 38.2586 268.223 39.1113 269.237C39.1303 269.256 39.1398 269.275 39.1587 269.294C40.0019 270.327 40.5325 271.721 40.722 273.219L41.1294 276.366L41.5368 273.219C41.7358 271.721 42.2664 270.318 43.1001 269.294C43.1191 269.275 43.1286 269.256 43.1475 269.237C44.0002 268.223 45.0898 267.616 46.2173 267.389L48.8796 266.839L46.2173 266.289Z" fill="white"/>
<path d="M46.2173 266.289C45.0898 266.052 44.0002 265.455 43.1475 264.431C43.1286 264.412 43.1191 264.393 43.1001 264.374C42.2569 263.341 41.7263 261.947 41.5368 260.44L41.1294 257.293L40.722 260.44C40.523 261.938 39.9925 263.341 39.1587 264.374C39.1398 264.393 39.1303 264.412 39.1113 264.431C38.2586 265.455 37.169 266.052 36.0416 266.289L33.3887 266.839L36.0416 267.389C37.169 267.626 38.2586 268.223 39.1113 269.237C39.1303 269.256 39.1398 269.275 39.1587 269.294C40.0019 270.327 40.5325 271.721 40.722 273.219L41.1294 276.366L41.5368 273.219C41.7358 271.721 42.2664 270.318 43.1001 269.294C43.1191 269.275 43.1286 269.256 43.1475 269.237C44.0002 268.223 45.0898 267.616 46.2173 267.389L48.8796 266.839L46.2173 266.289Z" stroke="#231916" stroke-miterlimit="10" stroke-linecap="round" stroke-linejoin="round"/>
<path d="M274.583 173.845C274.593 173.627 274.612 173.409 274.612 173.191C274.612 160.773 264.55 150.696 252.129 150.696C248.547 150.696 245.165 151.559 242.161 153.047C238.532 139.084 225.884 128.751 210.791 128.751C206.319 128.751 202.055 129.661 198.18 131.292C189.7 116.608 173.849 106.721 155.677 106.721C136.709 106.721 120.271 117.499 112.103 133.254C107.281 130.41 101.672 128.742 95.665 128.742C78.9707 128.742 65.242 141.349 63.4418 157.569C59.3488 153.331 53.6261 150.677 47.2782 150.677C34.8664 150.677 24.7949 160.744 24.7949 173.172C24.7949 173.39 24.8233 173.608 24.8233 173.826H274.583V173.845Z" fill="white" stroke="black" stroke-miterlimit="10"/>
<path d="M274.583 173.845C274.593 173.627 274.612 173.409 274.612 173.191C274.612 160.773 264.55 150.696 252.129 150.696C248.547 150.696 245.165 151.559 242.161 153.047C238.532 139.084 225.884 128.751 210.791 128.751C206.319 128.751 202.055 129.661 198.18 131.292C189.7 116.608 173.849 106.721 155.677 106.721C136.709 106.721 120.27 117.499 112.103 133.254C107.281 130.41 101.672 128.742 95.665 128.742C78.9707 128.742 65.242 141.349 63.4418 157.569C59.3488 153.331 53.6261 150.677 47.2782 150.677C34.8664 150.677 24.7949 160.744 24.7949 173.172C24.7949 173.39 24.8233 173.608 24.8233 173.826H274.583V173.845Z" stroke="#231916" stroke-miterlimit="10" stroke-linecap="round" stroke-linejoin="round"/>
<path d="M194.835 201.961L157.998 152.26L185.778 207.545L126.77 188.993L181.723 217.384L123.094 237.083L184.233 227.726L148.372 278.148L192.344 234.627L192.95 296.5L202.946 235.433L239.792 285.144L212.013 229.859L271.011 248.401L216.059 220.01L274.687 200.312L213.548 209.668L249.409 159.246L205.447 202.767L204.841 140.894L194.835 201.961Z" fill="#FFF0B1" stroke="black" stroke-miterlimit="10"/>
</g>
<defs>
<clipPath id="clip0_82_15355">
<rect width="275.095" height="296.576" fill="white"/>
</clipPath>
</defs>
</svg>
