<svg width="1920" height="1080" viewBox="0 0 1920 1080" fill="none" xmlns="http://www.w3.org/2000/svg">
<g clip-path="url(#clip0_14_506)">
<rect width="1920" height="1080" fill="#FCE9F2"/>
<g clip-path="url(#clip1_14_506)">
<path d="M1887 -129.064H1839.52V-174.431H1887V-129.064ZM1887 -101.559V-83.2387H1839.52V-101.559V-128.605H1887V-101.559ZM1887 -37.4136H1839.52V-82.7803H1887V-37.4136ZM1887 -9.90904V8.41153H1839.52V-9.90904V-36.9552H1887V-9.90904ZM1887 54.2366H1839.52V8.86993H1887V54.2366ZM1887 81.7412V100.062H1839.52V81.7412V54.695H1887V81.7412ZM1887 145.887H1839.52V100.52H1887V145.887ZM1887 173.391V191.712H1839.52V173.391V146.345H1887V173.391ZM1887 237.537H1839.52V192.17H1887V237.537ZM1887 265.042V283.362H1839.52V265.042V237.995H1887V265.042ZM1887 329.187H1839.52V283.821H1887V329.187ZM1887 356.692V375.012H1839.52V356.692V329.646H1887V356.692ZM1887 420.838H1839.52V375.471H1887V420.838ZM1887 448.342V466.663H1839.52V448.342V421.296H1887V448.342ZM1887 512.488H1839.52V467.121H1887V512.488ZM1887 539.992V558.313H1839.52V539.992V512.946H1887V539.992ZM1887 604.138H1839.52V558.771H1887V604.138ZM1887 631.643V649.963H1839.52V631.643V604.596H1887V631.643ZM1887 695.788H1839.52V650.422H1887V695.788ZM1887 723.293V741.613H1839.52V723.293V696.247H1887V723.293ZM1887 787.438H1839.52V742.072H1887V787.438ZM1887 814.943V833.263H1839.52V814.943V787.897H1887V814.943ZM1887 879.089H1839.52V833.722H1887V879.089ZM1887 906.593V924.914H1839.52V906.593V879.547H1887V906.593ZM1887 970.739H1839.52V925.372H1887V970.739ZM1887 998.243V1016.56H1839.52V998.243V971.197H1887V998.243ZM1887 1062.39H1839.52V1017.02H1887V1062.39ZM1887 1089.91V1108.23H1839.52V1089.91V1062.86H1887V1089.91ZM1887 1154.04H1839.52V1108.67H1887V1154.04ZM1887 1181.56V1199.88H1839.52V1181.56V1154.51H1887V1181.56ZM1887 1245.69H1839.52V1200.32H1887V1245.69ZM1823.28 1245.69H1791.56V1200.32H1823.28H1839.03V1245.69H1823.28ZM1743.6 1200.32H1791.09V1245.69H1743.6V1200.32ZM1727.37 1245.69H1695.65V1200.32H1727.37H1743.12V1245.69H1727.37ZM1647.69 1200.32H1695.18V1245.69H1647.69V1200.32ZM1631.45 1245.69H1599.72V1200.32H1631.45H1647.2V1245.69H1631.45ZM1551.76 1200.32H1599.23V1245.69H1551.76V1200.32ZM1535.52 1245.69H1503.8V1200.32H1535.52H1551.27V1245.69H1535.52ZM1455.83 1200.32H1503.31V1245.69H1455.83V1200.32ZM1439.61 1245.69H1407.89V1200.32H1439.61H1455.36V1245.69H1439.61ZM1359.92 1200.32H1407.4V1245.69H1359.92V1200.32ZM1343.68 1245.69H1311.96V1200.32H1343.68H1359.43V1245.69H1343.68ZM1264 1200.32H1311.47V1245.69H1264V1200.32ZM1247.76 1245.69H1216.03V1200.32H1247.76H1263.52V1245.69H1247.76ZM1168.09 1200.32H1215.56V1245.69H1168.09V1200.32ZM1151.84 1245.69H1120.12V1200.32H1151.84H1167.6V1245.69H1151.84ZM1072.16 1200.32H1119.63V1245.69H1072.16V1200.32ZM1055.92 1245.69H1024.2V1200.32H1055.92H1071.67V1245.69H1055.92ZM976.233 1200.32H1023.72V1245.69H976.233V1200.32ZM960.008 1245.69H928.269V1200.32H959.992H975.742V1245.69H960.008ZM880.322 1200.32H927.811V1245.69H880.322V1200.32ZM864.081 1245.69H832.359V1200.32H864.081H879.832V1245.69H864.081ZM784.396 1200.32H831.884V1245.69H784.396V1200.32ZM768.155 1245.69H736.432V1200.32H768.155H783.905V1245.69H768.155ZM688.469 1200.32H735.958V1245.69H688.469V1200.32ZM672.244 1245.69H640.522V1200.32H672.244H687.995V1245.69H672.244ZM592.558 1200.32H640.047V1245.69H592.558V1200.32ZM576.318 1245.69H544.595V1200.32H576.318H592.068V1245.69H576.318ZM496.632 1200.32H544.121V1245.69H496.632V1200.32ZM480.391 1245.69H448.669V1200.32H480.391H496.142V1245.69H480.391ZM400.706 1200.32H448.194V1245.69H400.706V1200.32ZM384.481 1245.69H352.758V1200.32H384.481H400.231V1245.69H384.481ZM304.795 1200.32H352.284V1245.69H304.795V1200.32ZM288.554 1245.69H256.832V1200.32H288.554H304.305V1245.69H288.554ZM208.868 1200.32H256.357V1245.69H208.868V1200.32ZM192.628 1245.69H160.905V1200.32H192.628H208.378V1245.69H192.628ZM112.942 1200.32H160.431V1245.69H112.942V1200.32ZM96.717 1245.69H64.9945V1200.32H96.717H112.468V1245.69H96.717ZM17.0313 1200.32H64.5201V1245.69H17.0313V1200.32ZM17.0313 1181.56V1154.51H64.5201V1181.56V1199.88H17.0313V1181.56ZM17.0313 1108.67H64.5201V1154.04H17.0313V1108.67ZM17.0313 1089.91V1062.86H64.5201V1089.91V1108.23H17.0313V1089.91ZM17.0313 1017.02H64.5201V1062.39H17.0313V1017.02ZM17.0313 998.243V971.197H64.5201V998.243V1016.56H17.0313V998.243ZM17.0313 925.372H64.5201V970.739H17.0313V925.372ZM17.0313 906.593V879.547H64.5201V906.593V924.914H17.0313V906.593ZM17.0313 833.722H64.5201V879.089H17.0313V833.722ZM17.0313 814.943V787.897H64.5201V814.943V833.263H17.0313V814.943ZM17.0313 742.072H64.5201V787.438H17.0313V742.072ZM17.0313 723.293V696.247H64.5201V723.293V741.613H17.0313V723.293ZM17.0313 650.422H64.5201V695.788H17.0313V650.422ZM17.0313 631.643V604.596H64.5201V631.643V649.963H17.0313V631.643ZM17.0313 558.771H64.5201V604.138H17.0313V558.771ZM17.0313 539.992V512.946H64.5201V539.992V558.313H17.0313V539.992ZM17.0313 467.121H64.5201V512.488H17.0313V467.121ZM17.0313 448.342V421.296H64.5201V448.342V466.663H17.0313V448.342ZM17.0313 375.471H64.5201V420.838H17.0313V375.471ZM17.0313 356.692V329.646H64.5201V356.692V375.012H17.0313V356.692ZM17.0313 283.821H64.5201V329.187H17.0313V283.821ZM17.0313 265.042V237.995H64.5201V265.042V283.362H17.0313V265.042ZM17.0313 192.17H64.5201V237.537H17.0313V192.17ZM17.0313 173.391V146.345H64.5201V173.391V191.712H17.0313V173.391ZM17.0313 100.52H64.5201V145.887H17.0313V100.52ZM17.0313 81.7412V54.695H64.5201V81.7412V100.062H17.0313V81.7412ZM17.0313 8.86993H64.5201V54.2366H17.0313V8.86993ZM17.0313 -9.90904V-36.9552H64.5201V-9.90904V8.41153H17.0313V-9.90904ZM17.0313 -82.7803H64.5201V-37.4136H17.0313V-82.7803ZM17.0313 -101.559V-128.605H64.5201V-101.559V-83.2387H17.0313V-101.559ZM17.0313 -174.431H64.5201V-129.064H17.0313V-174.431ZM96.717 -174.431H112.468V-129.064H96.717H64.9945V-174.431H96.717ZM160.431 -129.064H112.942V-174.431H160.431V-129.064ZM192.628 -174.431H208.378V-129.064H192.628H160.905V-174.431H192.628ZM256.341 -129.064H208.853V-174.431H256.341V-129.064ZM288.554 -174.431H304.305V-129.064H288.554H256.832V-174.431H288.554ZM352.268 -129.064H304.779V-174.431H352.268V-129.064ZM384.481 -174.431H400.231V-129.064H384.481H352.758V-174.431H384.481ZM448.194 -129.064H400.706V-174.431H448.194V-129.064ZM480.391 -174.431H496.142V-129.064H480.391H448.669V-174.431H480.391ZM544.105 -129.064H496.616V-174.431H544.105V-129.064ZM576.318 -174.431H592.068V-129.064H576.318H544.595V-174.431H576.318ZM640.031 -129.064H592.543V-174.431H640.031V-129.064ZM672.244 -174.431H687.995V-129.064H672.244H640.522V-174.431H672.244ZM735.958 -129.064H688.469V-174.431H735.958V-129.064ZM768.155 -174.431H783.905V-129.064H768.155H736.432V-174.431H768.155ZM831.869 -129.064H784.38V-174.431H831.869V-129.064ZM864.081 -174.431H879.832V-129.064H864.081H832.359V-174.431H864.081ZM927.795 -129.064H880.306V-174.431H927.795V-129.064ZM960.008 -174.431H975.758V-129.064H960.008H928.269V-174.431H960.008ZM1023.72 -129.064H976.233V-174.431H1023.72V-129.064ZM1055.92 -174.431H1071.67V-129.064H1055.92H1024.2V-174.431H1055.92ZM1119.63 -129.064H1072.16V-174.431H1119.63V-129.064ZM1151.84 -174.431H1167.6V-129.064H1151.84H1120.12V-174.431H1151.84ZM1215.56 -129.064H1168.09V-174.431H1215.56V-129.064ZM1247.76 -174.431H1263.52V-129.064H1247.77H1216.05V-174.431H1247.76ZM1311.49 -129.064H1264V-174.431H1311.47V-129.064H1311.49ZM1343.68 -174.431H1359.43V-129.064H1343.68H1311.96V-174.431H1343.68ZM1407.4 -129.064H1359.92V-174.431H1407.4V-129.064ZM1439.61 -174.431H1455.36V-129.064H1439.61H1407.89V-174.431H1439.61ZM1503.32 -129.064H1455.83V-174.431H1503.32V-129.064ZM1535.52 -174.431H1551.27V-129.064H1535.52H1503.8V-174.431H1535.52ZM1599.23 -129.064H1551.76V-174.431H1599.23V-129.064ZM1631.45 -174.431H1647.2V-129.064H1631.45H1599.72V-174.431H1631.45ZM1695.16 -129.064H1647.67V-174.431H1695.16V-129.064ZM1727.37 -174.431H1743.12V-129.064H1727.37H1695.65V-174.431H1727.37ZM1791.09 -129.064H1743.61V-174.431H1791.09V-129.064ZM1823.28 -37.4136H1791.56V-82.7803H1823.28H1839.03V-37.4136H1823.28ZM1823.28 54.2366H1791.56V8.86993H1823.28H1839.03V54.2366H1823.28ZM1823.28 145.887H1791.56V100.52H1823.28H1839.03V145.887H1823.28ZM1823.28 237.537H1791.56V192.17H1823.28H1839.03V237.537H1823.28ZM1823.28 329.187H1791.56V283.821H1823.28H1839.03V329.187H1823.28ZM1823.28 420.838H1791.56V375.471H1823.28H1839.03V420.838H1823.28ZM1823.28 512.488H1791.56V467.121H1823.28H1839.03V512.488H1823.28ZM1823.28 604.138H1791.56V558.771H1823.28H1839.03V604.138H1823.28ZM1823.28 695.788H1791.56V650.422H1823.28H1839.03V695.788H1823.28ZM1823.28 787.438H1791.56V742.072H1823.28H1839.03V787.438H1823.28ZM1823.28 879.089H1791.56V833.722H1823.28H1839.03V879.089H1823.28ZM1823.28 970.739H1791.56V925.372H1823.28H1839.03V970.739H1823.28ZM1823.28 1062.39H1791.56V1017.02H1823.28H1839.03V1062.39H1823.28ZM1823.28 1154.04H1791.56V1108.67H1823.28H1839.03V1154.04H1823.28ZM1743.6 1181.56V1154.51H1791.07V1181.56V1199.88H1743.6V1181.56ZM1695.65 1181.56V1154.51H1727.37H1743.12V1181.56V1199.88H1727.37H1695.65V1181.56ZM1647.69 1181.56V1154.51H1695.18V1181.56V1199.88H1647.69V1181.56ZM1599.72 1181.56V1154.51H1631.45H1647.2V1181.56V1199.88H1631.45H1599.72V1181.56ZM1551.76 1181.56V1154.51H1599.23V1181.56V1199.88H1551.76V1181.56ZM1503.8 1181.56V1154.51H1535.52H1551.27V1181.56V1199.88H1535.52H1503.8V1181.56ZM1455.83 1181.56V1154.51H1503.32V1181.56V1199.88H1455.83V1181.56ZM1407.89 1181.56V1154.51H1439.61H1455.36V1181.56V1199.88H1439.61H1407.89V1181.56ZM1359.92 1181.56V1154.51H1407.4V1181.56V1199.88H1359.92V1181.56ZM1311.96 1181.56V1154.51H1343.68H1359.43V1181.56V1199.88H1343.68H1311.96V1181.56ZM1264 1181.56V1154.51H1311.47V1181.56V1199.88H1264V1181.56ZM1216.03 1181.56V1154.51H1247.76H1263.52V1181.56V1199.88H1247.77H1216.05V1181.56H1216.03ZM1168.09 1181.56V1154.51H1215.56V1181.56V1199.88H1168.09V1181.56ZM1120.12 1181.56V1154.51H1151.84H1167.6V1181.56V1199.88H1151.84H1120.12V1181.56ZM1072.16 1181.56V1154.51H1119.63V1181.56V1199.88H1072.16V1181.56ZM1024.2 1181.56V1154.51H1055.92H1071.67V1181.56V1199.88H1055.92H1024.2V1181.56ZM976.233 1181.56V1154.51H1023.72V1181.56V1199.88H976.233V1181.56ZM928.269 1181.56V1154.51H959.992H975.742V1181.56V1199.88H959.992H928.269V1181.56ZM880.322 1181.56V1154.51H927.795V1181.56V1199.88H880.322V1181.56ZM832.359 1181.56V1154.51H864.081H879.832V1181.56V1199.88H864.081H832.359V1181.56ZM784.396 1181.56V1154.51H831.869V1181.56V1199.88H784.396V1181.56ZM736.432 1181.56V1154.51H768.155H783.905V1181.56V1199.88H768.155H736.432V1181.56ZM688.469 1181.56V1154.51H735.958V1181.56V1199.88H688.469V1181.56ZM640.506 1181.56V1154.51H672.228H687.979V1181.56V1199.88H672.228H640.506V1181.56ZM592.558 1181.56V1154.51H640.031V1181.56V1199.88H592.558V1181.56ZM544.595 1181.56V1154.51H576.318H592.068V1181.56V1199.88H576.318H544.595V1181.56ZM496.632 1181.56V1154.51H544.105V1181.56V1199.88H496.632V1181.56ZM448.669 1181.56V1154.51H480.391H496.142V1181.56V1199.88H480.391H448.669V1181.56ZM400.706 1181.56V1154.51H448.194V1181.56V1199.88H400.706V1181.56ZM352.758 1181.56V1154.51H384.481H400.231V1181.56V1199.88H384.481H352.758V1181.56ZM304.795 1181.56V1154.51H352.284V1181.56V1199.88H304.795V1181.56ZM256.832 1181.56V1154.51H288.554H304.305V1181.56V1199.88H288.554H256.832V1181.56ZM208.868 1181.56V1154.51H256.341V1181.56V1199.88H208.868V1181.56ZM160.905 1181.56V1154.51H192.628H208.378V1181.56V1199.88H192.628H160.905V1181.56ZM112.942 1181.56V1154.51H160.415V1181.56V1199.88H112.942V1181.56ZM96.717 1108.67H112.468V1154.04H96.717H64.9945V1108.67H96.717ZM96.717 1017.02H112.468V1062.39H96.717H64.9945V1017.02H96.717ZM96.717 925.372H112.468V970.739H96.717H64.9945V925.372H96.717ZM96.717 833.722H112.468V879.089H96.717H64.9945V833.722H96.717ZM96.717 742.072H112.468V787.438H96.717H64.9945V742.072H96.717ZM96.717 650.422H112.468V695.788H96.717H64.9945V650.422H96.717ZM96.717 558.771H112.468V604.138H96.717H64.9945V558.771H96.717ZM96.717 467.121H112.468V512.488H96.717H64.9945V467.121H96.717ZM96.717 375.471H112.468V420.838H96.717H64.9945V375.471H96.717ZM96.717 283.821H112.468V329.187H96.717H64.9945V283.821H96.717ZM96.717 192.17H112.468V237.537H96.717H64.9945V192.17H96.717ZM96.717 100.52H112.468V145.887H96.717H64.9945V100.52H96.717ZM96.717 8.86993H112.468V54.2366H96.717H64.9945V8.86993H96.717ZM96.717 -82.7803H112.468V-37.4136H96.717H64.9945V-82.7803H96.717ZM160.431 -101.559V-83.2387H112.942V-101.559V-128.605H160.415V-101.559H160.431ZM208.394 -101.559V-83.2387H192.643H160.921V-101.559V-128.605H192.643H208.394V-101.559ZM256.341 -101.559V-83.2387H208.868V-101.559V-128.605H256.341V-101.559ZM304.305 -101.559V-83.2387H288.554H256.832V-101.559V-128.605H288.554H304.305V-101.559ZM352.268 -101.559V-83.2387H304.779V-101.559V-128.605H352.268V-101.559ZM400.231 -101.559V-83.2387H384.481H352.758V-101.559V-128.605H384.481H400.231V-101.559ZM448.194 -101.559V-83.2387H400.706V-101.559V-128.605H448.194V-101.559ZM496.158 -101.559V-83.2387H480.407H448.685V-101.559V-128.605H480.407H496.158V-101.559ZM544.105 -101.559V-83.2387H496.632V-101.559V-128.605H544.105V-101.559ZM592.068 -101.559V-83.2387H576.318H544.595V-101.559V-128.605H576.318H592.068V-101.559ZM640.031 -101.559V-83.2387H592.558V-101.559V-128.605H640.031V-101.559ZM687.995 -101.559V-83.2387H672.244H640.522V-101.559V-128.605H672.244H687.995V-101.559ZM735.958 -101.559V-83.2387H688.469V-101.559V-128.605H735.958V-101.559ZM783.921 -101.559V-83.2387H768.171H736.448V-101.559V-128.605H768.171H783.921V-101.559ZM831.869 -101.559V-83.2387H784.396V-101.559V-128.605H831.869V-101.559ZM879.832 -101.559V-83.2387H864.081H832.359V-101.559V-128.605H864.081H879.832V-101.559ZM927.795 -101.559V-83.2387H880.322V-101.559V-128.605H927.795V-101.559ZM975.758 -101.559V-83.2387H960.008H928.269V-101.559V-128.605H959.992H975.742V-101.559H975.758ZM1023.72 -101.559V-83.2387H976.233V-101.559V-128.605H1023.72V-101.559ZM1071.68 -101.559V-83.2387H1055.93H1024.21V-101.559V-128.605H1055.93H1071.68V-101.559ZM1119.63 -101.559V-83.2387H1072.16V-101.559V-128.605H1119.63V-101.559ZM1167.6 -101.559V-83.2387H1151.84H1120.12V-101.559V-128.605H1151.84H1167.6V-101.559ZM1215.56 -101.559V-83.2387H1168.09V-101.559V-128.605H1215.56V-101.559ZM1263.52 -101.559V-83.2387H1247.77H1216.05V-101.559V-128.605H1247.77H1263.52V-101.559ZM1311.49 -101.559V-83.2387H1264V-101.559V-128.605H1311.47V-101.559H1311.49ZM1359.43 -101.559V-83.2387H1343.68H1311.96V-101.559V-128.605H1343.68H1359.43V-101.559ZM1407.4 -101.559V-83.2387H1359.92V-101.559V-128.605H1407.4V-101.559ZM1455.36 -101.559V-83.2387H1439.61H1407.89V-101.559V-128.605H1439.61H1455.36V-101.559ZM1503.32 -101.559V-83.2387H1455.83V-101.559V-128.605H1503.32V-101.559ZM1551.29 -101.559V-83.2387H1535.52H1503.8V-101.559V-128.605H1535.52H1551.27V-101.559H1551.29ZM1599.23 -101.559V-83.2387H1551.76V-101.559V-128.605H1599.23V-101.559ZM1647.2 -101.559V-83.2387H1631.45H1599.72V-101.559V-128.605H1631.45H1647.2V-101.559ZM1695.16 -101.559V-83.2387H1647.67V-101.559V-128.605H1695.16V-101.559ZM1743.12 -101.559V-83.2387H1727.37H1695.65V-101.559V-128.605H1727.37H1743.12V-101.559ZM1743.6 -82.7803H1791.09V-37.4136H1743.6V-82.7803ZM1743.6 8.86993H1791.09V54.2366H1743.6V8.86993ZM1743.6 100.52H1791.09V145.887H1743.6V100.52ZM1743.6 192.17H1791.09V237.537H1743.6V192.17ZM1743.6 283.821H1791.09V329.187H1743.6V283.821ZM1743.6 375.471H1791.09V420.838H1743.6V375.471ZM1743.6 467.121H1791.09V512.488H1743.6V467.121ZM1743.6 558.771H1791.09V604.138H1743.6V558.771ZM1743.6 650.422H1791.09V695.788H1743.6V650.422ZM1743.6 742.072H1791.09V787.438H1743.6V742.072ZM1743.6 833.722H1791.09V879.089H1743.6V833.722ZM1743.6 925.372H1791.09V970.739H1743.6V925.372ZM1743.6 1017.02H1791.09V1062.39H1743.6V1017.02ZM1743.6 1108.67H1791.09V1154.04H1743.6V1108.67ZM1695.65 1108.67H1727.37H1743.12V1154.04H1727.37H1695.65V1108.67ZM1647.69 1108.67H1695.18V1154.04H1647.69V1108.67ZM1599.72 1108.67H1631.45H1647.2V1154.04H1631.45H1599.72V1108.67ZM1551.76 1108.67H1599.23V1154.04H1551.76V1108.67ZM1503.8 1108.67H1535.52H1551.27V1154.04H1535.52H1503.8V1108.67ZM1455.83 1108.67H1503.31V1154.04H1455.83V1108.67ZM1407.89 1108.67H1439.61H1455.36V1154.04H1439.61H1407.89V1108.67ZM1359.92 1108.67H1407.4V1154.04H1359.92V1108.67ZM1311.96 1108.67H1343.68H1359.43V1154.04H1343.68H1311.96V1108.67ZM1264 1108.67H1311.47V1154.04H1264V1108.67ZM1216.03 1108.67H1247.76H1263.52V1154.04H1247.77H1216.05V1108.67H1216.03ZM1168.09 1108.67H1215.56V1154.04H1168.09V1108.67ZM1120.12 1108.67H1151.84H1167.6V1154.04H1151.84H1120.12V1108.67ZM1072.16 1108.67H1119.63V1154.04H1072.16V1108.67ZM1024.2 1108.67H1055.92H1071.67V1154.04H1055.92H1024.2V1108.67ZM976.233 1108.67H1023.72V1154.04H976.233V1108.67ZM928.269 1108.67H959.992H975.742V1154.04H959.992H928.269V1108.67ZM880.322 1108.67H927.811V1154.04H880.322V1108.67ZM832.359 1108.67H864.081H879.832V1154.04H864.081H832.359V1108.67ZM784.396 1108.67H831.884V1154.04H784.396V1108.67ZM736.432 1108.67H768.155H783.905V1154.04H768.155H736.432V1108.67ZM688.469 1108.67H735.958V1154.04H688.469V1108.67ZM640.506 1108.67H672.228H687.979V1154.04H672.228H640.506V1108.67ZM592.558 1108.67H640.047V1154.04H592.558V1108.67ZM544.595 1108.67H576.318H592.068V1154.04H576.318H544.595V1108.67ZM496.632 1108.67H544.121V1154.04H496.632V1108.67ZM448.669 1108.67H480.391H496.142V1154.04H480.391H448.669V1108.67ZM400.706 1108.67H448.194V1154.04H400.706V1108.67ZM352.758 1108.67H384.481H400.231V1154.04H384.481H352.758V1108.67ZM304.795 1108.67H352.284V1154.04H304.795V1108.67ZM256.832 1108.67H288.554H304.305V1154.04H288.554H256.832V1108.67ZM208.868 1108.67H256.357V1154.04H208.868V1108.67ZM160.905 1108.67H192.628H208.378V1154.04H192.628H160.905V1108.67ZM160.431 1154.04H112.942V1108.67H160.431V1154.04ZM160.431 1062.39H112.942V1017.02H160.431V1062.39ZM160.431 970.739H112.942V925.372H160.431V970.739ZM160.431 879.089H112.942V833.722H160.431V879.089ZM160.431 787.438H112.942V742.072H160.431V787.438ZM160.431 695.788H112.942V650.422H160.431V695.788ZM160.431 604.138H112.942V558.771H160.431V604.138ZM160.431 512.488H112.942V467.121H160.431V512.488ZM160.431 420.838H112.942V375.471H160.431V420.838ZM160.431 329.187H112.942V283.821H160.431V329.187ZM160.431 237.537H112.942V192.17H160.431V237.537ZM160.431 145.887H112.942V100.52H160.431V145.887ZM160.431 54.2366H112.942V8.86993H160.431V54.2366ZM160.431 -37.4136H112.942V-82.7803H160.431V-37.4136ZM208.394 -37.4136H192.643H160.921V-82.7803H192.643H208.394V-37.4136ZM256.341 -37.4136H208.853V-82.7803H256.341V-37.4136ZM304.305 -37.4136H288.554H256.832V-82.7803H288.554H304.305V-37.4136ZM352.268 -37.4136H304.779V-82.7803H352.268V-37.4136ZM400.231 -37.4136H384.481H352.758V-82.7803H384.481H400.231V-37.4136ZM448.194 -37.4136H400.706V-82.7803H448.194V-37.4136ZM496.158 -37.4136H480.407H448.685V-82.7803H480.407H496.158V-37.4136ZM544.105 -37.4136H496.616V-82.7803H544.105V-37.4136ZM592.068 -37.4136H576.318H544.595V-82.7803H576.318H592.068V-37.4136ZM640.031 -37.4136H592.543V-82.7803H640.031V-37.4136ZM687.995 -37.4136H672.244H640.522V-82.7803H672.244H687.995V-37.4136ZM735.958 -37.4136H688.469V-82.7803H735.958V-37.4136ZM783.921 -37.4136H768.171H736.448V-82.7803H768.171H783.921V-37.4136ZM831.869 -37.4136H784.38V-82.7803H831.869V-37.4136ZM879.832 -37.4136H864.081H832.359V-82.7803H864.081H879.832V-37.4136ZM927.795 -37.4136H880.306V-82.7803H927.795V-37.4136ZM975.758 -37.4136H960.008H928.269V-82.7803H959.992H975.742V-37.4136H975.758ZM1023.72 -37.4136H976.233V-82.7803H1023.72V-37.4136ZM1071.68 -37.4136H1055.93H1024.21V-82.7803H1055.93H1071.68V-37.4136ZM1119.63 -37.4136H1072.16V-82.7803H1119.63V-37.4136ZM1167.6 -37.4136H1151.84H1120.12V-82.7803H1151.84H1167.6V-37.4136ZM1215.56 -37.4136H1168.09V-82.7803H1215.56V-37.4136ZM1263.52 -37.4136H1247.77H1216.05V-82.7803H1247.77H1263.52V-37.4136ZM1311.49 -37.4136H1264V-82.7803H1311.47V-37.4136H1311.49ZM1359.43 -37.4136H1343.68H1311.96V-82.7803H1343.68H1359.43V-37.4136ZM1407.4 -37.4136H1359.92V-82.7803H1407.4V-37.4136ZM1455.36 -37.4136H1439.61H1407.89V-82.7803H1439.61H1455.36V-37.4136ZM1503.32 -37.4136H1455.83V-82.7803H1503.32V-37.4136ZM1551.29 -37.4136H1535.52H1503.8V-82.7803H1535.52H1551.27V-37.4136H1551.29ZM1599.23 -37.4136H1551.76V-82.7803H1599.23V-37.4136ZM1647.2 -37.4136H1631.45H1599.72V-82.7803H1631.45H1647.2V-37.4136ZM1695.16 -37.4136H1647.67V-82.7803H1695.16V-37.4136ZM1727.37 -37.4136H1695.65V-82.7803H1727.37H1743.12V-37.4136H1727.37ZM1727.37 54.2366H1695.65V8.86993H1727.37H1743.12V54.2366H1727.37ZM1727.37 145.887H1695.65V100.52H1727.37H1743.12V145.887H1727.37ZM1727.37 237.537H1695.65V192.17H1727.37H1743.12V237.537H1727.37ZM1727.37 329.187H1695.65V283.821H1727.37H1743.12V329.187H1727.37ZM1727.37 420.838H1695.65V375.471H1727.37H1743.12V420.838H1727.37ZM1727.37 512.488H1695.65V467.121H1727.37H1743.12V512.488H1727.37ZM1727.37 604.138H1695.65V558.771H1727.37H1743.12V604.138H1727.37ZM1727.37 695.788H1695.65V650.422H1727.37H1743.12V695.788H1727.37ZM1727.37 787.438H1695.65V742.072H1727.37H1743.12V787.438H1727.37ZM1727.37 879.089H1695.65V833.722H1727.37H1743.12V879.089H1727.37ZM1727.37 970.739H1695.65V925.372H1727.37H1743.12V970.739H1727.37ZM1727.37 1062.39H1695.65V1017.02H1727.37H1743.12V1062.39H1727.37ZM1647.69 1089.91V1062.86H1695.18V1089.91V1108.23H1647.69V1089.91ZM1599.72 1089.91V1062.86H1631.45H1647.2V1089.91V1108.23H1631.45H1599.72V1089.91ZM1551.76 1089.91V1062.86H1599.23V1089.91V1108.23H1551.76V1089.91ZM1503.8 1089.91V1062.86H1535.52H1551.27V1089.91V1108.23H1535.52H1503.8V1089.91ZM1455.83 1089.91V1062.86H1503.32V1089.91V1108.23H1455.83V1089.91ZM1407.89 1089.91V1062.86H1439.61H1455.36V1089.91V1108.23H1439.61H1407.89V1089.91ZM1359.92 1089.91V1062.86H1407.4V1089.91V1108.23H1359.92V1089.91ZM1311.96 1089.91V1062.86H1343.68H1359.43V1089.91V1108.23H1343.68H1311.96V1089.91ZM1264 1089.91V1062.86H1311.47V1089.91V1108.23H1264V1089.91ZM1216.03 1089.91V1062.86H1247.76H1263.52V1089.91V1108.23H1247.77H1216.05V1089.91H1216.03ZM1168.09 1089.91V1062.86H1215.56V1089.91V1108.23H1168.09V1089.91ZM1120.12 1089.91V1062.86H1151.84H1167.6V1089.91V1108.23H1151.84H1120.12V1089.91ZM1072.16 1089.91V1062.86H1119.63V1089.91V1108.23H1072.16V1089.91ZM1024.2 1089.91V1062.86H1055.92H1071.67V1089.91V1108.23H1055.92H1024.2V1089.91ZM976.233 1089.91V1062.86H1023.72V1089.91V1108.23H976.233V1089.91ZM928.269 1089.91V1062.86H959.992H975.742V1089.91V1108.23H959.992H928.269V1089.91ZM880.322 1089.91V1062.86H927.795V1089.91V1108.23H880.322V1089.91ZM832.359 1089.91V1062.86H864.081H879.832V1089.91V1108.23H864.081H832.359V1089.91ZM784.396 1089.91V1062.86H831.869V1089.91V1108.23H784.396V1089.91ZM736.432 1089.91V1062.86H768.155H783.905V1089.91V1108.23H768.155H736.432V1089.91ZM688.469 1089.91V1062.86H735.958V1089.91V1108.23H688.469V1089.91ZM640.506 1089.91V1062.86H672.228H687.979V1089.91V1108.23H672.228H640.506V1089.91ZM592.558 1089.91V1062.86H640.031V1089.91V1108.23H592.558V1089.91ZM544.595 1089.91V1062.86H576.318H592.068V1089.91V1108.23H576.318H544.595V1089.91ZM496.632 1089.91V1062.86H544.105V1089.91V1108.23H496.632V1089.91ZM448.669 1089.91V1062.86H480.391H496.142V1089.91V1108.23H480.391H448.669V1089.91ZM400.706 1089.91V1062.86H448.194V1089.91V1108.23H400.706V1089.91ZM352.758 1089.91V1062.86H384.481H400.231V1089.91V1108.23H384.481H352.758V1089.91ZM304.795 1089.91V1062.86H352.284V1089.91V1108.23H304.795V1089.91ZM256.832 1089.91V1062.86H288.554H304.305V1089.91V1108.23H288.554H256.832V1089.91ZM208.868 1089.91V1062.86H256.341V1089.91V1108.23H208.868V1089.91ZM192.628 1017.02H208.378V1062.39H192.628H160.905V1017.02H192.628ZM192.628 925.372H208.378V970.739H192.628H160.905V925.372H192.628ZM192.628 833.722H208.378V879.089H192.628H160.905V833.722H192.628ZM192.628 742.072H208.378V787.438H192.628H160.905V742.072H192.628ZM192.628 650.422H208.378V695.788H192.628H160.905V650.422H192.628ZM192.628 558.771H208.378V604.138H192.628H160.905V558.771H192.628ZM192.628 467.121H208.378V512.488H192.628H160.905V467.121H192.628ZM192.628 375.471H208.378V420.838H192.628H160.905V375.471H192.628ZM192.628 283.821H208.378V329.187H192.628H160.905V283.821H192.628ZM192.628 192.17H208.378V237.537H192.628H160.905V192.17H192.628ZM192.628 100.52H208.378V145.887H192.628H160.905V100.52H192.628ZM192.628 8.86993H208.378V54.2366H192.628H160.905V8.86993H192.628ZM256.341 -9.90904V8.41153H208.868V-9.90904V-36.9552H256.341V-9.90904ZM304.305 -9.90904V8.41153H288.554H256.832V-9.90904V-36.9552H288.554H304.305V-9.90904ZM352.268 -9.90904V8.41153H304.779V-9.90904V-36.9552H352.268V-9.90904ZM400.231 -9.90904V8.41153H384.481H352.758V-9.90904V-36.9552H384.481H400.231V-9.90904ZM448.194 -9.90904V8.41153H400.706V-9.90904V-36.9552H448.194V-9.90904ZM496.158 -9.90904V8.41153H480.407H448.685V-9.90904V-36.9552H480.407H496.158V-9.90904ZM544.105 -9.90904V8.41153H496.632V-9.90904V-36.9552H544.105V-9.90904ZM592.068 -9.90904V8.41153H576.318H544.595V-9.90904V-36.9552H576.318H592.068V-9.90904ZM640.031 -9.90904V8.41153H592.558V-9.90904V-36.9552H640.031V-9.90904ZM687.995 -9.90904V8.41153H672.244H640.522V-9.90904V-36.9552H672.244H687.995V-9.90904ZM735.958 -9.90904V8.41153H688.469V-9.90904V-36.9552H735.958V-9.90904ZM783.921 -9.90904V8.41153H768.171H736.448V-9.90904V-36.9552H768.171H783.921V-9.90904ZM831.869 -9.90904V8.41153H784.396V-9.90904V-36.9552H831.869V-9.90904ZM879.832 -9.90904V8.41153H864.081H832.359V-9.90904V-36.9552H864.081H879.832V-9.90904ZM927.795 -9.90904V8.41153H880.322V-9.90904V-36.9552H927.795V-9.90904ZM975.758 -9.90904V8.41153H960.008H928.269V-9.90904V-36.9552H959.992H975.742V-9.90904H975.758ZM1023.72 -9.90904V8.41153H976.233V-9.90904V-36.9552H1023.72V-9.90904ZM1071.68 -9.90904V8.41153H1055.93H1024.21V-9.90904V-36.9552H1055.93H1071.68V-9.90904ZM1119.63 -9.90904V8.41153H1072.16V-9.90904V-36.9552H1119.63V-9.90904ZM1167.6 -9.90904V8.41153H1151.84H1120.12V-9.90904V-36.9552H1151.84H1167.6V-9.90904ZM1215.56 -9.90904V8.41153H1168.09V-9.90904V-36.9552H1215.56V-9.90904ZM1263.52 -9.90904V8.41153H1247.77H1216.05V-9.90904V-36.9552H1247.77H1263.52V-9.90904ZM1311.49 -9.90904V8.41153H1264V-9.90904V-36.9552H1311.47V-9.90904H1311.49ZM1359.43 -9.90904V8.41153H1343.68H1311.96V-9.90904V-36.9552H1343.68H1359.43V-9.90904ZM1407.4 -9.90904V8.41153H1359.92V-9.90904V-36.9552H1407.4V-9.90904ZM1455.36 -9.90904V8.41153H1439.61H1407.89V-9.90904V-36.9552H1439.61H1455.36V-9.90904ZM1503.32 -9.90904V8.41153H1455.83V-9.90904V-36.9552H1503.32V-9.90904ZM1551.29 -9.90904V8.41153H1535.52H1503.8V-9.90904V-36.9552H1535.52H1551.27V-9.90904H1551.29ZM1599.23 -9.90904V8.41153H1551.76V-9.90904V-36.9552H1599.23V-9.90904ZM1647.2 -9.90904V8.41153H1631.45H1599.72V-9.90904V-36.9552H1631.45H1647.2V-9.90904ZM1647.69 8.86993H1695.18V54.2366H1647.69V8.86993ZM1647.69 100.52H1695.18V145.887H1647.69V100.52ZM1647.69 192.17H1695.18V237.537H1647.69V192.17ZM1647.69 283.821H1695.18V329.187H1647.69V283.821ZM1647.69 375.471H1695.18V420.838H1647.69V375.471ZM1647.69 467.121H1695.18V512.488H1647.69V467.121ZM1647.69 558.771H1695.18V604.138H1647.69V558.771ZM1647.69 650.422H1695.18V695.788H1647.69V650.422ZM1647.69 742.072H1695.18V787.438H1647.69V742.072ZM1647.69 833.722H1695.18V879.089H1647.69V833.722ZM1647.69 925.372H1695.18V970.739H1647.69V925.372ZM1647.69 1017.02H1695.18V1062.39H1647.69V1017.02ZM1599.72 1017.02H1631.45H1647.2V1062.39H1631.45H1599.72V1017.02ZM1551.76 1017.02H1599.23V1062.39H1551.76V1017.02ZM1503.8 1017.02H1535.52H1551.27V1062.39H1535.52H1503.8V1017.02ZM1455.83 1017.02H1503.31V1062.39H1455.83V1017.02ZM1407.89 1017.02H1439.61H1455.36V1062.39H1439.61H1407.89V1017.02ZM1359.92 1017.02H1407.4V1062.39H1359.92V1017.02ZM1311.96 1017.02H1343.68H1359.43V1062.39H1343.68H1311.96V1017.02ZM1264 1017.02H1311.47V1062.39H1264V1017.02ZM1216.03 1017.02H1247.76H1263.52V1062.39H1247.77H1216.05V1017.02H1216.03ZM1168.09 1017.02H1215.56V1062.39H1168.09V1017.02ZM1120.12 1017.02H1151.84H1167.6V1062.39H1151.84H1120.12V1017.02ZM1072.16 1017.02H1119.63V1062.39H1072.16V1017.02ZM1024.2 1017.02H1055.92H1071.67V1062.39H1055.92H1024.2V1017.02ZM976.233 1017.02H1023.72V1062.39H976.233V1017.02ZM928.269 1017.02H959.992H975.742V1062.39H959.992H928.269V1017.02ZM880.322 1017.02H927.811V1062.39H880.322V1017.02ZM832.359 1017.02H864.081H879.832V1062.39H864.081H832.359V1017.02ZM784.396 1017.02H831.884V1062.39H784.396V1017.02ZM736.432 1017.02H768.155H783.905V1062.39H768.155H736.432V1017.02ZM688.469 1017.02H735.958V1062.39H688.469V1017.02ZM640.506 1017.02H672.228H687.979V1062.39H672.228H640.506V1017.02ZM592.558 1017.02H640.047V1062.39H592.558V1017.02ZM544.595 1017.02H576.318H592.068V1062.39H576.318H544.595V1017.02ZM496.632 1017.02H544.121V1062.39H496.632V1017.02ZM448.669 1017.02H480.391H496.142V1062.39H480.391H448.669V1017.02ZM400.706 1017.02H448.194V1062.39H400.706V1017.02ZM352.758 1017.02H384.481H400.231V1062.39H384.481H352.758V1017.02ZM304.795 1017.02H352.284V1062.39H304.795V1017.02ZM256.832 1017.02H288.554H304.305V1062.39H288.554H256.832V1017.02ZM256.341 1062.39H208.853V1017.02H256.341V1062.39ZM256.341 970.739H208.853V925.372H256.341V970.739ZM256.341 879.089H208.853V833.722H256.341V879.089ZM256.341 787.438H208.853V742.072H256.341V787.438ZM256.341 695.788H208.853V650.422H256.341V695.788ZM256.341 604.138H208.853V558.771H256.341V604.138ZM256.341 512.488H208.853V467.121H256.341V512.488ZM256.341 420.838H208.853V375.471H256.341V420.838ZM256.341 329.187H208.853V283.821H256.341V329.187ZM256.341 237.537H208.853V192.17H256.341V237.537ZM256.341 145.887H208.853V100.52H256.341V145.887ZM256.341 54.2366H208.853V8.86993H256.341V54.2366ZM304.305 54.2366H288.554H256.832V8.86993H288.554H304.305V54.2366ZM352.268 54.2366H304.779V8.86993H352.268V54.2366ZM400.231 54.2366H384.481H352.758V8.86993H384.481H400.231V54.2366ZM448.194 54.2366H400.706V8.86993H448.194V54.2366ZM496.158 54.2366H480.407H448.685V8.86993H480.407H496.158V54.2366ZM544.105 54.2366H496.616V8.86993H544.105V54.2366ZM592.068 54.2366H576.318H544.595V8.86993H576.318H592.068V54.2366ZM640.031 54.2366H592.543V8.86993H640.031V54.2366ZM687.995 54.2366H672.244H640.522V8.86993H672.244H687.995V54.2366ZM735.958 54.2366H688.469V8.86993H735.958V54.2366ZM783.921 54.2366H768.171H736.448V8.86993H768.171H783.921V54.2366ZM831.869 54.2366H784.38V8.86993H831.869V54.2366ZM879.832 54.2366H864.081H832.359V8.86993H864.081H879.832V54.2366ZM927.795 54.2366H880.306V8.86993H927.795V54.2366ZM975.758 54.2366H960.008H928.269V8.86993H959.992H975.742V54.2366H975.758ZM1023.72 54.2366H976.233V8.86993H1023.72V54.2366ZM1071.68 54.2366H1055.93H1024.21V8.86993H1055.93H1071.68V54.2366ZM1119.63 54.2366H1072.16V8.86993H1119.63V54.2366ZM1167.6 54.2366H1151.84H1120.12V8.86993H1151.84H1167.6V54.2366ZM1215.56 54.2366H1168.09V8.86993H1215.56V54.2366ZM1263.52 54.2366H1247.77H1216.05V8.86993H1247.77H1263.52V54.2366ZM1311.49 54.2366H1264V8.86993H1311.47V54.2366H1311.49ZM1359.43 54.2366H1343.68H1311.96V8.86993H1343.68H1359.43V54.2366ZM1407.4 54.2366H1359.92V8.86993H1407.4V54.2366ZM1455.36 54.2366H1439.61H1407.89V8.86993H1439.61H1455.36V54.2366ZM1503.32 54.2366H1455.83V8.86993H1503.32V54.2366ZM1551.29 54.2366H1535.52H1503.8V8.86993H1535.52H1551.27V54.2366H1551.29ZM1599.23 54.2366H1551.76V8.86993H1599.23V54.2366ZM1631.45 54.2366H1599.72V8.86993H1631.45H1647.2V54.2366H1631.45ZM1631.45 145.887H1599.72V100.52H1631.45H1647.2V145.887H1631.45ZM1631.45 237.537H1599.72V192.17H1631.45H1647.2V237.537H1631.45ZM1631.45 329.187H1599.72V283.821H1631.45H1647.2V329.187H1631.45ZM1631.45 420.838H1599.72V375.471H1631.45H1647.2V420.838H1631.45ZM1631.45 512.488H1599.72V467.121H1631.45H1647.2V512.488H1631.45ZM1631.45 604.138H1599.72V558.771H1631.45H1647.2V604.138H1631.45ZM1631.45 695.788H1599.72V650.422H1631.45H1647.2V695.788H1631.45ZM1631.45 787.438H1599.72V742.072H1631.45H1647.2V787.438H1631.45ZM1631.45 879.089H1599.72V833.722H1631.45H1647.2V879.089H1631.45ZM1631.45 970.739H1599.72V925.372H1631.45H1647.2V970.739H1631.45ZM1551.76 998.243V971.197H1599.23V998.243V1016.56H1551.76V998.243ZM1503.8 998.243V971.197H1535.52H1551.27V998.243V1016.56H1535.52H1503.8V998.243ZM1455.83 998.243V971.197H1503.32V998.243V1016.56H1455.83V998.243ZM1407.89 998.243V971.197H1439.61H1455.36V998.243V1016.56H1439.61H1407.89V998.243ZM1359.92 998.243V971.197H1407.4V998.243V1016.56H1359.92V998.243ZM1311.96 998.243V971.197H1343.68H1359.43V998.243V1016.56H1343.68H1311.96V998.243ZM1264 998.243V971.197H1311.47V998.243V1016.56H1264V998.243ZM1216.03 998.243V971.197H1247.76H1263.52V998.243V1016.56H1247.77H1216.05V998.243H1216.03ZM1168.09 998.243V971.197H1215.56V998.243V1016.56H1168.09V998.243ZM1120.12 998.243V971.197H1151.84H1167.6V998.243V1016.56H1151.84H1120.12V998.243ZM1072.16 998.243V971.197H1119.63V998.243V1016.56H1072.16V998.243ZM1024.2 998.243V971.197H1055.92H1071.67V998.243V1016.56H1055.92H1024.2V998.243ZM976.233 998.243V971.197H1023.72V998.243V1016.56H976.233V998.243ZM928.269 998.243V971.197H959.992H975.742V998.243V1016.56H959.992H928.269V998.243ZM880.322 998.243V971.197H927.795V998.243V1016.56H880.322V998.243ZM832.359 998.243V971.197H864.081H879.832V998.243V1016.56H864.081H832.359V998.243ZM784.396 998.243V971.197H831.869V998.243V1016.56H784.396V998.243ZM736.432 998.243V971.197H768.155H783.905V998.243V1016.56H768.155H736.432V998.243ZM688.469 998.243V971.197H735.958V998.243V1016.56H688.469V998.243ZM640.506 998.243V971.197H672.228H687.979V998.243V1016.56H672.228H640.506V998.243ZM592.558 998.243V971.197H640.031V998.243V1016.56H592.558V998.243ZM544.595 998.243V971.197H576.318H592.068V998.243V1016.56H576.318H544.595V998.243ZM496.632 998.243V971.197H544.105V998.243V1016.56H496.632V998.243ZM448.669 998.243V971.197H480.391H496.142V998.243V1016.56H480.391H448.669V998.243ZM400.706 998.243V971.197H448.194V998.243V1016.56H400.706V998.243ZM352.758 998.243V971.197H384.481H400.231V998.243V1016.56H384.481H352.758V998.243ZM304.795 998.243V971.197H352.284V998.243V1016.56H304.795V998.243ZM288.554 925.372H304.305V970.739H288.554H256.832V925.372H288.554ZM288.554 833.722H304.305V879.089H288.554H256.832V833.722H288.554ZM288.554 742.072H304.305V787.438H288.554H256.832V742.072H288.554ZM288.554 650.422H304.305V695.788H288.554H256.832V650.422H288.554ZM288.554 558.771H304.305V604.138H288.554H256.832V558.771H288.554ZM288.554 467.121H304.305V512.488H288.554H256.832V467.121H288.554ZM288.554 375.471H304.305V420.838H288.554H256.832V375.471H288.554ZM288.554 283.821H304.305V329.187H288.554H256.832V283.821H288.554ZM288.554 192.17H304.305V237.537H288.554H256.832V192.17H288.554ZM288.554 100.52H304.305V145.887H288.554H256.832V100.52H288.554ZM352.268 81.7412V100.062H304.779V81.7412V54.695H352.268V81.7412ZM400.231 81.7412V100.062H384.481H352.758V81.7412V54.695H384.481H400.231V81.7412ZM448.194 81.7412V100.062H400.706V81.7412V54.695H448.194V81.7412ZM496.158 81.7412V100.062H480.407H448.685V81.7412V54.695H480.407H496.158V81.7412ZM544.105 81.7412V100.062H496.632V81.7412V54.695H544.105V81.7412ZM592.068 81.7412V100.062H576.318H544.595V81.7412V54.695H576.318H592.068V81.7412ZM640.031 81.7412V100.062H592.558V81.7412V54.695H640.031V81.7412ZM687.995 81.7412V100.062H672.244H640.522V81.7412V54.695H672.244H687.995V81.7412ZM735.958 81.7412V100.062H688.469V81.7412V54.695H735.958V81.7412ZM783.921 81.7412V100.062H768.171H736.448V81.7412V54.695H768.171H783.921V81.7412ZM831.869 81.7412V100.062H784.396V81.7412V54.695H831.869V81.7412ZM879.832 81.7412V100.062H864.081H832.359V81.7412V54.695H864.081H879.832V81.7412ZM927.795 81.7412V100.062H880.322V81.7412V54.695H927.795V81.7412ZM975.758 81.7412V100.062H960.008H928.269V81.7412V54.695H959.992H975.742V81.7412H975.758ZM1023.72 81.7412V100.062H976.233V81.7412V54.695H1023.72V81.7412ZM1071.68 81.7412V100.062H1055.93H1024.21V81.7412V54.695H1055.93H1071.68V81.7412ZM1119.63 81.7412V100.062H1072.16V81.7412V54.695H1119.63V81.7412ZM1167.6 81.7412V100.062H1151.84H1120.12V81.7412V54.695H1151.84H1167.6V81.7412ZM1215.56 81.7412V100.062H1168.09V81.7412V54.695H1215.56V81.7412ZM1263.52 81.7412V100.062H1247.77H1216.05V81.7412V54.695H1247.77H1263.52V81.7412ZM1311.49 81.7412V100.062H1264V81.7412V54.695H1311.47V81.7412H1311.49ZM1359.43 81.7412V100.062H1343.68H1311.96V81.7412V54.695H1343.68H1359.43V81.7412ZM1407.4 81.7412V100.062H1359.92V81.7412V54.695H1407.4V81.7412ZM1455.36 81.7412V100.062H1439.61H1407.89V81.7412V54.695H1439.61H1455.36V81.7412ZM1503.32 81.7412V100.062H1455.83V81.7412V54.695H1503.32V81.7412ZM1551.29 81.7412V100.062H1535.52H1503.8V81.7412V54.695H1535.52H1551.27V81.7412H1551.29ZM1551.76 100.52H1599.23V145.887H1551.76V100.52ZM1551.76 192.17H1599.23V237.537H1551.76V192.17ZM1551.76 283.821H1599.23V329.187H1551.76V283.821ZM1551.76 375.471H1599.23V420.838H1551.76V375.471ZM1551.76 467.121H1599.23V512.488H1551.76V467.121ZM1551.76 558.771H1599.23V604.138H1551.76V558.771ZM1551.76 650.422H1599.23V695.788H1551.76V650.422ZM1551.76 742.072H1599.23V787.438H1551.76V742.072ZM1551.76 833.722H1599.23V879.089H1551.76V833.722ZM1551.76 925.372H1599.23V970.739H1551.76V925.372ZM1503.8 925.372H1535.52H1551.27V970.739H1535.52H1503.8V925.372ZM1455.83 925.372H1503.31V970.739H1455.83V925.372ZM1407.89 925.372H1439.61H1455.36V970.739H1439.61H1407.89V925.372ZM1359.92 925.372H1407.4V970.739H1359.92V925.372ZM1311.96 925.372H1343.68H1359.43V970.739H1343.68H1311.96V925.372ZM1264 925.372H1311.47V970.739H1264V925.372ZM1216.03 925.372H1247.76H1263.52V970.739H1247.77H1216.05V925.372H1216.03ZM1168.09 925.372H1215.56V970.739H1168.09V925.372ZM1120.12 925.372H1151.84H1167.6V970.739H1151.84H1120.12V925.372ZM1072.16 925.372H1119.63V970.739H1072.16V925.372ZM1024.2 925.372H1055.92H1071.67V970.739H1055.92H1024.2V925.372ZM976.233 925.372H1023.72V970.739H976.233V925.372ZM928.269 925.372H959.992H975.742V970.739H959.992H928.269V925.372ZM880.322 925.372H927.811V970.739H880.322V925.372ZM832.359 925.372H864.081H879.832V970.739H864.081H832.359V925.372ZM784.396 925.372H831.884V970.739H784.396V925.372ZM736.432 925.372H768.155H783.905V970.739H768.155H736.432V925.372ZM688.469 925.372H735.958V970.739H688.469V925.372ZM640.506 925.372H672.228H687.979V970.739H672.228H640.506V925.372ZM592.558 925.372H640.047V970.739H592.558V925.372ZM544.595 925.372H576.318H592.068V970.739H576.318H544.595V925.372ZM496.632 925.372H544.121V970.739H496.632V925.372ZM448.669 925.372H480.391H496.142V970.739H480.391H448.669V925.372ZM400.706 925.372H448.194V970.739H400.706V925.372ZM352.758 925.372H384.481H400.231V970.739H384.481H352.758V925.372ZM352.268 970.739H304.779V925.372H352.268V970.739ZM352.268 879.089H304.779V833.722H352.268V879.089ZM352.268 787.438H304.779V742.072H352.268V787.438ZM352.268 695.788H304.779V650.422H352.268V695.788ZM352.268 604.138H304.779V558.771H352.268V604.138ZM352.268 512.488H304.779V467.121H352.268V512.488ZM352.268 420.838H304.779V375.471H352.268V420.838ZM352.268 329.187H304.779V283.821H352.268V329.187ZM352.268 237.537H304.779V192.17H352.268V237.537ZM352.268 145.887H304.779V100.52H352.268V145.887ZM400.231 145.887H384.481H352.758V100.52H384.481H400.231V145.887ZM448.194 145.887H400.706V100.52H448.194V145.887ZM496.158 145.887H480.407H448.685V100.52H480.407H496.158V145.887ZM544.105 145.887H496.616V100.52H544.105V145.887ZM592.068 145.887H576.318H544.595V100.52H576.318H592.068V145.887ZM640.031 145.887H592.543V100.52H640.031V145.887ZM687.995 145.887H672.244H640.522V100.52H672.244H687.995V145.887ZM735.958 145.887H688.469V100.52H735.958V145.887ZM783.921 145.887H768.171H736.448V100.52H768.171H783.921V145.887ZM831.869 145.887H784.38V100.52H831.869V145.887ZM879.832 145.887H864.081H832.359V100.52H864.081H879.832V145.887ZM927.795 145.887H880.306V100.52H927.795V145.887ZM975.758 145.887H960.008H928.269V100.52H959.992H975.742V145.887H975.758ZM1023.72 145.887H976.233V100.52H1023.72V145.887ZM1071.68 145.887H1055.93H1024.21V100.52H1055.93H1071.68V145.887ZM1119.63 145.887H1072.16V100.52H1119.63V145.887ZM1167.6 145.887H1151.84H1120.12V100.52H1151.84H1167.6V145.887ZM1215.56 145.887H1168.09V100.52H1215.56V145.887ZM1263.52 145.887H1247.77H1216.05V100.52H1247.77H1263.52V145.887ZM1311.49 145.887H1264V100.52H1311.47V145.887H1311.49ZM1359.43 145.887H1343.68H1311.96V100.52H1343.68H1359.43V145.887ZM1407.4 145.887H1359.92V100.52H1407.4V145.887ZM1455.36 145.887H1439.61H1407.89V100.52H1439.61H1455.36V145.887ZM1503.32 145.887H1455.83V100.52H1503.32V145.887ZM1535.52 145.887H1503.8V100.52H1535.52H1551.27V145.887H1535.52ZM1535.52 237.537H1503.8V192.17H1535.52H1551.27V237.537H1535.52ZM1535.52 329.187H1503.8V283.821H1535.52H1551.27V329.187H1535.52ZM1535.52 420.838H1503.8V375.471H1535.52H1551.27V420.838H1535.52ZM1535.52 512.488H1503.8V467.121H1535.52H1551.27V512.488H1535.52ZM1535.52 604.138H1503.8V558.771H1535.52H1551.27V604.138H1535.52ZM1535.52 695.788H1503.8V650.422H1535.52H1551.27V695.788H1535.52ZM1535.52 787.438H1503.8V742.072H1535.52H1551.27V787.438H1535.52ZM1535.52 879.089H1503.8V833.722H1535.52H1551.27V879.089H1535.52ZM1455.83 906.593V879.547H1503.32V906.593V924.914H1455.83V906.593ZM1407.89 906.593V879.547H1439.61H1455.36V906.593V924.914H1439.61H1407.89V906.593ZM1359.92 906.593V879.547H1407.4V906.593V924.914H1359.92V906.593ZM1311.96 906.593V879.547H1343.68H1359.43V906.593V924.914H1343.68H1311.96V906.593ZM1264 906.593V879.547H1311.47V906.593V924.914H1264V906.593ZM1216.03 906.593V879.547H1247.76H1263.52V906.593V924.914H1247.77H1216.05V906.593H1216.03ZM1168.09 906.593V879.547H1215.56V906.593V924.914H1168.09V906.593ZM1120.12 906.593V879.547H1151.84H1167.6V906.593V924.914H1151.84H1120.12V906.593ZM1072.16 906.593V879.547H1119.63V906.593V924.914H1072.16V906.593ZM1024.2 906.593V879.547H1055.92H1071.67V906.593V924.914H1055.92H1024.2V906.593ZM976.233 906.593V879.547H1023.72V906.593V924.914H976.233V906.593ZM928.269 906.593V879.547H959.992H975.742V906.593V924.914H959.992H928.269V906.593ZM880.322 906.593V879.547H927.795V906.593V924.914H880.322V906.593ZM832.359 906.593V879.547H864.081H879.832V906.593V924.914H864.081H832.359V906.593ZM784.396 906.593V879.547H831.869V906.593V924.914H784.396V906.593ZM736.432 906.593V879.547H768.155H783.905V906.593V924.914H768.155H736.432V906.593ZM688.469 906.593V879.547H735.958V906.593V924.914H688.469V906.593ZM640.506 906.593V879.547H672.228H687.979V906.593V924.914H672.228H640.506V906.593ZM592.558 906.593V879.547H640.031V906.593V924.914H592.558V906.593ZM544.595 906.593V879.547H576.318H592.068V906.593V924.914H576.318H544.595V906.593ZM496.632 906.593V879.547H544.105V906.593V924.914H496.632V906.593ZM448.669 906.593V879.547H480.391H496.142V906.593V924.914H480.391H448.669V906.593ZM400.706 906.593V879.547H448.194V906.593V924.914H400.706V906.593ZM384.481 833.722H400.231V879.089H384.481H352.758V833.722H384.481ZM384.481 742.072H400.231V787.438H384.481H352.758V742.072H384.481ZM384.481 650.422H400.231V695.788H384.481H352.758V650.422H384.481ZM384.481 558.771H400.231V604.138H384.481H352.758V558.771H384.481ZM384.481 467.121H400.231V512.488H384.481H352.758V467.121H384.481ZM384.481 375.471H400.231V420.838H384.481H352.758V375.471H384.481ZM384.481 283.821H400.231V329.187H384.481H352.758V283.821H384.481ZM384.481 192.17H400.231V237.537H384.481H352.758V192.17H384.481ZM448.194 173.391V191.712H400.706V173.391V146.345H448.194V173.391ZM496.158 173.391V191.712H480.407H448.685V173.391V146.345H480.407H496.158V173.391ZM544.105 173.391V191.712H496.632V173.391V146.345H544.105V173.391ZM592.068 173.391V191.712H576.318H544.595V173.391V146.345H576.318H592.068V173.391ZM640.031 173.391V191.712H592.558V173.391V146.345H640.031V173.391ZM687.995 173.391V191.712H672.244H640.522V173.391V146.345H672.244H687.995V173.391ZM735.958 173.391V191.712H688.469V173.391V146.345H735.958V173.391ZM783.921 173.391V191.712H768.171H736.448V173.391V146.345H768.171H783.921V173.391ZM831.869 173.391V191.712H784.396V173.391V146.345H831.869V173.391ZM879.832 173.391V191.712H864.081H832.359V173.391V146.345H864.081H879.832V173.391ZM927.795 173.391V191.712H880.322V173.391V146.345H927.795V173.391ZM975.758 173.391V191.712H960.008H928.269V173.391V146.345H959.992H975.742V173.391H975.758ZM1023.72 173.391V191.712H976.233V173.391V146.345H1023.72V173.391ZM1071.68 173.391V191.712H1055.93H1024.21V173.391V146.345H1055.93H1071.68V173.391ZM1119.63 173.391V191.712H1072.16V173.391V146.345H1119.63V173.391ZM1167.6 173.391V191.712H1151.84H1120.12V173.391V146.345H1151.84H1167.6V173.391ZM1215.56 173.391V191.712H1168.09V173.391V146.345H1215.56V173.391ZM1263.52 173.391V191.712H1247.77H1216.05V173.391V146.345H1247.77H1263.52V173.391ZM1311.49 173.391V191.712H1264V173.391V146.345H1311.47V173.391H1311.49ZM1359.43 173.391V191.712H1343.68H1311.96V173.391V146.345H1343.68H1359.43V173.391ZM1407.4 173.391V191.712H1359.92V173.391V146.345H1407.4V173.391ZM1455.36 173.391V191.712H1439.61H1407.89V173.391V146.345H1439.61H1455.36V173.391ZM1455.83 192.17H1503.31V237.537H1455.83V192.17ZM1455.83 283.821H1503.31V329.187H1455.83V283.821ZM1455.83 375.471H1503.31V420.838H1455.83V375.471ZM1455.83 467.121H1503.31V512.488H1455.83V467.121ZM1455.83 558.771H1503.31V604.138H1455.83V558.771ZM1455.83 650.422H1503.31V695.788H1455.83V650.422ZM1455.83 742.072H1503.31V787.438H1455.83V742.072ZM1455.83 833.722H1503.31V879.089H1455.83V833.722ZM1407.89 833.722H1439.61H1455.36V879.089H1439.61H1407.89V833.722ZM1359.92 833.722H1407.4V879.089H1359.92V833.722ZM1311.96 833.722H1343.68H1359.43V879.089H1343.68H1311.96V833.722ZM1264 833.722H1311.47V879.089H1264V833.722ZM1216.03 833.722H1247.76H1263.52V879.089H1247.77H1216.05V833.722H1216.03ZM1168.09 833.722H1215.56V879.089H1168.09V833.722ZM1120.12 833.722H1151.84H1167.6V879.089H1151.84H1120.12V833.722ZM1072.16 833.722H1119.63V879.089H1072.16V833.722ZM1024.2 833.722H1055.92H1071.67V879.089H1055.92H1024.2V833.722ZM976.233 833.722H1023.72V879.089H976.233V833.722ZM928.269 833.722H959.992H975.742V879.089H959.992H928.269V833.722ZM880.322 833.722H927.811V879.089H880.322V833.722ZM832.359 833.722H864.081H879.832V879.089H864.081H832.359V833.722ZM784.396 833.722H831.884V879.089H784.396V833.722ZM736.432 833.722H768.155H783.905V879.089H768.155H736.432V833.722ZM688.469 833.722H735.958V879.089H688.469V833.722ZM640.506 833.722H672.228H687.979V879.089H672.228H640.506V833.722ZM592.558 833.722H640.047V879.089H592.558V833.722ZM544.595 833.722H576.318H592.068V879.089H576.318H544.595V833.722ZM496.632 833.722H544.121V879.089H496.632V833.722ZM448.669 833.722H480.391H496.142V879.089H480.391H448.669V833.722ZM448.194 879.089H400.706V833.722H448.194V879.089ZM448.194 787.438H400.706V742.072H448.194V787.438ZM448.194 695.788H400.706V650.422H448.194V695.788ZM448.194 604.138H400.706V558.771H448.194V604.138ZM448.194 512.488H400.706V467.121H448.194V512.488ZM448.194 420.838H400.706V375.471H448.194V420.838ZM448.194 329.187H400.706V283.821H448.194V329.187ZM448.194 237.537H400.706V192.17H448.194V237.537ZM496.158 237.537H480.407H448.685V192.17H480.407H496.158V237.537ZM544.105 237.537H496.616V192.17H544.105V237.537ZM592.068 237.537H576.318H544.595V192.17H576.318H592.068V237.537ZM640.031 237.537H592.543V192.17H640.031V237.537ZM687.995 237.537H672.244H640.522V192.17H672.244H687.995V237.537ZM735.958 237.537H688.469V192.17H735.958V237.537ZM783.921 237.537H768.171H736.448V192.17H768.171H783.921V237.537ZM831.869 237.537H784.38V192.17H831.869V237.537ZM879.832 237.537H864.081H832.359V192.17H864.081H879.832V237.537ZM927.795 237.537H880.306V192.17H927.795V237.537ZM975.758 237.537H960.008H928.269V192.17H959.992H975.742V237.537H975.758ZM1023.72 237.537H976.233V192.17H1023.72V237.537ZM1071.68 237.537H1055.93H1024.21V192.17H1055.93H1071.68V237.537ZM1119.63 237.537H1072.16V192.17H1119.63V237.537ZM1167.6 237.537H1151.84H1120.12V192.17H1151.84H1167.6V237.537ZM1215.56 237.537H1168.09V192.17H1215.56V237.537ZM1263.52 237.537H1247.77H1216.05V192.17H1247.77H1263.52V237.537ZM1311.49 237.537H1264V192.17H1311.47V237.537H1311.49ZM1359.43 237.537H1343.68H1311.96V192.17H1343.68H1359.43V237.537ZM1407.4 237.537H1359.92V192.17H1407.4V237.537ZM1439.61 237.537H1407.89V192.17H1439.61H1455.36V237.537H1439.61ZM1439.61 329.187H1407.89V283.821H1439.61H1455.36V329.187H1439.61ZM1439.61 420.838H1407.89V375.471H1439.61H1455.36V420.838H1439.61ZM1439.61 512.488H1407.89V467.121H1439.61H1455.36V512.488H1439.61ZM1439.61 604.138H1407.89V558.771H1439.61H1455.36V604.138H1439.61ZM1439.61 695.788H1407.89V650.422H1439.61H1455.36V695.788H1439.61ZM1439.61 787.438H1407.89V742.072H1439.61H1455.36V787.438H1439.61ZM1359.92 814.943V787.897H1407.4V814.943V833.263H1359.92V814.943ZM1311.96 814.943V787.897H1343.68H1359.43V814.943V833.263H1343.68H1311.96V814.943ZM1264 814.943V787.897H1311.47V814.943V833.263H1264V814.943ZM1216.03 814.943V787.897H1247.76H1263.52V814.943V833.263H1247.77H1216.05V814.943H1216.03ZM1168.09 814.943V787.897H1215.56V814.943V833.263H1168.09V814.943ZM1120.12 814.943V787.897H1151.84H1167.6V814.943V833.263H1151.84H1120.12V814.943ZM1072.16 814.943V787.897H1119.63V814.943V833.263H1072.16V814.943ZM1024.2 814.943V787.897H1055.92H1071.67V814.943V833.263H1055.92H1024.2V814.943ZM976.233 814.943V787.897H1023.72V814.943V833.263H976.233V814.943ZM928.269 814.943V787.897H959.992H975.742V814.943V833.263H959.992H928.269V814.943ZM880.322 814.943V787.897H927.795V814.943V833.263H880.322V814.943ZM832.359 814.943V787.897H864.081H879.832V814.943V833.263H864.081H832.359V814.943ZM784.396 814.943V787.897H831.869V814.943V833.263H784.396V814.943ZM736.432 814.943V787.897H768.155H783.905V814.943V833.263H768.155H736.432V814.943ZM688.469 814.943V787.897H735.958V814.943V833.263H688.469V814.943ZM640.506 814.943V787.897H672.228H687.979V814.943V833.263H672.228H640.506V814.943ZM592.558 814.943V787.897H640.031V814.943V833.263H592.558V814.943ZM544.595 814.943V787.897H576.318H592.068V814.943V833.263H576.318H544.595V814.943ZM496.632 814.943V787.897H544.105V814.943V833.263H496.632V814.943ZM480.391 742.072H496.142V787.438H480.391H448.669V742.072H480.391ZM480.391 650.422H496.142V695.788H480.391H448.669V650.422H480.391ZM480.391 558.771H496.142V604.138H480.391H448.669V558.771H480.391ZM480.391 467.121H496.142V512.488H480.391H448.669V467.121H480.391ZM480.391 375.471H496.142V420.838H480.391H448.669V375.471H480.391ZM480.391 283.821H496.142V329.187H480.391H448.669V283.821H480.391ZM544.105 265.042V283.362H496.632V265.042V237.995H544.105V265.042ZM592.068 265.042V283.362H576.318H544.595V265.042V237.995H576.318H592.068V265.042ZM640.031 265.042V283.362H592.558V265.042V237.995H640.031V265.042ZM687.995 265.042V283.362H672.244H640.522V265.042V237.995H672.244H687.995V265.042ZM735.958 265.042V283.362H688.469V265.042V237.995H735.958V265.042ZM783.921 265.042V283.362H768.171H736.448V265.042V237.995H768.171H783.921V265.042ZM831.869 265.042V283.362H784.396V265.042V237.995H831.869V265.042ZM879.832 265.042V283.362H864.081H832.359V265.042V237.995H864.081H879.832V265.042ZM927.795 265.042V283.362H880.322V265.042V237.995H927.795V265.042ZM975.758 265.042V283.362H960.008H928.269V265.042V237.995H959.992H975.742V265.042H975.758ZM1023.72 265.042V283.362H976.233V265.042V237.995H1023.72V265.042ZM1071.68 265.042V283.362H1055.93H1024.21V265.042V237.995H1055.93H1071.68V265.042ZM1119.63 265.042V283.362H1072.16V265.042V237.995H1119.63V265.042ZM1167.6 265.042V283.362H1151.84H1120.12V265.042V237.995H1151.84H1167.6V265.042ZM1215.56 265.042V283.362H1168.09V265.042V237.995H1215.56V265.042ZM1263.52 265.042V283.362H1247.77H1216.05V265.042V237.995H1247.77H1263.52V265.042ZM1311.49 265.042V283.362H1264V265.042V237.995H1311.47V265.042H1311.49ZM1359.43 265.042V283.362H1343.68H1311.96V265.042V237.995H1343.68H1359.43V265.042ZM1359.92 283.821H1407.4V329.187H1359.92V283.821ZM1359.92 375.471H1407.4V420.838H1359.92V375.471ZM1359.92 467.121H1407.4V512.488H1359.92V467.121ZM1359.92 558.771H1407.4V604.138H1359.92V558.771ZM1359.92 650.422H1407.4V695.788H1359.92V650.422ZM1359.92 742.072H1407.4V787.438H1359.92V742.072ZM1311.96 742.072H1343.68H1359.43V787.438H1343.68H1311.96V742.072ZM1264 742.072H1311.47V787.438H1264V742.072ZM1216.03 742.072H1247.76H1263.52V787.438H1247.77H1216.05V742.072H1216.03ZM1168.09 742.072H1215.56V787.438H1168.09V742.072ZM1120.12 742.072H1151.84H1167.6V787.438H1151.84H1120.12V742.072ZM1072.16 742.072H1119.63V787.438H1072.16V742.072ZM1024.2 742.072H1055.92H1071.67V787.438H1055.92H1024.2V742.072ZM976.233 742.072H1023.72V787.438H976.233V742.072ZM928.269 742.072H959.992H975.742V787.438H959.992H928.269V742.072ZM880.322 742.072H927.811V787.438H880.322V742.072ZM832.359 742.072H864.081H879.832V787.438H864.081H832.359V742.072ZM784.396 742.072H831.884V787.438H784.396V742.072ZM736.432 742.072H768.155H783.905V787.438H768.155H736.432V742.072ZM688.469 742.072H735.958V787.438H688.469V742.072ZM640.506 742.072H672.228H687.979V787.438H672.228H640.506V742.072ZM592.558 742.072H640.047V787.438H592.558V742.072ZM544.595 742.072H576.318H592.068V787.438H576.318H544.595V742.072ZM544.105 787.438H496.616V742.072H544.105V787.438ZM544.105 695.788H496.616V650.422H544.105V695.788ZM544.105 604.138H496.616V558.771H544.105V604.138ZM544.105 512.488H496.616V467.121H544.105V512.488ZM544.105 420.838H496.616V375.471H544.105V420.838ZM544.105 329.187H496.616V283.821H544.105V329.187ZM592.068 329.187H576.318H544.595V283.821H576.318H592.068V329.187ZM640.031 329.187H592.543V283.821H640.031V329.187ZM687.995 329.187H672.244H640.522V283.821H672.244H687.995V329.187ZM735.958 329.187H688.469V283.821H735.958V329.187ZM783.921 329.187H768.171H736.448V283.821H768.171H783.921V329.187ZM831.869 329.187H784.38V283.821H831.869V329.187ZM879.832 329.187H864.081H832.359V283.821H864.081H879.832V329.187ZM927.795 329.187H880.306V283.821H927.795V329.187ZM975.758 329.187H960.008H928.269V283.821H959.992H975.742V329.187H975.758ZM1023.72 329.187H976.233V283.821H1023.72V329.187ZM1071.68 329.187H1055.93H1024.21V283.821H1055.93H1071.68V329.187ZM1119.63 329.187H1072.16V283.821H1119.63V329.187ZM1167.6 329.187H1151.84H1120.12V283.821H1151.84H1167.6V329.187ZM1215.56 329.187H1168.09V283.821H1215.56V329.187ZM1263.52 329.187H1247.77H1216.05V283.821H1247.77H1263.52V329.187ZM1311.49 329.187H1264V283.821H1311.47V329.187H1311.49ZM1343.68 329.187H1311.96V283.821H1343.68H1359.43V329.187H1343.68ZM1343.68 420.838H1311.96V375.471H1343.68H1359.43V420.838H1343.68ZM1343.68 512.488H1311.96V467.121H1343.68H1359.43V512.488H1343.68ZM1343.68 604.138H1311.96V558.771H1343.68H1359.43V604.138H1343.68ZM1343.68 695.788H1311.96V650.422H1343.68H1359.43V695.788H1343.68ZM1264 723.293V696.247H1311.47V723.293V741.613H1264V723.293ZM1216.03 723.293V696.247H1247.76H1263.52V723.293V741.613H1247.77H1216.05V723.293H1216.03ZM1168.09 723.293V696.247H1215.56V723.293V741.613H1168.09V723.293ZM1120.12 723.293V696.247H1151.84H1167.6V723.293V741.613H1151.84H1120.12V723.293ZM1072.16 723.293V696.247H1119.63V723.293V741.613H1072.16V723.293ZM1024.2 723.293V696.247H1055.92H1071.67V723.293V741.613H1055.92H1024.2V723.293ZM976.233 723.293V696.247H1023.72V723.293V741.613H976.233V723.293ZM928.269 723.293V696.247H959.992H975.742V723.293V741.613H959.992H928.269V723.293ZM880.322 723.293V696.247H927.795V723.293V741.613H880.322V723.293ZM832.359 723.293V696.247H864.081H879.832V723.293V741.613H864.081H832.359V723.293ZM784.396 723.293V696.247H831.869V723.293V741.613H784.396V723.293ZM736.432 723.293V696.247H768.155H783.905V723.293V741.613H768.155H736.432V723.293ZM688.469 723.293V696.247H735.958V723.293V741.613H688.469V723.293ZM640.506 723.293V696.247H672.228H687.979V723.293V741.613H672.228H640.506V723.293ZM592.558 723.293V696.247H640.031V723.293V741.613H592.558V723.293ZM576.318 650.422H592.068V695.788H576.318H544.595V650.422H576.318ZM576.318 558.771H592.068V604.138H576.318H544.595V558.771H576.318ZM576.318 467.121H592.068V512.488H576.318H544.595V467.121H576.318ZM576.318 375.471H592.068V420.838H576.318H544.595V375.471H576.318ZM640.031 356.692V375.012H592.558V356.692V329.646H640.031V356.692ZM687.995 356.692V375.012H672.244H640.522V356.692V329.646H672.244H687.995V356.692ZM735.958 356.692V375.012H688.469V356.692V329.646H735.958V356.692ZM783.921 356.692V375.012H768.171H736.448V356.692V329.646H768.171H783.921V356.692ZM831.869 356.692V375.012H784.396V356.692V329.646H831.869V356.692ZM879.832 356.692V375.012H864.081H832.359V356.692V329.646H864.081H879.832V356.692ZM927.795 356.692V375.012H880.322V356.692V329.646H927.795V356.692ZM975.758 356.692V375.012H960.008H928.269V356.692V329.646H959.992H975.742V356.692H975.758ZM1023.72 356.692V375.012H976.233V356.692V329.646H1023.72V356.692ZM1071.68 356.692V375.012H1055.93H1024.21V356.692V329.646H1055.93H1071.68V356.692ZM1119.63 356.692V375.012H1072.16V356.692V329.646H1119.63V356.692ZM1167.6 356.692V375.012H1151.84H1120.12V356.692V329.646H1151.84H1167.6V356.692ZM1215.56 356.692V375.012H1168.09V356.692V329.646H1215.56V356.692ZM1263.52 356.692V375.012H1247.77H1216.05V356.692V329.646H1247.77H1263.52V356.692ZM1264 375.471H1311.47V420.838H1264V375.471ZM1264 467.121H1311.47V512.488H1264V467.121ZM1264 558.771H1311.47V604.138H1264V558.771ZM1264 650.422H1311.47V695.788H1264V650.422ZM1216.03 650.422H1247.76H1263.52V695.788H1247.77H1216.05V650.422H1216.03ZM1168.09 650.422H1215.56V695.788H1168.09V650.422ZM1120.12 650.422H1151.84H1167.6V695.788H1151.84H1120.12V650.422ZM1072.16 650.422H1119.63V695.788H1072.16V650.422ZM1024.2 650.422H1055.92H1071.67V695.788H1055.92H1024.2V650.422ZM976.233 650.422H1023.72V695.788H976.233V650.422ZM928.269 650.422H959.992H975.742V695.788H959.992H928.269V650.422ZM880.322 650.422H927.811V695.788H880.322V650.422ZM832.359 650.422H864.081H879.832V695.788H864.081H832.359V650.422ZM784.396 650.422H831.884V695.788H784.396V650.422ZM736.432 650.422H768.155H783.905V695.788H768.155H736.432V650.422ZM688.469 650.422H735.958V695.788H688.469V650.422ZM640.506 650.422H672.228H687.979V695.788H672.228H640.506V650.422ZM640.031 695.788H592.543V650.422H640.031V695.788ZM640.031 604.138H592.543V558.771H640.031V604.138ZM640.031 512.488H592.543V467.121H640.031V512.488ZM640.031 420.838H592.543V375.471H640.031V420.838ZM687.995 420.838H672.244H640.522V375.471H672.244H687.995V420.838ZM735.958 420.838H688.469V375.471H735.958V420.838ZM783.921 420.838H768.171H736.448V375.471H768.171H783.921V420.838ZM831.869 420.838H784.38V375.471H831.869V420.838ZM879.832 420.838H864.081H832.359V375.471H864.081H879.832V420.838ZM927.795 420.838H880.306V375.471H927.795V420.838ZM975.758 420.838H960.008H928.269V375.471H959.992H975.742V420.838H975.758ZM1023.72 420.838H976.233V375.471H1023.72V420.838ZM1071.68 420.838H1055.93H1024.21V375.471H1055.93H1071.68V420.838ZM1119.63 420.838H1072.16V375.471H1119.63V420.838ZM1167.6 420.838H1151.84H1120.12V375.471H1151.84H1167.6V420.838ZM1215.56 420.838H1168.09V375.471H1215.56V420.838ZM1247.76 420.838H1216.03V375.471H1247.76H1263.52V420.838H1247.76ZM1247.76 512.488H1216.03V467.121H1247.76H1263.52V512.488H1247.76ZM1247.76 604.138H1216.03V558.771H1247.76H1263.52V604.138H1247.76ZM1168.09 631.643V604.596H1215.56V631.643V649.963H1168.09V631.643ZM1120.12 631.643V604.596H1151.84H1167.6V631.643V649.963H1151.84H1120.12V631.643ZM1072.16 631.643V604.596H1119.63V631.643V649.963H1072.16V631.643ZM1024.2 631.643V604.596H1055.92H1071.67V631.643V649.963H1055.92H1024.2V631.643ZM976.233 631.643V604.596H1023.72V631.643V649.963H976.233V631.643ZM928.269 631.643V604.596H959.992H975.742V631.643V649.963H959.992H928.269V631.643ZM880.322 631.643V604.596H927.795V631.643V649.963H880.322V631.643ZM832.359 631.643V604.596H864.081H879.832V631.643V649.963H864.081H832.359V631.643ZM784.396 631.643V604.596H831.869V631.643V649.963H784.396V631.643ZM736.432 631.643V604.596H768.155H783.905V631.643V649.963H768.155H736.432V631.643ZM688.469 631.643V604.596H735.958V631.643V649.963H688.469V631.643ZM672.244 558.771H687.995V604.138H672.244H640.522V558.771H672.244ZM672.244 467.121H687.995V512.488H672.244H640.522V467.121H672.244ZM735.958 448.342V466.663H688.469V448.342V421.296H735.958V448.342ZM783.921 448.342V466.663H768.171H736.448V448.342V421.296H768.171H783.921V448.342ZM831.869 448.342V466.663H784.396V448.342V421.296H831.869V448.342ZM879.832 448.342V466.663H864.081H832.359V448.342V421.296H864.081H879.832V448.342ZM927.795 448.342V466.663H880.322V448.342V421.296H927.795V448.342ZM975.758 448.342V466.663H960.008H928.269V448.342V421.296H959.992H975.742V448.342H975.758ZM1023.72 448.342V466.663H976.233V448.342V421.296H1023.72V448.342ZM1071.68 448.342V466.663H1055.93H1024.21V448.342V421.296H1055.93H1071.68V448.342ZM1119.63 448.342V466.663H1072.16V448.342V421.296H1119.63V448.342ZM1167.6 448.342V466.663H1151.84H1120.12V448.342V421.296H1151.84H1167.6V448.342ZM1168.09 467.121H1215.56V512.488H1168.09V467.121ZM1168.09 558.771H1215.56V604.138H1168.09V558.771ZM1120.12 558.771H1151.84H1167.6V604.138H1151.84H1120.12V558.771ZM1072.16 558.771H1119.63V604.138H1072.16V558.771ZM1024.2 558.771H1055.92H1071.67V604.138H1055.92H1024.2V558.771ZM976.233 558.771H1023.72V604.138H976.233V558.771ZM928.269 558.771H959.992H975.742V604.138H959.992H928.269V558.771ZM880.322 558.771H927.811V604.138H880.322V558.771ZM832.359 558.771H864.081H879.832V604.138H864.081H832.359V558.771ZM784.396 558.771H831.884V604.138H784.396V558.771ZM736.432 558.771H768.155H783.905V604.138H768.155H736.432V558.771ZM735.958 604.138H688.469V558.771H735.958V604.138ZM735.958 512.488H688.469V467.121H735.958V512.488ZM783.921 512.488H768.171H736.448V467.121H768.171H783.921V512.488ZM831.869 512.488H784.38V467.121H831.869V512.488ZM879.832 512.488H864.081H832.359V467.121H864.081H879.832V512.488ZM927.795 512.488H880.306V467.121H927.795V512.488ZM975.758 512.488H960.008H928.269V467.121H959.992H975.742V512.488H975.758ZM1023.72 512.488H976.233V467.121H1023.72V512.488ZM1071.68 512.488H1055.93H1024.21V467.121H1055.93H1071.68V512.488ZM1119.63 512.488H1072.16V467.121H1119.63V512.488ZM1151.84 512.488H1120.12V467.121H1151.84H1167.6V512.488H1151.84ZM1072.16 539.992V512.946H1119.63V539.992V558.313H1072.16V539.992ZM1024.2 539.992V512.946H1055.92H1071.67V539.992V558.313H1055.92H1024.2V539.992ZM976.233 539.992V512.946H1023.72V539.992V558.313H976.233V539.992ZM928.269 539.992V512.946H959.992H975.742V539.992V558.313H959.992H928.269V539.992ZM880.322 539.992V512.946H927.795V539.992V558.313H880.322V539.992ZM832.359 539.992V512.946H864.081H879.832V539.992V558.313H864.081H832.359V539.992ZM784.396 539.992V512.946H831.869V539.992V558.313H784.396V539.992ZM736.432 512.946H768.155H783.905V539.992V558.313H768.155H736.432V539.992V512.946ZM1167.6 558.313H1151.84H1120.12V539.992V512.946H1151.84H1167.6V539.992V558.313ZM688.469 512.946H735.958V539.992V558.313H688.469V539.992V512.946ZM1215.56 558.313H1168.09V539.992V512.946H1215.56V539.992V558.313ZM1215.56 466.663H1168.09V448.342V421.296H1215.56V448.342V466.663ZM640.506 421.296H672.228H687.979V448.342V466.663H672.228H640.506V448.342V421.296ZM640.506 512.946H672.228H687.979V539.992V558.313H672.228H640.506V539.992V512.946ZM640.506 604.596H672.228H687.979V631.643V649.963H672.228H640.506V631.643V604.596ZM1263.52 649.963H1247.77H1216.05V631.643V604.596H1247.77H1263.52V631.643V649.963ZM1263.52 558.313H1247.77H1216.05V539.992V512.946H1247.77H1263.52V539.992V558.313ZM1263.52 466.663H1247.77H1216.05V448.342V421.296H1247.77H1263.52V448.342V466.663ZM592.558 421.296H640.031V448.342V466.663H592.558V448.342V421.296ZM592.558 512.946H640.031V539.992V558.313H592.558V539.992V512.946ZM592.558 604.596H640.031V631.643V649.963H592.558V631.643V604.596ZM1311.49 649.963H1264V631.643V604.596H1311.47V631.643V649.963H1311.49ZM1311.49 558.313H1264V539.992V512.946H1311.47V539.992V558.313H1311.49ZM1311.49 466.663H1264V448.342V421.296H1311.47V448.342V466.663H1311.49ZM1311.49 375.012H1264V356.692V329.646H1311.47V356.692V375.012H1311.49ZM544.595 329.646H576.318H592.068V356.692V375.012H576.318H544.595V356.692V329.646ZM544.595 421.296H576.318H592.068V448.342V466.663H576.318H544.595V448.342V421.296ZM544.595 512.946H576.318H592.068V539.992V558.313H576.318H544.595V539.992V512.946ZM544.595 604.596H576.318H592.068V631.643V649.963H576.318H544.595V631.643V604.596ZM544.595 696.247H576.318H592.068V723.293V741.613H576.318H544.595V723.293V696.247ZM1359.43 741.613H1343.68H1311.96V723.293V696.247H1343.68H1359.43V723.293V741.613ZM1359.43 649.963H1343.68H1311.96V631.643V604.596H1343.68H1359.43V631.643V649.963ZM1359.43 558.313H1343.68H1311.96V539.992V512.946H1343.68H1359.43V539.992V558.313ZM1359.43 466.663H1343.68H1311.96V448.342V421.296H1343.68H1359.43V448.342V466.663ZM1359.43 375.012H1343.68H1311.96V356.692V329.646H1343.68H1359.43V356.692V375.012ZM496.632 329.646H544.105V356.692V375.012H496.632V356.692V329.646ZM496.632 421.296H544.105V448.342V466.663H496.632V448.342V421.296ZM496.632 512.946H544.105V539.992V558.313H496.632V539.992V512.946ZM496.632 604.596H544.105V631.643V649.963H496.632V631.643V604.596ZM496.632 696.247H544.105V723.293V741.613H496.632V723.293V696.247ZM1407.4 741.613H1359.92V723.293V696.247H1407.4V723.293V741.613ZM1407.4 649.963H1359.92V631.643V604.596H1407.4V631.643V649.963ZM1407.4 558.313H1359.92V539.992V512.946H1407.4V539.992V558.313ZM1407.4 466.663H1359.92V448.342V421.296H1407.4V448.342V466.663ZM1407.4 375.012H1359.92V356.692V329.646H1407.4V356.692V375.012ZM1407.4 283.362H1359.92V265.042V237.995H1407.4V265.042V283.362ZM448.669 237.995H480.391H496.142V265.042V283.362H480.391H448.669V265.042V237.995ZM448.669 329.646H480.391H496.142V356.692V375.012H480.391H448.669V356.692V329.646ZM448.669 421.296H480.391H496.142V448.342V466.663H480.391H448.669V448.342V421.296ZM448.669 512.946H480.391H496.142V539.992V558.313H480.391H448.669V539.992V512.946ZM448.669 604.596H480.391H496.142V631.643V649.963H480.391H448.669V631.643V604.596ZM448.669 696.247H480.391H496.142V723.293V741.613H480.391H448.669V723.293V696.247ZM448.669 787.897H480.391H496.142V814.943V833.263H480.391H448.669V814.943V787.897ZM1455.36 833.263H1439.61H1407.89V814.943V787.897H1439.61H1455.36V814.943V833.263ZM1455.36 741.613H1439.61H1407.89V723.293V696.247H1439.61H1455.36V723.293V741.613ZM1455.36 649.963H1439.61H1407.89V631.643V604.596H1439.61H1455.36V631.643V649.963ZM1455.36 558.313H1439.61H1407.89V539.992V512.946H1439.61H1455.36V539.992V558.313ZM1455.36 466.663H1439.61H1407.89V448.342V421.296H1439.61H1455.36V448.342V466.663ZM1455.36 375.012H1439.61H1407.89V356.692V329.646H1439.61H1455.36V356.692V375.012ZM1455.36 283.362H1439.61H1407.89V265.042V237.995H1439.61H1455.36V265.042V283.362ZM400.706 237.995H448.194V265.042V283.362H400.706V265.042V237.995ZM400.706 329.646H448.194V356.692V375.012H400.706V356.692V329.646ZM400.706 421.296H448.194V448.342V466.663H400.706V448.342V421.296ZM400.706 512.946H448.194V539.992V558.313H400.706V539.992V512.946ZM400.706 604.596H448.194V631.643V649.963H400.706V631.643V604.596ZM400.706 696.247H448.194V723.293V741.613H400.706V723.293V696.247ZM400.706 787.897H448.194V814.943V833.263H400.706V814.943V787.897ZM1503.32 833.263H1455.83V814.943V787.897H1503.32V814.943V833.263ZM1503.32 741.613H1455.83V723.293V696.247H1503.32V723.293V741.613ZM1503.32 649.963H1455.83V631.643V604.596H1503.32V631.643V649.963ZM1503.32 558.313H1455.83V539.992V512.946H1503.32V539.992V558.313ZM1503.32 466.663H1455.83V448.342V421.296H1503.32V448.342V466.663ZM1503.32 375.012H1455.83V356.692V329.646H1503.32V356.692V375.012ZM1503.32 283.362H1455.83V265.042V237.995H1503.32V265.042V283.362ZM1503.32 191.712H1455.83V173.391V146.345H1503.32V173.391V191.712ZM352.758 146.345H384.481H400.231V173.391V191.712H384.481H352.758V173.391V146.345ZM352.758 237.995H384.481H400.231V265.042V283.362H384.481H352.758V265.042V237.995ZM352.758 329.646H384.481H400.231V356.692V375.012H384.481H352.758V356.692V329.646ZM352.758 421.296H384.481H400.231V448.342V466.663H384.481H352.758V448.342V421.296ZM352.758 512.946H384.481H400.231V539.992V558.313H384.481H352.758V539.992V512.946ZM352.758 604.596H384.481H400.231V631.643V649.963H384.481H352.758V631.643V604.596ZM352.758 696.247H384.481H400.231V723.293V741.613H384.481H352.758V723.293V696.247ZM352.758 787.897H384.481H400.231V814.943V833.263H384.481H352.758V814.943V787.897ZM352.758 879.547H384.481H400.231V906.593V924.914H384.481H352.758V906.593V879.547ZM1551.29 924.914H1535.52H1503.8V906.593V879.547H1535.52H1551.27V906.593V924.914H1551.29ZM1551.29 833.263H1535.52H1503.8V814.943V787.897H1535.52H1551.27V814.943V833.263H1551.29ZM1551.29 741.613H1535.52H1503.8V723.293V696.247H1535.52H1551.27V723.293V741.613H1551.29ZM1551.29 649.963H1535.52H1503.8V631.643V604.596H1535.52H1551.27V631.643V649.963H1551.29ZM1551.29 558.313H1535.52H1503.8V539.992V512.946H1535.52H1551.27V539.992V558.313H1551.29ZM1551.29 466.663H1535.52H1503.8V448.342V421.296H1535.52H1551.27V448.342V466.663H1551.29ZM1551.29 375.012H1535.52H1503.8V356.692V329.646H1535.52H1551.27V356.692V375.012H1551.29ZM1551.29 283.362H1535.52H1503.8V265.042V237.995H1535.52H1551.27V265.042V283.362H1551.29ZM1551.29 191.712H1535.52H1503.8V173.391V146.345H1535.52H1551.27V173.391V191.712H1551.29ZM304.795 146.345H352.284V173.391V191.712H304.795V173.391V146.345ZM304.795 237.995H352.284V265.042V283.362H304.795V265.042V237.995ZM304.795 329.646H352.284V356.692V375.012H304.795V356.692V329.646ZM304.795 421.296H352.284V448.342V466.663H304.795V448.342V421.296ZM304.795 512.946H352.284V539.992V558.313H304.795V539.992V512.946ZM304.795 604.596H352.284V631.643V649.963H304.795V631.643V604.596ZM304.795 696.247H352.284V723.293V741.613H304.795V723.293V696.247ZM304.795 787.897H352.284V814.943V833.263H304.795V814.943V787.897ZM304.795 879.547H352.284V906.593V924.914H304.795V906.593V879.547ZM1599.23 924.914H1551.76V906.593V879.547H1599.23V906.593V924.914ZM1599.23 833.263H1551.76V814.943V787.897H1599.23V814.943V833.263ZM1599.23 741.613H1551.76V723.293V696.247H1599.23V723.293V741.613ZM1599.23 649.963H1551.76V631.643V604.596H1599.23V631.643V649.963ZM1599.23 558.313H1551.76V539.992V512.946H1599.23V539.992V558.313ZM1599.23 466.663H1551.76V448.342V421.296H1599.23V448.342V466.663ZM1599.23 375.012H1551.76V356.692V329.646H1599.23V356.692V375.012ZM1599.23 283.362H1551.76V265.042V237.995H1599.23V265.042V283.362ZM1599.23 191.712H1551.76V173.391V146.345H1599.23V173.391V191.712ZM1599.23 100.062H1551.76V81.7412V54.695H1599.23V81.7412V100.062ZM256.832 54.695H288.554H304.305V81.7412V100.062H288.554H256.832V81.7412V54.695ZM256.832 146.345H288.554H304.305V173.391V191.712H288.554H256.832V173.391V146.345ZM256.832 237.995H288.554H304.305V265.042V283.362H288.554H256.832V265.042V237.995ZM256.832 329.646H288.554H304.305V356.692V375.012H288.554H256.832V356.692V329.646ZM256.832 421.296H288.554H304.305V448.342V466.663H288.554H256.832V448.342V421.296ZM256.832 512.946H288.554H304.305V539.992V558.313H288.554H256.832V539.992V512.946ZM256.832 604.596H288.554H304.305V631.643V649.963H288.554H256.832V631.643V604.596ZM256.832 696.247H288.554H304.305V723.293V741.613H288.554H256.832V723.293V696.247ZM256.832 787.897H288.554H304.305V814.943V833.263H288.554H256.832V814.943V787.897ZM256.832 879.547H288.554H304.305V906.593V924.914H288.554H256.832V906.593V879.547ZM256.832 971.197H288.554H304.305V998.243V1016.56H288.554H256.832V998.243V971.197ZM1647.2 1016.56H1631.45H1599.72V998.243V971.197H1631.45H1647.2V998.243V1016.56ZM1647.2 924.914H1631.45H1599.72V906.593V879.547H1631.45H1647.2V906.593V924.914ZM1647.2 833.263H1631.45H1599.72V814.943V787.897H1631.45H1647.2V814.943V833.263ZM1647.2 741.613H1631.45H1599.72V723.293V696.247H1631.45H1647.2V723.293V741.613ZM1647.2 649.963H1631.45H1599.72V631.643V604.596H1631.45H1647.2V631.643V649.963ZM1647.2 558.313H1631.45H1599.72V539.992V512.946H1631.45H1647.2V539.992V558.313ZM1647.2 466.663H1631.45H1599.72V448.342V421.296H1631.45H1647.2V448.342V466.663ZM1647.2 375.012H1631.45H1599.72V356.692V329.646H1631.45H1647.2V356.692V375.012ZM1647.2 283.362H1631.45H1599.72V265.042V237.995H1631.45H1647.2V265.042V283.362ZM1647.2 191.712H1631.45H1599.72V173.391V146.345H1631.45H1647.2V173.391V191.712ZM1647.2 100.062H1631.45H1599.72V81.7412V54.695H1631.45H1647.2V81.7412V100.062ZM208.868 54.695H256.341V81.7412V100.062H208.868V81.7412V54.695ZM208.868 146.345H256.341V173.391V191.712H208.868V173.391V146.345ZM208.868 237.995H256.341V265.042V283.362H208.868V265.042V237.995ZM208.868 329.646H256.341V356.692V375.012H208.868V356.692V329.646ZM208.868 421.296H256.341V448.342V466.663H208.868V448.342V421.296ZM208.868 512.946H256.341V539.992V558.313H208.868V539.992V512.946ZM208.868 604.596H256.341V631.643V649.963H208.868V631.643V604.596ZM208.868 696.247H256.341V723.293V741.613H208.868V723.293V696.247ZM208.868 787.897H256.341V814.943V833.263H208.868V814.943V787.897ZM208.868 879.547H256.341V906.593V924.914H208.868V906.593V879.547ZM208.868 971.197H256.341V998.243V1016.56H208.868V998.243V971.197ZM1695.16 1016.56H1647.67V998.243V971.197H1695.16V998.243V1016.56ZM1695.16 924.914H1647.67V906.593V879.547H1695.16V906.593V924.914ZM1695.16 833.263H1647.67V814.943V787.897H1695.16V814.943V833.263ZM1695.16 741.613H1647.67V723.293V696.247H1695.16V723.293V741.613ZM1695.16 649.963H1647.67V631.643V604.596H1695.16V631.643V649.963ZM1695.16 558.313H1647.67V539.992V512.946H1695.16V539.992V558.313ZM1695.16 466.663H1647.67V448.342V421.296H1695.16V448.342V466.663ZM1695.16 375.012H1647.67V356.692V329.646H1695.16V356.692V375.012ZM1695.16 283.362H1647.67V265.042V237.995H1695.16V265.042V283.362ZM1695.16 191.712H1647.67V173.391V146.345H1695.16V173.391V191.712ZM1695.16 100.062H1647.67V81.7412V54.695H1695.16V81.7412V100.062ZM1695.16 8.41153H1647.67V-9.90904V-36.9552H1695.16V-9.90904V8.41153ZM160.905 -36.9552H192.628H208.378V-9.90904V8.41153H192.628H160.905V-9.90904V-36.9552ZM160.905 54.695H192.628H208.378V81.7412V100.062H192.628H160.905V81.7412V54.695ZM160.905 146.345H192.628H208.378V173.391V191.712H192.628H160.905V173.391V146.345ZM160.905 237.995H192.628H208.378V265.042V283.362H192.628H160.905V265.042V237.995ZM160.905 329.646H192.628H208.378V356.692V375.012H192.628H160.905V356.692V329.646ZM160.905 421.296H192.628H208.378V448.342V466.663H192.628H160.905V448.342V421.296ZM160.905 512.946H192.628H208.378V539.992V558.313H192.628H160.905V539.992V512.946ZM160.905 604.596H192.628H208.378V631.643V649.963H192.628H160.905V631.643V604.596ZM160.905 696.247H192.628H208.378V723.293V741.613H192.628H160.905V723.293V696.247ZM160.905 787.897H192.628H208.378V814.943V833.263H192.628H160.905V814.943V787.897ZM160.905 879.547H192.628H208.378V906.593V924.914H192.628H160.905V906.593V879.547ZM160.905 971.197H192.628H208.378V998.243V1016.56H192.628H160.905V998.243V971.197ZM160.905 1062.85H192.628H208.378V1089.89V1108.21H192.628H160.905V1089.89V1062.85ZM1743.12 1108.21H1727.37H1695.65V1089.89V1062.85H1727.37H1743.12V1089.89V1108.21ZM1743.12 1016.56H1727.37H1695.65V998.243V971.197H1727.37H1743.12V998.243V1016.56ZM1743.12 924.914H1727.37H1695.65V906.593V879.547H1727.37H1743.12V906.593V924.914ZM1743.12 833.263H1727.37H1695.65V814.943V787.897H1727.37H1743.12V814.943V833.263ZM1743.12 741.613H1727.37H1695.65V723.293V696.247H1727.37H1743.12V723.293V741.613ZM1743.12 649.963H1727.37H1695.65V631.643V604.596H1727.37H1743.12V631.643V649.963ZM1743.12 558.313H1727.37H1695.65V539.992V512.946H1727.37H1743.12V539.992V558.313ZM1743.12 466.663H1727.37H1695.65V448.342V421.296H1727.37H1743.12V448.342V466.663ZM1743.12 375.012H1727.37H1695.65V356.692V329.646H1727.37H1743.12V356.692V375.012ZM1743.12 283.362H1727.37H1695.65V265.042V237.995H1727.37H1743.12V265.042V283.362ZM1743.12 191.712H1727.37H1695.65V173.391V146.345H1727.37H1743.12V173.391V191.712ZM1743.12 100.062H1727.37H1695.65V81.7412V54.695H1727.37H1743.12V81.7412V100.062ZM1743.12 8.41153H1727.37H1695.65V-9.90904V-36.9552H1727.37H1743.12V-9.90904V8.41153ZM112.942 -36.9552H160.415V-9.90904V8.41153H112.942V-9.90904V-36.9552ZM112.942 54.695H160.415V81.7412V100.062H112.942V81.7412V54.695ZM112.942 146.345H160.415V173.391V191.712H112.942V173.391V146.345ZM112.942 237.995H160.415V265.042V283.362H112.942V265.042V237.995ZM112.942 329.646H160.415V356.692V375.012H112.942V356.692V329.646ZM112.942 421.296H160.415V448.342V466.663H112.942V448.342V421.296ZM112.942 512.946H160.415V539.992V558.313H112.942V539.992V512.946ZM112.942 604.596H160.415V631.643V649.963H112.942V631.643V604.596ZM112.942 696.247H160.415V723.293V741.613H112.942V723.293V696.247ZM112.942 787.897H160.415V814.943V833.263H112.942V814.943V787.897ZM112.942 879.547H160.415V906.593V924.914H112.942V906.593V879.547ZM112.942 971.197H160.415V998.243V1016.56H112.942V998.243V971.197ZM112.942 1062.85H160.415V1089.89V1108.21H112.942V1089.89V1062.85ZM1791.09 1108.21H1743.61V1089.89V1062.85H1791.09V1089.89V1108.21ZM1791.09 1016.56H1743.61V998.243V971.197H1791.09V998.243V1016.56ZM1791.09 924.914H1743.61V906.593V879.547H1791.09V906.593V924.914ZM1791.09 833.263H1743.61V814.943V787.897H1791.09V814.943V833.263ZM1791.09 741.613H1743.61V723.293V696.247H1791.09V723.293V741.613ZM1791.09 649.963H1743.61V631.643V604.596H1791.09V631.643V649.963ZM1791.09 558.313H1743.61V539.992V512.946H1791.09V539.992V558.313ZM1791.09 466.663H1743.61V448.342V421.296H1791.09V448.342V466.663ZM1791.09 375.012H1743.61V356.692V329.646H1791.09V356.692V375.012ZM1791.09 283.362H1743.61V265.042V237.995H1791.09V265.042V283.362ZM1791.09 191.712H1743.61V173.391V146.345H1791.09V173.391V191.712ZM1791.09 100.062H1743.61V81.7412V54.695H1791.09V81.7412V100.062ZM1791.09 8.41153H1743.61V-9.90904V-36.9552H1791.09V-9.90904V8.41153ZM1791.09 -83.2387H1743.61V-101.559V-128.605H1791.09V-101.559V-83.2387ZM64.9945 -128.605H96.717H112.468V-101.559V-83.2387H96.717H64.9945V-101.559V-128.605ZM64.9945 -36.9552H96.717H112.468V-9.90904V8.41153H96.717H64.9945V-9.90904V-36.9552ZM64.9945 54.695H96.717H112.468V81.7412V100.062H96.717H64.9945V81.7412V54.695ZM64.9945 146.345H96.717H112.468V173.391V191.712H96.717H64.9945V173.391V146.345ZM64.9945 237.995H96.717H112.468V265.042V283.362H96.717H64.9945V265.042V237.995ZM64.9945 329.646H96.717H112.468V356.692V375.012H96.717H64.9945V356.692V329.646ZM64.9945 421.296H96.717H112.468V448.342V466.663H96.717H64.9945V448.342V421.296ZM64.9945 512.946H96.717H112.468V539.992V558.313H96.717H64.9945V539.992V512.946ZM64.9945 604.596H96.717H112.468V631.643V649.963H96.717H64.9945V631.643V604.596ZM64.9945 696.247H96.717H112.468V723.293V741.613H96.717H64.9945V723.293V696.247ZM64.9945 787.897H96.717H112.468V814.943V833.263H96.717H64.9945V814.943V787.897ZM64.9945 879.547H96.717H112.468V906.593V924.914H96.717H64.9945V906.593V879.547ZM64.9945 971.197H96.717H112.468V998.243V1016.56H96.717H64.9945V998.243V971.197ZM64.9945 1062.85H96.717H112.468V1089.89V1108.21H96.717H64.9945V1089.89V1062.85ZM64.9945 1154.5H96.717H112.468V1181.54V1199.86H96.717H64.9945V1181.54V1154.5ZM1839.05 1199.86H1823.3H1791.58V1181.54V1154.5H1823.3H1839.05V1181.54V1199.86ZM1839.05 1108.21H1823.3H1791.58V1089.89V1062.85H1823.3H1839.05V1089.89V1108.21ZM1839.05 1016.56H1823.3H1791.58V998.243V971.197H1823.3H1839.05V998.243V1016.56ZM1839.05 924.914H1823.3H1791.58V906.593V879.547H1823.3H1839.05V906.593V924.914ZM1839.05 833.263H1823.3H1791.58V814.943V787.897H1823.3H1839.05V814.943V833.263ZM1839.05 741.613H1823.3H1791.58V723.293V696.247H1823.3H1839.05V723.293V741.613ZM1839.05 649.963H1823.3H1791.58V631.643V604.596H1823.3H1839.05V631.643V649.963ZM1839.05 558.313H1823.3H1791.58V539.992V512.946H1823.3H1839.05V539.992V558.313ZM1839.05 466.663H1823.3H1791.58V448.342V421.296H1823.3H1839.05V448.342V466.663ZM1839.05 375.012H1823.3H1791.58V356.692V329.646H1823.3H1839.05V356.692V375.012ZM1839.05 283.362H1823.3H1791.58V265.042V237.995H1823.3H1839.05V265.042V283.362ZM1839.05 191.712H1823.3H1791.58V173.391V146.345H1823.3H1839.05V173.391V191.712ZM1839.05 100.062H1823.3H1791.58V81.7412V54.695H1823.3H1839.05V81.7412V100.062ZM1839.05 8.41153H1823.3H1791.58V-9.90904V-36.9552H1823.3H1839.05V-9.90904V8.41153ZM1839.05 -83.2387H1823.3H1791.58V-101.559V-128.605H1823.3H1839.05V-101.559V-83.2387ZM1823.28 -174.431H1839.03V-129.064H1823.28H1791.56V-174.431H1823.28ZM1919.21 -174.431V-174.889H1887.49V-193.209H1887.01V-174.889H1839.54V-193.209H1839.06V-174.889H1823.31H1791.59V-193.209H1791.12V-174.889H1743.64V-193.209H1743.17V-174.889H1727.42H1695.7V-193.209H1695.22V-174.889H1647.73V-193.209H1647.26V-174.889H1631.51H1599.79V-193.209H1599.31V-174.889H1551.84V-193.209H1551.36V-174.889H1535.52H1503.8V-193.209H1503.32V-174.889H1455.83V-193.209H1455.36V-174.889H1439.61H1407.89V-193.209H1407.41V-174.889H1359.94V-193.209H1359.46V-174.889H1343.71H1311.99V-193.209H1311.52V-174.889H1264V-193.209H1263.52V-174.889H1247.77H1216.05V-193.209H1215.57V-174.889H1168.1V-193.209H1167.63V-174.889H1151.88H1120.15V-193.209H1119.68V-174.889H1072.21V-193.209H1071.73V-174.889H1055.98H1024.26V-193.209H1023.78V-174.889H976.296V-193.209H975.821V-174.889H960.071H928.269V-193.209H927.795V-174.889H880.322V-193.209H879.848V-174.889H864.097H832.375V-193.209H831.9V-174.889H784.427V-193.209H783.953V-174.889H768.202H736.48V-193.209H736.005V-174.889H688.517V-193.209H688.042V-174.889H672.292H640.569V-193.209H640.095V-174.889H592.622V-193.209H592.147V-174.889H576.397H544.674V-193.209H544.2V-174.889H496.727V-193.209H496.252V-174.889H480.502H448.779V-193.209H448.305V-174.889H400.816V-193.209H400.342V-174.889H384.591H352.869V-193.209H352.394V-174.889H304.906V-193.209H304.431V-174.889H288.681H256.958V-193.209H256.484V-174.889H209.011V-193.209H208.536V-174.889H192.786H161.063V-193.209H160.589V-174.889H112.942V-193.209H112.468V-174.889H96.717H64.9945V-193.209H64.5201V-174.889H17.0313V-193.209H16.5569V-174.889H0.790527V-174.431H16.5411V-129.064H0.790527V-128.605H16.5411V-101.559V-83.2387H0.790527V-82.7803H16.5411V-37.4136H0.790527V-36.9552H16.5411V-9.90904V8.41153H0.790527V8.86993H16.5411V54.2366H0.790527V54.695H16.5411V81.7412V100.062H0.790527V100.52H16.5411V145.887H0.790527V146.345H16.5411V173.391V191.712H0.790527V192.17H16.5411V237.537H0.790527V237.995H16.5411V265.042V283.362H0.790527V283.821H16.5411V329.187H0.790527V329.646H16.5411V356.692V375.012H0.790527V375.471H16.5411V420.838H0.790527V421.296H16.5411V448.342V466.663H0.790527V467.121H16.5411V512.488H0.790527V512.946H16.5411V539.992V558.313H0.790527V558.771H16.5411V604.138H0.790527V604.596H16.5411V631.643V649.963H0.790527V650.422H16.5411V695.788H0.790527V696.247H16.5411V723.293V741.613H0.790527V742.072H16.5411V787.438H0.790527V787.897H16.5411V814.943V833.263H0.790527V833.722H16.5411V879.089H0.790527V879.547H16.5411V906.593V924.914H0.790527V925.372H16.5411V970.739H0.790527V971.197H16.5411V998.243V1016.56H0.790527V1017.02H16.5411V1062.39H0.790527V1062.85H16.5411V1089.89V1108.21H0.790527V1108.67H16.5411V1154.04H0.790527V1154.5H16.5411V1181.54V1199.86H0.790527V1200.32H16.5411V1245.69H0.790527V1246.15H16.5411V1273.19H17.0155V1246.15H64.5043V1273.19H64.9787V1246.15H96.7012H112.452V1273.19H112.926V1246.15H160.399V1273.19H160.874V1246.15H192.596H208.347V1273.19H208.821V1246.15H256.294V1273.19H256.768V1246.15H288.491H304.241V1273.19H304.716V1246.15H352.205V1273.19H352.679V1246.15H384.401H400.152V1273.19H400.626V1246.15H448.115V1273.19H448.59V1246.15H480.312H496.063V1273.19H496.537V1246.15H544.01V1273.19H544.484V1246.15H576.207H591.957V1273.19H592.432V1246.15H639.905V1273.19H640.379V1246.15H672.102H687.852V1273.19H688.327V1246.15H735.816V1273.19H736.29V1246.15H768.012H783.763V1273.19H784.237V1246.15H831.71V1273.19H832.185V1246.15H863.907H879.658V1273.19H880.132V1246.15H927.605V1273.19H928.08V1246.15H959.802H975.553V1273.19H976.027V1246.15H1023.52V1273.19H1023.99V1246.15H1055.71H1071.46V1273.19H1071.94V1246.15H1119.41V1273.19H1119.89V1246.15H1151.61H1167.36V1273.19H1167.83V1246.15H1215.31V1273.19H1215.78V1246.15H1247.5H1263.52V1273.19H1264V1246.15H1311.47V1273.19H1311.94V1246.15H1343.67H1359.42V1273.19H1359.89V1246.15H1407.36V1273.19H1407.84V1246.15H1439.56H1455.31V1273.19H1455.79V1246.15H1503.27V1273.19H1503.75V1246.15H1535.52H1551.27V1273.19H1551.74V1246.15H1599.22V1273.19H1599.69V1246.15H1631.41H1647.16V1273.19H1647.64V1246.15H1695.13V1273.19H1695.6V1246.15H1727.32H1743.08V1273.19H1743.55V1246.15H1791.02V1273.19H1791.5V1246.15H1823.22H1838.97V1273.19H1839.44V1246.15H1886.92V1273.19H1887.39V1246.15H1919.11V1245.69H1887.39V1200.32H1919.11V1199.86H1887.39V1181.54V1154.5H1919.11V1154.04H1887.39V1108.67H1919.11V1108.21H1887.39V1089.89V1062.85H1919.11V1062.39H1887.39V1017.02H1919.11V1016.56H1887.39V998.243V971.197H1919.11V970.739H1887.39V925.372H1919.11V924.914H1887.39V906.593V879.547H1919.11V879.089H1887.39V833.722H1919.11V833.263H1887.39V814.943V787.897H1919.11V787.438H1887.39V742.072H1919.11V741.613H1887.39V723.293V696.247H1919.11V695.788H1887.39V650.422H1919.11V649.963H1887.39V631.643V604.596H1919.11V604.138H1887.39V558.771H1919.11V558.313H1887.39V539.992V512.946H1919.11V512.488H1887.39V467.121H1919.11V466.663H1887.39V448.342V421.296H1919.11V420.838H1887.39V375.471H1919.11V375.012H1887.39V356.692V329.646H1919.11V329.187H1887.39V283.821H1919.11V283.362H1887.39V265.042V237.995H1919.11V237.537H1887.39V192.17H1919.11V191.712H1887.39V173.391V146.345H1919.11V145.887H1887.39V100.52H1919.11V100.062H1887.39V81.7412V54.695H1919.11V54.2366H1887.39V8.86993H1919.11V8.41153H1887.39V-9.90904V-36.9552H1919.11V-37.4136H1887.39V-82.7803H1919.11V-83.2387H1887.39V-101.559V-128.605H1919.11V-129.064H1887.39V-174.431H1919.21Z" fill="white" stroke="white" stroke-miterlimit="10"/>
</g>
</g>
<defs>
<clipPath id="clip0_14_506">
<rect width="1920" height="1080" fill="white"/>
</clipPath>
<clipPath id="clip1_14_506">
<rect width="1920" height="1468" fill="white" transform="translate(0 -194)"/>
</clipPath>
</defs>
</svg>
