<svg width="54" height="57" viewBox="0 0 54 57" fill="none" xmlns="http://www.w3.org/2000/svg">
<g clip-path="url(#clip0_82_15415)">
<mask id="mask0_82_15415" style="mask-type:luminance" maskUnits="userSpaceOnUse" x="0" y="0" width="54" height="57">
<path d="M54 0H0V57H54V0Z" fill="white"/>
</mask>
<g mask="url(#mask0_82_15415)">
<path d="M23.8621 2.81255C23.4837 3.03041 23.165 3.32749 22.926 3.68399C22.0894 4.95154 22.4479 6.6548 23.7227 7.48663C24.9577 8.29865 26.7305 7.94216 27.5471 6.67461C27.9455 6.06064 28.0849 5.32784 27.9455 4.61485C27.8061 3.90185 27.3679 3.28788 26.7504 2.87197C25.8739 2.33722 24.7784 2.29761 23.8621 2.81255ZM27.8658 9.70484C26.1528 10.6951 24.0613 10.6357 22.3881 9.5662C19.978 8.00157 19.2808 4.77329 20.8544 2.37683C21.2926 1.70345 21.9101 1.10929 22.6272 0.713178C24.3402 -0.277093 26.4317 -0.217677 28.1049 0.851816C29.2801 1.60442 30.0768 2.77294 30.3756 4.13952C30.6744 5.50609 30.3955 6.89247 29.6386 8.06099C29.1805 8.73437 28.563 9.30873 27.8658 9.70484Z" fill="black"/>
</g>
<mask id="mask1_82_15415" style="mask-type:luminance" maskUnits="userSpaceOnUse" x="0" y="0" width="54" height="57">
<path d="M54 0H0V57H54V0Z" fill="white"/>
</mask>
<g mask="url(#mask1_82_15415)">
<path d="M13.0671 46.9191C12.5094 47.236 11.7923 47.0775 11.4338 46.523C11.0553 45.9486 11.2147 45.196 11.7923 44.8197L52.0882 18.4785C52.6658 18.1022 53.4227 18.2607 53.8012 18.835C54.1796 19.4094 54.0203 20.162 53.4426 20.5383L13.1269 46.8993C13.107 46.8993 13.0871 46.9191 13.0671 46.9191Z" fill="black"/>
</g>
<mask id="mask2_82_15415" style="mask-type:luminance" maskUnits="userSpaceOnUse" x="0" y="0" width="54" height="57">
<path d="M54 0H0V57H54V0Z" fill="white"/>
</mask>
<g mask="url(#mask2_82_15415)">
<path d="M1.85157 40.185C1.45319 40.4028 0.975136 40.4028 0.55684 40.1454C-0.000887385 39.7889 -0.180157 39.0164 0.198301 38.4619L14.6195 16.4581C14.9781 15.8837 15.735 15.7253 16.3126 16.1016C16.8903 16.4779 17.0496 17.2305 16.6712 17.8048L2.26986 39.7889C2.15035 39.9671 2.01092 40.0859 1.85157 40.185Z" fill="black"/>
</g>
<mask id="mask3_82_15415" style="mask-type:luminance" maskUnits="userSpaceOnUse" x="0" y="0" width="54" height="57">
<path d="M54 0H0V57H54V0Z" fill="white"/>
</mask>
<g mask="url(#mask3_82_15415)">
<path d="M45.5746 51.4941C45.4551 51.5535 45.3356 51.6129 45.1961 51.6327L17.9272 56.9603C17.2699 57.099 16.6126 56.6633 16.4731 55.9899C16.3337 55.3363 16.7719 54.6827 17.4492 54.5441L44.7181 49.1966C45.3754 49.058 46.0327 49.4937 46.1721 50.1671C46.2717 50.7216 46.0128 51.2366 45.5746 51.4941Z" fill="black"/>
</g>
</g>
<defs>
<clipPath id="clip0_82_15415">
<rect width="54" height="57" fill="white"/>
</clipPath>
</defs>
</svg>
