<svg width="259" height="465" viewBox="0 0 259 465" fill="none" xmlns="http://www.w3.org/2000/svg">
<g clip-path="url(#clip0_13_322)">
<path d="M25.7137 435.203L21.4513 444.055C21.1564 444.729 20.9458 445.443 20.7892 446.169C20.5095 447.458 20.6731 448.813 20.9969 450.082C21.2886 451.201 21.685 452.935 22.8996 453.401C24.0151 454.042 25.6299 453.277 26.6812 452.819C27.8869 452.287 29.036 451.564 29.8875 450.535C30.3336 449.979 30.7788 449.362 31.1098 448.706L35.3722 439.854L35.5926 439.396L25.922 434.74L25.7016 435.197L25.7137 435.203Z" fill="#0068FF"/>
<path d="M30.7575 437.083L24.7119 434.172C24.194 433.922 23.6378 433.506 23.2841 433.039C22.6619 432.205 23.0291 431.566 23.3632 430.718C23.8298 429.534 24.176 428.291 24.5525 427.078C25.4314 424.267 26.2322 421.433 26.7091 418.532C27.5707 413.354 27.4684 408.083 28.0788 402.903C28.567 398.746 29.1626 394.582 30.0402 390.48C30.7277 387.266 31.4541 383.446 33.4708 380.768C33.4708 380.768 30.7156 379.619 32.2256 377.038L201.052 26.4413L223.331 37.1698L245.611 47.8983L76.7906 398.483C75.7142 401.273 73.0982 399.835 73.0982 399.835C72.2679 403.1 69.7231 406.043 67.6444 408.573C64.9844 411.817 62.1006 414.879 59.1556 417.852C55.4805 421.572 51.3013 424.767 47.7902 428.669C45.82 430.851 44.0981 433.256 42.4543 435.683C41.7406 436.734 40.9849 437.78 40.3497 438.883C39.8951 439.673 39.6243 440.359 38.5846 440.392C38.011 440.413 37.3388 440.237 36.8089 439.982C36.8031 439.994 30.7575 437.083 30.7575 437.083Z" fill="white" stroke="#0068FF" stroke-width="3" stroke-miterlimit="10"/>
<path d="M223.337 37.1578L201.045 26.4235L201.289 25.9177L203.545 21.2329C203.545 21.2329 204.509 18.9229 206.364 19.816L208.483 20.8366L216.312 4.57852C216.312 4.57852 217.465 2.52274 219.236 3.77578L235.614 11.6627L251.993 19.5496C254.076 20.1523 253.188 22.3357 253.188 22.3357L245.359 38.5938L247.479 39.6144C249.345 40.5133 248.128 42.7015 248.128 42.7015L245.872 47.3863L245.629 47.8921L223.337 37.1578Z" fill="#0068FF" stroke="#0068FF" stroke-width="3" stroke-miterlimit="10"/>
<path d="M40.0906 437.942L24.266 430.322" stroke="#0068FF" stroke-miterlimit="10"/>
<path d="M244.624 38.2101L209.242 21.172" stroke="white" stroke-miterlimit="10"/>
<path d="M72.3748 398.428L34.2465 380.067" stroke="#0068FF" stroke-miterlimit="10"/>
<path d="M78.7727 391.871L36.1644 371.354" stroke="#0068FF" stroke-miterlimit="10"/>
</g>
<defs>
<clipPath id="clip0_13_322">
<rect width="50.8197" height="491.008" fill="white" transform="translate(45.7876 464.438) rotate(-154.287)"/>
</clipPath>
</defs>
</svg>
