<svg width="725" height="889" viewBox="0 0 725 889" fill="none" xmlns="http://www.w3.org/2000/svg">
<g clip-path="url(#clip0_2_151)">
<path d="M40.6856 927.641L90.4271 782.585H635.588L685.33 927.641H40.6856Z" fill="#0068FF" fill-opacity="0.6" stroke="#0068FF" stroke-width="3"/>
</g>
<g clip-path="url(#clip1_2_151)">
<path d="M589.396 0.447449H205.299V298.128H589.396V0.447449Z" fill="white" stroke="#0068FF" stroke-width="3" stroke-miterlimit="10"/>
<path d="M559.502 34.937H235.175V298.128H559.502V34.937Z" fill="#0068FF"/>
<path d="M644.57 472.437H630.803C622.311 472.437 615.374 465.492 615.374 456.991C615.374 448.489 622.311 441.545 630.803 441.545H644.57C653.063 441.545 660 448.489 660 456.991C660 465.492 653.063 472.437 644.57 472.437Z" fill="#0068FF"/>
<path d="M92.1965 472.437H78.4296C69.9371 472.437 63 465.492 63 456.991C63 448.489 69.9371 441.545 78.4296 441.545H92.1965C100.689 441.545 107.626 448.489 107.626 456.991C107.608 465.492 100.671 472.437 92.1965 472.437Z" fill="#0068FF"/>
<path d="M104.73 316.473C104.73 316.473 101.762 298.146 123.038 298.146H614.408C614.408 298.146 637.669 296.66 637.669 328.357V765.75C637.669 765.75 639.654 797.948 610.457 797.948H212.111C212.111 797.948 141.346 812.803 97.8105 797.948C97.8105 797.948 86.9222 795.478 87.9055 775.164V427.423C87.9055 427.423 86.4216 407.61 103.746 408.594L104.73 316.473Z" fill="white" stroke="#0068FF" stroke-width="3" stroke-miterlimit="10"/>
<path d="M404.955 793.939C513.069 793.939 600.713 706.202 600.713 597.973C600.713 489.745 513.069 402.008 404.955 402.008C296.841 402.008 209.197 489.745 209.197 597.973C209.197 706.202 296.841 793.939 404.955 793.939Z" stroke="#0068FF" stroke-miterlimit="10"/>
<path d="M404.955 769.598C499.64 769.598 576.397 692.759 576.397 597.973C576.397 503.188 499.64 426.349 404.955 426.349C310.27 426.349 233.513 503.188 233.513 597.973C233.513 692.759 310.27 769.598 404.955 769.598Z" stroke="#0068FF" stroke-width="2.5" stroke-miterlimit="10"/>
<path d="M404.955 749.731C488.68 749.731 556.552 681.787 556.552 597.973C556.552 514.16 488.68 446.216 404.955 446.216C321.231 446.216 253.358 514.16 253.358 597.973C253.358 681.787 321.231 749.731 404.955 749.731Z" stroke="#0068FF" stroke-width="2.5" stroke-miterlimit="10"/>
<path d="M404.955 730.383C478.005 730.383 537.224 671.101 537.224 597.973C537.224 524.846 478.005 465.564 404.955 465.564C331.905 465.564 272.686 524.846 272.686 597.973C272.686 671.101 331.905 730.383 404.955 730.383Z" fill="#0068FF"/>
<path d="M181.306 398.589H129.85C124.54 398.589 120.195 394.24 120.195 388.924V337.414C120.195 332.098 124.54 327.749 129.85 327.749H181.306C186.616 327.749 190.96 332.098 190.96 337.414V388.924C190.96 394.24 186.616 398.589 181.306 398.589Z" stroke="#0068FF" stroke-miterlimit="10"/>
<path d="M164.249 381.515H146.906C141.596 381.515 137.252 377.165 137.252 371.85V354.489C137.252 349.173 141.596 344.824 146.906 344.824H164.249C169.559 344.824 173.904 349.173 173.904 354.489V371.85C173.922 377.165 169.559 381.515 164.249 381.515Z" fill="#0068FF"/>
<path d="M216.045 377.13C212.272 377.13 209.179 374.033 209.179 370.257V347.276C209.179 343.499 212.272 340.403 216.045 340.403C219.817 340.403 222.91 343.499 222.91 347.276V370.257C222.91 374.051 219.817 377.13 216.045 377.13Z" fill="#0068FF"/>
<path d="M155.578 526.328C172.335 526.328 185.919 512.729 185.919 495.955C185.919 479.18 172.335 465.582 155.578 465.582C138.821 465.582 125.237 479.18 125.237 495.955C125.237 512.729 138.821 526.328 155.578 526.328Z" stroke="#0068FF" stroke-miterlimit="10"/>
<path d="M516.771 625.34H490.185C485.321 625.34 481.352 621.366 481.352 616.498V589.883C481.352 585.015 485.321 581.042 490.185 581.042H516.771C521.634 581.042 525.603 585.015 525.603 589.883V616.498C525.603 621.366 521.616 625.34 516.771 625.34Z" stroke="white" stroke-miterlimit="10"/>
<path d="M404.955 657.377C437.728 657.377 464.296 630.781 464.296 597.973C464.296 565.166 437.728 538.57 404.955 538.57C372.182 538.57 345.615 565.166 345.615 597.973C345.615 630.781 372.182 657.377 404.955 657.377Z" fill="white"/>
<path d="M309.034 601.732C314.741 601.732 319.368 597.1 319.368 591.387C319.368 585.674 314.741 581.042 309.034 581.042C303.327 581.042 298.7 585.674 298.7 591.387C298.7 597.1 303.327 601.732 309.034 601.732Z" fill="white"/>
<path d="M309.034 627.756C314.741 627.756 319.368 623.124 319.368 617.411C319.368 611.697 314.741 607.066 309.034 607.066C303.327 607.066 298.7 611.697 298.7 617.411C298.7 623.124 303.327 627.756 309.034 627.756Z" fill="white"/>
<path d="M122.984 330.63L140.041 347.705" stroke="#0068FF" stroke-miterlimit="10"/>
<path d="M188.529 330.63L171.472 347.705" stroke="#0068FF" stroke-miterlimit="10"/>
<path d="M122.984 396.173L140.041 379.098" stroke="#0068FF" stroke-miterlimit="10"/>
<path d="M187.563 396.173L170.507 379.098" stroke="#0068FF" stroke-miterlimit="10"/>
<path d="M107.608 409.793C107.608 409.793 174.065 413.713 195.18 409.793C195.18 409.793 209.179 406.608 209.179 417.597V793.957" stroke="#0068FF" stroke-miterlimit="10"/>
<path d="M149.159 362.059C151.796 362.059 153.933 359.92 153.933 357.281C153.933 354.641 151.796 352.502 149.159 352.502C146.523 352.502 144.385 354.641 144.385 357.281C144.385 359.92 146.523 362.059 149.159 362.059Z" fill="white"/>
<path d="M404.955 649.806C433.551 649.806 456.733 626.6 456.733 597.973C456.733 569.347 433.551 546.141 404.955 546.141C376.359 546.141 353.177 569.347 353.177 597.973C353.177 626.6 376.359 649.806 404.955 649.806Z" fill="#0068FF"/>
<path d="M424.551 628.579H385.36C379.334 628.579 374.4 623.639 374.4 617.608V578.375C374.4 572.343 379.334 567.404 385.36 567.404H424.551C430.576 567.404 435.51 572.343 435.51 578.375V617.608C435.51 623.639 430.576 628.579 424.551 628.579Z" stroke="white" stroke-miterlimit="10"/>
<path d="M430.54 634.575H379.37C373.345 634.575 368.41 629.635 368.41 623.603V572.379C368.41 566.348 373.345 561.408 379.37 561.408H430.54C436.565 561.408 441.5 566.348 441.5 572.379V623.603C441.5 629.635 436.565 634.575 430.54 634.575Z" stroke="white" stroke-miterlimit="10"/>
<path d="M371.521 564.737L377.582 570.804" stroke="white" stroke-miterlimit="10"/>
<path d="M371.521 630.798L377.582 624.731" stroke="white" stroke-miterlimit="10"/>
<path d="M407.941 611.952H401.951C395.926 611.952 390.991 607.012 390.991 600.98V594.984C390.991 588.953 395.926 584.013 401.951 584.013H407.941C413.966 584.013 418.901 588.953 418.901 594.984V600.98C418.901 607.012 413.966 611.952 407.941 611.952Z" stroke="white" stroke-width="0.5" stroke-miterlimit="10"/>
<path d="M400.36 596.38C401.96 596.38 403.257 595.082 403.257 593.481C403.257 591.88 401.96 590.582 400.36 590.582C398.761 590.582 397.464 591.88 397.464 593.481C397.464 595.082 398.761 596.38 400.36 596.38Z" fill="white"/>
<path d="M438.55 564.737L432.471 570.804" stroke="white" stroke-miterlimit="10"/>
<path d="M438.55 630.798L432.471 624.731" stroke="white" stroke-miterlimit="10"/>
<path d="M216.045 368.234C219.461 368.234 222.231 365.462 222.231 362.041C222.231 358.621 219.461 355.849 216.045 355.849C212.628 355.849 209.859 358.621 209.859 362.041C209.859 365.462 212.628 368.234 216.045 368.234Z" fill="white"/>
<mask id="mask0_2_151" style="mask-type:luminance" maskUnits="userSpaceOnUse" x="499" y="318" width="121" height="56">
<path d="M598.211 372.773H520.974C509.45 372.773 500.019 363.333 500.019 351.795V340.43C500.019 328.893 509.45 319.453 520.974 319.453H598.211C609.735 319.453 619.166 328.893 619.166 340.43V351.795C619.166 363.333 609.735 372.773 598.211 372.773Z" fill="white" stroke="white"/>
</mask>
<g mask="url(#mask0_2_151)">
<path d="M499.143 318.953V373.273" stroke="#0068FF" stroke-miterlimit="10"/>
<path d="M507.296 318.953V373.273" stroke="#0068FF" stroke-miterlimit="10"/>
<path d="M515.449 318.953V373.273" stroke="#0068FF" stroke-miterlimit="10"/>
<path d="M523.602 318.953V373.273" stroke="#0068FF" stroke-miterlimit="10"/>
<path d="M531.755 318.953V373.273" stroke="#0068FF" stroke-miterlimit="10"/>
<path d="M539.908 318.953V373.273" stroke="#0068FF" stroke-miterlimit="10"/>
<path d="M548.06 318.953V373.273" stroke="#0068FF" stroke-miterlimit="10"/>
<path d="M556.213 318.953V373.273" stroke="#0068FF" stroke-miterlimit="10"/>
<path d="M564.366 318.953V373.273" stroke="#0068FF" stroke-miterlimit="10"/>
<path d="M572.519 318.953V373.273" stroke="#0068FF" stroke-miterlimit="10"/>
<path d="M580.672 318.953V373.273" stroke="#0068FF" stroke-miterlimit="10"/>
<path d="M588.825 318.953V373.273" stroke="#0068FF" stroke-miterlimit="10"/>
<path d="M596.978 318.953V373.273" stroke="#0068FF" stroke-miterlimit="10"/>
<path d="M605.13 318.953V373.273" stroke="#0068FF" stroke-miterlimit="10"/>
<path d="M613.283 318.953V373.273" stroke="#0068FF" stroke-miterlimit="10"/>
</g>
<path d="M598.211 373.487H520.974C509.173 373.487 499.519 363.822 499.519 352.009V340.644C499.519 328.831 509.173 319.166 520.974 319.166H598.211C610.011 319.166 619.666 328.831 619.666 340.644V352.009C619.666 363.822 610.011 373.487 598.211 373.487Z" stroke="#0068FF" stroke-miterlimit="10"/>
<path d="M605.238 381.63H513.929C502.129 381.63 492.474 371.966 492.474 360.153V332.5C492.474 320.688 502.129 311.023 513.929 311.023H605.238C617.038 311.023 626.693 320.688 626.693 332.5V360.153C626.693 371.966 617.038 381.63 605.238 381.63Z" stroke="#0068FF" stroke-miterlimit="10"/>
</g>
<defs>
<clipPath id="clip0_2_151">
<rect width="725" height="144" fill="white" transform="translate(0 775)"/>
</clipPath>
<clipPath id="clip1_2_151">
<rect width="597" height="805" fill="white" transform="translate(63)"/>
</clipPath>
</defs>
</svg>
