<svg width="85" height="93" viewBox="0 0 85 93" fill="none" xmlns="http://www.w3.org/2000/svg">
<g clip-path="url(#clip0_1_73)">
<path d="M42.5579 17.8615L42.6037 19.4979C42.6051 27.3728 44.863 34.5483 48.5248 39.7686C52.1838 44.9851 57.2785 48.2882 62.9412 48.2923L73.3193 48.7365L62.6764 49.1943C57.0136 49.1985 51.919 52.5059 48.2601 57.7242C45.0144 62.3532 42.8716 68.5169 42.4257 75.3364C41.9801 68.5103 39.8372 62.3459 36.591 57.718C32.932 52.5015 27.8373 49.1985 22.1746 49.1943L11.664 48.7472L22.1747 48.2923C27.8373 48.2881 32.932 44.9851 36.591 39.7686C40.2528 34.5483 42.5107 27.3728 42.5121 19.4979L42.5579 17.8615Z" fill="white" stroke="#0068FF"/>
</g>
<defs>
<clipPath id="clip0_1_73">
<rect width="85" height="93" fill="white"/>
</clipPath>
</defs>
</svg>
